ISO-10303-21;
HEADER;
/* Generated by software containing ST-Developer
 * from STEP Tools, Inc. (www.steptools.com) 
 */

FILE_DESCRIPTION(
/* description */ ('STEP AP203'),
/* implementation_level */ '2;1');

FILE_NAME(
/* name */ 'BoltCap.step',
/* time_stamp */ '2026-07-21T21:53:47+02:00',
/* author */ (''),
/* organization */ (''),
/* preprocessor_version */ 'ST-DEVELOPER v20.1',
/* originating_system */ 'Autodesk Translation Framework v15.8.0.0',
/* authorisation */ '');

FILE_SCHEMA (('AUTOMOTIVE_DESIGN { 1 0 10303 214 3 1 1 }'));
ENDSEC;

DATA;
#10=MECHANICAL_DESIGN_GEOMETRIC_PRESENTATION_REPRESENTATION('',(#13),#548);
#11=SHAPE_REPRESENTATION_RELATIONSHIP('SRR','None',#554,#12);
#12=ADVANCED_BREP_SHAPE_REPRESENTATION('',(#14),#547);
#13=STYLED_ITEM('',(#563),#14);
#14=MANIFOLD_SOLID_BREP('BoltCap',#328);
#15=FACE_BOUND('',#132,.T.);
#16=PLANE('',#348);
#17=PLANE('',#349);
#18=PLANE('',#350);
#19=PLANE('',#351);
#20=PLANE('',#352);
#21=PLANE('',#353);
#22=PLANE('',#354);
#23=PLANE('',#355);
#24=PLANE('',#356);
#25=PLANE('',#357);
#26=PLANE('',#358);
#27=PLANE('',#359);
#28=ELLIPSE('',#339,1.41421356237309,1.);
#29=ELLIPSE('',#344,1.4142135623731,1.);
#30=LINE('',#472,#63);
#31=LINE('',#474,#64);
#32=LINE('',#477,#65);
#33=LINE('',#478,#66);
#34=LINE('',#483,#67);
#35=LINE('',#484,#68);
#36=LINE('',#487,#69);
#37=LINE('',#489,#70);
#38=LINE('',#492,#71);
#39=LINE('',#493,#72);
#40=LINE('',#498,#73);
#41=LINE('',#499,#74);
#42=LINE('',#501,#75);
#43=LINE('',#504,#76);
#44=LINE('',#506,#77);
#45=LINE('',#507,#78);
#46=LINE('',#510,#79);
#47=LINE('',#512,#80);
#48=LINE('',#514,#81);
#49=LINE('',#515,#82);
#50=LINE('',#520,#83);
#51=LINE('',#522,#84);
#52=LINE('',#524,#85);
#53=LINE('',#525,#86);
#54=LINE('',#528,#87);
#55=LINE('',#530,#88);
#56=LINE('',#531,#89);
#57=LINE('',#533,#90);
#58=LINE('',#534,#91);
#59=LINE('',#536,#92);
#60=LINE('',#538,#93);
#61=LINE('',#541,#94);
#62=LINE('',#543,#95);
#63=VECTOR('',#380,10.);
#64=VECTOR('',#381,10.);
#65=VECTOR('',#386,10.);
#66=VECTOR('',#387,10.);
#67=VECTOR('',#392,10.);
#68=VECTOR('',#393,10.);
#69=VECTOR('',#396,10.);
#70=VECTOR('',#397,10.);
#71=VECTOR('',#402,10.);
#72=VECTOR('',#403,10.);
#73=VECTOR('',#408,10.);
#74=VECTOR('',#409,10.);
#75=VECTOR('',#412,10.);
#76=VECTOR('',#415,10.);
#77=VECTOR('',#416,10.);
#78=VECTOR('',#417,10.);
#79=VECTOR('',#418,10.);
#80=VECTOR('',#419,10.);
#81=VECTOR('',#420,10.);
#82=VECTOR('',#421,10.);
#83=VECTOR('',#426,10.);
#84=VECTOR('',#427,10.);
#85=VECTOR('',#428,10.);
#86=VECTOR('',#429,10.);
#87=VECTOR('',#432,10.);
#88=VECTOR('',#433,10.);
#89=VECTOR('',#434,10.);
#90=VECTOR('',#437,10.);
#91=VECTOR('',#438,10.);
#92=VECTOR('',#441,10.);
#93=VECTOR('',#444,10.);
#94=VECTOR('',#449,10.);
#95=VECTOR('',#452,10.);
#96=CYLINDRICAL_SURFACE('',#338,1.);
#97=CYLINDRICAL_SURFACE('',#340,1.);
#98=CYLINDRICAL_SURFACE('',#341,1.);
#99=CYLINDRICAL_SURFACE('',#343,1.);
#100=CYLINDRICAL_SURFACE('',#345,1.);
#101=CYLINDRICAL_SURFACE('',#346,1.);
#102=FACE_OUTER_BOUND('',#122,.T.);
#103=FACE_OUTER_BOUND('',#123,.T.);
#104=FACE_OUTER_BOUND('',#124,.T.);
#105=FACE_OUTER_BOUND('',#125,.T.);
#106=FACE_OUTER_BOUND('',#126,.T.);
#107=FACE_OUTER_BOUND('',#127,.T.);
#108=FACE_OUTER_BOUND('',#128,.T.);
#109=FACE_OUTER_BOUND('',#129,.T.);
#110=FACE_OUTER_BOUND('',#130,.T.);
#111=FACE_OUTER_BOUND('',#131,.T.);
#112=FACE_OUTER_BOUND('',#133,.T.);
#113=FACE_OUTER_BOUND('',#134,.T.);
#114=FACE_OUTER_BOUND('',#135,.T.);
#115=FACE_OUTER_BOUND('',#136,.T.);
#116=FACE_OUTER_BOUND('',#137,.T.);
#117=FACE_OUTER_BOUND('',#138,.T.);
#118=FACE_OUTER_BOUND('',#139,.T.);
#119=FACE_OUTER_BOUND('',#140,.T.);
#120=FACE_OUTER_BOUND('',#141,.T.);
#121=FACE_OUTER_BOUND('',#142,.T.);
#122=EDGE_LOOP('',(#220,#221,#222));
#123=EDGE_LOOP('',(#223,#224,#225));
#124=EDGE_LOOP('',(#226,#227,#228,#229));
#125=EDGE_LOOP('',(#230,#231,#232,#233));
#126=EDGE_LOOP('',(#234,#235,#236,#237));
#127=EDGE_LOOP('',(#238,#239,#240,#241));
#128=EDGE_LOOP('',(#242,#243,#244,#245));
#129=EDGE_LOOP('',(#246,#247,#248,#249));
#130=EDGE_LOOP('',(#250,#251,#252,#253));
#131=EDGE_LOOP('',(#254,#255,#256,#257,#258,#259));
#132=EDGE_LOOP('',(#260,#261,#262,#263));
#133=EDGE_LOOP('',(#264,#265,#266,#267));
#134=EDGE_LOOP('',(#268,#269,#270,#271));
#135=EDGE_LOOP('',(#272,#273,#274,#275));
#136=EDGE_LOOP('',(#276,#277,#278,#279));
#137=EDGE_LOOP('',(#280,#281,#282,#283,#284));
#138=EDGE_LOOP('',(#285,#286,#287,#288));
#139=EDGE_LOOP('',(#289,#290,#291,#292,#293));
#140=EDGE_LOOP('',(#294,#295,#296,#297));
#141=EDGE_LOOP('',(#298,#299,#300,#301));
#142=EDGE_LOOP('',(#302,#303,#304,#305));
#143=CIRCLE('',#331,1.);
#144=CIRCLE('',#332,0.999999999999996);
#145=CIRCLE('',#333,0.999999999999996);
#146=CIRCLE('',#335,1.00000000000001);
#147=CIRCLE('',#336,1.);
#148=CIRCLE('',#337,0.999999999999996);
#149=CIRCLE('',#342,1.);
#150=CIRCLE('',#347,1.);
#151=VERTEX_POINT('',#457);
#152=VERTEX_POINT('',#458);
#153=VERTEX_POINT('',#460);
#154=VERTEX_POINT('',#464);
#155=VERTEX_POINT('',#465);
#156=VERTEX_POINT('',#467);
#157=VERTEX_POINT('',#471);
#158=VERTEX_POINT('',#473);
#159=VERTEX_POINT('',#480);
#160=VERTEX_POINT('',#481);
#161=VERTEX_POINT('',#486);
#162=VERTEX_POINT('',#488);
#163=VERTEX_POINT('',#495);
#164=VERTEX_POINT('',#496);
#165=VERTEX_POINT('',#503);
#166=VERTEX_POINT('',#505);
#167=VERTEX_POINT('',#508);
#168=VERTEX_POINT('',#509);
#169=VERTEX_POINT('',#511);
#170=VERTEX_POINT('',#513);
#171=VERTEX_POINT('',#518);
#172=VERTEX_POINT('',#519);
#173=VERTEX_POINT('',#521);
#174=VERTEX_POINT('',#523);
#175=VERTEX_POINT('',#527);
#176=VERTEX_POINT('',#529);
#177=EDGE_CURVE('',#151,#152,#143,.F.);
#178=EDGE_CURVE('',#153,#151,#144,.F.);
#179=EDGE_CURVE('',#152,#153,#145,.F.);
#180=EDGE_CURVE('',#154,#155,#146,.F.);
#181=EDGE_CURVE('',#156,#154,#147,.F.);
#182=EDGE_CURVE('',#155,#156,#148,.F.);
#183=EDGE_CURVE('',#157,#156,#30,.T.);
#184=EDGE_CURVE('',#154,#158,#31,.T.);
#185=EDGE_CURVE('',#158,#157,#28,.T.);
#186=EDGE_CURVE('',#156,#151,#32,.T.);
#187=EDGE_CURVE('',#152,#155,#33,.T.);
#188=EDGE_CURVE('',#159,#160,#149,.T.);
#189=EDGE_CURVE('',#160,#154,#34,.T.);
#190=EDGE_CURVE('',#155,#159,#35,.T.);
#191=EDGE_CURVE('',#161,#157,#36,.T.);
#192=EDGE_CURVE('',#158,#162,#37,.T.);
#193=EDGE_CURVE('',#162,#161,#29,.T.);
#194=EDGE_CURVE('',#162,#153,#38,.T.);
#195=EDGE_CURVE('',#151,#161,#39,.T.);
#196=EDGE_CURVE('',#163,#164,#150,.T.);
#197=EDGE_CURVE('',#164,#152,#40,.T.);
#198=EDGE_CURVE('',#153,#163,#41,.T.);
#199=EDGE_CURVE('',#159,#164,#42,.T.);
#200=EDGE_CURVE('',#163,#165,#43,.T.);
#201=EDGE_CURVE('',#165,#166,#44,.T.);
#202=EDGE_CURVE('',#166,#160,#45,.T.);
#203=EDGE_CURVE('',#167,#168,#46,.T.);
#204=EDGE_CURVE('',#168,#169,#47,.T.);
#205=EDGE_CURVE('',#169,#170,#48,.T.);
#206=EDGE_CURVE('',#170,#167,#49,.T.);
#207=EDGE_CURVE('',#171,#172,#50,.T.);
#208=EDGE_CURVE('',#173,#171,#51,.T.);
#209=EDGE_CURVE('',#174,#173,#52,.T.);
#210=EDGE_CURVE('',#172,#174,#53,.T.);
#211=EDGE_CURVE('',#171,#175,#54,.T.);
#212=EDGE_CURVE('',#175,#176,#55,.T.);
#213=EDGE_CURVE('',#173,#176,#56,.T.);
#214=EDGE_CURVE('',#167,#172,#57,.T.);
#215=EDGE_CURVE('',#168,#174,#58,.T.);
#216=EDGE_CURVE('',#169,#176,#59,.T.);
#217=EDGE_CURVE('',#170,#175,#60,.T.);
#218=EDGE_CURVE('',#162,#165,#61,.T.);
#219=EDGE_CURVE('',#158,#166,#62,.T.);
#220=ORIENTED_EDGE('',*,*,#177,.F.);
#221=ORIENTED_EDGE('',*,*,#178,.F.);
#222=ORIENTED_EDGE('',*,*,#179,.F.);
#223=ORIENTED_EDGE('',*,*,#180,.F.);
#224=ORIENTED_EDGE('',*,*,#181,.F.);
#225=ORIENTED_EDGE('',*,*,#182,.F.);
#226=ORIENTED_EDGE('',*,*,#183,.T.);
#227=ORIENTED_EDGE('',*,*,#181,.T.);
#228=ORIENTED_EDGE('',*,*,#184,.T.);
#229=ORIENTED_EDGE('',*,*,#185,.T.);
#230=ORIENTED_EDGE('',*,*,#182,.T.);
#231=ORIENTED_EDGE('',*,*,#186,.T.);
#232=ORIENTED_EDGE('',*,*,#177,.T.);
#233=ORIENTED_EDGE('',*,*,#187,.T.);
#234=ORIENTED_EDGE('',*,*,#188,.T.);
#235=ORIENTED_EDGE('',*,*,#189,.T.);
#236=ORIENTED_EDGE('',*,*,#180,.T.);
#237=ORIENTED_EDGE('',*,*,#190,.T.);
#238=ORIENTED_EDGE('',*,*,#191,.T.);
#239=ORIENTED_EDGE('',*,*,#185,.F.);
#240=ORIENTED_EDGE('',*,*,#192,.T.);
#241=ORIENTED_EDGE('',*,*,#193,.T.);
#242=ORIENTED_EDGE('',*,*,#194,.T.);
#243=ORIENTED_EDGE('',*,*,#178,.T.);
#244=ORIENTED_EDGE('',*,*,#195,.T.);
#245=ORIENTED_EDGE('',*,*,#193,.F.);
#246=ORIENTED_EDGE('',*,*,#196,.T.);
#247=ORIENTED_EDGE('',*,*,#197,.T.);
#248=ORIENTED_EDGE('',*,*,#179,.T.);
#249=ORIENTED_EDGE('',*,*,#198,.T.);
#250=ORIENTED_EDGE('',*,*,#190,.F.);
#251=ORIENTED_EDGE('',*,*,#187,.F.);
#252=ORIENTED_EDGE('',*,*,#197,.F.);
#253=ORIENTED_EDGE('',*,*,#199,.F.);
#254=ORIENTED_EDGE('',*,*,#188,.F.);
#255=ORIENTED_EDGE('',*,*,#199,.T.);
#256=ORIENTED_EDGE('',*,*,#196,.F.);
#257=ORIENTED_EDGE('',*,*,#200,.T.);
#258=ORIENTED_EDGE('',*,*,#201,.T.);
#259=ORIENTED_EDGE('',*,*,#202,.T.);
#260=ORIENTED_EDGE('',*,*,#203,.T.);
#261=ORIENTED_EDGE('',*,*,#204,.T.);
#262=ORIENTED_EDGE('',*,*,#205,.T.);
#263=ORIENTED_EDGE('',*,*,#206,.T.);
#264=ORIENTED_EDGE('',*,*,#183,.F.);
#265=ORIENTED_EDGE('',*,*,#191,.F.);
#266=ORIENTED_EDGE('',*,*,#195,.F.);
#267=ORIENTED_EDGE('',*,*,#186,.F.);
#268=ORIENTED_EDGE('',*,*,#207,.F.);
#269=ORIENTED_EDGE('',*,*,#208,.F.);
#270=ORIENTED_EDGE('',*,*,#209,.F.);
#271=ORIENTED_EDGE('',*,*,#210,.F.);
#272=ORIENTED_EDGE('',*,*,#211,.T.);
#273=ORIENTED_EDGE('',*,*,#212,.T.);
#274=ORIENTED_EDGE('',*,*,#213,.F.);
#275=ORIENTED_EDGE('',*,*,#208,.T.);
#276=ORIENTED_EDGE('',*,*,#203,.F.);
#277=ORIENTED_EDGE('',*,*,#214,.T.);
#278=ORIENTED_EDGE('',*,*,#210,.T.);
#279=ORIENTED_EDGE('',*,*,#215,.F.);
#280=ORIENTED_EDGE('',*,*,#204,.F.);
#281=ORIENTED_EDGE('',*,*,#215,.T.);
#282=ORIENTED_EDGE('',*,*,#209,.T.);
#283=ORIENTED_EDGE('',*,*,#213,.T.);
#284=ORIENTED_EDGE('',*,*,#216,.F.);
#285=ORIENTED_EDGE('',*,*,#205,.F.);
#286=ORIENTED_EDGE('',*,*,#216,.T.);
#287=ORIENTED_EDGE('',*,*,#212,.F.);
#288=ORIENTED_EDGE('',*,*,#217,.F.);
#289=ORIENTED_EDGE('',*,*,#206,.F.);
#290=ORIENTED_EDGE('',*,*,#217,.T.);
#291=ORIENTED_EDGE('',*,*,#211,.F.);
#292=ORIENTED_EDGE('',*,*,#207,.T.);
#293=ORIENTED_EDGE('',*,*,#214,.F.);
#294=ORIENTED_EDGE('',*,*,#194,.F.);
#295=ORIENTED_EDGE('',*,*,#218,.T.);
#296=ORIENTED_EDGE('',*,*,#200,.F.);
#297=ORIENTED_EDGE('',*,*,#198,.F.);
#298=ORIENTED_EDGE('',*,*,#192,.F.);
#299=ORIENTED_EDGE('',*,*,#219,.T.);
#300=ORIENTED_EDGE('',*,*,#201,.F.);
#301=ORIENTED_EDGE('',*,*,#218,.F.);
#302=ORIENTED_EDGE('',*,*,#189,.F.);
#303=ORIENTED_EDGE('',*,*,#202,.F.);
#304=ORIENTED_EDGE('',*,*,#219,.F.);
#305=ORIENTED_EDGE('',*,*,#184,.F.);
#306=SPHERICAL_SURFACE('',#330,0.999999999999996);
#307=SPHERICAL_SURFACE('',#334,1.);
#308=ADVANCED_FACE('',(#102),#306,.T.);
#309=ADVANCED_FACE('',(#103),#307,.T.);
#310=ADVANCED_FACE('',(#104),#96,.T.);
#311=ADVANCED_FACE('',(#105),#97,.T.);
#312=ADVANCED_FACE('',(#106),#98,.T.);
#313=ADVANCED_FACE('',(#107),#99,.T.);
#314=ADVANCED_FACE('',(#108),#100,.T.);
#315=ADVANCED_FACE('',(#109),#101,.T.);
#316=ADVANCED_FACE('',(#110),#16,.F.);
#317=ADVANCED_FACE('',(#111,#15),#17,.F.);
#318=ADVANCED_FACE('',(#112),#18,.T.);
#319=ADVANCED_FACE('',(#113),#19,.T.);
#320=ADVANCED_FACE('',(#114),#20,.T.);
#321=ADVANCED_FACE('',(#115),#21,.T.);
#322=ADVANCED_FACE('',(#116),#22,.T.);
#323=ADVANCED_FACE('',(#117),#23,.T.);
#324=ADVANCED_FACE('',(#118),#24,.T.);
#325=ADVANCED_FACE('',(#119),#25,.F.);
#326=ADVANCED_FACE('',(#120),#26,.F.);
#327=ADVANCED_FACE('',(#121),#27,.F.);
#328=CLOSED_SHELL('',(#308,#309,#310,#311,#312,#313,#314,#315,#316,#317,
#318,#319,#320,#321,#322,#323,#324,#325,#326,#327));
#329=AXIS2_PLACEMENT_3D('',#455,#360,#361);
#330=AXIS2_PLACEMENT_3D('',#456,#362,#363);
#331=AXIS2_PLACEMENT_3D('',#459,#364,#365);
#332=AXIS2_PLACEMENT_3D('',#461,#366,#367);
#333=AXIS2_PLACEMENT_3D('',#462,#368,#369);
#334=AXIS2_PLACEMENT_3D('',#463,#370,#371);
#335=AXIS2_PLACEMENT_3D('',#466,#372,#373);
#336=AXIS2_PLACEMENT_3D('',#468,#374,#375);
#337=AXIS2_PLACEMENT_3D('',#469,#376,#377);
#338=AXIS2_PLACEMENT_3D('',#470,#378,#379);
#339=AXIS2_PLACEMENT_3D('',#475,#382,#383);
#340=AXIS2_PLACEMENT_3D('',#476,#384,#385);
#341=AXIS2_PLACEMENT_3D('',#479,#388,#389);
#342=AXIS2_PLACEMENT_3D('',#482,#390,#391);
#343=AXIS2_PLACEMENT_3D('',#485,#394,#395);
#344=AXIS2_PLACEMENT_3D('',#490,#398,#399);
#345=AXIS2_PLACEMENT_3D('',#491,#400,#401);
#346=AXIS2_PLACEMENT_3D('',#494,#404,#405);
#347=AXIS2_PLACEMENT_3D('',#497,#406,#407);
#348=AXIS2_PLACEMENT_3D('',#500,#410,#411);
#349=AXIS2_PLACEMENT_3D('',#502,#413,#414);
#350=AXIS2_PLACEMENT_3D('',#516,#422,#423);
#351=AXIS2_PLACEMENT_3D('',#517,#424,#425);
#352=AXIS2_PLACEMENT_3D('',#526,#430,#431);
#353=AXIS2_PLACEMENT_3D('',#532,#435,#436);
#354=AXIS2_PLACEMENT_3D('',#535,#439,#440);
#355=AXIS2_PLACEMENT_3D('',#537,#442,#443);
#356=AXIS2_PLACEMENT_3D('',#539,#445,#446);
#357=AXIS2_PLACEMENT_3D('',#540,#447,#448);
#358=AXIS2_PLACEMENT_3D('',#542,#450,#451);
#359=AXIS2_PLACEMENT_3D('',#544,#453,#454);
#360=DIRECTION('axis',(0.,0.,1.));
#361=DIRECTION('refdir',(1.,0.,0.));
#362=DIRECTION('center_axis',(-0.408248290463863,0.40824829046386,-0.816496580927727));
#363=DIRECTION('ref_axis',(-0.577350269189628,0.577350269189625,0.577350269189625));
#364=DIRECTION('center_axis',(0.,0.,1.));
#365=DIRECTION('ref_axis',(-1.,0.,0.));
#366=DIRECTION('center_axis',(0.,1.,0.));
#367=DIRECTION('ref_axis',(0.,0.,1.));
#368=DIRECTION('center_axis',(-1.,0.,0.));
#369=DIRECTION('ref_axis',(0.,1.,0.));
#370=DIRECTION('center_axis',(0.408248290463864,-0.40824829046386,-0.816496580927727));
#371=DIRECTION('ref_axis',(-0.577350269189628,0.577350269189623,-0.577350269189626));
#372=DIRECTION('center_axis',(-1.,0.,0.));
#373=DIRECTION('ref_axis',(0.,0.,-1.));
#374=DIRECTION('center_axis',(0.,1.,0.));
#375=DIRECTION('ref_axis',(-1.,0.,0.));
#376=DIRECTION('center_axis',(4.44089209850062E-15,0.,-1.));
#377=DIRECTION('ref_axis',(0.,1.,0.));
#378=DIRECTION('center_axis',(0.,-1.,0.));
#379=DIRECTION('ref_axis',(-0.707106781186546,0.,-0.707106781186549));
#380=DIRECTION('',(0.,1.,0.));
#381=DIRECTION('',(0.,-1.,0.));
#382=DIRECTION('center_axis',(0.,0.707106781186549,-0.707106781186546));
#383=DIRECTION('ref_axis',(0.,0.707106781186546,0.707106781186549));
#384=DIRECTION('center_axis',(0.,0.,-1.));
#385=DIRECTION('ref_axis',(-0.707106781186549,0.707106781186546,0.));
#386=DIRECTION('',(0.,0.,1.));
#387=DIRECTION('',(0.,0.,-1.));
#388=DIRECTION('center_axis',(1.,0.,0.));
#389=DIRECTION('ref_axis',(0.,0.707106781186544,-0.707106781186551));
#390=DIRECTION('center_axis',(-1.,0.,0.));
#391=DIRECTION('ref_axis',(0.,0.707106781186544,-0.707106781186551));
#392=DIRECTION('',(-1.,0.,0.));
#393=DIRECTION('',(1.,0.,0.));
#394=DIRECTION('center_axis',(0.,0.,1.));
#395=DIRECTION('ref_axis',(-0.707106781186549,-0.707106781186546,0.));
#396=DIRECTION('',(0.,0.,-1.));
#397=DIRECTION('',(0.,0.,1.));
#398=DIRECTION('center_axis',(0.,-0.707106781186548,-0.707106781186548));
#399=DIRECTION('ref_axis',(0.,0.707106781186548,-0.707106781186548));
#400=DIRECTION('center_axis',(0.,1.,0.));
#401=DIRECTION('ref_axis',(-0.707106781186549,0.,0.707106781186546));
#402=DIRECTION('',(0.,1.,0.));
#403=DIRECTION('',(0.,-1.,0.));
#404=DIRECTION('center_axis',(1.,0.,0.));
#405=DIRECTION('ref_axis',(0.,0.707106781186548,0.707106781186548));
#406=DIRECTION('center_axis',(-1.,0.,0.));
#407=DIRECTION('ref_axis',(0.,0.707106781186548,0.707106781186548));
#408=DIRECTION('',(-1.,0.,0.));
#409=DIRECTION('',(1.,0.,0.));
#410=DIRECTION('center_axis',(0.,-1.,0.));
#411=DIRECTION('ref_axis',(-1.,0.,0.));
#412=DIRECTION('',(0.,0.,1.));
#413=DIRECTION('center_axis',(-1.,0.,0.));
#414=DIRECTION('ref_axis',(0.,0.,-1.));
#415=DIRECTION('',(0.,-1.,0.));
#416=DIRECTION('',(0.,0.,-1.));
#417=DIRECTION('',(0.,1.,0.));
#418=DIRECTION('',(0.,-1.,0.));
#419=DIRECTION('',(0.,0.,1.));
#420=DIRECTION('',(0.,1.,0.));
#421=DIRECTION('',(0.,0.,-1.));
#422=DIRECTION('center_axis',(-1.,0.,0.));
#423=DIRECTION('ref_axis',(0.,0.,-1.));
#424=DIRECTION('center_axis',(0.866025403784439,0.,0.5));
#425=DIRECTION('ref_axis',(-0.5,0.,0.866025403784439));
#426=DIRECTION('',(0.5,0.,-0.866025403784439));
#427=DIRECTION('',(0.,1.,0.));
#428=DIRECTION('',(-0.5,0.,0.866025403784439));
#429=DIRECTION('',(0.,-1.,0.));
#430=DIRECTION('center_axis',(0.866025403784439,0.,-0.5));
#431=DIRECTION('ref_axis',(0.5,0.,0.866025403784439));
#432=DIRECTION('',(0.5,0.,0.866025403784439));
#433=DIRECTION('',(0.,-1.,0.));
#434=DIRECTION('',(0.5,0.,0.866025403784439));
#435=DIRECTION('center_axis',(0.,0.,-1.));
#436=DIRECTION('ref_axis',(0.,1.,0.));
#437=DIRECTION('',(1.,0.,0.));
#438=DIRECTION('',(1.,0.,0.));
#439=DIRECTION('center_axis',(0.,-1.,0.));
#440=DIRECTION('ref_axis',(0.,0.,-1.));
#441=DIRECTION('',(1.,0.,0.));
#442=DIRECTION('center_axis',(0.,0.,1.));
#443=DIRECTION('ref_axis',(0.,-1.,0.));
#444=DIRECTION('',(1.,0.,0.));
#445=DIRECTION('center_axis',(0.,1.,0.));
#446=DIRECTION('ref_axis',(0.,0.,1.));
#447=DIRECTION('center_axis',(0.,0.,-1.));
#448=DIRECTION('ref_axis',(1.,0.,0.));
#449=DIRECTION('',(1.,0.,0.));
#450=DIRECTION('center_axis',(0.,1.,0.));
#451=DIRECTION('ref_axis',(1.,0.,0.));
#452=DIRECTION('',(1.,0.,0.));
#453=DIRECTION('center_axis',(0.,0.,1.));
#454=DIRECTION('ref_axis',(-1.,0.,0.));
#455=CARTESIAN_POINT('',(0.,0.,0.));
#456=CARTESIAN_POINT('Origin',(7.24999999999821,49.0000007450581,45.2500007450581));
#457=CARTESIAN_POINT('',(6.24999999999821,49.0000007450581,45.2500007450581));
#458=CARTESIAN_POINT('',(7.24999999999821,50.0000007450581,45.2500007450581));
#459=CARTESIAN_POINT('Origin',(7.24999999999821,49.0000007450581,45.2500007450581));
#460=CARTESIAN_POINT('',(7.24999999999821,49.0000007450581,46.2500007450581));
#461=CARTESIAN_POINT('Origin',(7.24999999999821,49.0000007450581,45.2500007450581));
#462=CARTESIAN_POINT('Origin',(7.24999999999821,49.0000007450581,45.2500007450581));
#463=CARTESIAN_POINT('Origin',(7.24999999999821,49.0000007450581,28.7500007450581));
#464=CARTESIAN_POINT('',(7.24999999999821,49.0000007450581,27.7500007450581));
#465=CARTESIAN_POINT('',(7.24999999999821,50.0000007450581,28.7500007450581));
#466=CARTESIAN_POINT('Origin',(7.24999999999821,49.0000007450581,28.7500007450581));
#467=CARTESIAN_POINT('',(6.24999999999821,49.0000007450581,28.7500007450581));
#468=CARTESIAN_POINT('Origin',(7.24999999999821,49.0000007450581,28.7500007450581));
#469=CARTESIAN_POINT('Origin',(7.24999999999821,49.0000007450581,28.7500007450581));
#470=CARTESIAN_POINT('Origin',(7.24999999999821,45.2500007450581,28.7500007450581));
#471=CARTESIAN_POINT('',(6.24999999999821,41.5000007450581,28.7500007450581));
#472=CARTESIAN_POINT('',(6.24999999999821,45.2500007450581,28.7500007450581));
#473=CARTESIAN_POINT('',(7.24999999999821,40.5000007450581,27.7500007450581));
#474=CARTESIAN_POINT('',(7.24999999999821,45.2500007450581,27.7500007450581));
#475=CARTESIAN_POINT('Origin',(7.24999999999821,41.5000007450581,28.7500007450581));
#476=CARTESIAN_POINT('Origin',(7.24999999999821,49.0000007450581,37.0000007450581));
#477=CARTESIAN_POINT('',(6.24999999999821,49.0000007450581,37.0000007450581));
#478=CARTESIAN_POINT('',(7.24999999999821,50.0000007450581,37.0000007450581));
#479=CARTESIAN_POINT('Origin',(7.24999999999821,49.0000007450581,28.7500007450581));
#480=CARTESIAN_POINT('',(8.24999999999821,50.0000007450581,28.7500007450581));
#481=CARTESIAN_POINT('',(8.24999999999821,49.0000007450581,27.7500007450581));
#482=CARTESIAN_POINT('Origin',(8.24999999999821,49.0000007450581,28.7500007450581));
#483=CARTESIAN_POINT('',(7.24999999999821,49.0000007450581,27.7500007450581));
#484=CARTESIAN_POINT('',(7.24999999999821,50.0000007450581,28.7500007450581));
#485=CARTESIAN_POINT('Origin',(7.24999999999821,41.5000007450581,37.0000007450581));
#486=CARTESIAN_POINT('',(6.24999999999821,41.5000007450581,45.2500007450581));
#487=CARTESIAN_POINT('',(6.24999999999821,41.5000007450581,37.0000007450581));
#488=CARTESIAN_POINT('',(7.24999999999821,40.5000007450581,46.2500007450581));
#489=CARTESIAN_POINT('',(7.24999999999821,40.5000007450581,37.0000007450581));
#490=CARTESIAN_POINT('Origin',(7.24999999999821,41.5000007450581,45.2500007450581));
#491=CARTESIAN_POINT('Origin',(7.24999999999821,45.2500007450581,45.2500007450581));
#492=CARTESIAN_POINT('',(7.24999999999821,45.2500007450581,46.2500007450581));
#493=CARTESIAN_POINT('',(6.24999999999821,45.2500007450581,45.2500007450581));
#494=CARTESIAN_POINT('Origin',(7.24999999999821,49.0000007450581,45.2500007450581));
#495=CARTESIAN_POINT('',(8.24999999999821,49.0000007450581,46.2500007450581));
#496=CARTESIAN_POINT('',(8.24999999999821,50.0000007450581,45.2500007450581));
#497=CARTESIAN_POINT('Origin',(8.24999999999821,49.0000007450581,45.2500007450581));
#498=CARTESIAN_POINT('',(7.24999999999821,50.0000007450581,45.2500007450581));
#499=CARTESIAN_POINT('',(7.24999999999821,49.0000007450581,46.2500007450581));
#500=CARTESIAN_POINT('Origin',(7.24999999999821,50.0000007450581,37.0000007450581));
#501=CARTESIAN_POINT('',(8.24999999999821,50.0000007450581,37.0000007450581));
#502=CARTESIAN_POINT('Origin',(8.24999999999821,45.2500007450581,37.0000007450581));
#503=CARTESIAN_POINT('',(8.24999999999821,40.5000007450581,46.2500007450581));
#504=CARTESIAN_POINT('',(8.24999999999821,45.2500007450581,46.2500007450581));
#505=CARTESIAN_POINT('',(8.24999999999821,40.5000007450581,27.7500007450581));
#506=CARTESIAN_POINT('',(8.24999999999821,40.5000007450581,37.0000007450581));
#507=CARTESIAN_POINT('',(8.24999999999821,45.2500007450581,27.7500007450581));
#508=CARTESIAN_POINT('',(8.24999999999821,47.7000007450581,30.0500007450581));
#509=CARTESIAN_POINT('',(8.24999999999821,42.7999999880791,30.0500007450581));
#510=CARTESIAN_POINT('',(8.24999999999821,44.0250003665686,30.0500007450581));
#511=CARTESIAN_POINT('',(8.24999999999821,42.7999999880791,43.9500007450581));
#512=CARTESIAN_POINT('',(8.24999999999821,42.7999999880791,40.4750007450581));
#513=CARTESIAN_POINT('',(8.24999999999821,47.7000007450581,43.9500007450581));
#514=CARTESIAN_POINT('',(8.24999999999821,46.4750007450581,43.9500007450581));
#515=CARTESIAN_POINT('',(8.24999999999821,47.7000007450581,33.5250007450581));
#516=CARTESIAN_POINT('Origin',(6.24999999999821,45.2500007450581,37.0000007450581));
#517=CARTESIAN_POINT('Origin',(13.2625843708661,47.7000007450581,30.0500007450581));
#518=CARTESIAN_POINT('',(9.24999999999821,47.7000007450581,37.0000007450581));
#519=CARTESIAN_POINT('',(13.2625843708661,47.7000007450581,30.0500007450581));
#520=CARTESIAN_POINT('',(9.24999999999821,47.7000007450581,37.0000007450581));
#521=CARTESIAN_POINT('',(9.24999999999821,42.8000007450581,37.0000007450581));
#522=CARTESIAN_POINT('',(9.24999999999821,46.4750005558133,37.0000007450581));
#523=CARTESIAN_POINT('',(13.2625843708661,42.8000007450581,30.0500007450581));
#524=CARTESIAN_POINT('',(9.24999999999821,42.8000007450581,37.0000007450581));
#525=CARTESIAN_POINT('',(13.2625843708661,47.7000007450581,30.0500007450581));
#526=CARTESIAN_POINT('Origin',(9.24999999999821,47.7000007450581,37.0000007450581));
#527=CARTESIAN_POINT('',(13.2625843708661,47.7000007450581,43.9500007450581));
#528=CARTESIAN_POINT('',(9.24999999999821,47.7000007450581,37.0000007450581));
#529=CARTESIAN_POINT('',(13.2625843708661,42.8000007450581,43.9500007450581));
#530=CARTESIAN_POINT('',(13.2625843708661,47.7000007450581,43.9500007450581));
#531=CARTESIAN_POINT('',(9.24999999999821,42.8000007450581,37.0000007450581));
#532=CARTESIAN_POINT('Origin',(8.24999999999821,42.7999999880791,30.0500007450581));
#533=CARTESIAN_POINT('',(8.24999999999821,47.7000007450581,30.0500007450581));
#534=CARTESIAN_POINT('',(8.24999999999821,42.7999999880791,30.0500007450581));
#535=CARTESIAN_POINT('Origin',(8.24999999999821,42.7999999880791,43.9500007450581));
#536=CARTESIAN_POINT('',(8.24999999999821,42.7999999880791,43.9500007450581));
#537=CARTESIAN_POINT('Origin',(8.24999999999821,47.7000007450581,43.9500007450581));
#538=CARTESIAN_POINT('',(8.24999999999821,47.7000007450581,43.9500007450581));
#539=CARTESIAN_POINT('Origin',(8.24999999999821,47.7000007450581,30.0500007450581));
#540=CARTESIAN_POINT('Origin',(7.24999999999821,45.2500007450581,46.2500007450581));
#541=CARTESIAN_POINT('',(7.24999999999821,40.5000007450581,46.2500007450581));
#542=CARTESIAN_POINT('Origin',(7.24999999999821,40.5000007450581,37.0000007450581));
#543=CARTESIAN_POINT('',(7.24999999999821,40.5000007450581,27.7500007450581));
#544=CARTESIAN_POINT('Origin',(7.24999999999821,45.2500007450581,27.7500007450581));
#545=UNCERTAINTY_MEASURE_WITH_UNIT(LENGTH_MEASURE(0.01),#549,
'DISTANCE_ACCURACY_VALUE',
'Maximum model space distance between geometric entities at asserted c
onnectivities');
#546=UNCERTAINTY_MEASURE_WITH_UNIT(LENGTH_MEASURE(0.01),#549,
'DISTANCE_ACCURACY_VALUE',
'Maximum model space distance between geometric entities at asserted c
onnectivities');
#547=(
GEOMETRIC_REPRESENTATION_CONTEXT(3)
GLOBAL_UNCERTAINTY_ASSIGNED_CONTEXT((#545))
GLOBAL_UNIT_ASSIGNED_CONTEXT((#549,#550,#551))
REPRESENTATION_CONTEXT('','3D')
);
#548=(
GEOMETRIC_REPRESENTATION_CONTEXT(3)
GLOBAL_UNCERTAINTY_ASSIGNED_CONTEXT((#546))
GLOBAL_UNIT_ASSIGNED_CONTEXT((#549,#550,#551))
REPRESENTATION_CONTEXT('','3D')
);
#549=(
LENGTH_UNIT()
NAMED_UNIT(*)
SI_UNIT(.MILLI.,.METRE.)
);
#550=(
NAMED_UNIT(*)
PLANE_ANGLE_UNIT()
SI_UNIT($,.RADIAN.)
);
#551=(
NAMED_UNIT(*)
SI_UNIT($,.STERADIAN.)
SOLID_ANGLE_UNIT()
);
#552=SHAPE_DEFINITION_REPRESENTATION(#553,#554);
#553=PRODUCT_DEFINITION_SHAPE('',$,#556);
#554=SHAPE_REPRESENTATION('',(#329),#547);
#555=PRODUCT_DEFINITION_CONTEXT('part definition',#560,'design');
#556=PRODUCT_DEFINITION('None','Fume extractor v14',#557,#555);
#557=PRODUCT_DEFINITION_FORMATION('',$,#562);
#558=PRODUCT_RELATED_PRODUCT_CATEGORY('Fume extractor v14',
'Fume extractor v14',(#562));
#559=APPLICATION_PROTOCOL_DEFINITION('international standard',
'automotive_design',2009,#560);
#560=APPLICATION_CONTEXT(
'Core Data for Automotive Mechanical Design Process');
#561=PRODUCT_CONTEXT('part definition',#560,'mechanical');
#562=PRODUCT('None','Fume extractor v14','STEP AP203',(#561));
#563=PRESENTATION_STYLE_ASSIGNMENT((#564));
#564=SURFACE_STYLE_USAGE(.BOTH.,#565);
#565=SURFACE_SIDE_STYLE('',(#566));
#566=SURFACE_STYLE_FILL_AREA(#567);
#567=FILL_AREA_STYLE('Acciaio - Satinato',(#568));
#568=FILL_AREA_STYLE_COLOUR('Acciaio - Satinato',#569);
#569=COLOUR_RGB('Acciaio - Satinato',0.627450980392157,0.627450980392157,
0.627450980392157);
ENDSEC;
END-ISO-10303-21;
