ISO-10303-21;
HEADER;
/* Generated by software containing ST-Developer
 * from STEP Tools, Inc. (www.steptools.com) 
 */

FILE_DESCRIPTION(
/* description */ (''),
/* implementation_level */ '2;1');

FILE_NAME(
/* name */ 'BottomLid.step',
/* time_stamp */ '2026-07-21T21:55:21+02:00',
/* author */ (''),
/* organization */ (''),
/* preprocessor_version */ 'ST-DEVELOPER v20.1',
/* originating_system */ 'Autodesk Translation Framework v15.8.0.0',
/* authorisation */ '');

FILE_SCHEMA (('AUTOMOTIVE_DESIGN { 1 0 10303 214 3 1 1 }'));
ENDSEC;

DATA;
#10=MECHANICAL_DESIGN_GEOMETRIC_PRESENTATION_REPRESENTATION('',(#13),#1581);
#11=SHAPE_REPRESENTATION_RELATIONSHIP('SRR','None',#1587,#12);
#12=ADVANCED_BREP_SHAPE_REPRESENTATION('',(#14),#1580);
#13=STYLED_ITEM('',(#1596),#14);
#14=MANIFOLD_SOLID_BREP('BottomLid',#965);
#15=CYLINDRICAL_SURFACE('',#990,3.45);
#16=CYLINDRICAL_SURFACE('',#994,3.45000000000001);
#17=CYLINDRICAL_SURFACE('',#1005,3.45);
#18=CYLINDRICAL_SURFACE('',#1009,3.45000000000001);
#19=CYLINDRICAL_SURFACE('',#1017,4.);
#20=CYLINDRICAL_SURFACE('',#1020,4.);
#21=CYLINDRICAL_SURFACE('',#1024,2.5);
#22=CYLINDRICAL_SURFACE('',#1025,2.5);
#23=CYLINDRICAL_SURFACE('',#1027,2.50000000000001);
#24=CYLINDRICAL_SURFACE('',#1029,2.5);
#25=CYLINDRICAL_SURFACE('',#1036,4.);
#26=CYLINDRICAL_SURFACE('',#1038,4.);
#27=CIRCLE('',#970,2.5);
#28=CIRCLE('',#971,2.5);
#29=CIRCLE('',#982,2.5);
#30=CIRCLE('',#985,2.50000000000001);
#31=CIRCLE('',#991,3.45);
#32=CIRCLE('',#992,3.45);
#33=CIRCLE('',#995,3.45000000000001);
#34=CIRCLE('',#996,3.45000000000001);
#35=CIRCLE('',#999,4.);
#36=CIRCLE('',#1000,4.);
#37=CIRCLE('',#1002,2.5);
#38=CIRCLE('',#1003,2.5);
#39=CIRCLE('',#1006,3.45);
#40=CIRCLE('',#1007,3.45);
#41=CIRCLE('',#1010,3.45000000000001);
#42=CIRCLE('',#1011,3.45000000000001);
#43=CIRCLE('',#1014,4.);
#44=CIRCLE('',#1015,4.);
#45=CIRCLE('',#1018,4.);
#46=CIRCLE('',#1021,4.);
#47=CIRCLE('',#1028,2.50000000000001);
#48=CIRCLE('',#1030,2.5);
#49=CIRCLE('',#1034,4.);
#50=CIRCLE('',#1035,4.);
#51=FACE_OUTER_BOUND('',#99,.T.);
#52=FACE_OUTER_BOUND('',#100,.T.);
#53=FACE_OUTER_BOUND('',#101,.T.);
#54=FACE_OUTER_BOUND('',#102,.T.);
#55=FACE_OUTER_BOUND('',#103,.T.);
#56=FACE_OUTER_BOUND('',#104,.T.);
#57=FACE_OUTER_BOUND('',#105,.T.);
#58=FACE_OUTER_BOUND('',#106,.T.);
#59=FACE_OUTER_BOUND('',#107,.T.);
#60=FACE_OUTER_BOUND('',#108,.T.);
#61=FACE_OUTER_BOUND('',#109,.T.);
#62=FACE_OUTER_BOUND('',#110,.T.);
#63=FACE_OUTER_BOUND('',#111,.T.);
#64=FACE_OUTER_BOUND('',#112,.T.);
#65=FACE_OUTER_BOUND('',#113,.T.);
#66=FACE_OUTER_BOUND('',#114,.T.);
#67=FACE_OUTER_BOUND('',#115,.T.);
#68=FACE_OUTER_BOUND('',#116,.T.);
#69=FACE_OUTER_BOUND('',#117,.T.);
#70=FACE_OUTER_BOUND('',#118,.T.);
#71=FACE_OUTER_BOUND('',#119,.T.);
#72=FACE_OUTER_BOUND('',#120,.T.);
#73=FACE_OUTER_BOUND('',#121,.T.);
#74=FACE_OUTER_BOUND('',#122,.T.);
#75=FACE_OUTER_BOUND('',#123,.T.);
#76=FACE_OUTER_BOUND('',#124,.T.);
#77=FACE_OUTER_BOUND('',#125,.T.);
#78=FACE_OUTER_BOUND('',#126,.T.);
#79=FACE_OUTER_BOUND('',#127,.T.);
#80=FACE_OUTER_BOUND('',#128,.T.);
#81=FACE_OUTER_BOUND('',#129,.T.);
#82=FACE_OUTER_BOUND('',#130,.T.);
#83=FACE_OUTER_BOUND('',#131,.T.);
#84=FACE_OUTER_BOUND('',#132,.T.);
#85=FACE_OUTER_BOUND('',#133,.T.);
#86=FACE_OUTER_BOUND('',#134,.T.);
#87=FACE_OUTER_BOUND('',#135,.T.);
#88=FACE_OUTER_BOUND('',#136,.T.);
#89=FACE_OUTER_BOUND('',#137,.T.);
#90=FACE_OUTER_BOUND('',#138,.T.);
#91=FACE_OUTER_BOUND('',#139,.T.);
#92=FACE_OUTER_BOUND('',#140,.T.);
#93=FACE_OUTER_BOUND('',#141,.T.);
#94=FACE_OUTER_BOUND('',#142,.T.);
#95=FACE_OUTER_BOUND('',#143,.T.);
#96=FACE_OUTER_BOUND('',#144,.T.);
#97=FACE_OUTER_BOUND('',#145,.T.);
#98=FACE_OUTER_BOUND('',#146,.T.);
#99=EDGE_LOOP('',(#605,#606,#607,#608,#609,#610));
#100=EDGE_LOOP('',(#611,#612,#613,#614,#615,#616));
#101=EDGE_LOOP('',(#617,#618,#619,#620,#621,#622,#623,#624,#625,#626,#627,
#628,#629,#630,#631,#632,#633,#634));
#102=EDGE_LOOP('',(#635,#636,#637,#638,#639,#640));
#103=EDGE_LOOP('',(#641,#642,#643,#644,#645,#646));
#104=EDGE_LOOP('',(#647,#648,#649,#650));
#105=EDGE_LOOP('',(#651,#652,#653,#654));
#106=EDGE_LOOP('',(#655,#656,#657,#658));
#107=EDGE_LOOP('',(#659,#660,#661,#662));
#108=EDGE_LOOP('',(#663,#664,#665,#666));
#109=EDGE_LOOP('',(#667,#668,#669,#670,#671,#672));
#110=EDGE_LOOP('',(#673,#674,#675,#676,#677,#678));
#111=EDGE_LOOP('',(#679,#680,#681,#682,#683));
#112=EDGE_LOOP('',(#684,#685,#686,#687));
#113=EDGE_LOOP('',(#688,#689,#690,#691,#692));
#114=EDGE_LOOP('',(#693,#694,#695,#696,#697,#698));
#115=EDGE_LOOP('',(#699,#700,#701,#702));
#116=EDGE_LOOP('',(#703,#704,#705,#706));
#117=EDGE_LOOP('',(#707,#708,#709,#710));
#118=EDGE_LOOP('',(#711,#712,#713,#714));
#119=EDGE_LOOP('',(#715,#716,#717,#718));
#120=EDGE_LOOP('',(#719,#720,#721,#722));
#121=EDGE_LOOP('',(#723,#724,#725,#726));
#122=EDGE_LOOP('',(#727,#728,#729,#730,#731,#732,#733,#734,#735,#736,#737,
#738));
#123=EDGE_LOOP('',(#739,#740,#741,#742,#743,#744,#745,#746,#747,#748,#749,
#750,#751,#752,#753,#754));
#124=EDGE_LOOP('',(#755,#756,#757,#758));
#125=EDGE_LOOP('',(#759,#760,#761,#762));
#126=EDGE_LOOP('',(#763,#764,#765,#766));
#127=EDGE_LOOP('',(#767,#768,#769,#770));
#128=EDGE_LOOP('',(#771,#772,#773,#774));
#129=EDGE_LOOP('',(#775,#776,#777,#778,#779,#780,#781,#782,#783,#784,#785,
#786));
#130=EDGE_LOOP('',(#787,#788,#789,#790,#791,#792,#793,#794));
#131=EDGE_LOOP('',(#795,#796,#797,#798));
#132=EDGE_LOOP('',(#799,#800,#801,#802));
#133=EDGE_LOOP('',(#803,#804,#805,#806));
#134=EDGE_LOOP('',(#807,#808,#809,#810,#811,#812,#813,#814));
#135=EDGE_LOOP('',(#815,#816,#817,#818));
#136=EDGE_LOOP('',(#819,#820,#821,#822));
#137=EDGE_LOOP('',(#823,#824,#825,#826));
#138=EDGE_LOOP('',(#827,#828,#829,#830,#831,#832));
#139=EDGE_LOOP('',(#833,#834,#835,#836));
#140=EDGE_LOOP('',(#837,#838,#839,#840));
#141=EDGE_LOOP('',(#841,#842,#843,#844));
#142=EDGE_LOOP('',(#845,#846,#847,#848,#849,#850,#851,#852,#853,#854,#855,
#856,#857,#858,#859,#860));
#143=EDGE_LOOP('',(#861,#862,#863,#864,#865,#866,#867,#868));
#144=EDGE_LOOP('',(#869,#870,#871,#872));
#145=EDGE_LOOP('',(#873,#874,#875,#876));
#146=EDGE_LOOP('',(#877,#878,#879,#880));
#147=LINE('',#1303,#261);
#148=LINE('',#1305,#262);
#149=LINE('',#1307,#263);
#150=LINE('',#1309,#264);
#151=LINE('',#1311,#265);
#152=LINE('',#1312,#266);
#153=LINE('',#1316,#267);
#154=LINE('',#1318,#268);
#155=LINE('',#1320,#269);
#156=LINE('',#1322,#270);
#157=LINE('',#1324,#271);
#158=LINE('',#1325,#272);
#159=LINE('',#1328,#273);
#160=LINE('',#1332,#274);
#161=LINE('',#1334,#275);
#162=LINE('',#1336,#276);
#163=LINE('',#1338,#277);
#164=LINE('',#1340,#278);
#165=LINE('',#1342,#279);
#166=LINE('',#1344,#280);
#167=LINE('',#1346,#281);
#168=LINE('',#1348,#282);
#169=LINE('',#1350,#283);
#170=LINE('',#1352,#284);
#171=LINE('',#1355,#285);
#172=LINE('',#1356,#286);
#173=LINE('',#1360,#287);
#174=LINE('',#1362,#288);
#175=LINE('',#1364,#289);
#176=LINE('',#1365,#290);
#177=LINE('',#1366,#291);
#178=LINE('',#1370,#292);
#179=LINE('',#1371,#293);
#180=LINE('',#1373,#294);
#181=LINE('',#1375,#295);
#182=LINE('',#1376,#296);
#183=LINE('',#1380,#297);
#184=LINE('',#1382,#298);
#185=LINE('',#1384,#299);
#186=LINE('',#1385,#300);
#187=LINE('',#1389,#301);
#188=LINE('',#1391,#302);
#189=LINE('',#1393,#303);
#190=LINE('',#1394,#304);
#191=LINE('',#1397,#305);
#192=LINE('',#1399,#306);
#193=LINE('',#1400,#307);
#194=LINE('',#1403,#308);
#195=LINE('',#1405,#309);
#196=LINE('',#1406,#310);
#197=LINE('',#1409,#311);
#198=LINE('',#1411,#312);
#199=LINE('',#1412,#313);
#200=LINE('',#1415,#314);
#201=LINE('',#1416,#315);
#202=LINE('',#1418,#316);
#203=LINE('',#1419,#317);
#204=LINE('',#1422,#318);
#205=LINE('',#1423,#319);
#206=LINE('',#1425,#320);
#207=LINE('',#1426,#321);
#208=LINE('',#1430,#322);
#209=LINE('',#1433,#323);
#210=LINE('',#1435,#324);
#211=LINE('',#1436,#325);
#212=LINE('',#1439,#326);
#213=LINE('',#1443,#327);
#214=LINE('',#1444,#328);
#215=LINE('',#1446,#329);
#216=LINE('',#1448,#330);
#217=LINE('',#1451,#331);
#218=LINE('',#1453,#332);
#219=LINE('',#1454,#333);
#220=LINE('',#1460,#334);
#221=LINE('',#1463,#335);
#222=LINE('',#1465,#336);
#223=LINE('',#1466,#337);
#224=LINE('',#1472,#338);
#225=LINE('',#1474,#339);
#226=LINE('',#1475,#340);
#227=LINE('',#1478,#341);
#228=LINE('',#1482,#342);
#229=LINE('',#1485,#343);
#230=LINE('',#1488,#344);
#231=LINE('',#1492,#345);
#232=LINE('',#1495,#346);
#233=LINE('',#1497,#347);
#234=LINE('',#1498,#348);
#235=LINE('',#1503,#349);
#236=LINE('',#1507,#350);
#237=LINE('',#1509,#351);
#238=LINE('',#1510,#352);
#239=LINE('',#1515,#353);
#240=LINE('',#1518,#354);
#241=LINE('',#1519,#355);
#242=LINE('',#1522,#356);
#243=LINE('',#1526,#357);
#244=LINE('',#1529,#358);
#245=LINE('',#1532,#359);
#246=LINE('',#1534,#360);
#247=LINE('',#1535,#361);
#248=LINE('',#1538,#362);
#249=LINE('',#1542,#363);
#250=LINE('',#1543,#364);
#251=LINE('',#1546,#365);
#252=LINE('',#1550,#366);
#253=LINE('',#1551,#367);
#254=LINE('',#1553,#368);
#255=LINE('',#1556,#369);
#256=LINE('',#1563,#370);
#257=LINE('',#1565,#371);
#258=LINE('',#1571,#372);
#259=LINE('',#1574,#373);
#260=LINE('',#1576,#374);
#261=VECTOR('',#1043,10.);
#262=VECTOR('',#1044,10.);
#263=VECTOR('',#1045,10.);
#264=VECTOR('',#1046,10.);
#265=VECTOR('',#1047,10.);
#266=VECTOR('',#1048,10.);
#267=VECTOR('',#1051,10.);
#268=VECTOR('',#1052,10.);
#269=VECTOR('',#1053,10.);
#270=VECTOR('',#1054,10.);
#271=VECTOR('',#1055,10.);
#272=VECTOR('',#1056,10.);
#273=VECTOR('',#1059,10.);
#274=VECTOR('',#1062,10.);
#275=VECTOR('',#1063,10.);
#276=VECTOR('',#1064,10.);
#277=VECTOR('',#1065,10.);
#278=VECTOR('',#1066,10.);
#279=VECTOR('',#1067,10.);
#280=VECTOR('',#1068,10.);
#281=VECTOR('',#1069,10.);
#282=VECTOR('',#1070,10.);
#283=VECTOR('',#1071,10.);
#284=VECTOR('',#1072,10.);
#285=VECTOR('',#1075,10.);
#286=VECTOR('',#1076,10.);
#287=VECTOR('',#1079,10.);
#288=VECTOR('',#1080,10.);
#289=VECTOR('',#1081,10.);
#290=VECTOR('',#1082,10.);
#291=VECTOR('',#1083,10.);
#292=VECTOR('',#1086,10.);
#293=VECTOR('',#1087,10.);
#294=VECTOR('',#1088,10.);
#295=VECTOR('',#1089,10.);
#296=VECTOR('',#1090,10.);
#297=VECTOR('',#1093,10.);
#298=VECTOR('',#1094,10.);
#299=VECTOR('',#1095,10.);
#300=VECTOR('',#1096,10.);
#301=VECTOR('',#1099,10.);
#302=VECTOR('',#1100,10.);
#303=VECTOR('',#1101,10.);
#304=VECTOR('',#1102,10.);
#305=VECTOR('',#1105,10.);
#306=VECTOR('',#1106,10.);
#307=VECTOR('',#1107,10.);
#308=VECTOR('',#1110,10.);
#309=VECTOR('',#1111,10.);
#310=VECTOR('',#1112,10.);
#311=VECTOR('',#1115,10.);
#312=VECTOR('',#1116,10.);
#313=VECTOR('',#1117,10.);
#314=VECTOR('',#1120,10.);
#315=VECTOR('',#1121,10.);
#316=VECTOR('',#1122,10.);
#317=VECTOR('',#1123,10.);
#318=VECTOR('',#1126,10.);
#319=VECTOR('',#1127,10.);
#320=VECTOR('',#1128,10.);
#321=VECTOR('',#1129,10.);
#322=VECTOR('',#1134,10.);
#323=VECTOR('',#1137,10.);
#324=VECTOR('',#1138,10.);
#325=VECTOR('',#1139,10.);
#326=VECTOR('',#1142,10.);
#327=VECTOR('',#1147,10.);
#328=VECTOR('',#1148,10.);
#329=VECTOR('',#1151,10.);
#330=VECTOR('',#1154,10.);
#331=VECTOR('',#1157,10.);
#332=VECTOR('',#1158,10.);
#333=VECTOR('',#1159,10.);
#334=VECTOR('',#1166,10.);
#335=VECTOR('',#1169,10.);
#336=VECTOR('',#1170,10.);
#337=VECTOR('',#1171,10.);
#338=VECTOR('',#1178,10.);
#339=VECTOR('',#1181,10.);
#340=VECTOR('',#1182,10.);
#341=VECTOR('',#1185,10.);
#342=VECTOR('',#1188,10.);
#343=VECTOR('',#1191,10.);
#344=VECTOR('',#1194,10.);
#345=VECTOR('',#1199,10.);
#346=VECTOR('',#1202,10.);
#347=VECTOR('',#1203,10.);
#348=VECTOR('',#1204,10.);
#349=VECTOR('',#1209,10.);
#350=VECTOR('',#1214,10.);
#351=VECTOR('',#1215,10.);
#352=VECTOR('',#1216,10.);
#353=VECTOR('',#1221,10.);
#354=VECTOR('',#1226,10.);
#355=VECTOR('',#1227,10.);
#356=VECTOR('',#1230,10.);
#357=VECTOR('',#1233,10.);
#358=VECTOR('',#1236,10.);
#359=VECTOR('',#1239,10.);
#360=VECTOR('',#1240,10.);
#361=VECTOR('',#1241,10.);
#362=VECTOR('',#1244,10.);
#363=VECTOR('',#1249,10.);
#364=VECTOR('',#1250,10.);
#365=VECTOR('',#1253,10.);
#366=VECTOR('',#1258,10.);
#367=VECTOR('',#1259,10.);
#368=VECTOR('',#1262,10.);
#369=VECTOR('',#1267,10.);
#370=VECTOR('',#1278,10.);
#371=VECTOR('',#1281,10.);
#372=VECTOR('',#1288,10.);
#373=VECTOR('',#1293,10.);
#374=VECTOR('',#1296,10.);
#375=VERTEX_POINT('',#1301);
#376=VERTEX_POINT('',#1302);
#377=VERTEX_POINT('',#1304);
#378=VERTEX_POINT('',#1306);
#379=VERTEX_POINT('',#1308);
#380=VERTEX_POINT('',#1310);
#381=VERTEX_POINT('',#1314);
#382=VERTEX_POINT('',#1315);
#383=VERTEX_POINT('',#1317);
#384=VERTEX_POINT('',#1319);
#385=VERTEX_POINT('',#1321);
#386=VERTEX_POINT('',#1323);
#387=VERTEX_POINT('',#1327);
#388=VERTEX_POINT('',#1329);
#389=VERTEX_POINT('',#1331);
#390=VERTEX_POINT('',#1333);
#391=VERTEX_POINT('',#1335);
#392=VERTEX_POINT('',#1337);
#393=VERTEX_POINT('',#1339);
#394=VERTEX_POINT('',#1341);
#395=VERTEX_POINT('',#1343);
#396=VERTEX_POINT('',#1345);
#397=VERTEX_POINT('',#1347);
#398=VERTEX_POINT('',#1349);
#399=VERTEX_POINT('',#1351);
#400=VERTEX_POINT('',#1353);
#401=VERTEX_POINT('',#1358);
#402=VERTEX_POINT('',#1359);
#403=VERTEX_POINT('',#1361);
#404=VERTEX_POINT('',#1363);
#405=VERTEX_POINT('',#1368);
#406=VERTEX_POINT('',#1369);
#407=VERTEX_POINT('',#1372);
#408=VERTEX_POINT('',#1374);
#409=VERTEX_POINT('',#1378);
#410=VERTEX_POINT('',#1379);
#411=VERTEX_POINT('',#1381);
#412=VERTEX_POINT('',#1383);
#413=VERTEX_POINT('',#1387);
#414=VERTEX_POINT('',#1388);
#415=VERTEX_POINT('',#1390);
#416=VERTEX_POINT('',#1392);
#417=VERTEX_POINT('',#1396);
#418=VERTEX_POINT('',#1398);
#419=VERTEX_POINT('',#1402);
#420=VERTEX_POINT('',#1404);
#421=VERTEX_POINT('',#1408);
#422=VERTEX_POINT('',#1410);
#423=VERTEX_POINT('',#1414);
#424=VERTEX_POINT('',#1417);
#425=VERTEX_POINT('',#1421);
#426=VERTEX_POINT('',#1424);
#427=VERTEX_POINT('',#1428);
#428=VERTEX_POINT('',#1432);
#429=VERTEX_POINT('',#1434);
#430=VERTEX_POINT('',#1438);
#431=VERTEX_POINT('',#1442);
#432=VERTEX_POINT('',#1450);
#433=VERTEX_POINT('',#1452);
#434=VERTEX_POINT('',#1456);
#435=VERTEX_POINT('',#1458);
#436=VERTEX_POINT('',#1462);
#437=VERTEX_POINT('',#1464);
#438=VERTEX_POINT('',#1468);
#439=VERTEX_POINT('',#1470);
#440=VERTEX_POINT('',#1477);
#441=VERTEX_POINT('',#1479);
#442=VERTEX_POINT('',#1481);
#443=VERTEX_POINT('',#1483);
#444=VERTEX_POINT('',#1487);
#445=VERTEX_POINT('',#1490);
#446=VERTEX_POINT('',#1494);
#447=VERTEX_POINT('',#1496);
#448=VERTEX_POINT('',#1500);
#449=VERTEX_POINT('',#1502);
#450=VERTEX_POINT('',#1506);
#451=VERTEX_POINT('',#1508);
#452=VERTEX_POINT('',#1512);
#453=VERTEX_POINT('',#1514);
#454=VERTEX_POINT('',#1521);
#455=VERTEX_POINT('',#1523);
#456=VERTEX_POINT('',#1525);
#457=VERTEX_POINT('',#1527);
#458=VERTEX_POINT('',#1531);
#459=VERTEX_POINT('',#1533);
#460=VERTEX_POINT('',#1537);
#461=VERTEX_POINT('',#1541);
#462=VERTEX_POINT('',#1545);
#463=VERTEX_POINT('',#1549);
#464=VERTEX_POINT('',#1561);
#465=VERTEX_POINT('',#1568);
#466=VERTEX_POINT('',#1570);
#467=EDGE_CURVE('',#375,#376,#147,.T.);
#468=EDGE_CURVE('',#376,#377,#148,.T.);
#469=EDGE_CURVE('',#377,#378,#149,.T.);
#470=EDGE_CURVE('',#378,#379,#150,.T.);
#471=EDGE_CURVE('',#380,#379,#151,.T.);
#472=EDGE_CURVE('',#380,#375,#152,.T.);
#473=EDGE_CURVE('',#381,#382,#153,.T.);
#474=EDGE_CURVE('',#382,#383,#154,.T.);
#475=EDGE_CURVE('',#384,#383,#155,.T.);
#476=EDGE_CURVE('',#384,#385,#156,.T.);
#477=EDGE_CURVE('',#385,#386,#157,.T.);
#478=EDGE_CURVE('',#386,#381,#158,.T.);
#479=EDGE_CURVE('',#379,#387,#159,.T.);
#480=EDGE_CURVE('',#387,#388,#27,.T.);
#481=EDGE_CURVE('',#388,#389,#160,.T.);
#482=EDGE_CURVE('',#389,#390,#161,.T.);
#483=EDGE_CURVE('',#390,#391,#162,.T.);
#484=EDGE_CURVE('',#391,#392,#163,.T.);
#485=EDGE_CURVE('',#392,#393,#164,.T.);
#486=EDGE_CURVE('',#394,#393,#165,.F.);
#487=EDGE_CURVE('',#394,#395,#166,.T.);
#488=EDGE_CURVE('',#395,#396,#167,.T.);
#489=EDGE_CURVE('',#396,#397,#168,.T.);
#490=EDGE_CURVE('',#397,#398,#169,.T.);
#491=EDGE_CURVE('',#398,#399,#170,.T.);
#492=EDGE_CURVE('',#399,#400,#28,.T.);
#493=EDGE_CURVE('',#400,#384,#171,.T.);
#494=EDGE_CURVE('',#380,#383,#172,.T.);
#495=EDGE_CURVE('',#401,#402,#173,.T.);
#496=EDGE_CURVE('',#402,#403,#174,.T.);
#497=EDGE_CURVE('',#403,#404,#175,.T.);
#498=EDGE_CURVE('',#404,#395,#176,.T.);
#499=EDGE_CURVE('',#394,#401,#177,.T.);
#500=EDGE_CURVE('',#405,#406,#178,.T.);
#501=EDGE_CURVE('',#406,#393,#179,.T.);
#502=EDGE_CURVE('',#392,#407,#180,.T.);
#503=EDGE_CURVE('',#407,#408,#181,.T.);
#504=EDGE_CURVE('',#408,#405,#182,.T.);
#505=EDGE_CURVE('',#409,#410,#183,.T.);
#506=EDGE_CURVE('',#410,#411,#184,.T.);
#507=EDGE_CURVE('',#412,#411,#185,.T.);
#508=EDGE_CURVE('',#409,#412,#186,.T.);
#509=EDGE_CURVE('',#413,#414,#187,.T.);
#510=EDGE_CURVE('',#415,#414,#188,.T.);
#511=EDGE_CURVE('',#416,#415,#189,.T.);
#512=EDGE_CURVE('',#413,#416,#190,.T.);
#513=EDGE_CURVE('',#417,#412,#191,.T.);
#514=EDGE_CURVE('',#418,#417,#192,.T.);
#515=EDGE_CURVE('',#418,#409,#193,.T.);
#516=EDGE_CURVE('',#398,#419,#194,.T.);
#517=EDGE_CURVE('',#420,#419,#195,.T.);
#518=EDGE_CURVE('',#399,#420,#196,.T.);
#519=EDGE_CURVE('',#414,#421,#197,.T.);
#520=EDGE_CURVE('',#421,#422,#198,.T.);
#521=EDGE_CURVE('',#415,#422,#199,.T.);
#522=EDGE_CURVE('',#396,#423,#200,.T.);
#523=EDGE_CURVE('',#423,#413,#201,.T.);
#524=EDGE_CURVE('',#424,#416,#202,.T.);
#525=EDGE_CURVE('',#397,#424,#203,.T.);
#526=EDGE_CURVE('',#390,#425,#204,.T.);
#527=EDGE_CURVE('',#411,#425,#205,.T.);
#528=EDGE_CURVE('',#410,#426,#206,.T.);
#529=EDGE_CURVE('',#426,#391,#207,.T.);
#530=EDGE_CURVE('',#427,#418,#29,.T.);
#531=EDGE_CURVE('',#426,#427,#208,.T.);
#532=EDGE_CURVE('',#428,#389,#209,.T.);
#533=EDGE_CURVE('',#388,#429,#210,.T.);
#534=EDGE_CURVE('',#428,#429,#211,.T.);
#535=EDGE_CURVE('',#430,#423,#212,.T.);
#536=EDGE_CURVE('',#421,#430,#30,.T.);
#537=EDGE_CURVE('',#431,#404,#213,.T.);
#538=EDGE_CURVE('',#430,#431,#214,.T.);
#539=EDGE_CURVE('',#425,#428,#215,.T.);
#540=EDGE_CURVE('',#419,#424,#216,.T.);
#541=EDGE_CURVE('',#377,#432,#217,.T.);
#542=EDGE_CURVE('',#433,#376,#218,.F.);
#543=EDGE_CURVE('',#432,#433,#219,.T.);
#544=EDGE_CURVE('',#432,#434,#31,.T.);
#545=EDGE_CURVE('',#435,#433,#32,.F.);
#546=EDGE_CURVE('',#434,#435,#220,.T.);
#547=EDGE_CURVE('',#434,#436,#221,.T.);
#548=EDGE_CURVE('',#437,#435,#222,.F.);
#549=EDGE_CURVE('',#436,#437,#223,.T.);
#550=EDGE_CURVE('',#436,#438,#33,.T.);
#551=EDGE_CURVE('',#439,#437,#34,.F.);
#552=EDGE_CURVE('',#438,#439,#224,.T.);
#553=EDGE_CURVE('',#438,#408,#225,.T.);
#554=EDGE_CURVE('',#439,#405,#226,.T.);
#555=EDGE_CURVE('',#440,#375,#227,.T.);
#556=EDGE_CURVE('',#441,#440,#35,.T.);
#557=EDGE_CURVE('',#442,#441,#228,.T.);
#558=EDGE_CURVE('',#443,#442,#36,.T.);
#559=EDGE_CURVE('',#443,#406,#229,.T.);
#560=EDGE_CURVE('',#444,#407,#230,.T.);
#561=EDGE_CURVE('',#444,#417,#37,.T.);
#562=EDGE_CURVE('',#429,#445,#38,.T.);
#563=EDGE_CURVE('',#445,#378,#231,.T.);
#564=EDGE_CURVE('',#446,#386,#232,.T.);
#565=EDGE_CURVE('',#446,#447,#233,.T.);
#566=EDGE_CURVE('',#447,#381,#234,.T.);
#567=EDGE_CURVE('',#448,#446,#39,.T.);
#568=EDGE_CURVE('',#448,#449,#235,.T.);
#569=EDGE_CURVE('',#449,#447,#40,.T.);
#570=EDGE_CURVE('',#450,#448,#236,.T.);
#571=EDGE_CURVE('',#450,#451,#237,.T.);
#572=EDGE_CURVE('',#451,#449,#238,.T.);
#573=EDGE_CURVE('',#452,#450,#41,.T.);
#574=EDGE_CURVE('',#452,#453,#239,.T.);
#575=EDGE_CURVE('',#453,#451,#42,.T.);
#576=EDGE_CURVE('',#452,#403,#240,.T.);
#577=EDGE_CURVE('',#402,#453,#241,.T.);
#578=EDGE_CURVE('',#454,#401,#242,.T.);
#579=EDGE_CURVE('',#455,#454,#43,.T.);
#580=EDGE_CURVE('',#456,#455,#243,.T.);
#581=EDGE_CURVE('',#457,#456,#44,.T.);
#582=EDGE_CURVE('',#382,#457,#244,.T.);
#583=EDGE_CURVE('',#457,#458,#245,.T.);
#584=EDGE_CURVE('',#459,#458,#246,.T.);
#585=EDGE_CURVE('',#440,#459,#247,.T.);
#586=EDGE_CURVE('',#456,#460,#248,.T.);
#587=EDGE_CURVE('',#458,#460,#45,.T.);
#588=EDGE_CURVE('',#461,#455,#249,.T.);
#589=EDGE_CURVE('',#460,#461,#250,.T.);
#590=EDGE_CURVE('',#462,#454,#251,.T.);
#591=EDGE_CURVE('',#462,#461,#46,.T.);
#592=EDGE_CURVE('',#463,#443,#252,.T.);
#593=EDGE_CURVE('',#462,#463,#253,.F.);
#594=EDGE_CURVE('',#387,#445,#254,.T.);
#595=EDGE_CURVE('',#427,#444,#255,.T.);
#596=EDGE_CURVE('',#422,#431,#47,.T.);
#597=EDGE_CURVE('',#464,#420,#48,.T.);
#598=EDGE_CURVE('',#400,#464,#256,.T.);
#599=EDGE_CURVE('',#464,#385,#257,.T.);
#600=EDGE_CURVE('',#465,#463,#49,.T.);
#601=EDGE_CURVE('',#465,#466,#258,.T.);
#602=EDGE_CURVE('',#466,#459,#50,.T.);
#603=EDGE_CURVE('',#465,#442,#259,.T.);
#604=EDGE_CURVE('',#466,#441,#260,.T.);
#605=ORIENTED_EDGE('',*,*,#467,.T.);
#606=ORIENTED_EDGE('',*,*,#468,.T.);
#607=ORIENTED_EDGE('',*,*,#469,.T.);
#608=ORIENTED_EDGE('',*,*,#470,.T.);
#609=ORIENTED_EDGE('',*,*,#471,.F.);
#610=ORIENTED_EDGE('',*,*,#472,.T.);
#611=ORIENTED_EDGE('',*,*,#473,.T.);
#612=ORIENTED_EDGE('',*,*,#474,.T.);
#613=ORIENTED_EDGE('',*,*,#475,.F.);
#614=ORIENTED_EDGE('',*,*,#476,.T.);
#615=ORIENTED_EDGE('',*,*,#477,.T.);
#616=ORIENTED_EDGE('',*,*,#478,.T.);
#617=ORIENTED_EDGE('',*,*,#479,.T.);
#618=ORIENTED_EDGE('',*,*,#480,.T.);
#619=ORIENTED_EDGE('',*,*,#481,.T.);
#620=ORIENTED_EDGE('',*,*,#482,.T.);
#621=ORIENTED_EDGE('',*,*,#483,.T.);
#622=ORIENTED_EDGE('',*,*,#484,.T.);
#623=ORIENTED_EDGE('',*,*,#485,.T.);
#624=ORIENTED_EDGE('',*,*,#486,.F.);
#625=ORIENTED_EDGE('',*,*,#487,.T.);
#626=ORIENTED_EDGE('',*,*,#488,.T.);
#627=ORIENTED_EDGE('',*,*,#489,.T.);
#628=ORIENTED_EDGE('',*,*,#490,.T.);
#629=ORIENTED_EDGE('',*,*,#491,.T.);
#630=ORIENTED_EDGE('',*,*,#492,.T.);
#631=ORIENTED_EDGE('',*,*,#493,.T.);
#632=ORIENTED_EDGE('',*,*,#475,.T.);
#633=ORIENTED_EDGE('',*,*,#494,.F.);
#634=ORIENTED_EDGE('',*,*,#471,.T.);
#635=ORIENTED_EDGE('',*,*,#495,.T.);
#636=ORIENTED_EDGE('',*,*,#496,.T.);
#637=ORIENTED_EDGE('',*,*,#497,.T.);
#638=ORIENTED_EDGE('',*,*,#498,.T.);
#639=ORIENTED_EDGE('',*,*,#487,.F.);
#640=ORIENTED_EDGE('',*,*,#499,.T.);
#641=ORIENTED_EDGE('',*,*,#500,.T.);
#642=ORIENTED_EDGE('',*,*,#501,.T.);
#643=ORIENTED_EDGE('',*,*,#485,.F.);
#644=ORIENTED_EDGE('',*,*,#502,.T.);
#645=ORIENTED_EDGE('',*,*,#503,.T.);
#646=ORIENTED_EDGE('',*,*,#504,.T.);
#647=ORIENTED_EDGE('',*,*,#505,.T.);
#648=ORIENTED_EDGE('',*,*,#506,.T.);
#649=ORIENTED_EDGE('',*,*,#507,.F.);
#650=ORIENTED_EDGE('',*,*,#508,.F.);
#651=ORIENTED_EDGE('',*,*,#509,.T.);
#652=ORIENTED_EDGE('',*,*,#510,.F.);
#653=ORIENTED_EDGE('',*,*,#511,.F.);
#654=ORIENTED_EDGE('',*,*,#512,.F.);
#655=ORIENTED_EDGE('',*,*,#508,.T.);
#656=ORIENTED_EDGE('',*,*,#513,.F.);
#657=ORIENTED_EDGE('',*,*,#514,.F.);
#658=ORIENTED_EDGE('',*,*,#515,.T.);
#659=ORIENTED_EDGE('',*,*,#516,.T.);
#660=ORIENTED_EDGE('',*,*,#517,.F.);
#661=ORIENTED_EDGE('',*,*,#518,.F.);
#662=ORIENTED_EDGE('',*,*,#491,.F.);
#663=ORIENTED_EDGE('',*,*,#510,.T.);
#664=ORIENTED_EDGE('',*,*,#519,.T.);
#665=ORIENTED_EDGE('',*,*,#520,.T.);
#666=ORIENTED_EDGE('',*,*,#521,.F.);
#667=ORIENTED_EDGE('',*,*,#489,.F.);
#668=ORIENTED_EDGE('',*,*,#522,.T.);
#669=ORIENTED_EDGE('',*,*,#523,.T.);
#670=ORIENTED_EDGE('',*,*,#512,.T.);
#671=ORIENTED_EDGE('',*,*,#524,.F.);
#672=ORIENTED_EDGE('',*,*,#525,.F.);
#673=ORIENTED_EDGE('',*,*,#483,.F.);
#674=ORIENTED_EDGE('',*,*,#526,.T.);
#675=ORIENTED_EDGE('',*,*,#527,.F.);
#676=ORIENTED_EDGE('',*,*,#506,.F.);
#677=ORIENTED_EDGE('',*,*,#528,.T.);
#678=ORIENTED_EDGE('',*,*,#529,.T.);
#679=ORIENTED_EDGE('',*,*,#505,.F.);
#680=ORIENTED_EDGE('',*,*,#515,.F.);
#681=ORIENTED_EDGE('',*,*,#530,.F.);
#682=ORIENTED_EDGE('',*,*,#531,.F.);
#683=ORIENTED_EDGE('',*,*,#528,.F.);
#684=ORIENTED_EDGE('',*,*,#532,.T.);
#685=ORIENTED_EDGE('',*,*,#481,.F.);
#686=ORIENTED_EDGE('',*,*,#533,.T.);
#687=ORIENTED_EDGE('',*,*,#534,.F.);
#688=ORIENTED_EDGE('',*,*,#519,.F.);
#689=ORIENTED_EDGE('',*,*,#509,.F.);
#690=ORIENTED_EDGE('',*,*,#523,.F.);
#691=ORIENTED_EDGE('',*,*,#535,.F.);
#692=ORIENTED_EDGE('',*,*,#536,.F.);
#693=ORIENTED_EDGE('',*,*,#535,.T.);
#694=ORIENTED_EDGE('',*,*,#522,.F.);
#695=ORIENTED_EDGE('',*,*,#488,.F.);
#696=ORIENTED_EDGE('',*,*,#498,.F.);
#697=ORIENTED_EDGE('',*,*,#537,.F.);
#698=ORIENTED_EDGE('',*,*,#538,.F.);
#699=ORIENTED_EDGE('',*,*,#482,.F.);
#700=ORIENTED_EDGE('',*,*,#532,.F.);
#701=ORIENTED_EDGE('',*,*,#539,.F.);
#702=ORIENTED_EDGE('',*,*,#526,.F.);
#703=ORIENTED_EDGE('',*,*,#490,.F.);
#704=ORIENTED_EDGE('',*,*,#525,.T.);
#705=ORIENTED_EDGE('',*,*,#540,.F.);
#706=ORIENTED_EDGE('',*,*,#516,.F.);
#707=ORIENTED_EDGE('',*,*,#541,.F.);
#708=ORIENTED_EDGE('',*,*,#468,.F.);
#709=ORIENTED_EDGE('',*,*,#542,.F.);
#710=ORIENTED_EDGE('',*,*,#543,.F.);
#711=ORIENTED_EDGE('',*,*,#544,.F.);
#712=ORIENTED_EDGE('',*,*,#543,.T.);
#713=ORIENTED_EDGE('',*,*,#545,.F.);
#714=ORIENTED_EDGE('',*,*,#546,.F.);
#715=ORIENTED_EDGE('',*,*,#547,.F.);
#716=ORIENTED_EDGE('',*,*,#546,.T.);
#717=ORIENTED_EDGE('',*,*,#548,.F.);
#718=ORIENTED_EDGE('',*,*,#549,.F.);
#719=ORIENTED_EDGE('',*,*,#550,.F.);
#720=ORIENTED_EDGE('',*,*,#549,.T.);
#721=ORIENTED_EDGE('',*,*,#551,.F.);
#722=ORIENTED_EDGE('',*,*,#552,.F.);
#723=ORIENTED_EDGE('',*,*,#553,.F.);
#724=ORIENTED_EDGE('',*,*,#552,.T.);
#725=ORIENTED_EDGE('',*,*,#554,.T.);
#726=ORIENTED_EDGE('',*,*,#504,.F.);
#727=ORIENTED_EDGE('',*,*,#554,.F.);
#728=ORIENTED_EDGE('',*,*,#551,.T.);
#729=ORIENTED_EDGE('',*,*,#548,.T.);
#730=ORIENTED_EDGE('',*,*,#545,.T.);
#731=ORIENTED_EDGE('',*,*,#542,.T.);
#732=ORIENTED_EDGE('',*,*,#467,.F.);
#733=ORIENTED_EDGE('',*,*,#555,.F.);
#734=ORIENTED_EDGE('',*,*,#556,.F.);
#735=ORIENTED_EDGE('',*,*,#557,.F.);
#736=ORIENTED_EDGE('',*,*,#558,.F.);
#737=ORIENTED_EDGE('',*,*,#559,.T.);
#738=ORIENTED_EDGE('',*,*,#500,.F.);
#739=ORIENTED_EDGE('',*,*,#541,.T.);
#740=ORIENTED_EDGE('',*,*,#544,.T.);
#741=ORIENTED_EDGE('',*,*,#547,.T.);
#742=ORIENTED_EDGE('',*,*,#550,.T.);
#743=ORIENTED_EDGE('',*,*,#553,.T.);
#744=ORIENTED_EDGE('',*,*,#503,.F.);
#745=ORIENTED_EDGE('',*,*,#560,.F.);
#746=ORIENTED_EDGE('',*,*,#561,.T.);
#747=ORIENTED_EDGE('',*,*,#513,.T.);
#748=ORIENTED_EDGE('',*,*,#507,.T.);
#749=ORIENTED_EDGE('',*,*,#527,.T.);
#750=ORIENTED_EDGE('',*,*,#539,.T.);
#751=ORIENTED_EDGE('',*,*,#534,.T.);
#752=ORIENTED_EDGE('',*,*,#562,.T.);
#753=ORIENTED_EDGE('',*,*,#563,.T.);
#754=ORIENTED_EDGE('',*,*,#469,.F.);
#755=ORIENTED_EDGE('',*,*,#564,.F.);
#756=ORIENTED_EDGE('',*,*,#565,.T.);
#757=ORIENTED_EDGE('',*,*,#566,.T.);
#758=ORIENTED_EDGE('',*,*,#478,.F.);
#759=ORIENTED_EDGE('',*,*,#567,.F.);
#760=ORIENTED_EDGE('',*,*,#568,.T.);
#761=ORIENTED_EDGE('',*,*,#569,.T.);
#762=ORIENTED_EDGE('',*,*,#565,.F.);
#763=ORIENTED_EDGE('',*,*,#570,.F.);
#764=ORIENTED_EDGE('',*,*,#571,.T.);
#765=ORIENTED_EDGE('',*,*,#572,.T.);
#766=ORIENTED_EDGE('',*,*,#568,.F.);
#767=ORIENTED_EDGE('',*,*,#573,.F.);
#768=ORIENTED_EDGE('',*,*,#574,.T.);
#769=ORIENTED_EDGE('',*,*,#575,.T.);
#770=ORIENTED_EDGE('',*,*,#571,.F.);
#771=ORIENTED_EDGE('',*,*,#576,.T.);
#772=ORIENTED_EDGE('',*,*,#496,.F.);
#773=ORIENTED_EDGE('',*,*,#577,.T.);
#774=ORIENTED_EDGE('',*,*,#574,.F.);
#775=ORIENTED_EDGE('',*,*,#578,.F.);
#776=ORIENTED_EDGE('',*,*,#579,.F.);
#777=ORIENTED_EDGE('',*,*,#580,.F.);
#778=ORIENTED_EDGE('',*,*,#581,.F.);
#779=ORIENTED_EDGE('',*,*,#582,.F.);
#780=ORIENTED_EDGE('',*,*,#473,.F.);
#781=ORIENTED_EDGE('',*,*,#566,.F.);
#782=ORIENTED_EDGE('',*,*,#569,.F.);
#783=ORIENTED_EDGE('',*,*,#572,.F.);
#784=ORIENTED_EDGE('',*,*,#575,.F.);
#785=ORIENTED_EDGE('',*,*,#577,.F.);
#786=ORIENTED_EDGE('',*,*,#495,.F.);
#787=ORIENTED_EDGE('',*,*,#555,.T.);
#788=ORIENTED_EDGE('',*,*,#472,.F.);
#789=ORIENTED_EDGE('',*,*,#494,.T.);
#790=ORIENTED_EDGE('',*,*,#474,.F.);
#791=ORIENTED_EDGE('',*,*,#582,.T.);
#792=ORIENTED_EDGE('',*,*,#583,.T.);
#793=ORIENTED_EDGE('',*,*,#584,.F.);
#794=ORIENTED_EDGE('',*,*,#585,.F.);
#795=ORIENTED_EDGE('',*,*,#581,.T.);
#796=ORIENTED_EDGE('',*,*,#586,.T.);
#797=ORIENTED_EDGE('',*,*,#587,.F.);
#798=ORIENTED_EDGE('',*,*,#583,.F.);
#799=ORIENTED_EDGE('',*,*,#580,.T.);
#800=ORIENTED_EDGE('',*,*,#588,.F.);
#801=ORIENTED_EDGE('',*,*,#589,.F.);
#802=ORIENTED_EDGE('',*,*,#586,.F.);
#803=ORIENTED_EDGE('',*,*,#579,.T.);
#804=ORIENTED_EDGE('',*,*,#590,.F.);
#805=ORIENTED_EDGE('',*,*,#591,.T.);
#806=ORIENTED_EDGE('',*,*,#588,.T.);
#807=ORIENTED_EDGE('',*,*,#559,.F.);
#808=ORIENTED_EDGE('',*,*,#592,.F.);
#809=ORIENTED_EDGE('',*,*,#593,.F.);
#810=ORIENTED_EDGE('',*,*,#590,.T.);
#811=ORIENTED_EDGE('',*,*,#578,.T.);
#812=ORIENTED_EDGE('',*,*,#499,.F.);
#813=ORIENTED_EDGE('',*,*,#486,.T.);
#814=ORIENTED_EDGE('',*,*,#501,.F.);
#815=ORIENTED_EDGE('',*,*,#479,.F.);
#816=ORIENTED_EDGE('',*,*,#470,.F.);
#817=ORIENTED_EDGE('',*,*,#563,.F.);
#818=ORIENTED_EDGE('',*,*,#594,.F.);
#819=ORIENTED_EDGE('',*,*,#480,.F.);
#820=ORIENTED_EDGE('',*,*,#594,.T.);
#821=ORIENTED_EDGE('',*,*,#562,.F.);
#822=ORIENTED_EDGE('',*,*,#533,.F.);
#823=ORIENTED_EDGE('',*,*,#530,.T.);
#824=ORIENTED_EDGE('',*,*,#514,.T.);
#825=ORIENTED_EDGE('',*,*,#561,.F.);
#826=ORIENTED_EDGE('',*,*,#595,.F.);
#827=ORIENTED_EDGE('',*,*,#531,.T.);
#828=ORIENTED_EDGE('',*,*,#595,.T.);
#829=ORIENTED_EDGE('',*,*,#560,.T.);
#830=ORIENTED_EDGE('',*,*,#502,.F.);
#831=ORIENTED_EDGE('',*,*,#484,.F.);
#832=ORIENTED_EDGE('',*,*,#529,.F.);
#833=ORIENTED_EDGE('',*,*,#536,.T.);
#834=ORIENTED_EDGE('',*,*,#538,.T.);
#835=ORIENTED_EDGE('',*,*,#596,.F.);
#836=ORIENTED_EDGE('',*,*,#520,.F.);
#837=ORIENTED_EDGE('',*,*,#492,.F.);
#838=ORIENTED_EDGE('',*,*,#518,.T.);
#839=ORIENTED_EDGE('',*,*,#597,.F.);
#840=ORIENTED_EDGE('',*,*,#598,.F.);
#841=ORIENTED_EDGE('',*,*,#493,.F.);
#842=ORIENTED_EDGE('',*,*,#598,.T.);
#843=ORIENTED_EDGE('',*,*,#599,.T.);
#844=ORIENTED_EDGE('',*,*,#476,.F.);
#845=ORIENTED_EDGE('',*,*,#564,.T.);
#846=ORIENTED_EDGE('',*,*,#477,.F.);
#847=ORIENTED_EDGE('',*,*,#599,.F.);
#848=ORIENTED_EDGE('',*,*,#597,.T.);
#849=ORIENTED_EDGE('',*,*,#517,.T.);
#850=ORIENTED_EDGE('',*,*,#540,.T.);
#851=ORIENTED_EDGE('',*,*,#524,.T.);
#852=ORIENTED_EDGE('',*,*,#511,.T.);
#853=ORIENTED_EDGE('',*,*,#521,.T.);
#854=ORIENTED_EDGE('',*,*,#596,.T.);
#855=ORIENTED_EDGE('',*,*,#537,.T.);
#856=ORIENTED_EDGE('',*,*,#497,.F.);
#857=ORIENTED_EDGE('',*,*,#576,.F.);
#858=ORIENTED_EDGE('',*,*,#573,.T.);
#859=ORIENTED_EDGE('',*,*,#570,.T.);
#860=ORIENTED_EDGE('',*,*,#567,.T.);
#861=ORIENTED_EDGE('',*,*,#591,.F.);
#862=ORIENTED_EDGE('',*,*,#593,.T.);
#863=ORIENTED_EDGE('',*,*,#600,.F.);
#864=ORIENTED_EDGE('',*,*,#601,.T.);
#865=ORIENTED_EDGE('',*,*,#602,.T.);
#866=ORIENTED_EDGE('',*,*,#584,.T.);
#867=ORIENTED_EDGE('',*,*,#587,.T.);
#868=ORIENTED_EDGE('',*,*,#589,.T.);
#869=ORIENTED_EDGE('',*,*,#558,.T.);
#870=ORIENTED_EDGE('',*,*,#603,.F.);
#871=ORIENTED_EDGE('',*,*,#600,.T.);
#872=ORIENTED_EDGE('',*,*,#592,.T.);
#873=ORIENTED_EDGE('',*,*,#557,.T.);
#874=ORIENTED_EDGE('',*,*,#604,.F.);
#875=ORIENTED_EDGE('',*,*,#601,.F.);
#876=ORIENTED_EDGE('',*,*,#603,.T.);
#877=ORIENTED_EDGE('',*,*,#556,.T.);
#878=ORIENTED_EDGE('',*,*,#585,.T.);
#879=ORIENTED_EDGE('',*,*,#602,.F.);
#880=ORIENTED_EDGE('',*,*,#604,.T.);
#881=PLANE('',#967);
#882=PLANE('',#968);
#883=PLANE('',#969);
#884=PLANE('',#972);
#885=PLANE('',#973);
#886=PLANE('',#974);
#887=PLANE('',#975);
#888=PLANE('',#976);
#889=PLANE('',#977);
#890=PLANE('',#978);
#891=PLANE('',#979);
#892=PLANE('',#980);
#893=PLANE('',#981);
#894=PLANE('',#983);
#895=PLANE('',#984);
#896=PLANE('',#986);
#897=PLANE('',#987);
#898=PLANE('',#988);
#899=PLANE('',#989);
#900=PLANE('',#993);
#901=PLANE('',#997);
#902=PLANE('',#998);
#903=PLANE('',#1001);
#904=PLANE('',#1004);
#905=PLANE('',#1008);
#906=PLANE('',#1012);
#907=PLANE('',#1013);
#908=PLANE('',#1016);
#909=PLANE('',#1019);
#910=PLANE('',#1022);
#911=PLANE('',#1023);
#912=PLANE('',#1026);
#913=PLANE('',#1031);
#914=PLANE('',#1032);
#915=PLANE('',#1033);
#916=PLANE('',#1037);
#917=ADVANCED_FACE('',(#51),#881,.T.);
#918=ADVANCED_FACE('',(#52),#882,.T.);
#919=ADVANCED_FACE('',(#53),#883,.F.);
#920=ADVANCED_FACE('',(#54),#884,.T.);
#921=ADVANCED_FACE('',(#55),#885,.T.);
#922=ADVANCED_FACE('',(#56),#886,.T.);
#923=ADVANCED_FACE('',(#57),#887,.T.);
#924=ADVANCED_FACE('',(#58),#888,.T.);
#925=ADVANCED_FACE('',(#59),#889,.T.);
#926=ADVANCED_FACE('',(#60),#890,.T.);
#927=ADVANCED_FACE('',(#61),#891,.T.);
#928=ADVANCED_FACE('',(#62),#892,.T.);
#929=ADVANCED_FACE('',(#63),#893,.T.);
#930=ADVANCED_FACE('',(#64),#894,.T.);
#931=ADVANCED_FACE('',(#65),#895,.T.);
#932=ADVANCED_FACE('',(#66),#896,.T.);
#933=ADVANCED_FACE('',(#67),#897,.T.);
#934=ADVANCED_FACE('',(#68),#898,.T.);
#935=ADVANCED_FACE('',(#69),#899,.T.);
#936=ADVANCED_FACE('',(#70),#15,.T.);
#937=ADVANCED_FACE('',(#71),#900,.T.);
#938=ADVANCED_FACE('',(#72),#16,.T.);
#939=ADVANCED_FACE('',(#73),#901,.T.);
#940=ADVANCED_FACE('',(#74),#902,.F.);
#941=ADVANCED_FACE('',(#75),#903,.T.);
#942=ADVANCED_FACE('',(#76),#904,.F.);
#943=ADVANCED_FACE('',(#77),#17,.T.);
#944=ADVANCED_FACE('',(#78),#905,.F.);
#945=ADVANCED_FACE('',(#79),#18,.T.);
#946=ADVANCED_FACE('',(#80),#906,.F.);
#947=ADVANCED_FACE('',(#81),#907,.T.);
#948=ADVANCED_FACE('',(#82),#908,.T.);
#949=ADVANCED_FACE('',(#83),#19,.T.);
#950=ADVANCED_FACE('',(#84),#909,.T.);
#951=ADVANCED_FACE('',(#85),#20,.T.);
#952=ADVANCED_FACE('',(#86),#910,.T.);
#953=ADVANCED_FACE('',(#87),#911,.T.);
#954=ADVANCED_FACE('',(#88),#21,.F.);
#955=ADVANCED_FACE('',(#89),#22,.F.);
#956=ADVANCED_FACE('',(#90),#912,.T.);
#957=ADVANCED_FACE('',(#91),#23,.F.);
#958=ADVANCED_FACE('',(#92),#24,.F.);
#959=ADVANCED_FACE('',(#93),#913,.T.);
#960=ADVANCED_FACE('',(#94),#914,.T.);
#961=ADVANCED_FACE('',(#95),#915,.T.);
#962=ADVANCED_FACE('',(#96),#25,.T.);
#963=ADVANCED_FACE('',(#97),#916,.T.);
#964=ADVANCED_FACE('',(#98),#26,.T.);
#965=CLOSED_SHELL('',(#917,#918,#919,#920,#921,#922,#923,#924,#925,#926,
#927,#928,#929,#930,#931,#932,#933,#934,#935,#936,#937,#938,#939,#940,#941,
#942,#943,#944,#945,#946,#947,#948,#949,#950,#951,#952,#953,#954,#955,#956,
#957,#958,#959,#960,#961,#962,#963,#964));
#966=AXIS2_PLACEMENT_3D('',#1299,#1039,#1040);
#967=AXIS2_PLACEMENT_3D('',#1300,#1041,#1042);
#968=AXIS2_PLACEMENT_3D('',#1313,#1049,#1050);
#969=AXIS2_PLACEMENT_3D('',#1326,#1057,#1058);
#970=AXIS2_PLACEMENT_3D('',#1330,#1060,#1061);
#971=AXIS2_PLACEMENT_3D('',#1354,#1073,#1074);
#972=AXIS2_PLACEMENT_3D('',#1357,#1077,#1078);
#973=AXIS2_PLACEMENT_3D('',#1367,#1084,#1085);
#974=AXIS2_PLACEMENT_3D('',#1377,#1091,#1092);
#975=AXIS2_PLACEMENT_3D('',#1386,#1097,#1098);
#976=AXIS2_PLACEMENT_3D('',#1395,#1103,#1104);
#977=AXIS2_PLACEMENT_3D('',#1401,#1108,#1109);
#978=AXIS2_PLACEMENT_3D('',#1407,#1113,#1114);
#979=AXIS2_PLACEMENT_3D('',#1413,#1118,#1119);
#980=AXIS2_PLACEMENT_3D('',#1420,#1124,#1125);
#981=AXIS2_PLACEMENT_3D('',#1427,#1130,#1131);
#982=AXIS2_PLACEMENT_3D('',#1429,#1132,#1133);
#983=AXIS2_PLACEMENT_3D('',#1431,#1135,#1136);
#984=AXIS2_PLACEMENT_3D('',#1437,#1140,#1141);
#985=AXIS2_PLACEMENT_3D('',#1440,#1143,#1144);
#986=AXIS2_PLACEMENT_3D('',#1441,#1145,#1146);
#987=AXIS2_PLACEMENT_3D('',#1445,#1149,#1150);
#988=AXIS2_PLACEMENT_3D('',#1447,#1152,#1153);
#989=AXIS2_PLACEMENT_3D('',#1449,#1155,#1156);
#990=AXIS2_PLACEMENT_3D('',#1455,#1160,#1161);
#991=AXIS2_PLACEMENT_3D('',#1457,#1162,#1163);
#992=AXIS2_PLACEMENT_3D('',#1459,#1164,#1165);
#993=AXIS2_PLACEMENT_3D('',#1461,#1167,#1168);
#994=AXIS2_PLACEMENT_3D('',#1467,#1172,#1173);
#995=AXIS2_PLACEMENT_3D('',#1469,#1174,#1175);
#996=AXIS2_PLACEMENT_3D('',#1471,#1176,#1177);
#997=AXIS2_PLACEMENT_3D('',#1473,#1179,#1180);
#998=AXIS2_PLACEMENT_3D('',#1476,#1183,#1184);
#999=AXIS2_PLACEMENT_3D('',#1480,#1186,#1187);
#1000=AXIS2_PLACEMENT_3D('',#1484,#1189,#1190);
#1001=AXIS2_PLACEMENT_3D('',#1486,#1192,#1193);
#1002=AXIS2_PLACEMENT_3D('',#1489,#1195,#1196);
#1003=AXIS2_PLACEMENT_3D('',#1491,#1197,#1198);
#1004=AXIS2_PLACEMENT_3D('',#1493,#1200,#1201);
#1005=AXIS2_PLACEMENT_3D('',#1499,#1205,#1206);
#1006=AXIS2_PLACEMENT_3D('',#1501,#1207,#1208);
#1007=AXIS2_PLACEMENT_3D('',#1504,#1210,#1211);
#1008=AXIS2_PLACEMENT_3D('',#1505,#1212,#1213);
#1009=AXIS2_PLACEMENT_3D('',#1511,#1217,#1218);
#1010=AXIS2_PLACEMENT_3D('',#1513,#1219,#1220);
#1011=AXIS2_PLACEMENT_3D('',#1516,#1222,#1223);
#1012=AXIS2_PLACEMENT_3D('',#1517,#1224,#1225);
#1013=AXIS2_PLACEMENT_3D('',#1520,#1228,#1229);
#1014=AXIS2_PLACEMENT_3D('',#1524,#1231,#1232);
#1015=AXIS2_PLACEMENT_3D('',#1528,#1234,#1235);
#1016=AXIS2_PLACEMENT_3D('',#1530,#1237,#1238);
#1017=AXIS2_PLACEMENT_3D('',#1536,#1242,#1243);
#1018=AXIS2_PLACEMENT_3D('',#1539,#1245,#1246);
#1019=AXIS2_PLACEMENT_3D('',#1540,#1247,#1248);
#1020=AXIS2_PLACEMENT_3D('',#1544,#1251,#1252);
#1021=AXIS2_PLACEMENT_3D('',#1547,#1254,#1255);
#1022=AXIS2_PLACEMENT_3D('',#1548,#1256,#1257);
#1023=AXIS2_PLACEMENT_3D('',#1552,#1260,#1261);
#1024=AXIS2_PLACEMENT_3D('',#1554,#1263,#1264);
#1025=AXIS2_PLACEMENT_3D('',#1555,#1265,#1266);
#1026=AXIS2_PLACEMENT_3D('',#1557,#1268,#1269);
#1027=AXIS2_PLACEMENT_3D('',#1558,#1270,#1271);
#1028=AXIS2_PLACEMENT_3D('',#1559,#1272,#1273);
#1029=AXIS2_PLACEMENT_3D('',#1560,#1274,#1275);
#1030=AXIS2_PLACEMENT_3D('',#1562,#1276,#1277);
#1031=AXIS2_PLACEMENT_3D('',#1564,#1279,#1280);
#1032=AXIS2_PLACEMENT_3D('',#1566,#1282,#1283);
#1033=AXIS2_PLACEMENT_3D('',#1567,#1284,#1285);
#1034=AXIS2_PLACEMENT_3D('',#1569,#1286,#1287);
#1035=AXIS2_PLACEMENT_3D('',#1572,#1289,#1290);
#1036=AXIS2_PLACEMENT_3D('',#1573,#1291,#1292);
#1037=AXIS2_PLACEMENT_3D('',#1575,#1294,#1295);
#1038=AXIS2_PLACEMENT_3D('',#1577,#1297,#1298);
#1039=DIRECTION('axis',(0.,0.,1.));
#1040=DIRECTION('refdir',(1.,0.,0.));
#1041=DIRECTION('center_axis',(0.,1.,0.));
#1042=DIRECTION('ref_axis',(0.,0.,1.));
#1043=DIRECTION('',(1.,0.,0.));
#1044=DIRECTION('',(0.,0.,1.));
#1045=DIRECTION('',(1.,0.,0.));
#1046=DIRECTION('',(0.,0.,-1.));
#1047=DIRECTION('',(1.,0.,0.));
#1048=DIRECTION('',(0.,0.,1.));
#1049=DIRECTION('center_axis',(0.,-1.,0.));
#1050=DIRECTION('ref_axis',(0.,0.,-1.));
#1051=DIRECTION('',(-1.,0.,0.));
#1052=DIRECTION('',(0.,0.,-1.));
#1053=DIRECTION('',(-1.,0.,0.));
#1054=DIRECTION('',(0.,0.,1.));
#1055=DIRECTION('',(-1.,0.,0.));
#1056=DIRECTION('',(0.,0.,-1.));
#1057=DIRECTION('center_axis',(0.,4.16333634234433E-16,-1.));
#1058=DIRECTION('ref_axis',(1.,0.,0.));
#1059=DIRECTION('',(0.,-1.,-4.16333634234433E-16));
#1060=DIRECTION('center_axis',(0.,-4.16333634234433E-16,1.));
#1061=DIRECTION('ref_axis',(-1.,-8.88178419700124E-16,0.));
#1062=DIRECTION('',(1.,0.,0.));
#1063=DIRECTION('',(0.,1.,4.16333634234433E-16));
#1064=DIRECTION('',(1.,0.,0.));
#1065=DIRECTION('',(0.,1.,4.16333634234433E-16));
#1066=DIRECTION('',(1.,0.,0.));
#1067=DIRECTION('',(3.36431219583381E-16,1.,4.16333634234433E-16));
#1068=DIRECTION('',(-1.,0.,0.));
#1069=DIRECTION('',(0.,1.,4.16333634234433E-16));
#1070=DIRECTION('',(-1.,0.,0.));
#1071=DIRECTION('',(0.,1.,4.16333634234433E-16));
#1072=DIRECTION('',(-1.,-1.15287956866579E-16,-4.79982540657255E-32));
#1073=DIRECTION('center_axis',(0.,-4.16333634234433E-16,1.));
#1074=DIRECTION('ref_axis',(8.88178419700125E-16,1.,0.));
#1075=DIRECTION('',(0.,-1.,-4.16333634234433E-16));
#1076=DIRECTION('',(0.,1.,4.16333634234433E-16));
#1077=DIRECTION('center_axis',(0.,-1.,0.));
#1078=DIRECTION('ref_axis',(0.,0.,-1.));
#1079=DIRECTION('',(-1.,5.55111504040772E-16,0.));
#1080=DIRECTION('',(0.,0.,1.));
#1081=DIRECTION('',(-1.,5.55111504040772E-16,0.));
#1082=DIRECTION('',(0.,0.,-1.));
#1083=DIRECTION('',(0.,0.,1.));
#1084=DIRECTION('center_axis',(0.,1.,0.));
#1085=DIRECTION('ref_axis',(0.,0.,1.));
#1086=DIRECTION('',(1.,-5.76739072851018E-16,0.));
#1087=DIRECTION('',(0.,0.,-1.));
#1088=DIRECTION('',(0.,0.,1.));
#1089=DIRECTION('',(1.,-5.76739072851018E-16,0.));
#1090=DIRECTION('',(0.,0.,-1.));
#1091=DIRECTION('center_axis',(1.,0.,0.));
#1092=DIRECTION('ref_axis',(0.,1.,0.));
#1093=DIRECTION('',(0.,1.,0.));
#1094=DIRECTION('',(0.,0.,1.));
#1095=DIRECTION('',(0.,1.,0.));
#1096=DIRECTION('',(0.,0.,1.));
#1097=DIRECTION('center_axis',(1.,0.,0.));
#1098=DIRECTION('ref_axis',(0.,1.,0.));
#1099=DIRECTION('',(0.,1.,0.));
#1100=DIRECTION('',(0.,0.,-1.));
#1101=DIRECTION('',(0.,1.,0.));
#1102=DIRECTION('',(0.,0.,1.));
#1103=DIRECTION('center_axis',(0.,1.,0.));
#1104=DIRECTION('ref_axis',(-1.,0.,0.));
#1105=DIRECTION('',(-1.,0.,0.));
#1106=DIRECTION('',(0.,0.,1.));
#1107=DIRECTION('',(-1.,0.,0.));
#1108=DIRECTION('center_axis',(1.15287956866579E-16,-1.,0.));
#1109=DIRECTION('ref_axis',(1.,1.15287956866579E-16,2.55990688350536E-33));
#1110=DIRECTION('',(0.,0.,1.));
#1111=DIRECTION('',(1.,1.15287956866579E-16,2.55990688350536E-33));
#1112=DIRECTION('',(0.,0.,1.));
#1113=DIRECTION('center_axis',(1.15287956866579E-16,-1.,0.));
#1114=DIRECTION('ref_axis',(1.,1.15287956866579E-16,2.55990688350536E-33));
#1115=DIRECTION('',(1.,1.15287956866579E-16,0.));
#1116=DIRECTION('',(0.,0.,1.));
#1117=DIRECTION('',(1.,1.15287956866579E-16,2.55990688350536E-33));
#1118=DIRECTION('center_axis',(0.,-1.,0.));
#1119=DIRECTION('ref_axis',(0.,0.,-1.));
#1120=DIRECTION('',(0.,0.,1.));
#1121=DIRECTION('',(-1.,0.,0.));
#1122=DIRECTION('',(1.,0.,0.));
#1123=DIRECTION('',(0.,0.,1.));
#1124=DIRECTION('center_axis',(0.,1.,0.));
#1125=DIRECTION('ref_axis',(0.,0.,1.));
#1126=DIRECTION('',(0.,0.,1.));
#1127=DIRECTION('',(-1.,0.,0.));
#1128=DIRECTION('',(1.,0.,0.));
#1129=DIRECTION('',(0.,0.,-1.));
#1130=DIRECTION('center_axis',(0.,0.,1.));
#1131=DIRECTION('ref_axis',(-1.,0.,0.));
#1132=DIRECTION('center_axis',(0.,0.,-1.));
#1133=DIRECTION('ref_axis',(0.,-1.,0.));
#1134=DIRECTION('',(-3.3643121958338E-16,-1.,0.));
#1135=DIRECTION('center_axis',(0.,1.,0.));
#1136=DIRECTION('ref_axis',(-1.,0.,0.));
#1137=DIRECTION('',(0.,0.,-1.));
#1138=DIRECTION('',(0.,0.,1.));
#1139=DIRECTION('',(-1.,0.,0.));
#1140=DIRECTION('center_axis',(0.,0.,1.));
#1141=DIRECTION('ref_axis',(-1.,0.,0.));
#1142=DIRECTION('',(0.,-1.,0.));
#1143=DIRECTION('center_axis',(0.,0.,-1.));
#1144=DIRECTION('ref_axis',(1.,8.88178419700122E-16,0.));
#1145=DIRECTION('center_axis',(-1.,3.3643121958338E-16,0.));
#1146=DIRECTION('ref_axis',(-3.3643121958338E-16,-1.,-1.32698718212577E-47));
#1147=DIRECTION('',(-3.3643121958338E-16,-1.,-1.32698718212577E-47));
#1148=DIRECTION('',(0.,0.,1.));
#1149=DIRECTION('center_axis',(-1.,0.,0.));
#1150=DIRECTION('ref_axis',(0.,-1.,0.));
#1151=DIRECTION('',(0.,-1.,0.));
#1152=DIRECTION('center_axis',(-1.,0.,0.));
#1153=DIRECTION('ref_axis',(0.,-1.,0.));
#1154=DIRECTION('',(0.,-1.,0.));
#1155=DIRECTION('center_axis',(-1.,2.77555769080987E-15,0.));
#1156=DIRECTION('ref_axis',(2.77555769080987E-15,1.,0.));
#1157=DIRECTION('',(-2.77555769080987E-15,-1.,0.));
#1158=DIRECTION('',(-2.77555769080987E-15,-1.,0.));
#1159=DIRECTION('',(0.,0.,-1.));
#1160=DIRECTION('center_axis',(0.,0.,1.));
#1161=DIRECTION('ref_axis',(3.36431219583381E-15,-1.,0.));
#1162=DIRECTION('center_axis',(0.,0.,1.));
#1163=DIRECTION('ref_axis',(3.36431219583381E-15,-1.,0.));
#1164=DIRECTION('center_axis',(0.,0.,1.));
#1165=DIRECTION('ref_axis',(3.36431219583381E-15,-1.,0.));
#1166=DIRECTION('',(0.,0.,-1.));
#1167=DIRECTION('center_axis',(-1.15287956866579E-16,-1.,0.));
#1168=DIRECTION('ref_axis',(-1.,1.15287956866579E-16,0.));
#1169=DIRECTION('',(1.,-1.15287956866579E-16,0.));
#1170=DIRECTION('',(1.,-1.15287956866579E-16,0.));
#1171=DIRECTION('',(0.,0.,-1.));
#1172=DIRECTION('center_axis',(0.,0.,1.));
#1173=DIRECTION('ref_axis',(1.,-6.7286243916676E-16,0.));
#1174=DIRECTION('center_axis',(0.,0.,1.));
#1175=DIRECTION('ref_axis',(1.,-6.7286243916676E-16,0.));
#1176=DIRECTION('center_axis',(0.,0.,1.));
#1177=DIRECTION('ref_axis',(1.,-6.7286243916676E-16,0.));
#1178=DIRECTION('',(0.,0.,-1.));
#1179=DIRECTION('center_axis',(1.,2.44235536060363E-78,0.));
#1180=DIRECTION('ref_axis',(2.44235536060363E-78,-1.,0.));
#1181=DIRECTION('',(0.,1.,0.));
#1182=DIRECTION('',(0.,1.,0.));
#1183=DIRECTION('center_axis',(0.,0.,-1.));
#1184=DIRECTION('ref_axis',(-1.,-2.44235536060363E-78,0.));
#1185=DIRECTION('',(0.,1.,0.));
#1186=DIRECTION('center_axis',(0.,0.,-1.));
#1187=DIRECTION('ref_axis',(0.,-1.,0.));
#1188=DIRECTION('',(-1.,-1.22117768030181E-78,0.));
#1189=DIRECTION('center_axis',(0.,0.,-1.));
#1190=DIRECTION('ref_axis',(0.707106781186547,-0.707106781186548,0.));
#1191=DIRECTION('',(0.,1.,0.));
#1192=DIRECTION('center_axis',(0.,0.,1.));
#1193=DIRECTION('ref_axis',(-1.,0.,0.));
#1194=DIRECTION('',(0.,1.,0.));
#1195=DIRECTION('center_axis',(0.,2.05109003183493E-77,-1.));
#1196=DIRECTION('ref_axis',(0.,-1.,-2.05109003183493E-77));
#1197=DIRECTION('center_axis',(0.,0.,-1.));
#1198=DIRECTION('ref_axis',(-1.,-8.88178419700124E-16,0.));
#1199=DIRECTION('',(0.,1.,0.));
#1200=DIRECTION('center_axis',(1.,2.77555769080987E-15,0.));
#1201=DIRECTION('ref_axis',(2.77555769080987E-15,-1.,0.));
#1202=DIRECTION('',(0.,-1.,0.));
#1203=DIRECTION('',(0.,0.,-1.));
#1204=DIRECTION('',(0.,-1.,0.));
#1205=DIRECTION('center_axis',(0.,0.,-1.));
#1206=DIRECTION('ref_axis',(3.36431219583381E-15,1.,0.));
#1207=DIRECTION('center_axis',(-1.05371075930675E-46,-4.93038065763133E-32,
1.));
#1208=DIRECTION('ref_axis',(3.36431219583381E-15,1.,0.));
#1209=DIRECTION('',(0.,0.,-1.));
#1210=DIRECTION('center_axis',(0.,0.,1.));
#1211=DIRECTION('ref_axis',(3.36431219583381E-15,1.,0.));
#1212=DIRECTION('center_axis',(1.15287956866579E-16,-1.,0.));
#1213=DIRECTION('ref_axis',(-1.,-1.15287956866579E-16,0.));
#1214=DIRECTION('',(-1.,-1.15287956866579E-16,-1.11055211056603E-46));
#1215=DIRECTION('',(0.,0.,-1.));
#1216=DIRECTION('',(-1.,-1.15287956866579E-16,0.));
#1217=DIRECTION('center_axis',(0.,0.,-1.));
#1218=DIRECTION('ref_axis',(1.,6.7286243916676E-16,0.));
#1219=DIRECTION('center_axis',(-1.05371075930675E-46,-4.93038065763133E-32,
1.));
#1220=DIRECTION('ref_axis',(1.,6.7286243916676E-16,0.));
#1221=DIRECTION('',(0.,0.,-1.));
#1222=DIRECTION('center_axis',(0.,0.,1.));
#1223=DIRECTION('ref_axis',(1.,6.7286243916676E-16,0.));
#1224=DIRECTION('center_axis',(-1.,0.,0.));
#1225=DIRECTION('ref_axis',(0.,1.,0.));
#1226=DIRECTION('',(0.,-1.,0.));
#1227=DIRECTION('',(0.,1.,0.));
#1228=DIRECTION('center_axis',(0.,0.,1.));
#1229=DIRECTION('ref_axis',(-1.,0.,0.));
#1230=DIRECTION('',(-3.36431219583381E-16,-1.,0.));
#1231=DIRECTION('center_axis',(0.,0.,-1.));
#1232=DIRECTION('ref_axis',(0.707106781186548,0.707106781186548,0.));
#1233=DIRECTION('',(1.,6.69817812745192E-17,0.));
#1234=DIRECTION('center_axis',(0.,0.,-1.));
#1235=DIRECTION('ref_axis',(-1.,-8.32667268468867E-16,0.));
#1236=DIRECTION('',(0.,1.,0.));
#1237=DIRECTION('center_axis',(-1.,0.,0.));
#1238=DIRECTION('ref_axis',(0.,1.,4.16333634234433E-16));
#1239=DIRECTION('',(0.,0.,-1.));
#1240=DIRECTION('',(0.,1.,4.16333634234433E-16));
#1241=DIRECTION('',(0.,0.,-1.));
#1242=DIRECTION('center_axis',(0.,0.,-1.));
#1243=DIRECTION('ref_axis',(-1.,-8.32667268468867E-16,0.));
#1244=DIRECTION('',(0.,0.,-1.));
#1245=DIRECTION('center_axis',(0.,4.16333634234433E-16,-1.));
#1246=DIRECTION('ref_axis',(-1.,-8.32667268468867E-16,-3.46667389989702E-31));
#1247=DIRECTION('center_axis',(-6.69817812745192E-17,1.,0.));
#1248=DIRECTION('ref_axis',(1.,6.69817812745192E-17,2.78867684255165E-32));
#1249=DIRECTION('',(0.,0.,1.));
#1250=DIRECTION('',(1.,6.69817812745192E-17,2.78867684255165E-32));
#1251=DIRECTION('center_axis',(0.,0.,1.));
#1252=DIRECTION('ref_axis',(0.707106781186548,0.707106781186548,0.));
#1253=DIRECTION('',(0.,0.,1.));
#1254=DIRECTION('center_axis',(0.,-4.16333634234433E-16,1.));
#1255=DIRECTION('ref_axis',(0.707106781186548,0.707106781186548,0.));
#1256=DIRECTION('center_axis',(1.,-3.36431219583381E-16,0.));
#1257=DIRECTION('ref_axis',(-3.36431219583381E-16,-1.,-4.16333634234433E-16));
#1258=DIRECTION('',(0.,0.,1.));
#1259=DIRECTION('',(3.36431219583381E-16,1.,4.16333634234433E-16));
#1260=DIRECTION('center_axis',(1.,0.,0.));
#1261=DIRECTION('ref_axis',(0.,1.,0.));
#1262=DIRECTION('',(0.,0.,1.));
#1263=DIRECTION('center_axis',(0.,0.,1.));
#1264=DIRECTION('ref_axis',(-1.,-8.88178419700124E-16,0.));
#1265=DIRECTION('center_axis',(0.,0.,1.));
#1266=DIRECTION('ref_axis',(0.,-1.,0.));
#1267=DIRECTION('',(0.,0.,1.));
#1268=DIRECTION('center_axis',(-1.,3.3643121958338E-16,0.));
#1269=DIRECTION('ref_axis',(-3.3643121958338E-16,-1.,-1.32698718212577E-47));
#1270=DIRECTION('center_axis',(0.,0.,1.));
#1271=DIRECTION('ref_axis',(1.,8.88178419700122E-16,0.));
#1272=DIRECTION('center_axis',(2.12384298499229E-46,1.88635150610165E-61,
-1.));
#1273=DIRECTION('ref_axis',(1.,8.88178419700122E-16,2.12384298499229E-46));
#1274=DIRECTION('center_axis',(0.,0.,1.));
#1275=DIRECTION('ref_axis',(8.88178419700125E-16,1.,0.));
#1276=DIRECTION('center_axis',(0.,0.,-1.));
#1277=DIRECTION('ref_axis',(8.88178419700125E-16,1.,0.));
#1278=DIRECTION('',(0.,0.,1.));
#1279=DIRECTION('center_axis',(1.,0.,0.));
#1280=DIRECTION('ref_axis',(0.,1.,0.));
#1281=DIRECTION('',(0.,-1.,0.));
#1282=DIRECTION('center_axis',(-1.05371075930675E-46,-4.93038065763133E-32,
1.));
#1283=DIRECTION('ref_axis',(-1.,0.,-1.05371075930675E-46));
#1284=DIRECTION('center_axis',(0.,4.16333634234433E-16,-1.));
#1285=DIRECTION('ref_axis',(1.,0.,0.));
#1286=DIRECTION('center_axis',(0.,-4.16333634234433E-16,1.));
#1287=DIRECTION('ref_axis',(0.707106781186547,-0.707106781186548,0.));
#1288=DIRECTION('',(-1.,-1.22117768030181E-78,2.93317085117889E-63));
#1289=DIRECTION('center_axis',(0.,4.16333634234433E-16,-1.));
#1290=DIRECTION('ref_axis',(0.,-1.,-4.16333634234433E-16));
#1291=DIRECTION('center_axis',(0.,0.,1.));
#1292=DIRECTION('ref_axis',(0.707106781186547,-0.707106781186548,0.));
#1293=DIRECTION('',(0.,0.,1.));
#1294=DIRECTION('center_axis',(1.22117768030181E-78,-1.,0.));
#1295=DIRECTION('ref_axis',(-1.,-1.22117768030181E-78,2.93317085117889E-63));
#1296=DIRECTION('',(0.,0.,1.));
#1297=DIRECTION('center_axis',(0.,0.,-1.));
#1298=DIRECTION('ref_axis',(0.,-1.,0.));
#1299=CARTESIAN_POINT('',(0.,0.,0.));
#1300=CARTESIAN_POINT('Origin',(-19.075,-3.0000000745058,-1.));
#1301=CARTESIAN_POINT('',(-20.575,-3.0000000745058,1.));
#1302=CARTESIAN_POINT('',(-20.025,-3.00000007450581,1.));
#1303=CARTESIAN_POINT('',(-5.7875,-3.00000007450581,1.));
#1304=CARTESIAN_POINT('',(-20.025,-3.00000007450581,3.));
#1305=CARTESIAN_POINT('',(-20.025,-3.00000007450581,1.));
#1306=CARTESIAN_POINT('',(-19.075,-3.00000007450581,3.));
#1307=CARTESIAN_POINT('',(-21.0000003129244,-3.00000007450581,3.));
#1308=CARTESIAN_POINT('',(-19.075,-3.00000007450581,-1.));
#1309=CARTESIAN_POINT('',(-19.075,-3.00000007450581,-1.));
#1310=CARTESIAN_POINT('',(-20.575,-3.00000007450581,-1.));
#1311=CARTESIAN_POINT('',(-9.5375,-3.0000000745058,-1.));
#1312=CARTESIAN_POINT('',(-20.575,-3.00000007450581,-1.));
#1313=CARTESIAN_POINT('Origin',(-20.575,3.00000007450581,-1.));
#1314=CARTESIAN_POINT('',(-20.025,3.00000007450581,1.));
#1315=CARTESIAN_POINT('',(-20.575,3.00000007450581,1.));
#1316=CARTESIAN_POINT('',(-6.5375,3.00000007450581,1.));
#1317=CARTESIAN_POINT('',(-20.575,3.00000007450581,-1.));
#1318=CARTESIAN_POINT('',(-20.575,3.00000007450581,-1.));
#1319=CARTESIAN_POINT('',(-19.075,3.00000007450581,-1.));
#1320=CARTESIAN_POINT('',(-10.2875,3.00000007450581,-0.999999999999999));
#1321=CARTESIAN_POINT('',(-19.075,3.00000007450581,3.));
#1322=CARTESIAN_POINT('',(-19.075,3.00000007450581,-1.));
#1323=CARTESIAN_POINT('',(-20.025,3.00000007450581,3.));
#1324=CARTESIAN_POINT('',(-21.0000003129244,3.00000007450581,3.));
#1325=CARTESIAN_POINT('',(-20.025,3.00000007450581,1.));
#1326=CARTESIAN_POINT('Origin',(0.,2.22044604925031E-15,-1.));
#1327=CARTESIAN_POINT('',(-19.075,-6.60000000000001,-1.));
#1328=CARTESIAN_POINT('',(-19.075,-2.5000000372529,-1.));
#1329=CARTESIAN_POINT('',(-16.575,-9.1,-1.));
#1330=CARTESIAN_POINT('Origin',(-16.575,-6.6,-1.));
#1331=CARTESIAN_POINT('',(19.0000002831221,-9.1,-1.));
#1332=CARTESIAN_POINT('',(15.7875,-9.1,-1.));
#1333=CARTESIAN_POINT('',(19.0000002831221,-4.50000008940697,-1.));
#1334=CARTESIAN_POINT('',(19.0000002831221,-3.00000004470348,-1.));
#1335=CARTESIAN_POINT('',(34.075,-4.50000008195639,-1.));
#1336=CARTESIAN_POINT('',(17.0375,-4.50000008195639,-1.));
#1337=CARTESIAN_POINT('',(34.075,-3.0000000745058,-1.));
#1338=CARTESIAN_POINT('',(34.075,-2.5000000372529,-1.));
#1339=CARTESIAN_POINT('',(35.575,-3.00000007450581,-1.));
#1340=CARTESIAN_POINT('',(17.7875,-3.00000007450581,-1.));
#1341=CARTESIAN_POINT('',(35.575,3.00000007450581,-1.));
#1342=CARTESIAN_POINT('',(35.575,3.29999999999999,-0.999999999999999));
#1343=CARTESIAN_POINT('',(34.075,3.00000007450581,-1.));
#1344=CARTESIAN_POINT('',(17.0375,3.00000007450581,-0.999999999999999));
#1345=CARTESIAN_POINT('',(34.075,4.50000008195639,-1.));
#1346=CARTESIAN_POINT('',(34.075,2.50000003725291,-0.999999999999999));
#1347=CARTESIAN_POINT('',(19.0000002831221,4.50000008940697,-1.));
#1348=CARTESIAN_POINT('',(10.0000001490116,4.50000008195639,-0.999999999999998));
#1349=CARTESIAN_POINT('',(19.0000002831221,9.10000000000001,-1.));
#1350=CARTESIAN_POINT('',(19.0000002831221,3.00000004470349,-0.999999999999999));
#1351=CARTESIAN_POINT('',(-16.575,9.10000000000001,-1.));
#1352=CARTESIAN_POINT('',(-8.2875,9.10000000000001,-0.999999999999997));
#1353=CARTESIAN_POINT('',(-19.075,6.60000000000001,-1.));
#1354=CARTESIAN_POINT('Origin',(-16.575,6.60000000000001,-1.));
#1355=CARTESIAN_POINT('',(-19.075,2.5000000372529,-0.999999999999999));
#1356=CARTESIAN_POINT('',(-20.575,-6.60000000000001,-1.));
#1357=CARTESIAN_POINT('Origin',(34.075,3.00000007450581,-1.));
#1358=CARTESIAN_POINT('',(35.575,3.00000007450581,1.));
#1359=CARTESIAN_POINT('',(35.025,3.00000007450581,1.));
#1360=CARTESIAN_POINT('',(20.7875,3.00000007450581,1.));
#1361=CARTESIAN_POINT('',(35.025,3.00000007450581,3.));
#1362=CARTESIAN_POINT('',(35.025,3.00000007450581,1.));
#1363=CARTESIAN_POINT('',(34.075,3.00000007450581,3.));
#1364=CARTESIAN_POINT('',(36.0750000298023,3.00000007450581,3.));
#1365=CARTESIAN_POINT('',(34.075,3.00000007450581,-1.));
#1366=CARTESIAN_POINT('',(35.575,3.00000007450581,-1.));
#1367=CARTESIAN_POINT('Origin',(35.575,-3.00000007450581,-1.));
#1368=CARTESIAN_POINT('',(35.025,-3.00000007450581,1.));
#1369=CARTESIAN_POINT('',(35.575,-3.0000000745058,1.));
#1370=CARTESIAN_POINT('',(21.5375,-3.0000000745058,1.));
#1371=CARTESIAN_POINT('',(35.575,-3.00000007450581,-1.));
#1372=CARTESIAN_POINT('',(34.075,-3.0000000745058,3.));
#1373=CARTESIAN_POINT('',(34.075,-3.0000000745058,-1.));
#1374=CARTESIAN_POINT('',(35.025,-3.0000000745058,3.));
#1375=CARTESIAN_POINT('',(36.0000005364418,-3.00000007450581,3.));
#1376=CARTESIAN_POINT('',(35.025,-3.00000007450581,1.));
#1377=CARTESIAN_POINT('Origin',(20.0000002980232,-9.1,-1.));
#1378=CARTESIAN_POINT('',(20.0000002980232,-9.1,1.65));
#1379=CARTESIAN_POINT('',(20.0000002980232,-4.50000008195639,1.65));
#1380=CARTESIAN_POINT('',(20.0000002980232,-7.3000000409782,1.65));
#1381=CARTESIAN_POINT('',(20.0000002980232,-4.50000008940697,3.));
#1382=CARTESIAN_POINT('',(20.0000002980232,-4.50000008940697,2.));
#1383=CARTESIAN_POINT('',(20.0000002980232,-9.1,3.));
#1384=CARTESIAN_POINT('',(20.0000002980232,-6.00000008940697,3.));
#1385=CARTESIAN_POINT('',(20.0000002980232,-9.1,-1.));
#1386=CARTESIAN_POINT('Origin',(20.0000002980232,6.00000008940697,-1.));
#1387=CARTESIAN_POINT('',(20.0000002980232,4.50000008195639,1.65));
#1388=CARTESIAN_POINT('',(20.0000002980232,9.10000000000002,1.65));
#1389=CARTESIAN_POINT('',(20.0000002980232,5.75000008568168,1.65));
#1390=CARTESIAN_POINT('',(20.0000002980232,9.10000000000002,3.));
#1391=CARTESIAN_POINT('',(20.0000002980232,9.10000000000001,-1.));
#1392=CARTESIAN_POINT('',(20.0000002980232,4.50000008940697,3.));
#1393=CARTESIAN_POINT('',(20.0000002980232,6.00000008940697,3.));
#1394=CARTESIAN_POINT('',(20.0000002980232,4.50000008940697,-1.));
#1395=CARTESIAN_POINT('Origin',(31.575,-9.1,-1.));
#1396=CARTESIAN_POINT('',(31.575,-9.1,3.));
#1397=CARTESIAN_POINT('',(-16.575,-9.1,3.));
#1398=CARTESIAN_POINT('',(31.575,-9.1,1.65));
#1399=CARTESIAN_POINT('',(31.575,-9.1,-1.));
#1400=CARTESIAN_POINT('',(29.3062500745058,-9.1,1.65));
#1401=CARTESIAN_POINT('Origin',(-16.575,9.10000000000001,-1.));
#1402=CARTESIAN_POINT('',(19.0000002831221,9.10000000000001,3.));
#1403=CARTESIAN_POINT('',(19.0000002831221,9.10000000000001,-1.));
#1404=CARTESIAN_POINT('',(-16.575,9.10000000000001,3.));
#1405=CARTESIAN_POINT('',(31.575,9.10000000000002,3.));
#1406=CARTESIAN_POINT('',(-16.575,9.10000000000001,-1.));
#1407=CARTESIAN_POINT('Origin',(-16.575,9.10000000000001,-1.));
#1408=CARTESIAN_POINT('',(31.575,9.10000000000002,1.65));
#1409=CARTESIAN_POINT('',(5.23125007450581,9.10000000000001,1.65));
#1410=CARTESIAN_POINT('',(31.575,9.10000000000002,3.));
#1411=CARTESIAN_POINT('',(31.575,9.10000000000002,-1.));
#1412=CARTESIAN_POINT('',(31.575,9.10000000000002,3.));
#1413=CARTESIAN_POINT('Origin',(19.0000002831221,4.50000008940697,-1.));
#1414=CARTESIAN_POINT('',(34.075,4.50000008195639,1.65));
#1415=CARTESIAN_POINT('',(34.075,4.50000008195639,-1.));
#1416=CARTESIAN_POINT('',(20.0000002980232,4.50000008195639,1.65));
#1417=CARTESIAN_POINT('',(19.0000002831221,4.50000008940697,3.));
#1418=CARTESIAN_POINT('',(20.0000002980232,4.50000008940697,3.));
#1419=CARTESIAN_POINT('',(19.0000002831221,4.50000008940697,2.));
#1420=CARTESIAN_POINT('Origin',(20.0000002980232,-4.50000008940697,-1.));
#1421=CARTESIAN_POINT('',(19.0000002831221,-4.50000008940697,3.));
#1422=CARTESIAN_POINT('',(19.0000002831221,-4.50000008940697,-1.));
#1423=CARTESIAN_POINT('',(19.0000002831221,-4.50000008940697,3.));
#1424=CARTESIAN_POINT('',(34.075,-4.50000008195639,1.65));
#1425=CARTESIAN_POINT('',(20.0000002980232,-4.50000008195639,1.65));
#1426=CARTESIAN_POINT('',(34.075,-4.50000008195639,-1.));
#1427=CARTESIAN_POINT('Origin',(27.0375001490116,-7.3000000409782,1.65));
#1428=CARTESIAN_POINT('',(34.075,-6.6,1.65));
#1429=CARTESIAN_POINT('Origin',(31.575,-6.60000000000001,1.65));
#1430=CARTESIAN_POINT('',(34.075,-5.2500000782311,1.65));
#1431=CARTESIAN_POINT('Origin',(31.575,-9.1,-1.));
#1432=CARTESIAN_POINT('',(19.0000002831221,-9.1,3.));
#1433=CARTESIAN_POINT('',(19.0000002831221,-9.1,-1.));
#1434=CARTESIAN_POINT('',(-16.575,-9.1,3.));
#1435=CARTESIAN_POINT('',(-16.575,-9.1,-1.));
#1436=CARTESIAN_POINT('',(-16.575,-9.1,3.));
#1437=CARTESIAN_POINT('Origin',(27.0375001490116,7.3000000409782,1.65));
#1438=CARTESIAN_POINT('',(34.075,6.60000000000001,1.65));
#1439=CARTESIAN_POINT('',(34.075,5.50000008195639,1.65));
#1440=CARTESIAN_POINT('Origin',(31.575,6.60000000000001,1.65));
#1441=CARTESIAN_POINT('Origin',(34.075,6.60000000000001,-1.));
#1442=CARTESIAN_POINT('',(34.075,6.60000000000001,3.));
#1443=CARTESIAN_POINT('',(34.075,-6.6,3.));
#1444=CARTESIAN_POINT('',(34.075,6.60000000000001,-1.));
#1445=CARTESIAN_POINT('Origin',(19.0000002831221,-6.00000008940697,-1.));
#1446=CARTESIAN_POINT('',(19.0000002831221,-6.00000008940697,3.));
#1447=CARTESIAN_POINT('Origin',(19.0000002831221,9.10000000000001,-1.));
#1448=CARTESIAN_POINT('',(19.0000002831221,6.00000008940697,3.));
#1449=CARTESIAN_POINT('Origin',(-20.025,-6.6,3.));
#1450=CARTESIAN_POINT('',(-20.025,-6.6,3.));
#1451=CARTESIAN_POINT('',(-20.025,-7.20000001862641,3.));
#1452=CARTESIAN_POINT('',(-20.025,-6.6,1.));
#1453=CARTESIAN_POINT('',(-20.025,-7.20000001862641,1.));
#1454=CARTESIAN_POINT('',(-20.025,-6.6,3.));
#1455=CARTESIAN_POINT('Origin',(-16.575,-6.6,3.));
#1456=CARTESIAN_POINT('',(-16.575,-10.05,3.));
#1457=CARTESIAN_POINT('Origin',(-16.575,-6.6,3.));
#1458=CARTESIAN_POINT('',(-16.575,-10.05,1.));
#1459=CARTESIAN_POINT('Origin',(-16.575,-6.6,1.));
#1460=CARTESIAN_POINT('',(-16.575,-10.05,3.));
#1461=CARTESIAN_POINT('Origin',(31.575,-10.05,3.));
#1462=CARTESIAN_POINT('',(31.575,-10.05,3.));
#1463=CARTESIAN_POINT('',(19.5375,-10.05,3.));
#1464=CARTESIAN_POINT('',(31.575,-10.05,1.));
#1465=CARTESIAN_POINT('',(19.5375,-10.05,1.));
#1466=CARTESIAN_POINT('',(31.575,-10.05,3.));
#1467=CARTESIAN_POINT('Origin',(31.575,-6.6,3.));
#1468=CARTESIAN_POINT('',(35.025,-6.6,3.));
#1469=CARTESIAN_POINT('Origin',(31.575,-6.6,3.));
#1470=CARTESIAN_POINT('',(35.025,-6.6,1.));
#1471=CARTESIAN_POINT('Origin',(31.575,-6.6,1.));
#1472=CARTESIAN_POINT('',(35.025,-6.6,3.));
#1473=CARTESIAN_POINT('Origin',(35.025,-5.0000000745058,3.));
#1474=CARTESIAN_POINT('',(35.025,-5.00000007450581,3.));
#1475=CARTESIAN_POINT('',(35.025,-5.00000007450581,1.));
#1476=CARTESIAN_POINT('Origin',(7.5,-7.80000003725291,1.));
#1477=CARTESIAN_POINT('',(-20.575,-6.6,1.));
#1478=CARTESIAN_POINT('',(-20.575,-7.20000001862646,1.));
#1479=CARTESIAN_POINT('',(-16.575,-10.6,1.));
#1480=CARTESIAN_POINT('Origin',(-16.575,-6.6,1.));
#1481=CARTESIAN_POINT('',(31.575,-10.6,1.));
#1482=CARTESIAN_POINT('',(12.0375,-10.6,1.));
#1483=CARTESIAN_POINT('',(35.575,-6.6,1.));
#1484=CARTESIAN_POINT('Origin',(31.575,-6.6,1.));
#1485=CARTESIAN_POINT('',(35.575,-5.0000000745058,1.));
#1486=CARTESIAN_POINT('Origin',(7.5,-7.80000003725291,3.));
#1487=CARTESIAN_POINT('',(34.075,-6.6,3.));
#1488=CARTESIAN_POINT('',(34.075,-5.00000007450581,3.));
#1489=CARTESIAN_POINT('Origin',(31.575,-6.60000000000001,3.));
#1490=CARTESIAN_POINT('',(-19.075,-6.60000000000001,3.));
#1491=CARTESIAN_POINT('Origin',(-16.575,-6.6,3.));
#1492=CARTESIAN_POINT('',(-19.075,6.60000000000001,3.));
#1493=CARTESIAN_POINT('Origin',(-20.025,6.6,3.));
#1494=CARTESIAN_POINT('',(-20.025,6.6,3.));
#1495=CARTESIAN_POINT('',(-20.025,5.00000007450581,3.));
#1496=CARTESIAN_POINT('',(-20.025,6.6,1.));
#1497=CARTESIAN_POINT('',(-20.025,6.6,3.));
#1498=CARTESIAN_POINT('',(-20.025,5.00000007450581,1.));
#1499=CARTESIAN_POINT('Origin',(-16.575,6.60000000000001,3.));
#1500=CARTESIAN_POINT('',(-16.575,10.05,3.));
#1501=CARTESIAN_POINT('Origin',(-16.575,6.60000000000001,3.));
#1502=CARTESIAN_POINT('',(-16.575,10.05,1.));
#1503=CARTESIAN_POINT('',(-16.575,10.05,3.));
#1504=CARTESIAN_POINT('Origin',(-16.575,6.60000000000001,1.));
#1505=CARTESIAN_POINT('Origin',(31.575,10.05,3.));
#1506=CARTESIAN_POINT('',(31.575,10.05,3.));
#1507=CARTESIAN_POINT('',(19.5375,10.05,3.));
#1508=CARTESIAN_POINT('',(31.575,10.05,1.));
#1509=CARTESIAN_POINT('',(31.575,10.05,3.));
#1510=CARTESIAN_POINT('',(19.5375,10.05,1.));
#1511=CARTESIAN_POINT('Origin',(31.575,6.60000000000001,3.));
#1512=CARTESIAN_POINT('',(35.025,6.60000000000001,3.));
#1513=CARTESIAN_POINT('Origin',(31.575,6.60000000000001,3.));
#1514=CARTESIAN_POINT('',(35.025,6.60000000000001,1.));
#1515=CARTESIAN_POINT('',(35.025,6.60000000000001,3.));
#1516=CARTESIAN_POINT('Origin',(31.575,6.60000000000001,1.));
#1517=CARTESIAN_POINT('Origin',(35.025,5.00000007450581,3.));
#1518=CARTESIAN_POINT('',(35.025,5.00000007450581,3.));
#1519=CARTESIAN_POINT('',(35.025,6.40000005587936,1.));
#1520=CARTESIAN_POINT('Origin',(7.5,7.80000003725291,1.));
#1521=CARTESIAN_POINT('',(35.575,6.60000000000001,1.));
#1522=CARTESIAN_POINT('',(35.575,7.20000001862645,1.));
#1523=CARTESIAN_POINT('',(31.575,10.6,1.));
#1524=CARTESIAN_POINT('Origin',(31.575,6.60000000000001,1.));
#1525=CARTESIAN_POINT('',(-16.575,10.6,1.));
#1526=CARTESIAN_POINT('',(-4.5375,10.6,1.));
#1527=CARTESIAN_POINT('',(-20.575,6.6,1.));
#1528=CARTESIAN_POINT('Origin',(-16.575,6.60000000000001,1.));
#1529=CARTESIAN_POINT('',(-20.575,0.600000018626452,1.));
#1530=CARTESIAN_POINT('Origin',(-20.575,-6.60000000000001,-1.));
#1531=CARTESIAN_POINT('',(-20.575,6.60000000000001,-3.));
#1532=CARTESIAN_POINT('',(-20.575,6.60000000000001,-0.999999999999998));
#1533=CARTESIAN_POINT('',(-20.575,-6.60000000000001,-3.));
#1534=CARTESIAN_POINT('',(-20.575,-6.60000000000001,-3.));
#1535=CARTESIAN_POINT('',(-20.575,-6.60000000000001,-1.));
#1536=CARTESIAN_POINT('Origin',(-16.575,6.60000000000001,-0.999999999999998));
#1537=CARTESIAN_POINT('',(-16.575,10.6,-3.));
#1538=CARTESIAN_POINT('',(-16.575,10.6,-0.999999999999996));
#1539=CARTESIAN_POINT('Origin',(-16.575,6.60000000000001,-3.));
#1540=CARTESIAN_POINT('Origin',(-16.575,10.6,-0.999999999999996));
#1541=CARTESIAN_POINT('',(31.575,10.6,-3.));
#1542=CARTESIAN_POINT('',(31.575,10.6,-0.999999999999997));
#1543=CARTESIAN_POINT('',(-16.575,10.6,-3.));
#1544=CARTESIAN_POINT('Origin',(31.575,6.60000000000001,-0.999999999999997));
#1545=CARTESIAN_POINT('',(35.575,6.60000000000001,-3.));
#1546=CARTESIAN_POINT('',(35.575,6.60000000000001,-1.));
#1547=CARTESIAN_POINT('Origin',(31.575,6.60000000000001,-3.));
#1548=CARTESIAN_POINT('Origin',(35.575,6.6,-0.999999999999998));
#1549=CARTESIAN_POINT('',(35.575,-6.6,-3.));
#1550=CARTESIAN_POINT('',(35.575,-6.6,-1.));
#1551=CARTESIAN_POINT('',(35.575,3.29999999999999,-3.));
#1552=CARTESIAN_POINT('Origin',(-19.075,-6.60000000000001,-1.));
#1553=CARTESIAN_POINT('',(-19.075,-6.60000000000001,-1.));
#1554=CARTESIAN_POINT('Origin',(-16.575,-6.6,-1.));
#1555=CARTESIAN_POINT('Origin',(31.575,-6.60000000000001,-1.));
#1556=CARTESIAN_POINT('',(34.075,-6.6,-1.));
#1557=CARTESIAN_POINT('Origin',(34.075,-5.00000007450581,-1.));
#1558=CARTESIAN_POINT('Origin',(31.575,6.60000000000001,-1.));
#1559=CARTESIAN_POINT('Origin',(31.575,6.60000000000001,3.));
#1560=CARTESIAN_POINT('Origin',(-16.575,6.60000000000001,-1.));
#1561=CARTESIAN_POINT('',(-19.075,6.60000000000001,3.));
#1562=CARTESIAN_POINT('Origin',(-16.575,6.60000000000001,3.));
#1563=CARTESIAN_POINT('',(-19.075,6.60000000000001,-1.));
#1564=CARTESIAN_POINT('Origin',(-19.075,5.00000007450581,-1.));
#1565=CARTESIAN_POINT('',(-19.075,5.00000007450581,3.));
#1566=CARTESIAN_POINT('Origin',(7.5,7.80000003725291,3.));
#1567=CARTESIAN_POINT('Origin',(0.,2.22044604925031E-15,-3.));
#1568=CARTESIAN_POINT('',(31.575,-10.6,-3.));
#1569=CARTESIAN_POINT('Origin',(31.575,-6.6,-3.));
#1570=CARTESIAN_POINT('',(-16.575,-10.6,-3.));
#1571=CARTESIAN_POINT('',(16.575,-10.6,-3.));
#1572=CARTESIAN_POINT('Origin',(-16.575,-6.6,-3.));
#1573=CARTESIAN_POINT('Origin',(31.575,-6.6,-1.));
#1574=CARTESIAN_POINT('',(31.575,-10.6,-1.));
#1575=CARTESIAN_POINT('Origin',(16.575,-10.6,-1.));
#1576=CARTESIAN_POINT('',(-16.575,-10.6,-1.));
#1577=CARTESIAN_POINT('Origin',(-16.575,-6.6,-1.));
#1578=UNCERTAINTY_MEASURE_WITH_UNIT(LENGTH_MEASURE(0.01),#1582,
'DISTANCE_ACCURACY_VALUE',
'Maximum model space distance between geometric entities at asserted c
onnectivities');
#1579=UNCERTAINTY_MEASURE_WITH_UNIT(LENGTH_MEASURE(0.01),#1582,
'DISTANCE_ACCURACY_VALUE',
'Maximum model space distance between geometric entities at asserted c
onnectivities');
#1580=(
GEOMETRIC_REPRESENTATION_CONTEXT(3)
GLOBAL_UNCERTAINTY_ASSIGNED_CONTEXT((#1578))
GLOBAL_UNIT_ASSIGNED_CONTEXT((#1582,#1583,#1584))
REPRESENTATION_CONTEXT('','3D')
);
#1581=(
GEOMETRIC_REPRESENTATION_CONTEXT(3)
GLOBAL_UNCERTAINTY_ASSIGNED_CONTEXT((#1579))
GLOBAL_UNIT_ASSIGNED_CONTEXT((#1582,#1583,#1584))
REPRESENTATION_CONTEXT('','3D')
);
#1582=(
LENGTH_UNIT()
NAMED_UNIT(*)
SI_UNIT(.MILLI.,.METRE.)
);
#1583=(
NAMED_UNIT(*)
PLANE_ANGLE_UNIT()
SI_UNIT($,.RADIAN.)
);
#1584=(
NAMED_UNIT(*)
SI_UNIT($,.STERADIAN.)
SOLID_ANGLE_UNIT()
);
#1585=SHAPE_DEFINITION_REPRESENTATION(#1586,#1587);
#1586=PRODUCT_DEFINITION_SHAPE('',$,#1589);
#1587=SHAPE_REPRESENTATION('',(#966),#1580);
#1588=PRODUCT_DEFINITION_CONTEXT('part definition',#1593,'design');
#1589=PRODUCT_DEFINITION('BoostBox','BoostBox v7',#1590,#1588);
#1590=PRODUCT_DEFINITION_FORMATION('',$,#1595);
#1591=PRODUCT_RELATED_PRODUCT_CATEGORY('BoostBox v7','BoostBox v7',(#1595));
#1592=APPLICATION_PROTOCOL_DEFINITION('international standard',
'automotive_design',2009,#1593);
#1593=APPLICATION_CONTEXT(
'Core Data for Automotive Mechanical Design Process');
#1594=PRODUCT_CONTEXT('part definition',#1593,'mechanical');
#1595=PRODUCT('BoostBox','BoostBox v7',$,(#1594));
#1596=PRESENTATION_STYLE_ASSIGNMENT((#1597));
#1597=SURFACE_STYLE_USAGE(.BOTH.,#1598);
#1598=SURFACE_SIDE_STYLE('',(#1599));
#1599=SURFACE_STYLE_FILL_AREA(#1600);
#1600=FILL_AREA_STYLE('Acciaio - Satinato',(#1601));
#1601=FILL_AREA_STYLE_COLOUR('Acciaio - Satinato',#1602);
#1602=COLOUR_RGB('Acciaio - Satinato',0.627450980392157,0.627450980392157,
0.627450980392157);
ENDSEC;
END-ISO-10303-21;
