ISO-10303-21;
HEADER;
/* Generated by software containing ST-Developer
 * from STEP Tools, Inc. (www.steptools.com) 
 */

FILE_DESCRIPTION(
/* description */ ('STEP AP203'),
/* implementation_level */ '2;1');

FILE_NAME(
/* name */ 'LongFoot.step',
/* time_stamp */ '2026-07-21T21:54:25+02:00',
/* author */ (''),
/* organization */ (''),
/* preprocessor_version */ 'ST-DEVELOPER v20.1',
/* originating_system */ 'Autodesk Translation Framework v15.8.0.0',
/* authorisation */ '');

FILE_SCHEMA (('AUTOMOTIVE_DESIGN { 1 0 10303 214 3 1 1 }'));
ENDSEC;

DATA;
#10=MECHANICAL_DESIGN_GEOMETRIC_PRESENTATION_REPRESENTATION('',(#13),#862);
#11=SHAPE_REPRESENTATION_RELATIONSHIP('SRR','None',#868,#12);
#12=ADVANCED_BREP_SHAPE_REPRESENTATION('',(#14),#861);
#13=STYLED_ITEM('',(#877),#14);
#14=MANIFOLD_SOLID_BREP('LongFoot1',#446);
#15=FACE_BOUND('',#82,.T.);
#16=FACE_BOUND('',#93,.T.);
#17=FACE_BOUND('',#97,.T.);
#18=PLANE('',#470);
#19=PLANE('',#473);
#20=PLANE('',#474);
#21=PLANE('',#475);
#22=PLANE('',#476);
#23=PLANE('',#477);
#24=PLANE('',#480);
#25=PLANE('',#483);
#26=PLANE('',#484);
#27=PLANE('',#485);
#28=PLANE('',#486);
#29=PLANE('',#490);
#30=PLANE('',#491);
#31=ELLIPSE('',#452,2.03284882158801,2.);
#32=ELLIPSE('',#453,1.06417777247591,1.);
#33=ELLIPSE('',#457,2.03284882158802,2.);
#34=ELLIPSE('',#458,1.06417777247591,0.999999999999999);
#35=ELLIPSE('',#462,2.03284882158802,2.);
#36=ELLIPSE('',#463,1.06417777247591,1.);
#37=ELLIPSE('',#466,2.03284882158801,2.);
#38=ELLIPSE('',#467,1.06417777247591,0.999999999999999);
#39=B_SPLINE_SURFACE_WITH_KNOTS('',3,3,((#631,#632,#633,#634,#635),(#636,
#637,#638,#639,#640),(#641,#642,#643,#644,#645),(#646,#647,#648,#649,#650),
(#651,#652,#653,#654,#655),(#656,#657,#658,#659,#660)),.UNSPECIFIED.,.F.,
 .F.,.F.,(4,1,1,4),(4,1,4),(0.,0.285714285714286,0.571428571428571,1.),
(4.2443717699158E-30,0.673198425769242,1.5707963267949),.UNSPECIFIED.);
#40=B_SPLINE_SURFACE_WITH_KNOTS('',3,3,((#672,#673,#674,#675,#676),(#677,
#678,#679,#680,#681),(#682,#683,#684,#685,#686),(#687,#688,#689,#690,#691),
(#692,#693,#694,#695,#696)),.UNSPECIFIED.,.F.,.F.,.F.,(4,1,4),(4,1,4),(0.,
0.571428571428571,1.),(-1.5707963267949,-0.897597901025656,0.),
 .UNSPECIFIED.);
#41=B_SPLINE_SURFACE_WITH_KNOTS('',3,3,((#708,#709,#710,#711,#712),(#713,
#714,#715,#716,#717),(#718,#719,#720,#721,#722),(#723,#724,#725,#726,#727),
(#728,#729,#730,#731,#732)),.UNSPECIFIED.,.F.,.F.,.F.,(4,1,4),(4,1,4),(0.,
0.571428571428571,1.),(-2.77555756156289E-16,0.897597901025655,1.5707963267949),
 .UNSPECIFIED.);
#42=B_SPLINE_SURFACE_WITH_KNOTS('',3,3,((#744,#745,#746,#747,#748,#749),
(#750,#751,#752,#753,#754,#755),(#756,#757,#758,#759,#760,#761),(#762,#763,
#764,#765,#766,#767),(#768,#769,#770,#771,#772,#773),(#774,#775,#776,#777,
#778,#779)),.UNSPECIFIED.,.F.,.F.,.F.,(4,1,1,4),(4,1,1,4),(0.,0.285714285714286,
0.571428571428571,1.),(-1.57079632679489,-0.897597901025651,-0.448798950512825,
0.),.UNSPECIFIED.);
#43=FACE_OUTER_BOUND('',#69,.T.);
#44=FACE_OUTER_BOUND('',#70,.T.);
#45=FACE_OUTER_BOUND('',#71,.T.);
#46=FACE_OUTER_BOUND('',#72,.T.);
#47=FACE_OUTER_BOUND('',#73,.T.);
#48=FACE_OUTER_BOUND('',#74,.T.);
#49=FACE_OUTER_BOUND('',#75,.T.);
#50=FACE_OUTER_BOUND('',#76,.T.);
#51=FACE_OUTER_BOUND('',#77,.T.);
#52=FACE_OUTER_BOUND('',#78,.T.);
#53=FACE_OUTER_BOUND('',#79,.T.);
#54=FACE_OUTER_BOUND('',#80,.T.);
#55=FACE_OUTER_BOUND('',#81,.T.);
#56=FACE_OUTER_BOUND('',#83,.T.);
#57=FACE_OUTER_BOUND('',#84,.T.);
#58=FACE_OUTER_BOUND('',#85,.T.);
#59=FACE_OUTER_BOUND('',#86,.T.);
#60=FACE_OUTER_BOUND('',#87,.T.);
#61=FACE_OUTER_BOUND('',#88,.T.);
#62=FACE_OUTER_BOUND('',#89,.T.);
#63=FACE_OUTER_BOUND('',#90,.T.);
#64=FACE_OUTER_BOUND('',#91,.T.);
#65=FACE_OUTER_BOUND('',#92,.T.);
#66=FACE_OUTER_BOUND('',#94,.T.);
#67=FACE_OUTER_BOUND('',#95,.T.);
#68=FACE_OUTER_BOUND('',#96,.T.);
#69=EDGE_LOOP('',(#289,#290,#291,#292));
#70=EDGE_LOOP('',(#293,#294,#295,#296));
#71=EDGE_LOOP('',(#297,#298,#299,#300));
#72=EDGE_LOOP('',(#301,#302,#303,#304));
#73=EDGE_LOOP('',(#305,#306,#307,#308));
#74=EDGE_LOOP('',(#309,#310,#311,#312));
#75=EDGE_LOOP('',(#313,#314,#315,#316));
#76=EDGE_LOOP('',(#317,#318,#319,#320));
#77=EDGE_LOOP('',(#321,#322,#323,#324));
#78=EDGE_LOOP('',(#325,#326,#327,#328));
#79=EDGE_LOOP('',(#329,#330,#331,#332));
#80=EDGE_LOOP('',(#333,#334,#335,#336));
#81=EDGE_LOOP('',(#337,#338,#339,#340,#341,#342,#343,#344));
#82=EDGE_LOOP('',(#345,#346,#347,#348,#349,#350));
#83=EDGE_LOOP('',(#351,#352,#353,#354));
#84=EDGE_LOOP('',(#355,#356,#357,#358));
#85=EDGE_LOOP('',(#359,#360,#361,#362));
#86=EDGE_LOOP('',(#363,#364,#365,#366));
#87=EDGE_LOOP('',(#367,#368,#369,#370));
#88=EDGE_LOOP('',(#371,#372,#373,#374));
#89=EDGE_LOOP('',(#375,#376,#377,#378));
#90=EDGE_LOOP('',(#379,#380,#381,#382));
#91=EDGE_LOOP('',(#383,#384,#385,#386));
#92=EDGE_LOOP('',(#387,#388,#389,#390,#391,#392));
#93=EDGE_LOOP('',(#393));
#94=EDGE_LOOP('',(#394,#395,#396,#397));
#95=EDGE_LOOP('',(#398,#399,#400,#401));
#96=EDGE_LOOP('',(#402,#403,#404,#405,#406,#407,#408,#409));
#97=EDGE_LOOP('',(#410));
#98=LINE('',#627,#137);
#99=LINE('',#630,#138);
#100=LINE('',#670,#139);
#101=LINE('',#671,#140);
#102=LINE('',#706,#141);
#103=LINE('',#707,#142);
#104=LINE('',#742,#143);
#105=LINE('',#743,#144);
#106=LINE('',#784,#145);
#107=LINE('',#787,#146);
#108=LINE('',#790,#147);
#109=LINE('',#791,#148);
#110=LINE('',#794,#149);
#111=LINE('',#798,#150);
#112=LINE('',#799,#151);
#113=LINE('',#803,#152);
#114=LINE('',#805,#153);
#115=LINE('',#807,#154);
#116=LINE('',#809,#155);
#117=LINE('',#811,#156);
#118=LINE('',#812,#157);
#119=LINE('',#815,#158);
#120=LINE('',#817,#159);
#121=LINE('',#818,#160);
#122=LINE('',#821,#161);
#123=LINE('',#822,#162);
#124=LINE('',#825,#163);
#125=LINE('',#826,#164);
#126=LINE('',#829,#165);
#127=LINE('',#833,#166);
#128=LINE('',#834,#167);
#129=LINE('',#837,#168);
#130=LINE('',#841,#169);
#131=LINE('',#842,#170);
#132=LINE('',#845,#171);
#133=LINE('',#846,#172);
#134=LINE('',#848,#173);
#135=LINE('',#854,#174);
#136=LINE('',#857,#175);
#137=VECTOR('',#498,10.);
#138=VECTOR('',#501,10.);
#139=VECTOR('',#512,10.);
#140=VECTOR('',#513,10.);
#141=VECTOR('',#524,10.);
#142=VECTOR('',#525,10.);
#143=VECTOR('',#536,10.);
#144=VECTOR('',#537,10.);
#145=VECTOR('',#544,10.);
#146=VECTOR('',#547,10.);
#147=VECTOR('',#550,10.);
#148=VECTOR('',#551,10.);
#149=VECTOR('',#554,10.);
#150=VECTOR('',#559,10.);
#151=VECTOR('',#560,10.);
#152=VECTOR('',#563,10.);
#153=VECTOR('',#564,10.);
#154=VECTOR('',#565,10.);
#155=VECTOR('',#566,10.);
#156=VECTOR('',#567,10.);
#157=VECTOR('',#568,10.);
#158=VECTOR('',#571,10.);
#159=VECTOR('',#572,10.);
#160=VECTOR('',#573,10.);
#161=VECTOR('',#576,10.);
#162=VECTOR('',#577,10.);
#163=VECTOR('',#580,10.);
#164=VECTOR('',#581,10.);
#165=VECTOR('',#584,10.);
#166=VECTOR('',#589,10.);
#167=VECTOR('',#590,10.);
#168=VECTOR('',#593,10.);
#169=VECTOR('',#598,10.);
#170=VECTOR('',#599,10.);
#171=VECTOR('',#602,10.);
#172=VECTOR('',#603,10.);
#173=VECTOR('',#606,10.);
#174=VECTOR('',#613,2.);
#175=VECTOR('',#618,10.);
#176=CIRCLE('',#449,1.);
#177=CIRCLE('',#450,1.);
#178=CIRCLE('',#451,1.);
#179=CIRCLE('',#455,1.);
#180=CIRCLE('',#456,1.);
#181=CIRCLE('',#460,1.);
#182=CIRCLE('',#461,1.);
#183=CIRCLE('',#465,1.);
#184=CIRCLE('',#469,2.);
#185=CIRCLE('',#472,2.);
#186=CIRCLE('',#479,2.);
#187=CIRCLE('',#482,2.);
#188=CIRCLE('',#487,2.);
#189=CIRCLE('',#489,2.);
#190=VERTEX_POINT('',#623);
#191=VERTEX_POINT('',#624);
#192=VERTEX_POINT('',#626);
#193=VERTEX_POINT('',#628);
#194=VERTEX_POINT('',#661);
#195=VERTEX_POINT('',#662);
#196=VERTEX_POINT('',#667);
#197=VERTEX_POINT('',#668);
#198=VERTEX_POINT('',#697);
#199=VERTEX_POINT('',#698);
#200=VERTEX_POINT('',#703);
#201=VERTEX_POINT('',#704);
#202=VERTEX_POINT('',#733);
#203=VERTEX_POINT('',#734);
#204=VERTEX_POINT('',#739);
#205=VERTEX_POINT('',#740);
#206=VERTEX_POINT('',#783);
#207=VERTEX_POINT('',#785);
#208=VERTEX_POINT('',#789);
#209=VERTEX_POINT('',#793);
#210=VERTEX_POINT('',#797);
#211=VERTEX_POINT('',#801);
#212=VERTEX_POINT('',#802);
#213=VERTEX_POINT('',#804);
#214=VERTEX_POINT('',#806);
#215=VERTEX_POINT('',#808);
#216=VERTEX_POINT('',#810);
#217=VERTEX_POINT('',#814);
#218=VERTEX_POINT('',#816);
#219=VERTEX_POINT('',#820);
#220=VERTEX_POINT('',#824);
#221=VERTEX_POINT('',#828);
#222=VERTEX_POINT('',#832);
#223=VERTEX_POINT('',#836);
#224=VERTEX_POINT('',#840);
#225=VERTEX_POINT('',#844);
#226=VERTEX_POINT('',#850);
#227=VERTEX_POINT('',#853);
#228=EDGE_CURVE('',#190,#191,#176,.T.);
#229=EDGE_CURVE('',#191,#192,#98,.T.);
#230=EDGE_CURVE('',#192,#193,#177,.T.);
#231=EDGE_CURVE('',#193,#190,#99,.T.);
#232=EDGE_CURVE('',#194,#195,#178,.T.);
#233=EDGE_CURVE('',#195,#193,#31,.T.);
#234=EDGE_CURVE('',#192,#194,#32,.T.);
#235=EDGE_CURVE('',#196,#197,#179,.T.);
#236=EDGE_CURVE('',#197,#195,#100,.T.);
#237=EDGE_CURVE('',#194,#196,#101,.T.);
#238=EDGE_CURVE('',#198,#199,#180,.T.);
#239=EDGE_CURVE('',#199,#197,#33,.T.);
#240=EDGE_CURVE('',#196,#198,#34,.T.);
#241=EDGE_CURVE('',#200,#201,#181,.T.);
#242=EDGE_CURVE('',#201,#199,#102,.T.);
#243=EDGE_CURVE('',#198,#200,#103,.T.);
#244=EDGE_CURVE('',#202,#203,#182,.T.);
#245=EDGE_CURVE('',#203,#201,#35,.T.);
#246=EDGE_CURVE('',#200,#202,#36,.T.);
#247=EDGE_CURVE('',#204,#205,#183,.T.);
#248=EDGE_CURVE('',#205,#203,#104,.T.);
#249=EDGE_CURVE('',#202,#204,#105,.T.);
#250=EDGE_CURVE('',#190,#205,#37,.T.);
#251=EDGE_CURVE('',#204,#191,#38,.T.);
#252=EDGE_CURVE('',#206,#203,#106,.T.);
#253=EDGE_CURVE('',#206,#207,#184,.T.);
#254=EDGE_CURVE('',#207,#201,#107,.T.);
#255=EDGE_CURVE('',#208,#205,#108,.T.);
#256=EDGE_CURVE('',#206,#208,#109,.T.);
#257=EDGE_CURVE('',#209,#190,#110,.T.);
#258=EDGE_CURVE('',#209,#208,#185,.T.);
#259=EDGE_CURVE('',#210,#193,#111,.T.);
#260=EDGE_CURVE('',#209,#210,#112,.T.);
#261=EDGE_CURVE('',#211,#212,#113,.T.);
#262=EDGE_CURVE('',#213,#211,#114,.T.);
#263=EDGE_CURVE('',#214,#213,#115,.T.);
#264=EDGE_CURVE('',#215,#214,#116,.T.);
#265=EDGE_CURVE('',#216,#215,#117,.T.);
#266=EDGE_CURVE('',#212,#216,#118,.T.);
#267=EDGE_CURVE('',#214,#217,#119,.T.);
#268=EDGE_CURVE('',#217,#218,#120,.T.);
#269=EDGE_CURVE('',#215,#218,#121,.T.);
#270=EDGE_CURVE('',#213,#219,#122,.T.);
#271=EDGE_CURVE('',#219,#217,#123,.T.);
#272=EDGE_CURVE('',#220,#211,#124,.T.);
#273=EDGE_CURVE('',#220,#219,#125,.T.);
#274=EDGE_CURVE('',#221,#195,#126,.T.);
#275=EDGE_CURVE('',#221,#210,#186,.T.);
#276=EDGE_CURVE('',#222,#197,#127,.T.);
#277=EDGE_CURVE('',#221,#222,#128,.T.);
#278=EDGE_CURVE('',#223,#199,#129,.T.);
#279=EDGE_CURVE('',#223,#222,#187,.T.);
#280=EDGE_CURVE('',#212,#224,#130,.T.);
#281=EDGE_CURVE('',#224,#220,#131,.T.);
#282=EDGE_CURVE('',#216,#225,#132,.T.);
#283=EDGE_CURVE('',#225,#224,#133,.T.);
#284=EDGE_CURVE('',#218,#225,#134,.T.);
#285=EDGE_CURVE('',#226,#226,#188,.T.);
#286=EDGE_CURVE('',#226,#227,#135,.T.);
#287=EDGE_CURVE('',#227,#227,#189,.T.);
#288=EDGE_CURVE('',#223,#207,#136,.T.);
#289=ORIENTED_EDGE('',*,*,#228,.T.);
#290=ORIENTED_EDGE('',*,*,#229,.T.);
#291=ORIENTED_EDGE('',*,*,#230,.T.);
#292=ORIENTED_EDGE('',*,*,#231,.T.);
#293=ORIENTED_EDGE('',*,*,#232,.T.);
#294=ORIENTED_EDGE('',*,*,#233,.T.);
#295=ORIENTED_EDGE('',*,*,#230,.F.);
#296=ORIENTED_EDGE('',*,*,#234,.T.);
#297=ORIENTED_EDGE('',*,*,#235,.T.);
#298=ORIENTED_EDGE('',*,*,#236,.T.);
#299=ORIENTED_EDGE('',*,*,#232,.F.);
#300=ORIENTED_EDGE('',*,*,#237,.T.);
#301=ORIENTED_EDGE('',*,*,#238,.T.);
#302=ORIENTED_EDGE('',*,*,#239,.T.);
#303=ORIENTED_EDGE('',*,*,#235,.F.);
#304=ORIENTED_EDGE('',*,*,#240,.T.);
#305=ORIENTED_EDGE('',*,*,#241,.T.);
#306=ORIENTED_EDGE('',*,*,#242,.T.);
#307=ORIENTED_EDGE('',*,*,#238,.F.);
#308=ORIENTED_EDGE('',*,*,#243,.T.);
#309=ORIENTED_EDGE('',*,*,#244,.T.);
#310=ORIENTED_EDGE('',*,*,#245,.T.);
#311=ORIENTED_EDGE('',*,*,#241,.F.);
#312=ORIENTED_EDGE('',*,*,#246,.T.);
#313=ORIENTED_EDGE('',*,*,#247,.T.);
#314=ORIENTED_EDGE('',*,*,#248,.T.);
#315=ORIENTED_EDGE('',*,*,#244,.F.);
#316=ORIENTED_EDGE('',*,*,#249,.T.);
#317=ORIENTED_EDGE('',*,*,#228,.F.);
#318=ORIENTED_EDGE('',*,*,#250,.T.);
#319=ORIENTED_EDGE('',*,*,#247,.F.);
#320=ORIENTED_EDGE('',*,*,#251,.T.);
#321=ORIENTED_EDGE('',*,*,#245,.F.);
#322=ORIENTED_EDGE('',*,*,#252,.F.);
#323=ORIENTED_EDGE('',*,*,#253,.T.);
#324=ORIENTED_EDGE('',*,*,#254,.T.);
#325=ORIENTED_EDGE('',*,*,#248,.F.);
#326=ORIENTED_EDGE('',*,*,#255,.F.);
#327=ORIENTED_EDGE('',*,*,#256,.F.);
#328=ORIENTED_EDGE('',*,*,#252,.T.);
#329=ORIENTED_EDGE('',*,*,#250,.F.);
#330=ORIENTED_EDGE('',*,*,#257,.F.);
#331=ORIENTED_EDGE('',*,*,#258,.T.);
#332=ORIENTED_EDGE('',*,*,#255,.T.);
#333=ORIENTED_EDGE('',*,*,#231,.F.);
#334=ORIENTED_EDGE('',*,*,#259,.F.);
#335=ORIENTED_EDGE('',*,*,#260,.F.);
#336=ORIENTED_EDGE('',*,*,#257,.T.);
#337=ORIENTED_EDGE('',*,*,#229,.F.);
#338=ORIENTED_EDGE('',*,*,#251,.F.);
#339=ORIENTED_EDGE('',*,*,#249,.F.);
#340=ORIENTED_EDGE('',*,*,#246,.F.);
#341=ORIENTED_EDGE('',*,*,#243,.F.);
#342=ORIENTED_EDGE('',*,*,#240,.F.);
#343=ORIENTED_EDGE('',*,*,#237,.F.);
#344=ORIENTED_EDGE('',*,*,#234,.F.);
#345=ORIENTED_EDGE('',*,*,#261,.F.);
#346=ORIENTED_EDGE('',*,*,#262,.F.);
#347=ORIENTED_EDGE('',*,*,#263,.F.);
#348=ORIENTED_EDGE('',*,*,#264,.F.);
#349=ORIENTED_EDGE('',*,*,#265,.F.);
#350=ORIENTED_EDGE('',*,*,#266,.F.);
#351=ORIENTED_EDGE('',*,*,#264,.T.);
#352=ORIENTED_EDGE('',*,*,#267,.T.);
#353=ORIENTED_EDGE('',*,*,#268,.T.);
#354=ORIENTED_EDGE('',*,*,#269,.F.);
#355=ORIENTED_EDGE('',*,*,#263,.T.);
#356=ORIENTED_EDGE('',*,*,#270,.T.);
#357=ORIENTED_EDGE('',*,*,#271,.T.);
#358=ORIENTED_EDGE('',*,*,#267,.F.);
#359=ORIENTED_EDGE('',*,*,#262,.T.);
#360=ORIENTED_EDGE('',*,*,#272,.F.);
#361=ORIENTED_EDGE('',*,*,#273,.T.);
#362=ORIENTED_EDGE('',*,*,#270,.F.);
#363=ORIENTED_EDGE('',*,*,#233,.F.);
#364=ORIENTED_EDGE('',*,*,#274,.F.);
#365=ORIENTED_EDGE('',*,*,#275,.T.);
#366=ORIENTED_EDGE('',*,*,#259,.T.);
#367=ORIENTED_EDGE('',*,*,#236,.F.);
#368=ORIENTED_EDGE('',*,*,#276,.F.);
#369=ORIENTED_EDGE('',*,*,#277,.F.);
#370=ORIENTED_EDGE('',*,*,#274,.T.);
#371=ORIENTED_EDGE('',*,*,#239,.F.);
#372=ORIENTED_EDGE('',*,*,#278,.F.);
#373=ORIENTED_EDGE('',*,*,#279,.T.);
#374=ORIENTED_EDGE('',*,*,#276,.T.);
#375=ORIENTED_EDGE('',*,*,#261,.T.);
#376=ORIENTED_EDGE('',*,*,#280,.T.);
#377=ORIENTED_EDGE('',*,*,#281,.T.);
#378=ORIENTED_EDGE('',*,*,#272,.T.);
#379=ORIENTED_EDGE('',*,*,#266,.T.);
#380=ORIENTED_EDGE('',*,*,#282,.T.);
#381=ORIENTED_EDGE('',*,*,#283,.T.);
#382=ORIENTED_EDGE('',*,*,#280,.F.);
#383=ORIENTED_EDGE('',*,*,#265,.T.);
#384=ORIENTED_EDGE('',*,*,#269,.T.);
#385=ORIENTED_EDGE('',*,*,#284,.T.);
#386=ORIENTED_EDGE('',*,*,#282,.F.);
#387=ORIENTED_EDGE('',*,*,#273,.F.);
#388=ORIENTED_EDGE('',*,*,#281,.F.);
#389=ORIENTED_EDGE('',*,*,#283,.F.);
#390=ORIENTED_EDGE('',*,*,#284,.F.);
#391=ORIENTED_EDGE('',*,*,#268,.F.);
#392=ORIENTED_EDGE('',*,*,#271,.F.);
#393=ORIENTED_EDGE('',*,*,#285,.F.);
#394=ORIENTED_EDGE('',*,*,#285,.T.);
#395=ORIENTED_EDGE('',*,*,#286,.T.);
#396=ORIENTED_EDGE('',*,*,#287,.T.);
#397=ORIENTED_EDGE('',*,*,#286,.F.);
#398=ORIENTED_EDGE('',*,*,#242,.F.);
#399=ORIENTED_EDGE('',*,*,#254,.F.);
#400=ORIENTED_EDGE('',*,*,#288,.F.);
#401=ORIENTED_EDGE('',*,*,#278,.T.);
#402=ORIENTED_EDGE('',*,*,#279,.F.);
#403=ORIENTED_EDGE('',*,*,#288,.T.);
#404=ORIENTED_EDGE('',*,*,#253,.F.);
#405=ORIENTED_EDGE('',*,*,#256,.T.);
#406=ORIENTED_EDGE('',*,*,#258,.F.);
#407=ORIENTED_EDGE('',*,*,#260,.T.);
#408=ORIENTED_EDGE('',*,*,#275,.F.);
#409=ORIENTED_EDGE('',*,*,#277,.T.);
#410=ORIENTED_EDGE('',*,*,#287,.F.);
#411=CYLINDRICAL_SURFACE('',#448,1.);
#412=CYLINDRICAL_SURFACE('',#454,1.);
#413=CYLINDRICAL_SURFACE('',#459,1.);
#414=CYLINDRICAL_SURFACE('',#464,1.);
#415=CYLINDRICAL_SURFACE('',#468,2.);
#416=CYLINDRICAL_SURFACE('',#471,2.);
#417=CYLINDRICAL_SURFACE('',#478,2.);
#418=CYLINDRICAL_SURFACE('',#481,2.);
#419=CYLINDRICAL_SURFACE('',#488,2.);
#420=ADVANCED_FACE('',(#43),#411,.T.);
#421=ADVANCED_FACE('',(#44),#39,.F.);
#422=ADVANCED_FACE('',(#45),#412,.T.);
#423=ADVANCED_FACE('',(#46),#40,.F.);
#424=ADVANCED_FACE('',(#47),#413,.T.);
#425=ADVANCED_FACE('',(#48),#41,.F.);
#426=ADVANCED_FACE('',(#49),#414,.T.);
#427=ADVANCED_FACE('',(#50),#42,.F.);
#428=ADVANCED_FACE('',(#51),#415,.T.);
#429=ADVANCED_FACE('',(#52),#18,.T.);
#430=ADVANCED_FACE('',(#53),#416,.T.);
#431=ADVANCED_FACE('',(#54),#19,.T.);
#432=ADVANCED_FACE('',(#55,#15),#20,.T.);
#433=ADVANCED_FACE('',(#56),#21,.F.);
#434=ADVANCED_FACE('',(#57),#22,.F.);
#435=ADVANCED_FACE('',(#58),#23,.F.);
#436=ADVANCED_FACE('',(#59),#417,.T.);
#437=ADVANCED_FACE('',(#60),#24,.T.);
#438=ADVANCED_FACE('',(#61),#418,.T.);
#439=ADVANCED_FACE('',(#62),#25,.F.);
#440=ADVANCED_FACE('',(#63),#26,.F.);
#441=ADVANCED_FACE('',(#64),#27,.F.);
#442=ADVANCED_FACE('',(#65,#16),#28,.T.);
#443=ADVANCED_FACE('',(#66),#419,.F.);
#444=ADVANCED_FACE('',(#67),#29,.T.);
#445=ADVANCED_FACE('',(#68,#17),#30,.F.);
#446=CLOSED_SHELL('',(#420,#421,#422,#423,#424,#425,#426,#427,#428,#429,
#430,#431,#432,#433,#434,#435,#436,#437,#438,#439,#440,#441,#442,#443,#444,
#445));
#447=AXIS2_PLACEMENT_3D('',#621,#492,#493);
#448=AXIS2_PLACEMENT_3D('',#622,#494,#495);
#449=AXIS2_PLACEMENT_3D('',#625,#496,#497);
#450=AXIS2_PLACEMENT_3D('',#629,#499,#500);
#451=AXIS2_PLACEMENT_3D('',#663,#502,#503);
#452=AXIS2_PLACEMENT_3D('',#664,#504,#505);
#453=AXIS2_PLACEMENT_3D('',#665,#506,#507);
#454=AXIS2_PLACEMENT_3D('',#666,#508,#509);
#455=AXIS2_PLACEMENT_3D('',#669,#510,#511);
#456=AXIS2_PLACEMENT_3D('',#699,#514,#515);
#457=AXIS2_PLACEMENT_3D('',#700,#516,#517);
#458=AXIS2_PLACEMENT_3D('',#701,#518,#519);
#459=AXIS2_PLACEMENT_3D('',#702,#520,#521);
#460=AXIS2_PLACEMENT_3D('',#705,#522,#523);
#461=AXIS2_PLACEMENT_3D('',#735,#526,#527);
#462=AXIS2_PLACEMENT_3D('',#736,#528,#529);
#463=AXIS2_PLACEMENT_3D('',#737,#530,#531);
#464=AXIS2_PLACEMENT_3D('',#738,#532,#533);
#465=AXIS2_PLACEMENT_3D('',#741,#534,#535);
#466=AXIS2_PLACEMENT_3D('',#780,#538,#539);
#467=AXIS2_PLACEMENT_3D('',#781,#540,#541);
#468=AXIS2_PLACEMENT_3D('',#782,#542,#543);
#469=AXIS2_PLACEMENT_3D('',#786,#545,#546);
#470=AXIS2_PLACEMENT_3D('',#788,#548,#549);
#471=AXIS2_PLACEMENT_3D('',#792,#552,#553);
#472=AXIS2_PLACEMENT_3D('',#795,#555,#556);
#473=AXIS2_PLACEMENT_3D('',#796,#557,#558);
#474=AXIS2_PLACEMENT_3D('',#800,#561,#562);
#475=AXIS2_PLACEMENT_3D('',#813,#569,#570);
#476=AXIS2_PLACEMENT_3D('',#819,#574,#575);
#477=AXIS2_PLACEMENT_3D('',#823,#578,#579);
#478=AXIS2_PLACEMENT_3D('',#827,#582,#583);
#479=AXIS2_PLACEMENT_3D('',#830,#585,#586);
#480=AXIS2_PLACEMENT_3D('',#831,#587,#588);
#481=AXIS2_PLACEMENT_3D('',#835,#591,#592);
#482=AXIS2_PLACEMENT_3D('',#838,#594,#595);
#483=AXIS2_PLACEMENT_3D('',#839,#596,#597);
#484=AXIS2_PLACEMENT_3D('',#843,#600,#601);
#485=AXIS2_PLACEMENT_3D('',#847,#604,#605);
#486=AXIS2_PLACEMENT_3D('',#849,#607,#608);
#487=AXIS2_PLACEMENT_3D('',#851,#609,#610);
#488=AXIS2_PLACEMENT_3D('',#852,#611,#612);
#489=AXIS2_PLACEMENT_3D('',#855,#614,#615);
#490=AXIS2_PLACEMENT_3D('',#856,#616,#617);
#491=AXIS2_PLACEMENT_3D('',#858,#619,#620);
#492=DIRECTION('axis',(0.,0.,1.));
#493=DIRECTION('refdir',(1.,0.,0.));
#494=DIRECTION('center_axis',(0.,1.,0.));
#495=DIRECTION('ref_axis',(0.819152044288994,0.,-0.573576436351043));
#496=DIRECTION('center_axis',(0.,1.,0.));
#497=DIRECTION('ref_axis',(0.939692620785908,0.,0.34202014332567));
#498=DIRECTION('',(0.,1.,0.));
#499=DIRECTION('center_axis',(0.,-1.,0.));
#500=DIRECTION('ref_axis',(0.,0.,-1.));
#501=DIRECTION('',(0.,-1.,0.));
#502=DIRECTION('center_axis',(1.,-8.88178419700124E-15,0.));
#503=DIRECTION('ref_axis',(0.,0.,-1.));
#504=DIRECTION('center_axis',(0.168246718444362,2.93595892944393E-15,-0.985744917173152));
#505=DIRECTION('ref_axis',(0.985744917173152,0.,0.168246718444362));
#506=DIRECTION('center_axis',(0.,0.,1.));
#507=DIRECTION('ref_axis',(1.,-1.56490257550031E-15,0.));
#508=DIRECTION('center_axis',(-1.,0.,0.));
#509=DIRECTION('ref_axis',(0.,0.707106781186548,-0.707106781186548));
#510=DIRECTION('center_axis',(1.,0.,0.));
#511=DIRECTION('ref_axis',(0.,0.,-1.));
#512=DIRECTION('',(1.,0.,0.));
#513=DIRECTION('',(-1.,0.,0.));
#514=DIRECTION('center_axis',(0.,1.,0.));
#515=DIRECTION('ref_axis',(0.,0.,-1.));
#516=DIRECTION('center_axis',(0.16824671844436,-2.18879340690571E-15,-0.985744917173152));
#517=DIRECTION('ref_axis',(-0.985744917173152,0.,-0.16824671844436));
#518=DIRECTION('center_axis',(0.,0.,1.));
#519=DIRECTION('ref_axis',(-1.,0.,0.));
#520=DIRECTION('center_axis',(-2.50444314482552E-16,-1.,0.));
#521=DIRECTION('ref_axis',(-0.573576436351047,0.,-0.819152044288992));
#522=DIRECTION('center_axis',(0.,1.,0.));
#523=DIRECTION('ref_axis',(0.,0.,-1.));
#524=DIRECTION('',(2.50444314482552E-16,1.,0.));
#525=DIRECTION('',(-2.50444314482552E-16,-1.,0.));
#526=DIRECTION('center_axis',(-1.,0.,0.));
#527=DIRECTION('ref_axis',(0.,0.,-1.));
#528=DIRECTION('center_axis',(0.168246718444359,-2.1887934069057E-15,-0.985744917173152));
#529=DIRECTION('ref_axis',(-0.985744917173152,0.,-0.168246718444359));
#530=DIRECTION('center_axis',(0.,0.,1.));
#531=DIRECTION('ref_axis',(-1.,-2.60817095916718E-16,0.));
#532=DIRECTION('center_axis',(1.,4.42295789902653E-16,0.));
#533=DIRECTION('ref_axis',(0.,-0.707106781186544,-0.707106781186551));
#534=DIRECTION('center_axis',(-1.,0.,0.));
#535=DIRECTION('ref_axis',(0.,0.,-1.));
#536=DIRECTION('',(-1.,-4.42295789902653E-16,0.));
#537=DIRECTION('',(1.,4.42295789902653E-16,0.));
#538=DIRECTION('center_axis',(0.168246718444362,2.93595892944393E-15,-0.985744917173152));
#539=DIRECTION('ref_axis',(0.985744917173152,0.,0.168246718444362));
#540=DIRECTION('center_axis',(0.,0.,1.));
#541=DIRECTION('ref_axis',(1.,0.,0.));
#542=DIRECTION('center_axis',(0.342020143325669,0.,-0.939692620785908));
#543=DIRECTION('ref_axis',(2.60817095916718E-16,-1.,9.49296595014383E-17));
#544=DIRECTION('',(0.342020143325669,0.,-0.939692620785908));
#545=DIRECTION('center_axis',(0.342020143325669,0.,-0.939692620785908));
#546=DIRECTION('ref_axis',(2.60817095916718E-16,-1.,9.49296595014383E-17));
#547=DIRECTION('',(0.342020143325669,0.,-0.939692620785908));
#548=DIRECTION('center_axis',(4.42295789902653E-16,-1.,1.60982502265824E-16));
#549=DIRECTION('ref_axis',(-0.939692620785908,-4.70681348474079E-16,-0.342020143325669));
#550=DIRECTION('',(0.342020143325669,0.,-0.939692620785908));
#551=DIRECTION('',(0.939692620785908,4.70681348474079E-16,0.342020143325669));
#552=DIRECTION('center_axis',(0.342020143325669,0.,-0.939692620785908));
#553=DIRECTION('ref_axis',(0.939692620785908,0.,0.342020143325669));
#554=DIRECTION('',(0.342020143325669,0.,-0.939692620785908));
#555=DIRECTION('center_axis',(0.342020143325669,0.,-0.939692620785908));
#556=DIRECTION('ref_axis',(0.939692620785908,0.,0.342020143325669));
#557=DIRECTION('center_axis',(0.939692620785908,0.,0.342020143325669));
#558=DIRECTION('ref_axis',(0.,-1.,0.));
#559=DIRECTION('',(0.342020143325669,0.,-0.939692620785908));
#560=DIRECTION('',(0.,1.,0.));
#561=DIRECTION('center_axis',(0.,0.,-1.));
#562=DIRECTION('ref_axis',(0.,-1.,0.));
#563=DIRECTION('',(0.878973312975219,0.476870962711474,0.));
#564=DIRECTION('',(-5.11593537037489E-16,1.,0.));
#565=DIRECTION('',(-0.878973312975219,0.476870962711474,0.));
#566=DIRECTION('',(-0.878973312975219,-0.476870962711474,0.));
#567=DIRECTION('',(1.70531179012496E-16,-1.,0.));
#568=DIRECTION('',(0.878973312975219,-0.476870962711474,0.));
#569=DIRECTION('center_axis',(0.469846310392954,-0.866025403784439,0.171010071662834));
#570=DIRECTION('ref_axis',(0.813797681349374,0.5,0.296198132726024));
#571=DIRECTION('',(-0.342020143325669,0.,0.939692620785909));
#572=DIRECTION('',(0.813797681349374,0.5,0.296198132726024));
#573=DIRECTION('',(-0.342020143325669,0.,0.939692620785909));
#574=DIRECTION('center_axis',(-0.469846310392954,-0.866025403784439,-0.171010071662834));
#575=DIRECTION('ref_axis',(0.813797681349374,-0.5,0.296198132726024));
#576=DIRECTION('',(-0.342020143325669,0.,0.939692620785909));
#577=DIRECTION('',(0.813797681349374,-0.5,0.296198132726024));
#578=DIRECTION('center_axis',(-0.939692620785908,-4.80740671595891E-16,
-0.342020143325669));
#579=DIRECTION('ref_axis',(4.51748461610321E-16,-1.,1.64422993401705E-16));
#580=DIRECTION('',(0.342020143325669,0.,-0.939692620785908));
#581=DIRECTION('',(4.51748461610321E-16,-1.,1.64422993401705E-16));
#582=DIRECTION('center_axis',(0.342020143325669,0.,-0.939692620785908));
#583=DIRECTION('ref_axis',(1.56490257550031E-15,1.,5.6957795700863E-16));
#584=DIRECTION('',(0.342020143325669,0.,-0.939692620785908));
#585=DIRECTION('center_axis',(0.342020143325669,0.,-0.939692620785908));
#586=DIRECTION('ref_axis',(1.56490257550031E-15,1.,5.6957795700863E-16));
#587=DIRECTION('center_axis',(0.,1.,0.));
#588=DIRECTION('ref_axis',(0.939692620785908,0.,0.342020143325669));
#589=DIRECTION('',(0.342020143325669,0.,-0.939692620785908));
#590=DIRECTION('',(-0.939692620785908,0.,-0.342020143325669));
#591=DIRECTION('center_axis',(0.342020143325669,0.,-0.939692620785908));
#592=DIRECTION('ref_axis',(-0.939692620785908,0.,-0.342020143325669));
#593=DIRECTION('',(0.342020143325669,0.,-0.939692620785908));
#594=DIRECTION('center_axis',(0.342020143325669,0.,-0.939692620785908));
#595=DIRECTION('ref_axis',(-0.939692620785908,0.,-0.342020143325669));
#596=DIRECTION('center_axis',(-0.469846310392954,0.866025403784439,-0.171010071662834));
#597=DIRECTION('ref_axis',(-0.813797681349374,-0.5,-0.296198132726024));
#598=DIRECTION('',(-0.342020143325669,0.,0.939692620785909));
#599=DIRECTION('',(-0.813797681349374,-0.5,-0.296198132726024));
#600=DIRECTION('center_axis',(0.469846310392954,0.866025403784439,0.171010071662834));
#601=DIRECTION('ref_axis',(-0.813797681349374,0.5,-0.296198132726024));
#602=DIRECTION('',(-0.342020143325669,0.,0.939692620785909));
#603=DIRECTION('',(-0.813797681349374,0.5,-0.296198132726024));
#604=DIRECTION('center_axis',(0.939692620785908,1.60246890531964E-16,0.342020143325669));
#605=DIRECTION('ref_axis',(-1.50582820536774E-16,1.,-5.4807664467235E-17));
#606=DIRECTION('',(-1.50582820536774E-16,1.,-5.4807664467235E-17));
#607=DIRECTION('center_axis',(0.342020143325669,0.,-0.939692620785908));
#608=DIRECTION('ref_axis',(0.,-1.,0.));
#609=DIRECTION('center_axis',(0.342020143325669,0.,-0.939692620785908));
#610=DIRECTION('ref_axis',(0.,-1.,0.));
#611=DIRECTION('center_axis',(0.342020143325669,0.,-0.939692620785908));
#612=DIRECTION('ref_axis',(0.,-1.,0.));
#613=DIRECTION('',(-0.342020143325669,0.,0.939692620785908));
#614=DIRECTION('center_axis',(-0.342020143325669,0.,0.939692620785908));
#615=DIRECTION('ref_axis',(0.,-1.,0.));
#616=DIRECTION('center_axis',(-0.939692620785908,2.35340674237039E-16,-0.342020143325669));
#617=DIRECTION('ref_axis',(2.21147894951326E-16,1.,8.04912511329117E-17));
#618=DIRECTION('',(-2.21147894951326E-16,-1.,-8.04912511329117E-17));
#619=DIRECTION('center_axis',(0.342020143325669,0.,-0.939692620785908));
#620=DIRECTION('ref_axis',(0.,-1.,0.));
#621=CARTESIAN_POINT('',(0.,0.,0.));
#622=CARTESIAN_POINT('Origin',(50.2903088908409,17.3587570839762,-35.));
#623=CARTESIAN_POINT('',(51.2300015116269,28.2824860704661,-34.6579798566743));
#624=CARTESIAN_POINT('',(50.2903088908409,28.2824860704661,-36.));
#625=CARTESIAN_POINT('Origin',(50.2903088908409,28.2824860704661,-35.));
#626=CARTESIAN_POINT('',(50.2903088908409,37.7175149130105,-36.));
#627=CARTESIAN_POINT('',(50.2903088908409,17.3587570839762,-36.));
#628=CARTESIAN_POINT('',(51.2300015116269,37.7175149130105,-34.6579798566743));
#629=CARTESIAN_POINT('Origin',(50.2903088908409,37.7175149130105,-35.));
#630=CARTESIAN_POINT('',(51.2300015116269,17.3587570839762,-34.6579798566743));
#631=CARTESIAN_POINT('Ctrl Pts',(50.2903088908409,37.7175149130105,-36.));
#632=CARTESIAN_POINT('Ctrl Pts',(50.2903088908409,37.9419143882669,-36.));
#633=CARTESIAN_POINT('Ctrl Pts',(50.0957069050158,38.4663307435114,-36.));
#634=CARTESIAN_POINT('Ctrl Pts',(49.5445323633292,38.7175149130105,-36.));
#635=CARTESIAN_POINT('Ctrl Pts',(49.226131118365,38.7175149130105,-36.));
#636=CARTESIAN_POINT('Ctrl Pts',(50.4731529077165,37.7175149130105,-36.));
#637=CARTESIAN_POINT('Ctrl Pts',(50.4731529077165,37.9856073860286,-36.));
#638=CARTESIAN_POINT('Ctrl Pts',(50.2305412103524,38.6091012290499,-36.0000091855076));
#639=CARTESIAN_POINT('Ctrl Pts',(49.5866103730187,38.8768761027991,-36.0000351662453));
#640=CARTESIAN_POINT('Ctrl Pts',(49.226131118365,38.8671145631815,-36.));
#641=CARTESIAN_POINT('Ctrl Pts',(50.8376901434164,37.7175149130105,-35.8970401068948));
#642=CARTESIAN_POINT('Ctrl Pts',(50.8376901434164,38.0727765124346,-35.8970401068948));
#643=CARTESIAN_POINT('Ctrl Pts',(50.499506513173,38.8938956839883,-35.9046707767258));
#644=CARTESIAN_POINT('Ctrl Pts',(49.6706535773588,39.1950046017032,-35.9225089601354));
#645=CARTESIAN_POINT('Ctrl Pts',(49.226131118365,39.1658317788309,-35.9315552459151));
#646=CARTESIAN_POINT('Ctrl Pts',(51.2912014094002,37.7175149130105,-35.40998007042));
#647=CARTESIAN_POINT('Ctrl Pts',(51.2912014094002,38.1809269469355,-35.40998007042));
#648=CARTESIAN_POINT('Ctrl Pts',(50.8509760584243,39.2514728476105,-35.4498747181578));
#649=CARTESIAN_POINT('Ctrl Pts',(49.7887964539679,39.629634475947,-35.5466402861531));
#650=CARTESIAN_POINT('Ctrl Pts',(49.226131118365,39.5863043398949,-35.5969838188046));
#651=CARTESIAN_POINT('Ctrl Pts',(51.3238060169139,37.7175149130105,-34.9157056167936));
#652=CARTESIAN_POINT('Ctrl Pts',(51.3238060169139,38.1893355148183,-34.9157056167936));
#653=CARTESIAN_POINT('Ctrl Pts',(50.909398559871,39.2854027447208,-34.9767986375221));
#654=CARTESIAN_POINT('Ctrl Pts',(49.8260035901104,39.7407973538837,-35.1366582157565));
#655=CARTESIAN_POINT('Ctrl Pts',(49.226131118365,39.7175149130105,-35.2243994752564));
#656=CARTESIAN_POINT('Ctrl Pts',(51.2300015116268,37.7175149130105,-34.6579798566743));
#657=CARTESIAN_POINT('Ctrl Pts',(51.2300015116268,38.1663138635233,-34.6579798566743));
#658=CARTESIAN_POINT('Ctrl Pts',(50.8635616479584,39.2151465740123,-34.7205237293288));
#659=CARTESIAN_POINT('Ctrl Pts',(49.8256877380048,39.7175149130105,-34.8976678124141));
#660=CARTESIAN_POINT('Ctrl Pts',(49.226131118365,39.7175149130105,-35.));
#661=CARTESIAN_POINT('',(49.226131118365,38.7175149130105,-36.));
#662=CARTESIAN_POINT('',(49.226131118365,39.7175149130105,-35.));
#663=CARTESIAN_POINT('Origin',(49.226131118365,38.7175149130105,-35.));
#664=CARTESIAN_POINT('Origin',(49.226131118365,37.7175149130105,-35.));
#665=CARTESIAN_POINT('Origin',(49.226131118365,37.7175149130105,-36.));
#666=CARTESIAN_POINT('Origin',(25.9121781711066,38.7175149130105,-35.));
#667=CARTESIAN_POINT('',(39.1855831414601,38.7175149130105,-36.));
#668=CARTESIAN_POINT('',(39.1855831414601,39.7175149130105,-35.));
#669=CARTESIAN_POINT('Origin',(39.1855831414601,38.7175149130105,-35.));
#670=CARTESIAN_POINT('',(25.9121781711066,39.7175149130105,-35.));
#671=CARTESIAN_POINT('',(25.9121781711066,38.7175149130105,-36.));
#672=CARTESIAN_POINT('Ctrl Pts',(39.1855831414601,38.7175149130105,-36.));
#673=CARTESIAN_POINT('Ctrl Pts',(38.946782207737,38.7175149130105,-36.));
#674=CARTESIAN_POINT('Ctrl Pts',(38.3886961769553,38.534664424685,-36.));
#675=CARTESIAN_POINT('Ctrl Pts',(38.1214053689842,38.0167142133524,-36.));
#676=CARTESIAN_POINT('Ctrl Pts',(38.1214053689842,37.7175149130105,-36.));
#677=CARTESIAN_POINT('Ctrl Pts',(39.1855831414601,39.0167142133524,-36.));
#678=CARTESIAN_POINT('Ctrl Pts',(38.8834177290613,39.0017784799361,-35.9993975900568));
#679=CARTESIAN_POINT('Ctrl Pts',(38.201715847245,38.7387454131933,-35.999289511956));
#680=CARTESIAN_POINT('Ctrl Pts',(37.8886948020517,38.0909269148501,-36.));
#681=CARTESIAN_POINT('Ctrl Pts',(37.8886948020517,37.7175149130105,-36.));
#682=CARTESIAN_POINT('Ctrl Pts',(39.1855831414602,39.5345454744508,-35.7487296632997));
#683=CARTESIAN_POINT('Ctrl Pts',(38.7745762078847,39.4958345852887,-35.774916497164));
#684=CARTESIAN_POINT('Ctrl Pts',(37.8771009391741,39.0956235184248,-35.82966634764));
#685=CARTESIAN_POINT('Ctrl Pts',(37.483099195324,38.2199169142574,-35.8517385832187));
#686=CARTESIAN_POINT('Ctrl Pts',(37.483099195324,37.7175149130105,-35.8517385832187));
#687=CARTESIAN_POINT('Ctrl Pts',(39.1855831414601,39.7175149130105,-35.2243994752564));
#688=CARTESIAN_POINT('Ctrl Pts',(38.7357442961102,39.7001297735557,-35.2903418282396));
#689=CARTESIAN_POINT('Ctrl Pts',(37.7133948017602,39.3027780239665,-35.438765634958));
#690=CARTESIAN_POINT('Ctrl Pts',(37.2414065242901,38.2969942173753,-35.5060274452198));
#691=CARTESIAN_POINT('Ctrl Pts',(37.2414065242901,37.7175149130105,-35.5060274452198));
#692=CARTESIAN_POINT('Ctrl Pts',(39.1855831414601,39.7175149130105,-35.));
#693=CARTESIAN_POINT('Ctrl Pts',(38.7359156767303,39.7175149130105,-35.0767491406894));
#694=CARTESIAN_POINT('Ctrl Pts',(37.6850272792264,39.3518139363594,-35.2561145335522));
#695=CARTESIAN_POINT('Ctrl Pts',(37.1817127481983,38.3159135136943,-35.3420201433257));
#696=CARTESIAN_POINT('Ctrl Pts',(37.1817127481983,37.7175149130105,-35.3420201433257));
#697=CARTESIAN_POINT('',(38.1214053689842,37.7175149130105,-36.));
#698=CARTESIAN_POINT('',(37.1817127481983,37.7175149130105,-35.3420201433257));
#699=CARTESIAN_POINT('Origin',(38.1214053689842,37.7175149130105,-35.));
#700=CARTESIAN_POINT('Origin',(39.1855831414601,37.7175149130105,-35.));
#701=CARTESIAN_POINT('Origin',(39.1855831414601,37.7175149130105,-36.));
#702=CARTESIAN_POINT('Origin',(38.1214053689842,12.641242662704,-35.));
#703=CARTESIAN_POINT('',(38.1214053689842,28.2824860704661,-36.));
#704=CARTESIAN_POINT('',(37.1817127481983,28.2824860704661,-35.3420201433257));
#705=CARTESIAN_POINT('Origin',(38.1214053689842,28.2824860704661,-35.));
#706=CARTESIAN_POINT('',(37.1817127481983,12.641242662704,-35.3420201433257));
#707=CARTESIAN_POINT('',(38.1214053689842,12.641242662704,-36.));
#708=CARTESIAN_POINT('Ctrl Pts',(38.1214053689842,28.2824860704661,-36.));
#709=CARTESIAN_POINT('Ctrl Pts',(38.1214053689842,27.9832867701242,-36.));
#710=CARTESIAN_POINT('Ctrl Pts',(38.3886784159134,27.4653165332414,-36.));
#711=CARTESIAN_POINT('Ctrl Pts',(38.946782207737,27.2824860704661,-36.));
#712=CARTESIAN_POINT('Ctrl Pts',(39.1855831414601,27.2824860704661,-36.));
#713=CARTESIAN_POINT('Ctrl Pts',(37.8886948020517,28.2824860704661,-36.));
#714=CARTESIAN_POINT('Ctrl Pts',(37.8886948020517,27.9090740686266,-36.));
#715=CARTESIAN_POINT('Ctrl Pts',(38.2017032475832,27.261225698983,-35.9993147535893));
#716=CARTESIAN_POINT('Ctrl Pts',(38.8834177290613,26.9982225035406,-35.9993975900568));
#717=CARTESIAN_POINT('Ctrl Pts',(39.1855831414601,26.9832867701242,-36.));
#718=CARTESIAN_POINT('Ctrl Pts',(37.483095928495,28.2824860704661,-35.8517426256544));
#719=CARTESIAN_POINT('Ctrl Pts',(37.483095928495,27.7800840692192,-35.8517426256544));
#720=CARTESIAN_POINT('Ctrl Pts',(37.8770676762773,26.9043603851579,-35.8296687373071));
#721=CARTESIAN_POINT('Ctrl Pts',(38.7745762078847,26.504155915262,-35.7749252339624));
#722=CARTESIAN_POINT('Ctrl Pts',(39.1855831414602,26.4654450260998,-35.7487384000981));
#723=CARTESIAN_POINT('Ctrl Pts',(37.2414065242901,28.2824860704661,-35.5060274452198));
#724=CARTESIAN_POINT('Ctrl Pts',(37.2414065242901,27.7030067661013,-35.5060274452198));
#725=CARTESIAN_POINT('Ctrl Pts',(37.7133677754195,26.6971867454868,-35.4387645079195));
#726=CARTESIAN_POINT('Ctrl Pts',(38.7357442961102,26.2998712099209,-35.2903418282396));
#727=CARTESIAN_POINT('Ctrl Pts',(39.1855831414601,26.2824860704661,-35.2243994752564));
#728=CARTESIAN_POINT('Ctrl Pts',(37.1817127481983,28.2824860704661,-35.3420201433257));
#729=CARTESIAN_POINT('Ctrl Pts',(37.1817127481983,27.6840874697823,-35.3420201433257));
#730=CARTESIAN_POINT('Ctrl Pts',(37.6849938347899,26.6481469960167,-35.256120241841));
#731=CARTESIAN_POINT('Ctrl Pts',(38.7359156767303,26.2824860704661,-35.0767491406894));
#732=CARTESIAN_POINT('Ctrl Pts',(39.1855831414601,26.2824860704661,-35.));
#733=CARTESIAN_POINT('',(39.1855831414601,27.2824860704661,-36.));
#734=CARTESIAN_POINT('',(39.1855831414601,26.2824860704661,-35.));
#735=CARTESIAN_POINT('Origin',(39.1855831414601,27.2824860704661,-35.));
#736=CARTESIAN_POINT('Origin',(39.1855831414601,28.2824860704661,-35.));
#737=CARTESIAN_POINT('Origin',(39.1855831414601,28.2824860704661,-36.));
#738=CARTESIAN_POINT('Origin',(30.3451916612271,27.2824860704661,-35.));
#739=CARTESIAN_POINT('',(49.226131118365,27.2824860704661,-36.));
#740=CARTESIAN_POINT('',(49.226131118365,26.2824860704661,-35.));
#741=CARTESIAN_POINT('Origin',(49.226131118365,27.2824860704661,-35.));
#742=CARTESIAN_POINT('',(30.3451916612271,26.2824860704661,-35.));
#743=CARTESIAN_POINT('',(30.3451916612271,27.2824860704661,-36.));
#744=CARTESIAN_POINT('Ctrl Pts',(49.226131118365,27.2824860704661,-36.));
#745=CARTESIAN_POINT('Ctrl Pts',(49.4649320520882,27.2824860704661,-36.));
#746=CARTESIAN_POINT('Ctrl Pts',(49.8614579065267,27.4136346003651,-36.));
#747=CARTESIAN_POINT('Ctrl Pts',(50.2175644447643,27.8341009609765,-36.));
#748=CARTESIAN_POINT('Ctrl Pts',(50.2903088908409,28.1328864202952,-36.));
#749=CARTESIAN_POINT('Ctrl Pts',(50.2903088908409,28.2824860704661,-36.));
#750=CARTESIAN_POINT('Ctrl Pts',(49.226131118365,27.1328864202952,-36.));
#751=CARTESIAN_POINT('Ctrl Pts',(49.4964905593553,27.1255652655819,-36.000026374684));
#752=CARTESIAN_POINT('Ctrl Pts',(49.9545604100229,27.2615367537781,-35.999969512855));
#753=CARTESIAN_POINT('Ctrl Pts',(50.3833890580802,27.7470116731029,-36.0000282802762));
#754=CARTESIAN_POINT('Ctrl Pts',(50.4731529077165,28.1037577551208,-36.));
#755=CARTESIAN_POINT('Ctrl Pts',(50.4731529077165,28.2824860704661,-36.));
#756=CARTESIAN_POINT('Ctrl Pts',(49.226131118365,26.8341669831483,-35.9315568952463));
#757=CARTESIAN_POINT('Ctrl Pts',(49.5595229626104,26.8122873659941,-35.9247721809115));
#758=CARTESIAN_POINT('Ctrl Pts',(50.1402700859712,26.9580096606924,-35.9124744274558));
#759=CARTESIAN_POINT('Ctrl Pts',(50.714088378641,27.5733137337904,-35.8997993841366));
#760=CARTESIAN_POINT('Ctrl Pts',(50.8376952548748,28.0456450041834,-35.8970423191195));
#761=CARTESIAN_POINT('Ctrl Pts',(50.8376952548748,28.2824860704661,-35.8970423191195));
#762=CARTESIAN_POINT('Ctrl Pts',(49.226131118365,26.413693062102,-35.5969857004565));
#763=CARTESIAN_POINT('Ctrl Pts',(49.6481301200672,26.3811954600629,-35.5592280509679));
#764=CARTESIAN_POINT('Ctrl Pts',(50.3897732274502,26.561562403394,-35.4918709404386));
#765=CARTESIAN_POINT('Ctrl Pts',(51.130579741597,27.3572888431139,-35.4245301997749));
#766=CARTESIAN_POINT('Ctrl Pts',(51.2912096978464,27.9735447145162,-35.4099819074162));
#767=CARTESIAN_POINT('Ctrl Pts',(51.2912096978464,28.2824860704661,-35.4099819074162));
#768=CARTESIAN_POINT('Ctrl Pts',(49.226131118365,26.2824860704661,-35.2243994752564));
#769=CARTESIAN_POINT('Ctrl Pts',(49.6760354721741,26.2650242398112,-35.1585935306314));
#770=CARTESIAN_POINT('Ctrl Pts',(50.443188936938,26.4932065603106,-35.0456439167939));
#771=CARTESIAN_POINT('Ctrl Pts',(51.17135360542,27.3407069777997,-34.9381394656549));
#772=CARTESIAN_POINT('Ctrl Pts',(51.3238060169139,27.9679390025943,-34.9157056167936));
#773=CARTESIAN_POINT('Ctrl Pts',(51.3238060169139,28.2824860704661,-34.9157056167936));
#774=CARTESIAN_POINT('Ctrl Pts',(49.226131118365,26.2824860704661,-35.));
#775=CARTESIAN_POINT('Ctrl Pts',(49.6757985830949,26.2824860704661,-34.9232508593106));
#776=CARTESIAN_POINT('Ctrl Pts',(50.4224655784255,26.5447831302642,-34.7958099062339));
#777=CARTESIAN_POINT('Ctrl Pts',(51.0930221031695,27.385715851487,-34.6813594709801));
#778=CARTESIAN_POINT('Ctrl Pts',(51.2300015116268,27.9832867701242,-34.6579798566743));
#779=CARTESIAN_POINT('Ctrl Pts',(51.2300015116268,28.2824860704661,-34.6579798566743));
#780=CARTESIAN_POINT('Origin',(49.226131118365,28.2824860704661,-35.));
#781=CARTESIAN_POINT('Origin',(49.226131118365,28.2824860704661,-36.));
#782=CARTESIAN_POINT('Origin',(36.8243563422131,28.2824860704661,-28.5125826868577));
#783=CARTESIAN_POINT('',(36.8243563422131,26.2824860704661,-28.5125826868577));
#784=CARTESIAN_POINT('',(36.8243563422131,26.2824860704661,-28.5125826868577));
#785=CARTESIAN_POINT('',(34.9449711006413,28.2824860704661,-29.196622973509));
#786=CARTESIAN_POINT('Origin',(36.8243563422131,28.2824860704661,-28.5125826868577));
#787=CARTESIAN_POINT('',(34.9449711006413,28.2824860704661,-29.196622973509));
#788=CARTESIAN_POINT('Origin',(45.6903833224543,26.2824860704661,-25.2856127698488));
#789=CARTESIAN_POINT('',(45.6903833224543,26.2824860704661,-25.2856127698488));
#790=CARTESIAN_POINT('',(45.6903833224543,26.2824860704661,-25.2856127698488));
#791=CARTESIAN_POINT('',(36.8243563422131,26.2824860704661,-28.5125826868577));
#792=CARTESIAN_POINT('Origin',(45.6903833224543,28.2824860704661,-25.2856127698488));
#793=CARTESIAN_POINT('',(47.5697685640261,28.2824860704661,-24.6015724831975));
#794=CARTESIAN_POINT('',(47.5697685640261,28.2824860704661,-24.6015724831975));
#795=CARTESIAN_POINT('Origin',(45.6903833224543,28.2824860704661,-25.2856127698488));
#796=CARTESIAN_POINT('Origin',(47.5697685640261,37.7175149130105,-24.6015724831975));
#797=CARTESIAN_POINT('',(47.5697685640261,37.7175149130105,-24.6015724831975));
#798=CARTESIAN_POINT('',(47.5697685640261,37.7175149130105,-24.6015724831975));
#799=CARTESIAN_POINT('',(47.5697685640261,28.2824860704661,-24.6015724831975));
#800=CARTESIAN_POINT('Origin',(15.,-3.00000074505806,-36.));
#801=CARTESIAN_POINT('',(41.3772940467511,34.7320512993072,-36.));
#802=CARTESIAN_POINT('',(44.5698273641788,36.4641021068761,-36.));
#803=CARTESIAN_POINT('',(24.9178871388816,25.8022998473005,-36.));
#804=CARTESIAN_POINT('',(41.3772940467511,31.2679496841694,-36.));
#805=CARTESIAN_POINT('',(41.3772940467511,15.8660252771246,-36.));
#806=CARTESIAN_POINT('',(44.5698273641788,29.5358988766006,-36.));
#807=CARTESIAN_POINT('',(38.5555323347867,32.7988451098475,-36.));
#808=CARTESIAN_POINT('',(47.7623606816065,31.2679496841694,-36.));
#809=CARTESIAN_POINT('',(26.3698890598108,19.6618538147364,-36.));
#810=CARTESIAN_POINT('',(47.7623606816065,34.7320512993072,-36.));
#811=CARTESIAN_POINT('',(47.7623606816065,14.1339744695557,-36.));
#812=CARTESIAN_POINT('',(42.9115380975745,37.3637767469888,-36.));
#813=CARTESIAN_POINT('Origin',(44.6775712655904,29.5358988766006,-36.2960239362124));
#814=CARTESIAN_POINT('',(41.9414101189851,29.5358988766006,-28.7784829699251));
#815=CARTESIAN_POINT('',(44.6775712655904,29.5358988766006,-36.2960239362124));
#816=CARTESIAN_POINT('',(44.7604879813428,31.2679496841694,-27.7524225399481));
#817=CARTESIAN_POINT('',(44.7604879813428,31.2679496841694,-27.7524225399481));
#818=CARTESIAN_POINT('',(47.4966491279481,31.2679496841694,-35.2699635062354));
#819=CARTESIAN_POINT('Origin',(41.8584934032327,31.2679496841694,-37.3220843661894));
#820=CARTESIAN_POINT('',(39.1223322566273,31.2679496841694,-29.8045433999021));
#821=CARTESIAN_POINT('',(41.8584934032327,31.2679496841694,-37.3220843661894));
#822=CARTESIAN_POINT('',(41.9414101189851,29.5358988766006,-28.7784829699251));
#823=CARTESIAN_POINT('Origin',(41.8584934032327,34.7320512993072,-37.3220843661894));
#824=CARTESIAN_POINT('',(39.1223322566273,34.7320512993072,-29.8045433999021));
#825=CARTESIAN_POINT('',(41.8584934032327,34.7320512993072,-37.3220843661894));
#826=CARTESIAN_POINT('',(39.1223322566273,31.2679496841694,-29.8045433999021));
#827=CARTESIAN_POINT('Origin',(45.6903833224543,37.7175149130105,-25.2856127698488));
#828=CARTESIAN_POINT('',(45.6903833224543,39.7175149130105,-25.2856127698488));
#829=CARTESIAN_POINT('',(45.6903833224543,39.7175149130105,-25.2856127698488));
#830=CARTESIAN_POINT('Origin',(45.6903833224543,37.7175149130105,-25.2856127698488));
#831=CARTESIAN_POINT('Origin',(36.8243563422131,39.7175149130105,-28.5125826868577));
#832=CARTESIAN_POINT('',(36.8243563422131,39.7175149130105,-28.5125826868577));
#833=CARTESIAN_POINT('',(36.8243563422131,39.7175149130105,-28.5125826868577));
#834=CARTESIAN_POINT('',(45.6903833224543,39.7175149130105,-25.2856127698488));
#835=CARTESIAN_POINT('Origin',(36.8243563422131,37.7175149130105,-28.5125826868577));
#836=CARTESIAN_POINT('',(34.9449711006413,37.7175149130105,-29.196622973509));
#837=CARTESIAN_POINT('',(34.9449711006413,37.7175149130105,-29.196622973509));
#838=CARTESIAN_POINT('Origin',(36.8243563422131,37.7175149130105,-28.5125826868577));
#839=CARTESIAN_POINT('Origin',(44.6775712655904,36.4641021068761,-36.2960239362124));
#840=CARTESIAN_POINT('',(41.9414101189851,36.4641021068761,-28.7784829699251));
#841=CARTESIAN_POINT('',(44.6775712655904,36.4641021068761,-36.2960239362124));
#842=CARTESIAN_POINT('',(39.1223322566273,34.7320512993072,-29.8045433999021));
#843=CARTESIAN_POINT('Origin',(47.4966491279481,34.7320512993072,-35.2699635062354));
#844=CARTESIAN_POINT('',(44.7604879813428,34.7320512993072,-27.7524225399481));
#845=CARTESIAN_POINT('',(47.4966491279481,34.7320512993072,-35.2699635062354));
#846=CARTESIAN_POINT('',(41.9414101189851,36.4641021068761,-28.7784829699251));
#847=CARTESIAN_POINT('Origin',(47.4966491279481,31.2679496841694,-35.2699635062354));
#848=CARTESIAN_POINT('',(44.7604879813428,34.7320512993072,-27.7524225399481));
#849=CARTESIAN_POINT('Origin',(41.9414101189851,33.0000004917383,-28.7784829699251));
#850=CARTESIAN_POINT('',(41.9414101189851,35.0000004917383,-28.7784829699251));
#851=CARTESIAN_POINT('Origin',(41.9414101189851,33.0000004917383,-28.7784829699251));
#852=CARTESIAN_POINT('Origin',(41.2573698323337,33.0000004917383,-26.8990977283533));
#853=CARTESIAN_POINT('',(41.2573698323337,35.0000004917383,-26.8990977283533));
#854=CARTESIAN_POINT('',(41.2573698323337,35.0000004917383,-26.8990977283533));
#855=CARTESIAN_POINT('Origin',(41.2573698323337,33.0000004917383,-26.8990977283533));
#856=CARTESIAN_POINT('Origin',(34.9449711006413,28.2824860704661,-29.196622973509));
#857=CARTESIAN_POINT('',(34.9449711006413,37.7175149130105,-29.196622973509));
#858=CARTESIAN_POINT('Origin',(41.2573698323337,33.0000004917383,-26.8990977283533));
#859=UNCERTAINTY_MEASURE_WITH_UNIT(LENGTH_MEASURE(0.01),#863,
'DISTANCE_ACCURACY_VALUE',
'Maximum model space distance between geometric entities at asserted c
onnectivities');
#860=UNCERTAINTY_MEASURE_WITH_UNIT(LENGTH_MEASURE(0.01),#863,
'DISTANCE_ACCURACY_VALUE',
'Maximum model space distance between geometric entities at asserted c
onnectivities');
#861=(
GEOMETRIC_REPRESENTATION_CONTEXT(3)
GLOBAL_UNCERTAINTY_ASSIGNED_CONTEXT((#859))
GLOBAL_UNIT_ASSIGNED_CONTEXT((#863,#864,#865))
REPRESENTATION_CONTEXT('','3D')
);
#862=(
GEOMETRIC_REPRESENTATION_CONTEXT(3)
GLOBAL_UNCERTAINTY_ASSIGNED_CONTEXT((#860))
GLOBAL_UNIT_ASSIGNED_CONTEXT((#863,#864,#865))
REPRESENTATION_CONTEXT('','3D')
);
#863=(
LENGTH_UNIT()
NAMED_UNIT(*)
SI_UNIT(.MILLI.,.METRE.)
);
#864=(
NAMED_UNIT(*)
PLANE_ANGLE_UNIT()
SI_UNIT($,.RADIAN.)
);
#865=(
NAMED_UNIT(*)
SI_UNIT($,.STERADIAN.)
SOLID_ANGLE_UNIT()
);
#866=SHAPE_DEFINITION_REPRESENTATION(#867,#868);
#867=PRODUCT_DEFINITION_SHAPE('',$,#870);
#868=SHAPE_REPRESENTATION('',(#447),#861);
#869=PRODUCT_DEFINITION_CONTEXT('part definition',#874,'design');
#870=PRODUCT_DEFINITION('None','Fume extractor v14',#871,#869);
#871=PRODUCT_DEFINITION_FORMATION('',$,#876);
#872=PRODUCT_RELATED_PRODUCT_CATEGORY('Fume extractor v14',
'Fume extractor v14',(#876));
#873=APPLICATION_PROTOCOL_DEFINITION('international standard',
'automotive_design',2009,#874);
#874=APPLICATION_CONTEXT(
'Core Data for Automotive Mechanical Design Process');
#875=PRODUCT_CONTEXT('part definition',#874,'mechanical');
#876=PRODUCT('None','Fume extractor v14','STEP AP203',(#875));
#877=PRESENTATION_STYLE_ASSIGNMENT((#878));
#878=SURFACE_STYLE_USAGE(.BOTH.,#879);
#879=SURFACE_SIDE_STYLE('',(#880));
#880=SURFACE_STYLE_FILL_AREA(#881);
#881=FILL_AREA_STYLE('Acciaio - Satinato',(#882));
#882=FILL_AREA_STYLE_COLOUR('Acciaio - Satinato',#883);
#883=COLOUR_RGB('Acciaio - Satinato',0.627450980392157,0.627450980392157,
0.627450980392157);
ENDSEC;
END-ISO-10303-21;
