ISO-10303-21;
HEADER;
/* Generated by software containing ST-Developer
 * from STEP Tools, Inc. (www.steptools.com) 
 */

FILE_DESCRIPTION(
/* description */ ('STEP AP203'),
/* implementation_level */ '2;1');

FILE_NAME(
/* name */ 'LongLeg.step',
/* time_stamp */ '2026-07-21T21:54:06+02:00',
/* author */ (''),
/* organization */ (''),
/* preprocessor_version */ 'ST-DEVELOPER v20.1',
/* originating_system */ 'Autodesk Translation Framework v15.8.0.0',
/* authorisation */ '');

FILE_SCHEMA (('AUTOMOTIVE_DESIGN { 1 0 10303 214 3 1 1 }'));
ENDSEC;

DATA;
#10=MECHANICAL_DESIGN_GEOMETRIC_PRESENTATION_REPRESENTATION('',(#13),#789);
#11=SHAPE_REPRESENTATION_RELATIONSHIP('SRR','None',#795,#12);
#12=ADVANCED_BREP_SHAPE_REPRESENTATION('',(#14),#788);
#13=STYLED_ITEM('',(#804),#14);
#14=MANIFOLD_SOLID_BREP('LongLeg',#463);
#15=CYLINDRICAL_SURFACE('',#470,2.);
#16=CYLINDRICAL_SURFACE('',#474,2.);
#17=CYLINDRICAL_SURFACE('',#476,6.);
#18=CYLINDRICAL_SURFACE('',#487,6.);
#19=CYLINDRICAL_SURFACE('',#493,3.);
#20=CYLINDRICAL_SURFACE('',#499,3.);
#21=CYLINDRICAL_SURFACE('',#506,5.00000007450581);
#22=CYLINDRICAL_SURFACE('',#507,4.5);
#23=CYLINDRICAL_SURFACE('',#509,8.25000019371511);
#24=CYLINDRICAL_SURFACE('',#510,5.00000007450581);
#25=CYLINDRICAL_SURFACE('',#511,4.5);
#26=CYLINDRICAL_SURFACE('',#514,8.25000019371511);
#27=FACE_BOUND('',#71,.T.);
#28=FACE_BOUND('',#72,.T.);
#29=FACE_BOUND('',#78,.T.);
#30=FACE_BOUND('',#82,.T.);
#31=FACE_BOUND('',#85,.T.);
#32=FACE_BOUND('',#88,.T.);
#33=FACE_BOUND('',#90,.T.);
#34=FACE_BOUND('',#91,.T.);
#35=PLANE('',#468);
#36=PLANE('',#479);
#37=PLANE('',#483);
#38=PLANE('',#489);
#39=PLANE('',#495);
#40=PLANE('',#501);
#41=PLANE('',#505);
#42=PLANE('',#508);
#43=PLANE('',#512);
#44=PLANE('',#513);
#45=FACE_OUTER_BOUND('',#69,.T.);
#46=FACE_OUTER_BOUND('',#70,.T.);
#47=FACE_OUTER_BOUND('',#73,.T.);
#48=FACE_OUTER_BOUND('',#74,.T.);
#49=FACE_OUTER_BOUND('',#75,.T.);
#50=FACE_OUTER_BOUND('',#76,.T.);
#51=FACE_OUTER_BOUND('',#77,.T.);
#52=FACE_OUTER_BOUND('',#79,.T.);
#53=FACE_OUTER_BOUND('',#80,.T.);
#54=FACE_OUTER_BOUND('',#81,.T.);
#55=FACE_OUTER_BOUND('',#83,.T.);
#56=FACE_OUTER_BOUND('',#84,.T.);
#57=FACE_OUTER_BOUND('',#86,.T.);
#58=FACE_OUTER_BOUND('',#87,.T.);
#59=FACE_OUTER_BOUND('',#89,.T.);
#60=FACE_OUTER_BOUND('',#92,.T.);
#61=FACE_OUTER_BOUND('',#93,.T.);
#62=FACE_OUTER_BOUND('',#94,.T.);
#63=FACE_OUTER_BOUND('',#95,.T.);
#64=FACE_OUTER_BOUND('',#96,.T.);
#65=FACE_OUTER_BOUND('',#97,.T.);
#66=FACE_OUTER_BOUND('',#98,.T.);
#67=FACE_OUTER_BOUND('',#99,.T.);
#68=FACE_OUTER_BOUND('',#100,.T.);
#69=EDGE_LOOP('',(#309,#310,#311,#312));
#70=EDGE_LOOP('',(#313,#314,#315,#316));
#71=EDGE_LOOP('',(#317));
#72=EDGE_LOOP('',(#318));
#73=EDGE_LOOP('',(#319,#320,#321,#322));
#74=EDGE_LOOP('',(#323,#324,#325,#326));
#75=EDGE_LOOP('',(#327,#328,#329,#330));
#76=EDGE_LOOP('',(#331,#332,#333,#334));
#77=EDGE_LOOP('',(#335,#336,#337,#338,#339));
#78=EDGE_LOOP('',(#340,#341));
#79=EDGE_LOOP('',(#342,#343,#344,#345,#346,#347,#348,#349,#350,#351,#352,
#353));
#80=EDGE_LOOP('',(#354,#355,#356,#357));
#81=EDGE_LOOP('',(#358,#359,#360,#361,#362));
#82=EDGE_LOOP('',(#363,#364));
#83=EDGE_LOOP('',(#365,#366,#367,#368));
#84=EDGE_LOOP('',(#369,#370,#371,#372,#373));
#85=EDGE_LOOP('',(#374,#375));
#86=EDGE_LOOP('',(#376,#377,#378,#379));
#87=EDGE_LOOP('',(#380,#381,#382,#383,#384));
#88=EDGE_LOOP('',(#385,#386));
#89=EDGE_LOOP('',(#387,#388,#389,#390));
#90=EDGE_LOOP('',(#391));
#91=EDGE_LOOP('',(#392));
#92=EDGE_LOOP('',(#393,#394,#395,#396));
#93=EDGE_LOOP('',(#397,#398,#399,#400));
#94=EDGE_LOOP('',(#401,#402,#403,#404));
#95=EDGE_LOOP('',(#405,#406,#407,#408));
#96=EDGE_LOOP('',(#409,#410,#411,#412));
#97=EDGE_LOOP('',(#413,#414,#415,#416));
#98=EDGE_LOOP('',(#417,#418,#419,#420));
#99=EDGE_LOOP('',(#421,#422,#423,#424,#425,#426,#427,#428,#429,#430,#431,
#432));
#100=EDGE_LOOP('',(#433,#434,#435,#436));
#101=LINE('',#660,#139);
#102=LINE('',#665,#140);
#103=LINE('',#667,#141);
#104=LINE('',#669,#142);
#105=LINE('',#670,#143);
#106=LINE('',#675,#144);
#107=LINE('',#679,#145);
#108=LINE('',#683,#146);
#109=LINE('',#690,#147);
#110=LINE('',#693,#148);
#111=LINE('',#696,#149);
#112=LINE('',#698,#150);
#113=LINE('',#701,#151);
#114=LINE('',#708,#152);
#115=LINE('',#712,#153);
#116=LINE('',#714,#154);
#117=LINE('',#716,#155);
#118=LINE('',#721,#156);
#119=LINE('',#722,#157);
#120=LINE('',#725,#158);
#121=LINE('',#728,#159);
#122=LINE('',#731,#160);
#123=LINE('',#734,#161);
#124=LINE('',#741,#162);
#125=LINE('',#745,#163);
#126=LINE('',#748,#164);
#127=LINE('',#756,#165);
#128=LINE('',#759,#166);
#129=LINE('',#762,#167);
#130=LINE('',#768,#168);
#131=LINE('',#770,#169);
#132=LINE('',#771,#170);
#133=LINE('',#774,#171);
#134=LINE('',#776,#172);
#135=LINE('',#778,#173);
#136=LINE('',#779,#174);
#137=LINE('',#782,#175);
#138=LINE('',#784,#176);
#139=VECTOR('',#521,2.5);
#140=VECTOR('',#526,10.);
#141=VECTOR('',#527,10.);
#142=VECTOR('',#528,10.);
#143=VECTOR('',#529,10.);
#144=VECTOR('',#534,2.);
#145=VECTOR('',#539,2.5);
#146=VECTOR('',#544,2.);
#147=VECTOR('',#551,10.);
#148=VECTOR('',#554,10.);
#149=VECTOR('',#557,10.);
#150=VECTOR('',#558,10.);
#151=VECTOR('',#561,10.);
#152=VECTOR('',#568,10.);
#153=VECTOR('',#571,10.);
#154=VECTOR('',#572,10.);
#155=VECTOR('',#573,10.);
#156=VECTOR('',#578,10.);
#157=VECTOR('',#579,10.);
#158=VECTOR('',#582,10.);
#159=VECTOR('',#585,10.);
#160=VECTOR('',#588,10.);
#161=VECTOR('',#591,10.);
#162=VECTOR('',#598,10.);
#163=VECTOR('',#603,10.);
#164=VECTOR('',#606,10.);
#165=VECTOR('',#615,10.);
#166=VECTOR('',#618,10.);
#167=VECTOR('',#621,10.);
#168=VECTOR('',#628,10.);
#169=VECTOR('',#631,10.);
#170=VECTOR('',#632,10.);
#171=VECTOR('',#637,10.);
#172=VECTOR('',#640,10.);
#173=VECTOR('',#643,10.);
#174=VECTOR('',#644,10.);
#175=VECTOR('',#649,10.);
#176=VECTOR('',#652,10.);
#177=CIRCLE('',#466,3.);
#178=CIRCLE('',#467,2.);
#179=CIRCLE('',#469,3.);
#180=CIRCLE('',#471,2.);
#181=CIRCLE('',#473,2.);
#182=CIRCLE('',#475,2.);
#183=CIRCLE('',#477,6.);
#184=CIRCLE('',#478,6.);
#185=CIRCLE('',#480,8.25000019371511);
#186=CIRCLE('',#481,4.5);
#187=CIRCLE('',#482,5.00000007450581);
#188=CIRCLE('',#484,6.);
#189=CIRCLE('',#485,3.);
#190=CIRCLE('',#486,3.);
#191=CIRCLE('',#488,6.);
#192=CIRCLE('',#490,8.25000019371511);
#193=CIRCLE('',#491,4.5);
#194=CIRCLE('',#492,5.00000007450581);
#195=CIRCLE('',#494,3.);
#196=CIRCLE('',#496,8.25000019371511);
#197=CIRCLE('',#497,4.5);
#198=CIRCLE('',#498,5.00000007450581);
#199=CIRCLE('',#500,3.);
#200=CIRCLE('',#502,8.25000019371511);
#201=CIRCLE('',#503,4.5);
#202=CIRCLE('',#504,5.00000007450581);
#203=VERTEX_POINT('',#657);
#204=VERTEX_POINT('',#659);
#205=VERTEX_POINT('',#663);
#206=VERTEX_POINT('',#664);
#207=VERTEX_POINT('',#666);
#208=VERTEX_POINT('',#668);
#209=VERTEX_POINT('',#671);
#210=VERTEX_POINT('',#674);
#211=VERTEX_POINT('',#678);
#212=VERTEX_POINT('',#682);
#213=VERTEX_POINT('',#686);
#214=VERTEX_POINT('',#687);
#215=VERTEX_POINT('',#689);
#216=VERTEX_POINT('',#691);
#217=VERTEX_POINT('',#695);
#218=VERTEX_POINT('',#697);
#219=VERTEX_POINT('',#699);
#220=VERTEX_POINT('',#702);
#221=VERTEX_POINT('',#703);
#222=VERTEX_POINT('',#707);
#223=VERTEX_POINT('',#709);
#224=VERTEX_POINT('',#711);
#225=VERTEX_POINT('',#713);
#226=VERTEX_POINT('',#715);
#227=VERTEX_POINT('',#718);
#228=VERTEX_POINT('',#720);
#229=VERTEX_POINT('',#724);
#230=VERTEX_POINT('',#726);
#231=VERTEX_POINT('',#730);
#232=VERTEX_POINT('',#732);
#233=VERTEX_POINT('',#735);
#234=VERTEX_POINT('',#736);
#235=VERTEX_POINT('',#740);
#236=VERTEX_POINT('',#744);
#237=VERTEX_POINT('',#746);
#238=VERTEX_POINT('',#749);
#239=VERTEX_POINT('',#750);
#240=VERTEX_POINT('',#754);
#241=VERTEX_POINT('',#758);
#242=VERTEX_POINT('',#760);
#243=VERTEX_POINT('',#763);
#244=VERTEX_POINT('',#764);
#245=EDGE_CURVE('',#203,#203,#177,.T.);
#246=EDGE_CURVE('',#203,#204,#101,.T.);
#247=EDGE_CURVE('',#204,#204,#178,.T.);
#248=EDGE_CURVE('',#205,#206,#102,.T.);
#249=EDGE_CURVE('',#205,#207,#103,.T.);
#250=EDGE_CURVE('',#208,#207,#104,.T.);
#251=EDGE_CURVE('',#208,#206,#105,.T.);
#252=EDGE_CURVE('',#209,#209,#179,.T.);
#253=EDGE_CURVE('',#204,#210,#106,.T.);
#254=EDGE_CURVE('',#210,#210,#180,.T.);
#255=EDGE_CURVE('',#209,#211,#107,.T.);
#256=EDGE_CURVE('',#211,#211,#181,.T.);
#257=EDGE_CURVE('',#211,#212,#108,.T.);
#258=EDGE_CURVE('',#212,#212,#182,.T.);
#259=EDGE_CURVE('',#213,#214,#183,.T.);
#260=EDGE_CURVE('',#214,#215,#109,.T.);
#261=EDGE_CURVE('',#215,#216,#184,.T.);
#262=EDGE_CURVE('',#216,#213,#110,.T.);
#263=EDGE_CURVE('',#217,#216,#111,.T.);
#264=EDGE_CURVE('',#217,#218,#112,.T.);
#265=EDGE_CURVE('',#218,#219,#185,.T.);
#266=EDGE_CURVE('',#219,#213,#113,.T.);
#267=EDGE_CURVE('',#220,#221,#186,.T.);
#268=EDGE_CURVE('',#221,#220,#187,.T.);
#269=EDGE_CURVE('',#222,#215,#114,.T.);
#270=EDGE_CURVE('',#223,#222,#188,.T.);
#271=EDGE_CURVE('',#224,#223,#115,.T.);
#272=EDGE_CURVE('',#224,#225,#116,.T.);
#273=EDGE_CURVE('',#225,#226,#117,.T.);
#274=EDGE_CURVE('',#206,#226,#189,.T.);
#275=EDGE_CURVE('',#227,#208,#190,.T.);
#276=EDGE_CURVE('',#228,#227,#118,.T.);
#277=EDGE_CURVE('',#228,#217,#119,.T.);
#278=EDGE_CURVE('',#222,#229,#120,.T.);
#279=EDGE_CURVE('',#229,#230,#191,.T.);
#280=EDGE_CURVE('',#230,#223,#121,.T.);
#281=EDGE_CURVE('',#231,#230,#122,.T.);
#282=EDGE_CURVE('',#232,#231,#192,.T.);
#283=EDGE_CURVE('',#232,#224,#123,.T.);
#284=EDGE_CURVE('',#233,#234,#193,.T.);
#285=EDGE_CURVE('',#234,#233,#194,.T.);
#286=EDGE_CURVE('',#226,#235,#124,.T.);
#287=EDGE_CURVE('',#235,#205,#195,.T.);
#288=EDGE_CURVE('',#225,#236,#125,.T.);
#289=EDGE_CURVE('',#236,#237,#196,.T.);
#290=EDGE_CURVE('',#237,#235,#126,.T.);
#291=EDGE_CURVE('',#238,#239,#197,.T.);
#292=EDGE_CURVE('',#239,#238,#198,.T.);
#293=EDGE_CURVE('',#207,#240,#199,.T.);
#294=EDGE_CURVE('',#240,#227,#127,.T.);
#295=EDGE_CURVE('',#241,#240,#128,.T.);
#296=EDGE_CURVE('',#242,#241,#200,.T.);
#297=EDGE_CURVE('',#242,#228,#129,.T.);
#298=EDGE_CURVE('',#243,#244,#201,.T.);
#299=EDGE_CURVE('',#244,#243,#202,.T.);
#300=EDGE_CURVE('',#214,#229,#130,.T.);
#301=EDGE_CURVE('',#233,#238,#131,.T.);
#302=EDGE_CURVE('',#234,#239,#132,.T.);
#303=EDGE_CURVE('',#232,#236,#133,.T.);
#304=EDGE_CURVE('',#231,#237,#134,.T.);
#305=EDGE_CURVE('',#243,#220,#135,.T.);
#306=EDGE_CURVE('',#244,#221,#136,.T.);
#307=EDGE_CURVE('',#242,#218,#137,.T.);
#308=EDGE_CURVE('',#241,#219,#138,.T.);
#309=ORIENTED_EDGE('',*,*,#245,.T.);
#310=ORIENTED_EDGE('',*,*,#246,.T.);
#311=ORIENTED_EDGE('',*,*,#247,.T.);
#312=ORIENTED_EDGE('',*,*,#246,.F.);
#313=ORIENTED_EDGE('',*,*,#248,.F.);
#314=ORIENTED_EDGE('',*,*,#249,.T.);
#315=ORIENTED_EDGE('',*,*,#250,.F.);
#316=ORIENTED_EDGE('',*,*,#251,.T.);
#317=ORIENTED_EDGE('',*,*,#252,.F.);
#318=ORIENTED_EDGE('',*,*,#245,.F.);
#319=ORIENTED_EDGE('',*,*,#247,.F.);
#320=ORIENTED_EDGE('',*,*,#253,.T.);
#321=ORIENTED_EDGE('',*,*,#254,.F.);
#322=ORIENTED_EDGE('',*,*,#253,.F.);
#323=ORIENTED_EDGE('',*,*,#252,.T.);
#324=ORIENTED_EDGE('',*,*,#255,.T.);
#325=ORIENTED_EDGE('',*,*,#256,.T.);
#326=ORIENTED_EDGE('',*,*,#255,.F.);
#327=ORIENTED_EDGE('',*,*,#256,.F.);
#328=ORIENTED_EDGE('',*,*,#257,.T.);
#329=ORIENTED_EDGE('',*,*,#258,.F.);
#330=ORIENTED_EDGE('',*,*,#257,.F.);
#331=ORIENTED_EDGE('',*,*,#259,.T.);
#332=ORIENTED_EDGE('',*,*,#260,.T.);
#333=ORIENTED_EDGE('',*,*,#261,.T.);
#334=ORIENTED_EDGE('',*,*,#262,.T.);
#335=ORIENTED_EDGE('',*,*,#262,.F.);
#336=ORIENTED_EDGE('',*,*,#263,.F.);
#337=ORIENTED_EDGE('',*,*,#264,.T.);
#338=ORIENTED_EDGE('',*,*,#265,.T.);
#339=ORIENTED_EDGE('',*,*,#266,.T.);
#340=ORIENTED_EDGE('',*,*,#267,.T.);
#341=ORIENTED_EDGE('',*,*,#268,.T.);
#342=ORIENTED_EDGE('',*,*,#261,.F.);
#343=ORIENTED_EDGE('',*,*,#269,.F.);
#344=ORIENTED_EDGE('',*,*,#270,.F.);
#345=ORIENTED_EDGE('',*,*,#271,.F.);
#346=ORIENTED_EDGE('',*,*,#272,.T.);
#347=ORIENTED_EDGE('',*,*,#273,.T.);
#348=ORIENTED_EDGE('',*,*,#274,.F.);
#349=ORIENTED_EDGE('',*,*,#251,.F.);
#350=ORIENTED_EDGE('',*,*,#275,.F.);
#351=ORIENTED_EDGE('',*,*,#276,.F.);
#352=ORIENTED_EDGE('',*,*,#277,.T.);
#353=ORIENTED_EDGE('',*,*,#263,.T.);
#354=ORIENTED_EDGE('',*,*,#270,.T.);
#355=ORIENTED_EDGE('',*,*,#278,.T.);
#356=ORIENTED_EDGE('',*,*,#279,.T.);
#357=ORIENTED_EDGE('',*,*,#280,.T.);
#358=ORIENTED_EDGE('',*,*,#280,.F.);
#359=ORIENTED_EDGE('',*,*,#281,.F.);
#360=ORIENTED_EDGE('',*,*,#282,.F.);
#361=ORIENTED_EDGE('',*,*,#283,.T.);
#362=ORIENTED_EDGE('',*,*,#271,.T.);
#363=ORIENTED_EDGE('',*,*,#284,.F.);
#364=ORIENTED_EDGE('',*,*,#285,.F.);
#365=ORIENTED_EDGE('',*,*,#274,.T.);
#366=ORIENTED_EDGE('',*,*,#286,.T.);
#367=ORIENTED_EDGE('',*,*,#287,.T.);
#368=ORIENTED_EDGE('',*,*,#248,.T.);
#369=ORIENTED_EDGE('',*,*,#286,.F.);
#370=ORIENTED_EDGE('',*,*,#273,.F.);
#371=ORIENTED_EDGE('',*,*,#288,.T.);
#372=ORIENTED_EDGE('',*,*,#289,.T.);
#373=ORIENTED_EDGE('',*,*,#290,.T.);
#374=ORIENTED_EDGE('',*,*,#291,.T.);
#375=ORIENTED_EDGE('',*,*,#292,.T.);
#376=ORIENTED_EDGE('',*,*,#293,.T.);
#377=ORIENTED_EDGE('',*,*,#294,.T.);
#378=ORIENTED_EDGE('',*,*,#275,.T.);
#379=ORIENTED_EDGE('',*,*,#250,.T.);
#380=ORIENTED_EDGE('',*,*,#294,.F.);
#381=ORIENTED_EDGE('',*,*,#295,.F.);
#382=ORIENTED_EDGE('',*,*,#296,.F.);
#383=ORIENTED_EDGE('',*,*,#297,.T.);
#384=ORIENTED_EDGE('',*,*,#276,.T.);
#385=ORIENTED_EDGE('',*,*,#298,.F.);
#386=ORIENTED_EDGE('',*,*,#299,.F.);
#387=ORIENTED_EDGE('',*,*,#260,.F.);
#388=ORIENTED_EDGE('',*,*,#300,.T.);
#389=ORIENTED_EDGE('',*,*,#278,.F.);
#390=ORIENTED_EDGE('',*,*,#269,.T.);
#391=ORIENTED_EDGE('',*,*,#258,.T.);
#392=ORIENTED_EDGE('',*,*,#254,.T.);
#393=ORIENTED_EDGE('',*,*,#285,.T.);
#394=ORIENTED_EDGE('',*,*,#301,.T.);
#395=ORIENTED_EDGE('',*,*,#292,.F.);
#396=ORIENTED_EDGE('',*,*,#302,.F.);
#397=ORIENTED_EDGE('',*,*,#284,.T.);
#398=ORIENTED_EDGE('',*,*,#302,.T.);
#399=ORIENTED_EDGE('',*,*,#291,.F.);
#400=ORIENTED_EDGE('',*,*,#301,.F.);
#401=ORIENTED_EDGE('',*,*,#283,.F.);
#402=ORIENTED_EDGE('',*,*,#303,.T.);
#403=ORIENTED_EDGE('',*,*,#288,.F.);
#404=ORIENTED_EDGE('',*,*,#272,.F.);
#405=ORIENTED_EDGE('',*,*,#282,.T.);
#406=ORIENTED_EDGE('',*,*,#304,.T.);
#407=ORIENTED_EDGE('',*,*,#289,.F.);
#408=ORIENTED_EDGE('',*,*,#303,.F.);
#409=ORIENTED_EDGE('',*,*,#299,.T.);
#410=ORIENTED_EDGE('',*,*,#305,.T.);
#411=ORIENTED_EDGE('',*,*,#268,.F.);
#412=ORIENTED_EDGE('',*,*,#306,.F.);
#413=ORIENTED_EDGE('',*,*,#298,.T.);
#414=ORIENTED_EDGE('',*,*,#306,.T.);
#415=ORIENTED_EDGE('',*,*,#267,.F.);
#416=ORIENTED_EDGE('',*,*,#305,.F.);
#417=ORIENTED_EDGE('',*,*,#297,.F.);
#418=ORIENTED_EDGE('',*,*,#307,.T.);
#419=ORIENTED_EDGE('',*,*,#264,.F.);
#420=ORIENTED_EDGE('',*,*,#277,.F.);
#421=ORIENTED_EDGE('',*,*,#259,.F.);
#422=ORIENTED_EDGE('',*,*,#266,.F.);
#423=ORIENTED_EDGE('',*,*,#308,.F.);
#424=ORIENTED_EDGE('',*,*,#295,.T.);
#425=ORIENTED_EDGE('',*,*,#293,.F.);
#426=ORIENTED_EDGE('',*,*,#249,.F.);
#427=ORIENTED_EDGE('',*,*,#287,.F.);
#428=ORIENTED_EDGE('',*,*,#290,.F.);
#429=ORIENTED_EDGE('',*,*,#304,.F.);
#430=ORIENTED_EDGE('',*,*,#281,.T.);
#431=ORIENTED_EDGE('',*,*,#279,.F.);
#432=ORIENTED_EDGE('',*,*,#300,.F.);
#433=ORIENTED_EDGE('',*,*,#296,.T.);
#434=ORIENTED_EDGE('',*,*,#308,.T.);
#435=ORIENTED_EDGE('',*,*,#265,.F.);
#436=ORIENTED_EDGE('',*,*,#307,.F.);
#437=CONICAL_SURFACE('',#465,2.5,0.785398163397448);
#438=CONICAL_SURFACE('',#472,2.5,0.785398163397448);
#439=ADVANCED_FACE('',(#45),#437,.F.);
#440=ADVANCED_FACE('',(#46,#27,#28),#35,.F.);
#441=ADVANCED_FACE('',(#47),#15,.F.);
#442=ADVANCED_FACE('',(#48),#438,.F.);
#443=ADVANCED_FACE('',(#49),#16,.F.);
#444=ADVANCED_FACE('',(#50),#17,.T.);
#445=ADVANCED_FACE('',(#51,#29),#36,.T.);
#446=ADVANCED_FACE('',(#52),#37,.T.);
#447=ADVANCED_FACE('',(#53),#18,.T.);
#448=ADVANCED_FACE('',(#54,#30),#38,.F.);
#449=ADVANCED_FACE('',(#55),#19,.F.);
#450=ADVANCED_FACE('',(#56,#31),#39,.T.);
#451=ADVANCED_FACE('',(#57),#20,.F.);
#452=ADVANCED_FACE('',(#58,#32),#40,.F.);
#453=ADVANCED_FACE('',(#59,#33,#34),#41,.T.);
#454=ADVANCED_FACE('',(#60),#21,.F.);
#455=ADVANCED_FACE('',(#61),#22,.F.);
#456=ADVANCED_FACE('',(#62),#42,.T.);
#457=ADVANCED_FACE('',(#63),#23,.T.);
#458=ADVANCED_FACE('',(#64),#24,.F.);
#459=ADVANCED_FACE('',(#65),#25,.F.);
#460=ADVANCED_FACE('',(#66),#43,.T.);
#461=ADVANCED_FACE('',(#67),#44,.T.);
#462=ADVANCED_FACE('',(#68),#26,.T.);
#463=CLOSED_SHELL('',(#439,#440,#441,#442,#443,#444,#445,#446,#447,#448,
#449,#450,#451,#452,#453,#454,#455,#456,#457,#458,#459,#460,#461,#462));
#464=AXIS2_PLACEMENT_3D('',#655,#515,#516);
#465=AXIS2_PLACEMENT_3D('',#656,#517,#518);
#466=AXIS2_PLACEMENT_3D('',#658,#519,#520);
#467=AXIS2_PLACEMENT_3D('',#661,#522,#523);
#468=AXIS2_PLACEMENT_3D('',#662,#524,#525);
#469=AXIS2_PLACEMENT_3D('',#672,#530,#531);
#470=AXIS2_PLACEMENT_3D('',#673,#532,#533);
#471=AXIS2_PLACEMENT_3D('',#676,#535,#536);
#472=AXIS2_PLACEMENT_3D('',#677,#537,#538);
#473=AXIS2_PLACEMENT_3D('',#680,#540,#541);
#474=AXIS2_PLACEMENT_3D('',#681,#542,#543);
#475=AXIS2_PLACEMENT_3D('',#684,#545,#546);
#476=AXIS2_PLACEMENT_3D('',#685,#547,#548);
#477=AXIS2_PLACEMENT_3D('',#688,#549,#550);
#478=AXIS2_PLACEMENT_3D('',#692,#552,#553);
#479=AXIS2_PLACEMENT_3D('',#694,#555,#556);
#480=AXIS2_PLACEMENT_3D('',#700,#559,#560);
#481=AXIS2_PLACEMENT_3D('',#704,#562,#563);
#482=AXIS2_PLACEMENT_3D('',#705,#564,#565);
#483=AXIS2_PLACEMENT_3D('',#706,#566,#567);
#484=AXIS2_PLACEMENT_3D('',#710,#569,#570);
#485=AXIS2_PLACEMENT_3D('',#717,#574,#575);
#486=AXIS2_PLACEMENT_3D('',#719,#576,#577);
#487=AXIS2_PLACEMENT_3D('',#723,#580,#581);
#488=AXIS2_PLACEMENT_3D('',#727,#583,#584);
#489=AXIS2_PLACEMENT_3D('',#729,#586,#587);
#490=AXIS2_PLACEMENT_3D('',#733,#589,#590);
#491=AXIS2_PLACEMENT_3D('',#737,#592,#593);
#492=AXIS2_PLACEMENT_3D('',#738,#594,#595);
#493=AXIS2_PLACEMENT_3D('',#739,#596,#597);
#494=AXIS2_PLACEMENT_3D('',#742,#599,#600);
#495=AXIS2_PLACEMENT_3D('',#743,#601,#602);
#496=AXIS2_PLACEMENT_3D('',#747,#604,#605);
#497=AXIS2_PLACEMENT_3D('',#751,#607,#608);
#498=AXIS2_PLACEMENT_3D('',#752,#609,#610);
#499=AXIS2_PLACEMENT_3D('',#753,#611,#612);
#500=AXIS2_PLACEMENT_3D('',#755,#613,#614);
#501=AXIS2_PLACEMENT_3D('',#757,#616,#617);
#502=AXIS2_PLACEMENT_3D('',#761,#619,#620);
#503=AXIS2_PLACEMENT_3D('',#765,#622,#623);
#504=AXIS2_PLACEMENT_3D('',#766,#624,#625);
#505=AXIS2_PLACEMENT_3D('',#767,#626,#627);
#506=AXIS2_PLACEMENT_3D('',#769,#629,#630);
#507=AXIS2_PLACEMENT_3D('',#772,#633,#634);
#508=AXIS2_PLACEMENT_3D('',#773,#635,#636);
#509=AXIS2_PLACEMENT_3D('',#775,#638,#639);
#510=AXIS2_PLACEMENT_3D('',#777,#641,#642);
#511=AXIS2_PLACEMENT_3D('',#780,#645,#646);
#512=AXIS2_PLACEMENT_3D('',#781,#647,#648);
#513=AXIS2_PLACEMENT_3D('',#783,#650,#651);
#514=AXIS2_PLACEMENT_3D('',#785,#653,#654);
#515=DIRECTION('axis',(0.,0.,1.));
#516=DIRECTION('refdir',(1.,0.,0.));
#517=DIRECTION('center_axis',(0.422618261740699,0.,0.90630778703665));
#518=DIRECTION('ref_axis',(-0.90630778703665,0.,0.422618261740699));
#519=DIRECTION('center_axis',(0.422618261740699,0.,0.90630778703665));
#520=DIRECTION('ref_axis',(-0.90630778703665,0.,0.422618261740699));
#521=DIRECTION('',(-0.939692620785909,-8.65956056235493E-17,-0.342020143325669));
#522=DIRECTION('center_axis',(-0.422618261740699,0.,-0.90630778703665));
#523=DIRECTION('ref_axis',(-0.90630778703665,0.,0.422618261740699));
#524=DIRECTION('center_axis',(-0.422618261740699,0.,-0.90630778703665));
#525=DIRECTION('ref_axis',(0.,-1.,0.));
#526=DIRECTION('',(0.90630778703665,0.,-0.422618261740699));
#527=DIRECTION('',(0.,-1.,0.));
#528=DIRECTION('',(-0.90630778703665,0.,0.422618261740699));
#529=DIRECTION('',(0.,1.,0.));
#530=DIRECTION('center_axis',(0.422618261740699,0.,0.90630778703665));
#531=DIRECTION('ref_axis',(-0.90630778703665,0.,0.422618261740699));
#532=DIRECTION('center_axis',(-0.422618261740699,0.,-0.90630778703665));
#533=DIRECTION('ref_axis',(-0.90630778703665,0.,0.422618261740699));
#534=DIRECTION('',(-0.422618261740699,0.,-0.90630778703665));
#535=DIRECTION('center_axis',(0.422618261740699,0.,0.90630778703665));
#536=DIRECTION('ref_axis',(-0.90630778703665,0.,0.422618261740699));
#537=DIRECTION('center_axis',(0.422618261740699,0.,0.90630778703665));
#538=DIRECTION('ref_axis',(-0.90630778703665,0.,0.422618261740699));
#539=DIRECTION('',(-0.939692620785909,-8.65956056235493E-17,-0.342020143325669));
#540=DIRECTION('center_axis',(-0.422618261740699,0.,-0.90630778703665));
#541=DIRECTION('ref_axis',(-0.90630778703665,0.,0.422618261740699));
#542=DIRECTION('center_axis',(-0.422618261740699,0.,-0.90630778703665));
#543=DIRECTION('ref_axis',(-0.90630778703665,0.,0.422618261740699));
#544=DIRECTION('',(-0.422618261740699,0.,-0.90630778703665));
#545=DIRECTION('center_axis',(0.422618261740699,0.,0.90630778703665));
#546=DIRECTION('ref_axis',(-0.90630778703665,0.,0.422618261740699));
#547=DIRECTION('center_axis',(-0.90630778703665,0.,0.422618261740699));
#548=DIRECTION('ref_axis',(-0.298836238730119,-0.707106781186549,-0.640856382055788));
#549=DIRECTION('center_axis',(0.90630778703665,0.,-0.422618261740699));
#550=DIRECTION('ref_axis',(-0.298836238730119,-0.707106781186549,-0.640856382055788));
#551=DIRECTION('',(0.90630778703665,0.,-0.422618261740699));
#552=DIRECTION('center_axis',(-0.90630778703665,0.,0.422618261740699));
#553=DIRECTION('ref_axis',(-0.298836238730119,-0.707106781186549,-0.640856382055788));
#554=DIRECTION('',(-0.90630778703665,0.,0.422618261740699));
#555=DIRECTION('center_axis',(0.,-1.,0.));
#556=DIRECTION('ref_axis',(0.90630778703665,0.,-0.422618261740699));
#557=DIRECTION('',(-0.422618261740699,0.,-0.90630778703665));
#558=DIRECTION('',(0.422618240460033,0.,0.906307796959988));
#559=DIRECTION('center_axis',(0.,-1.,0.));
#560=DIRECTION('ref_axis',(0.90630778703665,0.,-0.422618261740699));
#561=DIRECTION('',(-0.422618261740699,0.,-0.90630778703665));
#562=DIRECTION('center_axis',(0.,1.,0.));
#563=DIRECTION('ref_axis',(-0.422618261740699,0.,-0.90630778703665));
#564=DIRECTION('center_axis',(0.,1.,0.));
#565=DIRECTION('ref_axis',(0.90630778703665,0.,-0.422618261740699));
#566=DIRECTION('center_axis',(0.90630778703665,0.,-0.422618261740699));
#567=DIRECTION('ref_axis',(0.,-1.,0.));
#568=DIRECTION('',(0.,-1.,0.));
#569=DIRECTION('center_axis',(-0.90630778703665,0.,0.422618261740699));
#570=DIRECTION('ref_axis',(-0.29883623873012,0.707106781186547,-0.640856382055788));
#571=DIRECTION('',(-0.422618261740699,0.,-0.90630778703665));
#572=DIRECTION('',(0.,-1.,0.));
#573=DIRECTION('',(-0.422618261740699,0.,-0.90630778703665));
#574=DIRECTION('center_axis',(0.90630778703665,0.,-0.422618261740699));
#575=DIRECTION('ref_axis',(-0.29883623873012,0.707106781186548,-0.640856382055789));
#576=DIRECTION('center_axis',(0.90630778703665,0.,-0.422618261740699));
#577=DIRECTION('ref_axis',(-0.298836238730121,-0.707106781186545,-0.64085638205579));
#578=DIRECTION('',(-0.422618261740699,0.,-0.90630778703665));
#579=DIRECTION('',(0.,-1.,0.));
#580=DIRECTION('center_axis',(0.90630778703665,0.,-0.422618261740699));
#581=DIRECTION('ref_axis',(-0.29883623873012,0.707106781186547,-0.640856382055788));
#582=DIRECTION('',(-0.90630778703665,0.,0.422618261740699));
#583=DIRECTION('center_axis',(0.90630778703665,0.,-0.422618261740699));
#584=DIRECTION('ref_axis',(-0.29883623873012,0.707106781186547,-0.640856382055788));
#585=DIRECTION('',(0.90630778703665,0.,-0.422618261740699));
#586=DIRECTION('center_axis',(0.,-1.,0.));
#587=DIRECTION('ref_axis',(0.90630778703665,0.,-0.422618261740699));
#588=DIRECTION('',(-0.422618261740699,0.,-0.90630778703665));
#589=DIRECTION('center_axis',(0.,-1.,0.));
#590=DIRECTION('ref_axis',(0.90630778703665,0.,-0.422618261740699));
#591=DIRECTION('',(-0.422618240460033,0.,-0.906307796959988));
#592=DIRECTION('center_axis',(0.,1.,0.));
#593=DIRECTION('ref_axis',(-0.422618261740699,0.,-0.90630778703665));
#594=DIRECTION('center_axis',(0.,1.,0.));
#595=DIRECTION('ref_axis',(0.90630778703665,0.,-0.422618261740699));
#596=DIRECTION('center_axis',(-0.90630778703665,0.,0.422618261740699));
#597=DIRECTION('ref_axis',(-0.29883623873012,0.707106781186548,-0.640856382055789));
#598=DIRECTION('',(-0.90630778703665,0.,0.422618261740699));
#599=DIRECTION('center_axis',(-0.90630778703665,0.,0.422618261740699));
#600=DIRECTION('ref_axis',(-0.29883623873012,0.707106781186548,-0.640856382055789));
#601=DIRECTION('center_axis',(0.,-1.,0.));
#602=DIRECTION('ref_axis',(0.90630778703665,0.,-0.422618261740699));
#603=DIRECTION('',(0.422618240460033,0.,0.906307796959988));
#604=DIRECTION('center_axis',(0.,-1.,0.));
#605=DIRECTION('ref_axis',(0.90630778703665,0.,-0.422618261740699));
#606=DIRECTION('',(-0.422618261740699,0.,-0.90630778703665));
#607=DIRECTION('center_axis',(0.,1.,0.));
#608=DIRECTION('ref_axis',(-0.422618261740699,0.,-0.90630778703665));
#609=DIRECTION('center_axis',(0.,1.,0.));
#610=DIRECTION('ref_axis',(0.90630778703665,0.,-0.422618261740699));
#611=DIRECTION('center_axis',(0.90630778703665,0.,-0.422618261740699));
#612=DIRECTION('ref_axis',(-0.298836238730121,-0.707106781186545,-0.64085638205579));
#613=DIRECTION('center_axis',(-0.90630778703665,0.,0.422618261740699));
#614=DIRECTION('ref_axis',(-0.298836238730121,-0.707106781186545,-0.64085638205579));
#615=DIRECTION('',(0.90630778703665,0.,-0.422618261740699));
#616=DIRECTION('center_axis',(0.,-1.,0.));
#617=DIRECTION('ref_axis',(0.90630778703665,0.,-0.422618261740699));
#618=DIRECTION('',(-0.422618261740699,0.,-0.90630778703665));
#619=DIRECTION('center_axis',(0.,-1.,0.));
#620=DIRECTION('ref_axis',(0.90630778703665,0.,-0.422618261740699));
#621=DIRECTION('',(-0.422618240460033,0.,-0.906307796959988));
#622=DIRECTION('center_axis',(0.,1.,0.));
#623=DIRECTION('ref_axis',(-0.422618261740699,0.,-0.90630778703665));
#624=DIRECTION('center_axis',(0.,1.,0.));
#625=DIRECTION('ref_axis',(0.90630778703665,0.,-0.422618261740699));
#626=DIRECTION('center_axis',(-0.422618261740699,0.,-0.90630778703665));
#627=DIRECTION('ref_axis',(0.,-1.,0.));
#628=DIRECTION('',(0.,1.,0.));
#629=DIRECTION('center_axis',(0.,-1.,0.));
#630=DIRECTION('ref_axis',(-0.906307868904194,0.,0.422618086175141));
#631=DIRECTION('',(0.,-1.,0.));
#632=DIRECTION('',(0.,-1.,0.));
#633=DIRECTION('center_axis',(0.,-1.,0.));
#634=DIRECTION('ref_axis',(-0.422618261740699,0.,-0.90630778703665));
#635=DIRECTION('center_axis',(0.906307796959988,0.,-0.422618240460033));
#636=DIRECTION('ref_axis',(0.422618240460033,0.,0.906307796959988));
#637=DIRECTION('',(0.,-1.,0.));
#638=DIRECTION('center_axis',(0.,-1.,0.));
#639=DIRECTION('ref_axis',(0.90630778703665,0.,-0.422618261740699));
#640=DIRECTION('',(0.,-1.,0.));
#641=DIRECTION('center_axis',(0.,-1.,0.));
#642=DIRECTION('ref_axis',(-0.906307868904194,0.,0.422618086175141));
#643=DIRECTION('',(0.,-1.,0.));
#644=DIRECTION('',(0.,-1.,0.));
#645=DIRECTION('center_axis',(0.,-1.,0.));
#646=DIRECTION('ref_axis',(-0.422618261740699,0.,-0.90630778703665));
#647=DIRECTION('center_axis',(0.906307796959988,0.,-0.422618240460033));
#648=DIRECTION('ref_axis',(0.422618240460033,0.,0.906307796959988));
#649=DIRECTION('',(0.,-1.,0.));
#650=DIRECTION('center_axis',(-0.90630778703665,0.,0.422618261740699));
#651=DIRECTION('ref_axis',(-0.422618261740699,0.,-0.90630778703665));
#652=DIRECTION('',(0.,-1.,0.));
#653=DIRECTION('center_axis',(0.,-1.,0.));
#654=DIRECTION('ref_axis',(0.90630778703665,0.,-0.422618261740699));
#655=CARTESIAN_POINT('',(0.,0.,0.));
#656=CARTESIAN_POINT('Origin',(-12.2172056218046,-33.0000004917383,-27.80100613991));
#657=CARTESIAN_POINT('',(-9.28697312982432,-33.0000004917383,-28.6157070316137));
#658=CARTESIAN_POINT('Origin',(-12.0058964909343,-33.0000004917383,-27.3478522463916));
#659=CARTESIAN_POINT('',(-10.6158991786017,-33.0000004917383,-29.0993965569097));
#660=CARTESIAN_POINT('',(-9.95143615421299,-33.0000004917383,-28.8575517942617));
#661=CARTESIAN_POINT('Origin',(-12.428514752675,-33.0000004917383,-28.2541600334283));
#662=CARTESIAN_POINT('Origin',(-12.0058964909343,-7.45058059692383E-7,-27.3478522463916));
#663=CARTESIAN_POINT('',(-19.4829357339866,51.999999254942,-23.8612515870309));
#664=CARTESIAN_POINT('',(-4.5288572478819,51.999999254942,-30.8344529057524));
#665=CARTESIAN_POINT('',(-12.0058960573407,51.999999254942,-27.3478524485796));
#666=CARTESIAN_POINT('',(-19.4829357339866,-52.0000007450581,-23.8612515870309));
#667=CARTESIAN_POINT('',(-19.4829357339866,-7.45058059692383E-7,-23.8612515870309));
#668=CARTESIAN_POINT('',(-4.5288572478819,-52.0000007450581,-30.8344529057524));
#669=CARTESIAN_POINT('',(-12.0058960573407,-52.0000007450581,-27.3478524485796));
#670=CARTESIAN_POINT('',(-4.5288572478819,-7.45058059692383E-7,-30.8344529057524));
#671=CARTESIAN_POINT('',(-9.28697312982432,33.0000004917383,-28.6157070316137));
#672=CARTESIAN_POINT('Origin',(-12.0058964909343,33.0000004917383,-27.3478522463916));
#673=CARTESIAN_POINT('Origin',(-9.47018692049007,-33.0000004917383,-21.9100055241717));
#674=CARTESIAN_POINT('',(-11.4611357020831,-33.0000004917383,-30.912012130983));
#675=CARTESIAN_POINT('',(-7.65757134641677,-33.0000004917383,-22.7552420476531));
#676=CARTESIAN_POINT('Origin',(-13.2737512761564,-33.0000004917383,-30.0667756075016));
#677=CARTESIAN_POINT('Origin',(-12.2172056218046,33.0000004917383,-27.80100613991));
#678=CARTESIAN_POINT('',(-10.6158991786017,33.0000004917383,-29.0993965569097));
#679=CARTESIAN_POINT('',(-9.95143615421299,33.0000004917383,-28.8575517942617));
#680=CARTESIAN_POINT('Origin',(-12.428514752675,33.0000004917383,-28.2541600334283));
#681=CARTESIAN_POINT('Origin',(-9.47018692049007,33.0000004917383,-21.9100055241717));
#682=CARTESIAN_POINT('',(-11.4611357020831,33.0000004917383,-30.912012130983));
#683=CARTESIAN_POINT('',(-7.65757134641677,33.0000004917383,-22.7552420476531));
#684=CARTESIAN_POINT('Origin',(-13.2737512761564,33.0000004917383,-30.0667756075016));
#685=CARTESIAN_POINT('Origin',(-10.7380412721186,-52.0000007450581,-24.6289290874697));
#686=CARTESIAN_POINT('',(-18.2150809487645,-58.0000007450581,-21.1423282259209));
#687=CARTESIAN_POINT('',(-20.7507905192087,-52.0000007450581,-26.5801749481408));
#688=CARTESIAN_POINT('Origin',(-18.2150809487645,-52.0000007450581,-21.1423282259209));
#689=CARTESIAN_POINT('',(-5.796712033104,-52.0000007450581,-33.5533762668624));
#690=CARTESIAN_POINT('',(-13.2737508425628,-52.0000007450581,-30.0667758096896));
#691=CARTESIAN_POINT('',(-3.26100072828543,-58.0000007450581,-28.1155303533945));
#692=CARTESIAN_POINT('Origin',(-3.26100072828543,-52.0000007450581,-28.1155303533945));
#693=CARTESIAN_POINT('',(-10.7380412721186,-58.0000007450581,-24.6289290874697));
#694=CARTESIAN_POINT('Origin',(6.008207823884,-58.0000007450581,11.2835168594523));
#695=CARTESIAN_POINT('',(-1.99314594306334,-58.0000007450581,-25.3966069922846));
#696=CARTESIAN_POINT('',(-1.99314594306334,-58.0000007450581,-25.3966069922846));
#697=CARTESIAN_POINT('',(25.4770397687063,-58.0000007450581,33.5133999856802));
#698=CARTESIAN_POINT('',(25.4770397687063,-58.0000007450581,33.5133999856802));
#699=CARTESIAN_POINT('',(10.522960849603,-58.0000007450581,40.4866012925713));
#700=CARTESIAN_POINT('Origin',(18.0000002682209,-58.0000007450581,37.000000551343));
#701=CARTESIAN_POINT('',(10.522960849603,-58.0000007450581,40.4866012925713));
#702=CARTESIAN_POINT('',(22.3344681019044,-58.0000007450581,39.4924670694373));
#703=CARTESIAN_POINT('',(18.8768042675852,-58.0000007450581,32.0774792977823));
#704=CARTESIAN_POINT('Origin',(18.9063078940328,-58.0000007450581,36.5773825785236));
#705=CARTESIAN_POINT('Origin',(18.0000002682209,-58.0000007450581,37.000000551343));
#706=CARTESIAN_POINT('Origin',(-1.99314594306334,-55.0000007450581,-25.3966069922846));
#707=CARTESIAN_POINT('',(-5.796712033104,51.999999254942,-33.5533762668624));
#708=CARTESIAN_POINT('',(-5.796712033104,-7.45058059692383E-7,-33.5533762668624));
#709=CARTESIAN_POINT('',(-3.26100072828543,57.9999992549419,-28.1155303533945));
#710=CARTESIAN_POINT('Origin',(-3.26100072828543,51.999999254942,-28.1155303533945));
#711=CARTESIAN_POINT('',(-1.99314594306334,57.9999992549419,-25.3966069922846));
#712=CARTESIAN_POINT('',(-1.99314594306334,57.9999992549419,-25.3966069922846));
#713=CARTESIAN_POINT('',(-1.99314594306334,54.9999992549419,-25.3966069922846));
#714=CARTESIAN_POINT('',(-1.99314594306334,57.9999992549419,-25.3966069922846));
#715=CARTESIAN_POINT('',(-3.26100072828543,54.9999992549419,-28.1155303533945));
#716=CARTESIAN_POINT('',(-1.99314594306334,54.9999992549419,-25.3966069922846));
#717=CARTESIAN_POINT('Origin',(-3.26100072828543,51.999999254942,-28.1155303533945));
#718=CARTESIAN_POINT('',(-3.26100072828543,-55.0000007450581,-28.1155303533945));
#719=CARTESIAN_POINT('Origin',(-3.26100072828543,-52.0000007450581,-28.1155303533945));
#720=CARTESIAN_POINT('',(-1.99314594306334,-55.0000007450581,-25.3966069922846));
#721=CARTESIAN_POINT('',(-1.99314594306334,-55.0000007450581,-25.3966069922846));
#722=CARTESIAN_POINT('',(-1.99314594306334,-55.0000007450581,-25.3966069922846));
#723=CARTESIAN_POINT('Origin',(-10.7380412721186,51.999999254942,-24.6289290874697));
#724=CARTESIAN_POINT('',(-20.7507905192087,51.999999254942,-26.5801749481408));
#725=CARTESIAN_POINT('',(-13.2737508425628,51.999999254942,-30.0667758096896));
#726=CARTESIAN_POINT('',(-18.2150809487645,57.9999992549419,-21.1423282259209));
#727=CARTESIAN_POINT('Origin',(-18.2150809487645,51.999999254942,-21.1423282259209));
#728=CARTESIAN_POINT('',(-10.7380412721186,57.9999992549419,-24.6289290874697));
#729=CARTESIAN_POINT('Origin',(6.008207823884,57.9999992549419,11.2835168594523));
#730=CARTESIAN_POINT('',(10.522960849603,57.9999992549419,40.4866012925713));
#731=CARTESIAN_POINT('',(10.522960849603,57.9999992549419,40.4866012925713));
#732=CARTESIAN_POINT('',(25.4770397687063,57.9999992549419,33.5133999856802));
#733=CARTESIAN_POINT('Origin',(18.0000002682209,57.9999992549419,37.000000551343));
#734=CARTESIAN_POINT('',(25.4770397687063,57.9999992549419,33.5133999856802));
#735=CARTESIAN_POINT('',(22.3344681019044,57.9999992549419,39.4924670694373));
#736=CARTESIAN_POINT('',(18.8768042675852,57.9999992549419,32.0774792977823));
#737=CARTESIAN_POINT('Origin',(18.9063078940328,57.9999992549419,36.5773825785236));
#738=CARTESIAN_POINT('Origin',(18.0000002682209,57.9999992549419,37.000000551343));
#739=CARTESIAN_POINT('Origin',(-10.7380412721186,51.999999254942,-24.6289290874697));
#740=CARTESIAN_POINT('',(-18.2150809487645,54.9999992549419,-21.1423282259209));
#741=CARTESIAN_POINT('',(-10.7380412721186,54.9999992549419,-24.6289290874697));
#742=CARTESIAN_POINT('Origin',(-18.2150809487645,51.999999254942,-21.1423282259209));
#743=CARTESIAN_POINT('Origin',(6.008207823884,54.9999992549419,11.2835168594523));
#744=CARTESIAN_POINT('',(25.4770397687063,54.9999992549419,33.5133999856802));
#745=CARTESIAN_POINT('',(25.4770397687063,54.9999992549419,33.5133999856802));
#746=CARTESIAN_POINT('',(10.522960849603,54.9999992549419,40.4866012925713));
#747=CARTESIAN_POINT('Origin',(18.0000002682209,54.9999992549419,37.000000551343));
#748=CARTESIAN_POINT('',(10.522960849603,54.9999992549419,40.4866012925713));
#749=CARTESIAN_POINT('',(22.3344681019044,54.9999992549419,39.4924670694373));
#750=CARTESIAN_POINT('',(18.8768042675852,54.9999992549419,32.0774792977823));
#751=CARTESIAN_POINT('Origin',(18.9063078940328,54.9999992549419,36.5773825785236));
#752=CARTESIAN_POINT('Origin',(18.0000002682209,54.9999992549419,37.000000551343));
#753=CARTESIAN_POINT('Origin',(-10.7380412721186,-52.0000007450581,-24.6289290874697));
#754=CARTESIAN_POINT('',(-18.2150809487645,-55.0000007450581,-21.1423282259209));
#755=CARTESIAN_POINT('Origin',(-18.2150809487645,-52.0000007450581,-21.1423282259209));
#756=CARTESIAN_POINT('',(-10.7380412721186,-55.0000007450581,-24.6289290874697));
#757=CARTESIAN_POINT('Origin',(6.008207823884,-55.0000007450581,11.2835168594523));
#758=CARTESIAN_POINT('',(10.522960849603,-55.0000007450581,40.4866012925713));
#759=CARTESIAN_POINT('',(10.522960849603,-55.0000007450581,40.4866012925713));
#760=CARTESIAN_POINT('',(25.4770397687063,-55.0000007450581,33.5133999856802));
#761=CARTESIAN_POINT('Origin',(18.0000002682209,-55.0000007450581,37.000000551343));
#762=CARTESIAN_POINT('',(25.4770397687063,-55.0000007450581,33.5133999856802));
#763=CARTESIAN_POINT('',(22.3344681019044,-55.0000007450581,39.4924670694373));
#764=CARTESIAN_POINT('',(18.8768042675852,-55.0000007450581,32.0774792977823));
#765=CARTESIAN_POINT('Origin',(18.9063078940328,-55.0000007450581,36.5773825785236));
#766=CARTESIAN_POINT('Origin',(18.0000002682209,-55.0000007450581,37.000000551343));
#767=CARTESIAN_POINT('Origin',(-13.2737512761564,-7.45058059692383E-7,-30.0667756075016));
#768=CARTESIAN_POINT('',(-20.7507905192087,-7.45058059692383E-7,-26.5801749481408));
#769=CARTESIAN_POINT('Origin',(18.0000002682209,57.9999992549419,37.000000551343));
#770=CARTESIAN_POINT('',(22.3344681019044,57.9999992549419,39.4924670694373));
#771=CARTESIAN_POINT('',(18.8768042675852,57.9999992549419,32.0774792977823));
#772=CARTESIAN_POINT('Origin',(18.9063078940328,57.9999992549419,36.5773825785236));
#773=CARTESIAN_POINT('Origin',(-1.99314594306333,57.9999992549419,-25.3966069922846));
#774=CARTESIAN_POINT('',(25.4770397687063,57.9999992549419,33.5133999856802));
#775=CARTESIAN_POINT('Origin',(18.0000002682209,57.9999992549419,37.000000551343));
#776=CARTESIAN_POINT('',(10.522960849603,57.9999992549419,40.4866012925713));
#777=CARTESIAN_POINT('Origin',(18.0000002682209,-55.0000007450581,37.000000551343));
#778=CARTESIAN_POINT('',(22.3344681019044,-55.0000007450581,39.4924670694373));
#779=CARTESIAN_POINT('',(18.8768042675852,-55.0000007450581,32.0774792977823));
#780=CARTESIAN_POINT('Origin',(18.9063078940328,-55.0000007450581,36.5773825785236));
#781=CARTESIAN_POINT('Origin',(-1.99314594306333,-55.0000007450581,-25.3966069922846));
#782=CARTESIAN_POINT('',(25.4770397687063,-55.0000007450581,33.5133999856802));
#783=CARTESIAN_POINT('Origin',(10.522960849603,-55.0000007450581,40.4866012925713));
#784=CARTESIAN_POINT('',(10.522960849603,-55.0000007450581,40.4866012925713));
#785=CARTESIAN_POINT('Origin',(18.0000002682209,-55.0000007450581,37.000000551343));
#786=UNCERTAINTY_MEASURE_WITH_UNIT(LENGTH_MEASURE(0.01),#790,
'DISTANCE_ACCURACY_VALUE',
'Maximum model space distance between geometric entities at asserted c
onnectivities');
#787=UNCERTAINTY_MEASURE_WITH_UNIT(LENGTH_MEASURE(0.01),#790,
'DISTANCE_ACCURACY_VALUE',
'Maximum model space distance between geometric entities at asserted c
onnectivities');
#788=(
GEOMETRIC_REPRESENTATION_CONTEXT(3)
GLOBAL_UNCERTAINTY_ASSIGNED_CONTEXT((#786))
GLOBAL_UNIT_ASSIGNED_CONTEXT((#790,#791,#792))
REPRESENTATION_CONTEXT('','3D')
);
#789=(
GEOMETRIC_REPRESENTATION_CONTEXT(3)
GLOBAL_UNCERTAINTY_ASSIGNED_CONTEXT((#787))
GLOBAL_UNIT_ASSIGNED_CONTEXT((#790,#791,#792))
REPRESENTATION_CONTEXT('','3D')
);
#790=(
LENGTH_UNIT()
NAMED_UNIT(*)
SI_UNIT(.MILLI.,.METRE.)
);
#791=(
NAMED_UNIT(*)
PLANE_ANGLE_UNIT()
SI_UNIT($,.RADIAN.)
);
#792=(
NAMED_UNIT(*)
SI_UNIT($,.STERADIAN.)
SOLID_ANGLE_UNIT()
);
#793=SHAPE_DEFINITION_REPRESENTATION(#794,#795);
#794=PRODUCT_DEFINITION_SHAPE('',$,#797);
#795=SHAPE_REPRESENTATION('',(#464),#788);
#796=PRODUCT_DEFINITION_CONTEXT('part definition',#801,'design');
#797=PRODUCT_DEFINITION('None','Fume extractor v14',#798,#796);
#798=PRODUCT_DEFINITION_FORMATION('',$,#803);
#799=PRODUCT_RELATED_PRODUCT_CATEGORY('Fume extractor v14',
'Fume extractor v14',(#803));
#800=APPLICATION_PROTOCOL_DEFINITION('international standard',
'automotive_design',2009,#801);
#801=APPLICATION_CONTEXT(
'Core Data for Automotive Mechanical Design Process');
#802=PRODUCT_CONTEXT('part definition',#801,'mechanical');
#803=PRODUCT('None','Fume extractor v14','STEP AP203',(#802));
#804=PRESENTATION_STYLE_ASSIGNMENT((#805));
#805=SURFACE_STYLE_USAGE(.BOTH.,#806);
#806=SURFACE_SIDE_STYLE('',(#807));
#807=SURFACE_STYLE_FILL_AREA(#808);
#808=FILL_AREA_STYLE('Acciaio - Satinato',(#809));
#809=FILL_AREA_STYLE_COLOUR('Acciaio - Satinato',#810);
#810=COLOUR_RGB('Acciaio - Satinato',0.627450980392157,0.627450980392157,
0.627450980392157);
ENDSEC;
END-ISO-10303-21;
