ISO-10303-21;
HEADER;
/* Generated by software containing ST-Developer
 * from STEP Tools, Inc. (www.steptools.com) 
 */

FILE_DESCRIPTION(
/* description */ ('STEP AP203'),
/* implementation_level */ '2;1');

FILE_NAME(
/* name */ 'ShortFoot.step',
/* time_stamp */ '2026-07-21T21:54:16+02:00',
/* author */ (''),
/* organization */ (''),
/* preprocessor_version */ 'ST-DEVELOPER v20.1',
/* originating_system */ 'Autodesk Translation Framework v15.8.0.0',
/* authorisation */ '');

FILE_SCHEMA (('AUTOMOTIVE_DESIGN { 1 0 10303 214 3 1 1 }'));
ENDSEC;

DATA;
#10=MECHANICAL_DESIGN_GEOMETRIC_PRESENTATION_REPRESENTATION('',(#13),#868);
#11=SHAPE_REPRESENTATION_RELATIONSHIP('SRR','None',#874,#12);
#12=ADVANCED_BREP_SHAPE_REPRESENTATION('',(#14),#867);
#13=STYLED_ITEM('',(#883),#14);
#14=MANIFOLD_SOLID_BREP('ShortFoot1',#446);
#15=FACE_BOUND('',#82,.T.);
#16=FACE_BOUND('',#93,.T.);
#17=FACE_BOUND('',#97,.T.);
#18=PLANE('',#470);
#19=PLANE('',#473);
#20=PLANE('',#474);
#21=PLANE('',#475);
#22=PLANE('',#476);
#23=PLANE('',#477);
#24=PLANE('',#478);
#25=PLANE('',#481);
#26=PLANE('',#482);
#27=PLANE('',#483);
#28=PLANE('',#484);
#29=PLANE('',#485);
#30=PLANE('',#491);
#31=ELLIPSE('',#452,2.05364135916036,2.);
#32=ELLIPSE('',#453,1.10337791896249,1.);
#33=ELLIPSE('',#457,2.05364135916036,2.);
#34=ELLIPSE('',#458,1.10337791896249,1.);
#35=ELLIPSE('',#462,2.05364135916036,2.);
#36=ELLIPSE('',#463,1.10337791896249,0.999999999999999);
#37=ELLIPSE('',#466,2.05364135916036,2.);
#38=ELLIPSE('',#467,1.10337791896249,1.);
#39=B_SPLINE_SURFACE_WITH_KNOTS('',3,3,((#631,#632,#633,#634,#635),(#636,
#637,#638,#639,#640),(#641,#642,#643,#644,#645),(#646,#647,#648,#649,#650),
(#651,#652,#653,#654,#655)),.UNSPECIFIED.,.F.,.F.,.F.,(4,1,4),(4,1,4),(0.,
0.571428571428571,1.),(-1.5707963267949,-0.897597901025655,1.87562442273237E-32),
 .UNSPECIFIED.);
#40=B_SPLINE_SURFACE_WITH_KNOTS('',3,3,((#667,#668,#669,#670,#671),(#672,
#673,#674,#675,#676),(#677,#678,#679,#680,#681),(#682,#683,#684,#685,#686),
(#687,#688,#689,#690,#691)),.UNSPECIFIED.,.F.,.F.,.F.,(4,1,4),(4,1,4),(0.,
0.571428571428571,1.),(0.,0.673198425769242,1.5707963267949),
 .UNSPECIFIED.);
#41=B_SPLINE_SURFACE_WITH_KNOTS('',3,3,((#703,#704,#705,#706,#707,#708),
(#709,#710,#711,#712,#713,#714),(#715,#716,#717,#718,#719,#720),(#721,#722,
#723,#724,#725,#726),(#727,#728,#729,#730,#731,#732),(#733,#734,#735,#736,
#737,#738)),.UNSPECIFIED.,.F.,.F.,.F.,(4,1,1,4),(4,1,1,4),(0.,0.285714285714286,
0.571428571428571,1.),(-1.5707963267949,-0.897597901025655,-0.448798950512828,
0.),.UNSPECIFIED.);
#42=B_SPLINE_SURFACE_WITH_KNOTS('',3,3,((#750,#751,#752,#753,#754,#755),
(#756,#757,#758,#759,#760,#761),(#762,#763,#764,#765,#766,#767),(#768,#769,
#770,#771,#772,#773),(#774,#775,#776,#777,#778,#779),(#780,#781,#782,#783,
#784,#785)),.UNSPECIFIED.,.F.,.F.,.F.,(4,1,1,4),(4,1,1,4),(0.,0.285714285714286,
0.571428571428571,1.),(-2.52769167380827E-16,0.33659921288462,0.673198425769241,
1.5707963267949),.UNSPECIFIED.);
#43=FACE_OUTER_BOUND('',#69,.T.);
#44=FACE_OUTER_BOUND('',#70,.T.);
#45=FACE_OUTER_BOUND('',#71,.T.);
#46=FACE_OUTER_BOUND('',#72,.T.);
#47=FACE_OUTER_BOUND('',#73,.T.);
#48=FACE_OUTER_BOUND('',#74,.T.);
#49=FACE_OUTER_BOUND('',#75,.T.);
#50=FACE_OUTER_BOUND('',#76,.T.);
#51=FACE_OUTER_BOUND('',#77,.T.);
#52=FACE_OUTER_BOUND('',#78,.T.);
#53=FACE_OUTER_BOUND('',#79,.T.);
#54=FACE_OUTER_BOUND('',#80,.T.);
#55=FACE_OUTER_BOUND('',#81,.T.);
#56=FACE_OUTER_BOUND('',#83,.T.);
#57=FACE_OUTER_BOUND('',#84,.T.);
#58=FACE_OUTER_BOUND('',#85,.T.);
#59=FACE_OUTER_BOUND('',#86,.T.);
#60=FACE_OUTER_BOUND('',#87,.T.);
#61=FACE_OUTER_BOUND('',#88,.T.);
#62=FACE_OUTER_BOUND('',#89,.T.);
#63=FACE_OUTER_BOUND('',#90,.T.);
#64=FACE_OUTER_BOUND('',#91,.T.);
#65=FACE_OUTER_BOUND('',#92,.T.);
#66=FACE_OUTER_BOUND('',#94,.T.);
#67=FACE_OUTER_BOUND('',#95,.T.);
#68=FACE_OUTER_BOUND('',#96,.T.);
#69=EDGE_LOOP('',(#289,#290,#291,#292));
#70=EDGE_LOOP('',(#293,#294,#295,#296));
#71=EDGE_LOOP('',(#297,#298,#299,#300));
#72=EDGE_LOOP('',(#301,#302,#303,#304));
#73=EDGE_LOOP('',(#305,#306,#307,#308));
#74=EDGE_LOOP('',(#309,#310,#311,#312));
#75=EDGE_LOOP('',(#313,#314,#315,#316));
#76=EDGE_LOOP('',(#317,#318,#319,#320));
#77=EDGE_LOOP('',(#321,#322,#323,#324));
#78=EDGE_LOOP('',(#325,#326,#327,#328));
#79=EDGE_LOOP('',(#329,#330,#331,#332));
#80=EDGE_LOOP('',(#333,#334,#335,#336));
#81=EDGE_LOOP('',(#337,#338,#339,#340,#341,#342,#343,#344));
#82=EDGE_LOOP('',(#345,#346,#347,#348,#349,#350));
#83=EDGE_LOOP('',(#351,#352,#353,#354));
#84=EDGE_LOOP('',(#355,#356,#357,#358));
#85=EDGE_LOOP('',(#359,#360,#361,#362));
#86=EDGE_LOOP('',(#363,#364,#365,#366));
#87=EDGE_LOOP('',(#367,#368,#369,#370));
#88=EDGE_LOOP('',(#371,#372,#373,#374));
#89=EDGE_LOOP('',(#375,#376,#377,#378));
#90=EDGE_LOOP('',(#379,#380,#381,#382));
#91=EDGE_LOOP('',(#383,#384,#385,#386));
#92=EDGE_LOOP('',(#387,#388,#389,#390,#391,#392));
#93=EDGE_LOOP('',(#393));
#94=EDGE_LOOP('',(#394,#395,#396,#397));
#95=EDGE_LOOP('',(#398,#399,#400,#401));
#96=EDGE_LOOP('',(#402,#403,#404,#405,#406,#407,#408,#409));
#97=EDGE_LOOP('',(#410));
#98=LINE('',#627,#137);
#99=LINE('',#630,#138);
#100=LINE('',#665,#139);
#101=LINE('',#666,#140);
#102=LINE('',#701,#141);
#103=LINE('',#702,#142);
#104=LINE('',#748,#143);
#105=LINE('',#749,#144);
#106=LINE('',#790,#145);
#107=LINE('',#793,#146);
#108=LINE('',#796,#147);
#109=LINE('',#797,#148);
#110=LINE('',#800,#149);
#111=LINE('',#804,#150);
#112=LINE('',#805,#151);
#113=LINE('',#809,#152);
#114=LINE('',#811,#153);
#115=LINE('',#813,#154);
#116=LINE('',#815,#155);
#117=LINE('',#817,#156);
#118=LINE('',#818,#157);
#119=LINE('',#821,#158);
#120=LINE('',#823,#159);
#121=LINE('',#824,#160);
#122=LINE('',#827,#161);
#123=LINE('',#828,#162);
#124=LINE('',#831,#163);
#125=LINE('',#832,#164);
#126=LINE('',#835,#165);
#127=LINE('',#837,#166);
#128=LINE('',#838,#167);
#129=LINE('',#841,#168);
#130=LINE('',#844,#169);
#131=LINE('',#847,#170);
#132=LINE('',#848,#171);
#133=LINE('',#851,#172);
#134=LINE('',#852,#173);
#135=LINE('',#854,#174);
#136=LINE('',#860,#175);
#137=VECTOR('',#498,10.);
#138=VECTOR('',#501,10.);
#139=VECTOR('',#512,10.);
#140=VECTOR('',#513,10.);
#141=VECTOR('',#524,10.);
#142=VECTOR('',#525,10.);
#143=VECTOR('',#536,10.);
#144=VECTOR('',#537,10.);
#145=VECTOR('',#544,10.);
#146=VECTOR('',#547,10.);
#147=VECTOR('',#550,10.);
#148=VECTOR('',#551,10.);
#149=VECTOR('',#554,10.);
#150=VECTOR('',#559,10.);
#151=VECTOR('',#560,10.);
#152=VECTOR('',#563,10.);
#153=VECTOR('',#564,10.);
#154=VECTOR('',#565,10.);
#155=VECTOR('',#566,10.);
#156=VECTOR('',#567,10.);
#157=VECTOR('',#568,10.);
#158=VECTOR('',#571,10.);
#159=VECTOR('',#572,10.);
#160=VECTOR('',#573,10.);
#161=VECTOR('',#576,10.);
#162=VECTOR('',#577,10.);
#163=VECTOR('',#580,10.);
#164=VECTOR('',#581,10.);
#165=VECTOR('',#584,10.);
#166=VECTOR('',#585,10.);
#167=VECTOR('',#586,10.);
#168=VECTOR('',#589,10.);
#169=VECTOR('',#594,10.);
#170=VECTOR('',#597,10.);
#171=VECTOR('',#598,10.);
#172=VECTOR('',#601,10.);
#173=VECTOR('',#602,10.);
#174=VECTOR('',#605,10.);
#175=VECTOR('',#612,2.);
#176=CIRCLE('',#449,1.);
#177=CIRCLE('',#450,1.);
#178=CIRCLE('',#451,1.);
#179=CIRCLE('',#455,1.);
#180=CIRCLE('',#456,1.);
#181=CIRCLE('',#460,1.);
#182=CIRCLE('',#461,1.);
#183=CIRCLE('',#465,1.);
#184=CIRCLE('',#469,2.);
#185=CIRCLE('',#472,2.);
#186=CIRCLE('',#480,2.);
#187=CIRCLE('',#486,2.);
#188=CIRCLE('',#488,2.);
#189=CIRCLE('',#490,2.);
#190=VERTEX_POINT('',#623);
#191=VERTEX_POINT('',#624);
#192=VERTEX_POINT('',#626);
#193=VERTEX_POINT('',#628);
#194=VERTEX_POINT('',#656);
#195=VERTEX_POINT('',#657);
#196=VERTEX_POINT('',#662);
#197=VERTEX_POINT('',#663);
#198=VERTEX_POINT('',#692);
#199=VERTEX_POINT('',#693);
#200=VERTEX_POINT('',#698);
#201=VERTEX_POINT('',#699);
#202=VERTEX_POINT('',#739);
#203=VERTEX_POINT('',#740);
#204=VERTEX_POINT('',#745);
#205=VERTEX_POINT('',#746);
#206=VERTEX_POINT('',#789);
#207=VERTEX_POINT('',#791);
#208=VERTEX_POINT('',#795);
#209=VERTEX_POINT('',#799);
#210=VERTEX_POINT('',#803);
#211=VERTEX_POINT('',#807);
#212=VERTEX_POINT('',#808);
#213=VERTEX_POINT('',#810);
#214=VERTEX_POINT('',#812);
#215=VERTEX_POINT('',#814);
#216=VERTEX_POINT('',#816);
#217=VERTEX_POINT('',#820);
#218=VERTEX_POINT('',#822);
#219=VERTEX_POINT('',#826);
#220=VERTEX_POINT('',#830);
#221=VERTEX_POINT('',#834);
#222=VERTEX_POINT('',#836);
#223=VERTEX_POINT('',#840);
#224=VERTEX_POINT('',#846);
#225=VERTEX_POINT('',#850);
#226=VERTEX_POINT('',#856);
#227=VERTEX_POINT('',#859);
#228=EDGE_CURVE('',#190,#191,#176,.T.);
#229=EDGE_CURVE('',#191,#192,#98,.T.);
#230=EDGE_CURVE('',#192,#193,#177,.T.);
#231=EDGE_CURVE('',#193,#190,#99,.T.);
#232=EDGE_CURVE('',#194,#195,#178,.T.);
#233=EDGE_CURVE('',#195,#193,#31,.T.);
#234=EDGE_CURVE('',#192,#194,#32,.T.);
#235=EDGE_CURVE('',#196,#197,#179,.T.);
#236=EDGE_CURVE('',#197,#195,#100,.T.);
#237=EDGE_CURVE('',#194,#196,#101,.T.);
#238=EDGE_CURVE('',#198,#199,#180,.T.);
#239=EDGE_CURVE('',#199,#197,#33,.T.);
#240=EDGE_CURVE('',#196,#198,#34,.T.);
#241=EDGE_CURVE('',#200,#201,#181,.T.);
#242=EDGE_CURVE('',#201,#199,#102,.T.);
#243=EDGE_CURVE('',#198,#200,#103,.T.);
#244=EDGE_CURVE('',#202,#203,#182,.T.);
#245=EDGE_CURVE('',#203,#201,#35,.T.);
#246=EDGE_CURVE('',#200,#202,#36,.T.);
#247=EDGE_CURVE('',#204,#205,#183,.T.);
#248=EDGE_CURVE('',#205,#203,#104,.T.);
#249=EDGE_CURVE('',#202,#204,#105,.T.);
#250=EDGE_CURVE('',#190,#205,#37,.T.);
#251=EDGE_CURVE('',#204,#191,#38,.T.);
#252=EDGE_CURVE('',#206,#203,#106,.T.);
#253=EDGE_CURVE('',#206,#207,#184,.T.);
#254=EDGE_CURVE('',#207,#201,#107,.T.);
#255=EDGE_CURVE('',#208,#205,#108,.T.);
#256=EDGE_CURVE('',#206,#208,#109,.T.);
#257=EDGE_CURVE('',#209,#190,#110,.T.);
#258=EDGE_CURVE('',#209,#208,#185,.T.);
#259=EDGE_CURVE('',#210,#193,#111,.T.);
#260=EDGE_CURVE('',#209,#210,#112,.T.);
#261=EDGE_CURVE('',#211,#212,#113,.T.);
#262=EDGE_CURVE('',#213,#211,#114,.T.);
#263=EDGE_CURVE('',#214,#213,#115,.T.);
#264=EDGE_CURVE('',#215,#214,#116,.T.);
#265=EDGE_CURVE('',#216,#215,#117,.T.);
#266=EDGE_CURVE('',#212,#216,#118,.T.);
#267=EDGE_CURVE('',#214,#217,#119,.T.);
#268=EDGE_CURVE('',#217,#218,#120,.T.);
#269=EDGE_CURVE('',#215,#218,#121,.T.);
#270=EDGE_CURVE('',#213,#219,#122,.T.);
#271=EDGE_CURVE('',#219,#217,#123,.T.);
#272=EDGE_CURVE('',#211,#220,#124,.T.);
#273=EDGE_CURVE('',#220,#219,#125,.T.);
#274=EDGE_CURVE('',#221,#197,#126,.T.);
#275=EDGE_CURVE('',#222,#221,#127,.T.);
#276=EDGE_CURVE('',#222,#195,#128,.T.);
#277=EDGE_CURVE('',#223,#199,#129,.T.);
#278=EDGE_CURVE('',#223,#221,#186,.T.);
#279=EDGE_CURVE('',#223,#207,#130,.T.);
#280=EDGE_CURVE('',#212,#224,#131,.T.);
#281=EDGE_CURVE('',#224,#220,#132,.T.);
#282=EDGE_CURVE('',#216,#225,#133,.T.);
#283=EDGE_CURVE('',#225,#224,#134,.T.);
#284=EDGE_CURVE('',#218,#225,#135,.T.);
#285=EDGE_CURVE('',#226,#226,#187,.T.);
#286=EDGE_CURVE('',#226,#227,#136,.T.);
#287=EDGE_CURVE('',#227,#227,#188,.T.);
#288=EDGE_CURVE('',#222,#210,#189,.T.);
#289=ORIENTED_EDGE('',*,*,#228,.T.);
#290=ORIENTED_EDGE('',*,*,#229,.T.);
#291=ORIENTED_EDGE('',*,*,#230,.T.);
#292=ORIENTED_EDGE('',*,*,#231,.T.);
#293=ORIENTED_EDGE('',*,*,#232,.T.);
#294=ORIENTED_EDGE('',*,*,#233,.T.);
#295=ORIENTED_EDGE('',*,*,#230,.F.);
#296=ORIENTED_EDGE('',*,*,#234,.T.);
#297=ORIENTED_EDGE('',*,*,#235,.T.);
#298=ORIENTED_EDGE('',*,*,#236,.T.);
#299=ORIENTED_EDGE('',*,*,#232,.F.);
#300=ORIENTED_EDGE('',*,*,#237,.T.);
#301=ORIENTED_EDGE('',*,*,#238,.T.);
#302=ORIENTED_EDGE('',*,*,#239,.T.);
#303=ORIENTED_EDGE('',*,*,#235,.F.);
#304=ORIENTED_EDGE('',*,*,#240,.T.);
#305=ORIENTED_EDGE('',*,*,#241,.T.);
#306=ORIENTED_EDGE('',*,*,#242,.T.);
#307=ORIENTED_EDGE('',*,*,#238,.F.);
#308=ORIENTED_EDGE('',*,*,#243,.T.);
#309=ORIENTED_EDGE('',*,*,#244,.T.);
#310=ORIENTED_EDGE('',*,*,#245,.T.);
#311=ORIENTED_EDGE('',*,*,#241,.F.);
#312=ORIENTED_EDGE('',*,*,#246,.T.);
#313=ORIENTED_EDGE('',*,*,#247,.T.);
#314=ORIENTED_EDGE('',*,*,#248,.T.);
#315=ORIENTED_EDGE('',*,*,#244,.F.);
#316=ORIENTED_EDGE('',*,*,#249,.T.);
#317=ORIENTED_EDGE('',*,*,#228,.F.);
#318=ORIENTED_EDGE('',*,*,#250,.T.);
#319=ORIENTED_EDGE('',*,*,#247,.F.);
#320=ORIENTED_EDGE('',*,*,#251,.T.);
#321=ORIENTED_EDGE('',*,*,#245,.F.);
#322=ORIENTED_EDGE('',*,*,#252,.F.);
#323=ORIENTED_EDGE('',*,*,#253,.T.);
#324=ORIENTED_EDGE('',*,*,#254,.T.);
#325=ORIENTED_EDGE('',*,*,#248,.F.);
#326=ORIENTED_EDGE('',*,*,#255,.F.);
#327=ORIENTED_EDGE('',*,*,#256,.F.);
#328=ORIENTED_EDGE('',*,*,#252,.T.);
#329=ORIENTED_EDGE('',*,*,#250,.F.);
#330=ORIENTED_EDGE('',*,*,#257,.F.);
#331=ORIENTED_EDGE('',*,*,#258,.T.);
#332=ORIENTED_EDGE('',*,*,#255,.T.);
#333=ORIENTED_EDGE('',*,*,#231,.F.);
#334=ORIENTED_EDGE('',*,*,#259,.F.);
#335=ORIENTED_EDGE('',*,*,#260,.F.);
#336=ORIENTED_EDGE('',*,*,#257,.T.);
#337=ORIENTED_EDGE('',*,*,#229,.F.);
#338=ORIENTED_EDGE('',*,*,#251,.F.);
#339=ORIENTED_EDGE('',*,*,#249,.F.);
#340=ORIENTED_EDGE('',*,*,#246,.F.);
#341=ORIENTED_EDGE('',*,*,#243,.F.);
#342=ORIENTED_EDGE('',*,*,#240,.F.);
#343=ORIENTED_EDGE('',*,*,#237,.F.);
#344=ORIENTED_EDGE('',*,*,#234,.F.);
#345=ORIENTED_EDGE('',*,*,#261,.F.);
#346=ORIENTED_EDGE('',*,*,#262,.F.);
#347=ORIENTED_EDGE('',*,*,#263,.F.);
#348=ORIENTED_EDGE('',*,*,#264,.F.);
#349=ORIENTED_EDGE('',*,*,#265,.F.);
#350=ORIENTED_EDGE('',*,*,#266,.F.);
#351=ORIENTED_EDGE('',*,*,#264,.T.);
#352=ORIENTED_EDGE('',*,*,#267,.T.);
#353=ORIENTED_EDGE('',*,*,#268,.T.);
#354=ORIENTED_EDGE('',*,*,#269,.F.);
#355=ORIENTED_EDGE('',*,*,#263,.T.);
#356=ORIENTED_EDGE('',*,*,#270,.T.);
#357=ORIENTED_EDGE('',*,*,#271,.T.);
#358=ORIENTED_EDGE('',*,*,#267,.F.);
#359=ORIENTED_EDGE('',*,*,#262,.T.);
#360=ORIENTED_EDGE('',*,*,#272,.T.);
#361=ORIENTED_EDGE('',*,*,#273,.T.);
#362=ORIENTED_EDGE('',*,*,#270,.F.);
#363=ORIENTED_EDGE('',*,*,#236,.F.);
#364=ORIENTED_EDGE('',*,*,#274,.F.);
#365=ORIENTED_EDGE('',*,*,#275,.F.);
#366=ORIENTED_EDGE('',*,*,#276,.T.);
#367=ORIENTED_EDGE('',*,*,#239,.F.);
#368=ORIENTED_EDGE('',*,*,#277,.F.);
#369=ORIENTED_EDGE('',*,*,#278,.T.);
#370=ORIENTED_EDGE('',*,*,#274,.T.);
#371=ORIENTED_EDGE('',*,*,#242,.F.);
#372=ORIENTED_EDGE('',*,*,#254,.F.);
#373=ORIENTED_EDGE('',*,*,#279,.F.);
#374=ORIENTED_EDGE('',*,*,#277,.T.);
#375=ORIENTED_EDGE('',*,*,#261,.T.);
#376=ORIENTED_EDGE('',*,*,#280,.T.);
#377=ORIENTED_EDGE('',*,*,#281,.T.);
#378=ORIENTED_EDGE('',*,*,#272,.F.);
#379=ORIENTED_EDGE('',*,*,#266,.T.);
#380=ORIENTED_EDGE('',*,*,#282,.T.);
#381=ORIENTED_EDGE('',*,*,#283,.T.);
#382=ORIENTED_EDGE('',*,*,#280,.F.);
#383=ORIENTED_EDGE('',*,*,#265,.T.);
#384=ORIENTED_EDGE('',*,*,#269,.T.);
#385=ORIENTED_EDGE('',*,*,#284,.T.);
#386=ORIENTED_EDGE('',*,*,#282,.F.);
#387=ORIENTED_EDGE('',*,*,#273,.F.);
#388=ORIENTED_EDGE('',*,*,#281,.F.);
#389=ORIENTED_EDGE('',*,*,#283,.F.);
#390=ORIENTED_EDGE('',*,*,#284,.F.);
#391=ORIENTED_EDGE('',*,*,#268,.F.);
#392=ORIENTED_EDGE('',*,*,#271,.F.);
#393=ORIENTED_EDGE('',*,*,#285,.F.);
#394=ORIENTED_EDGE('',*,*,#285,.T.);
#395=ORIENTED_EDGE('',*,*,#286,.T.);
#396=ORIENTED_EDGE('',*,*,#287,.T.);
#397=ORIENTED_EDGE('',*,*,#286,.F.);
#398=ORIENTED_EDGE('',*,*,#233,.F.);
#399=ORIENTED_EDGE('',*,*,#276,.F.);
#400=ORIENTED_EDGE('',*,*,#288,.T.);
#401=ORIENTED_EDGE('',*,*,#259,.T.);
#402=ORIENTED_EDGE('',*,*,#253,.F.);
#403=ORIENTED_EDGE('',*,*,#256,.T.);
#404=ORIENTED_EDGE('',*,*,#258,.F.);
#405=ORIENTED_EDGE('',*,*,#260,.T.);
#406=ORIENTED_EDGE('',*,*,#288,.F.);
#407=ORIENTED_EDGE('',*,*,#275,.T.);
#408=ORIENTED_EDGE('',*,*,#278,.F.);
#409=ORIENTED_EDGE('',*,*,#279,.T.);
#410=ORIENTED_EDGE('',*,*,#287,.F.);
#411=CYLINDRICAL_SURFACE('',#448,1.);
#412=CYLINDRICAL_SURFACE('',#454,1.);
#413=CYLINDRICAL_SURFACE('',#459,1.);
#414=CYLINDRICAL_SURFACE('',#464,1.);
#415=CYLINDRICAL_SURFACE('',#468,2.);
#416=CYLINDRICAL_SURFACE('',#471,2.);
#417=CYLINDRICAL_SURFACE('',#479,2.);
#418=CYLINDRICAL_SURFACE('',#487,2.);
#419=CYLINDRICAL_SURFACE('',#489,2.);
#420=ADVANCED_FACE('',(#43),#411,.T.);
#421=ADVANCED_FACE('',(#44),#39,.F.);
#422=ADVANCED_FACE('',(#45),#412,.T.);
#423=ADVANCED_FACE('',(#46),#40,.F.);
#424=ADVANCED_FACE('',(#47),#413,.T.);
#425=ADVANCED_FACE('',(#48),#41,.F.);
#426=ADVANCED_FACE('',(#49),#414,.T.);
#427=ADVANCED_FACE('',(#50),#42,.F.);
#428=ADVANCED_FACE('',(#51),#415,.T.);
#429=ADVANCED_FACE('',(#52),#18,.T.);
#430=ADVANCED_FACE('',(#53),#416,.T.);
#431=ADVANCED_FACE('',(#54),#19,.T.);
#432=ADVANCED_FACE('',(#55,#15),#20,.T.);
#433=ADVANCED_FACE('',(#56),#21,.F.);
#434=ADVANCED_FACE('',(#57),#22,.F.);
#435=ADVANCED_FACE('',(#58),#23,.F.);
#436=ADVANCED_FACE('',(#59),#24,.T.);
#437=ADVANCED_FACE('',(#60),#417,.T.);
#438=ADVANCED_FACE('',(#61),#25,.T.);
#439=ADVANCED_FACE('',(#62),#26,.F.);
#440=ADVANCED_FACE('',(#63),#27,.F.);
#441=ADVANCED_FACE('',(#64),#28,.F.);
#442=ADVANCED_FACE('',(#65,#16),#29,.T.);
#443=ADVANCED_FACE('',(#66),#418,.F.);
#444=ADVANCED_FACE('',(#67),#419,.T.);
#445=ADVANCED_FACE('',(#68,#17),#30,.F.);
#446=CLOSED_SHELL('',(#420,#421,#422,#423,#424,#425,#426,#427,#428,#429,
#430,#431,#432,#433,#434,#435,#436,#437,#438,#439,#440,#441,#442,#443,#444,
#445));
#447=AXIS2_PLACEMENT_3D('',#621,#492,#493);
#448=AXIS2_PLACEMENT_3D('',#622,#494,#495);
#449=AXIS2_PLACEMENT_3D('',#625,#496,#497);
#450=AXIS2_PLACEMENT_3D('',#629,#499,#500);
#451=AXIS2_PLACEMENT_3D('',#658,#502,#503);
#452=AXIS2_PLACEMENT_3D('',#659,#504,#505);
#453=AXIS2_PLACEMENT_3D('',#660,#506,#507);
#454=AXIS2_PLACEMENT_3D('',#661,#508,#509);
#455=AXIS2_PLACEMENT_3D('',#664,#510,#511);
#456=AXIS2_PLACEMENT_3D('',#694,#514,#515);
#457=AXIS2_PLACEMENT_3D('',#695,#516,#517);
#458=AXIS2_PLACEMENT_3D('',#696,#518,#519);
#459=AXIS2_PLACEMENT_3D('',#697,#520,#521);
#460=AXIS2_PLACEMENT_3D('',#700,#522,#523);
#461=AXIS2_PLACEMENT_3D('',#741,#526,#527);
#462=AXIS2_PLACEMENT_3D('',#742,#528,#529);
#463=AXIS2_PLACEMENT_3D('',#743,#530,#531);
#464=AXIS2_PLACEMENT_3D('',#744,#532,#533);
#465=AXIS2_PLACEMENT_3D('',#747,#534,#535);
#466=AXIS2_PLACEMENT_3D('',#786,#538,#539);
#467=AXIS2_PLACEMENT_3D('',#787,#540,#541);
#468=AXIS2_PLACEMENT_3D('',#788,#542,#543);
#469=AXIS2_PLACEMENT_3D('',#792,#545,#546);
#470=AXIS2_PLACEMENT_3D('',#794,#548,#549);
#471=AXIS2_PLACEMENT_3D('',#798,#552,#553);
#472=AXIS2_PLACEMENT_3D('',#801,#555,#556);
#473=AXIS2_PLACEMENT_3D('',#802,#557,#558);
#474=AXIS2_PLACEMENT_3D('',#806,#561,#562);
#475=AXIS2_PLACEMENT_3D('',#819,#569,#570);
#476=AXIS2_PLACEMENT_3D('',#825,#574,#575);
#477=AXIS2_PLACEMENT_3D('',#829,#578,#579);
#478=AXIS2_PLACEMENT_3D('',#833,#582,#583);
#479=AXIS2_PLACEMENT_3D('',#839,#587,#588);
#480=AXIS2_PLACEMENT_3D('',#842,#590,#591);
#481=AXIS2_PLACEMENT_3D('',#843,#592,#593);
#482=AXIS2_PLACEMENT_3D('',#845,#595,#596);
#483=AXIS2_PLACEMENT_3D('',#849,#599,#600);
#484=AXIS2_PLACEMENT_3D('',#853,#603,#604);
#485=AXIS2_PLACEMENT_3D('',#855,#606,#607);
#486=AXIS2_PLACEMENT_3D('',#857,#608,#609);
#487=AXIS2_PLACEMENT_3D('',#858,#610,#611);
#488=AXIS2_PLACEMENT_3D('',#861,#613,#614);
#489=AXIS2_PLACEMENT_3D('',#862,#615,#616);
#490=AXIS2_PLACEMENT_3D('',#863,#617,#618);
#491=AXIS2_PLACEMENT_3D('',#864,#619,#620);
#492=DIRECTION('axis',(0.,0.,1.));
#493=DIRECTION('refdir',(1.,0.,0.));
#494=DIRECTION('center_axis',(1.,4.26582171334969E-16,0.));
#495=DIRECTION('ref_axis',(7.85046229341883E-16,-0.707106781186548,-0.707106781186548));
#496=DIRECTION('center_axis',(1.,0.,0.));
#497=DIRECTION('ref_axis',(0.,-1.,0.));
#498=DIRECTION('',(1.,4.26582171334969E-16,0.));
#499=DIRECTION('center_axis',(-1.,-2.2204460492503E-15,0.));
#500=DIRECTION('ref_axis',(0.,0.,-1.));
#501=DIRECTION('',(-1.,-4.26582171334969E-16,0.));
#502=DIRECTION('center_axis',(0.,-1.,0.));
#503=DIRECTION('ref_axis',(0.,0.,-1.));
#504=DIRECTION('center_axis',(-0.205789710971486,2.28472475351499E-16,-0.978596236891535));
#505=DIRECTION('ref_axis',(0.978596236891535,0.,-0.205789710971486));
#506=DIRECTION('center_axis',(0.,0.,1.));
#507=DIRECTION('ref_axis',(1.,0.,0.));
#508=DIRECTION('center_axis',(0.,1.,0.));
#509=DIRECTION('ref_axis',(0.537299608346824,0.,-0.843391445812886));
#510=DIRECTION('center_axis',(0.,-1.,0.));
#511=DIRECTION('ref_axis',(0.,0.,-1.));
#512=DIRECTION('',(0.,-1.,0.));
#513=DIRECTION('',(0.,1.,0.));
#514=DIRECTION('center_axis',(1.,0.,0.));
#515=DIRECTION('ref_axis',(0.,0.,-1.));
#516=DIRECTION('center_axis',(-0.205789710971486,4.56944950702999E-16,-0.978596236891535));
#517=DIRECTION('ref_axis',(0.978596236891535,0.,-0.205789710971486));
#518=DIRECTION('center_axis',(0.,0.,1.));
#519=DIRECTION('ref_axis',(1.,-1.50930565884774E-15,0.));
#520=DIRECTION('center_axis',(-1.,0.,0.));
#521=DIRECTION('ref_axis',(0.,0.707106781186548,-0.707106781186548));
#522=DIRECTION('center_axis',(1.,0.,0.));
#523=DIRECTION('ref_axis',(0.,0.,-1.));
#524=DIRECTION('',(1.,0.,0.));
#525=DIRECTION('',(-1.,0.,0.));
#526=DIRECTION('center_axis',(0.,1.,0.));
#527=DIRECTION('ref_axis',(0.,0.,-1.));
#528=DIRECTION('center_axis',(-0.205789710971486,0.,-0.978596236891535));
#529=DIRECTION('ref_axis',(-0.978596236891535,0.,0.205789710971486));
#530=DIRECTION('center_axis',(0.,0.,1.));
#531=DIRECTION('ref_axis',(-1.,0.,0.));
#532=DIRECTION('center_axis',(-2.59669703386894E-16,-1.,0.));
#533=DIRECTION('ref_axis',(-0.843391445812885,0.,-0.537299608346824));
#534=DIRECTION('center_axis',(0.,1.,0.));
#535=DIRECTION('ref_axis',(0.,0.,-1.));
#536=DIRECTION('',(2.59669703386894E-16,1.,0.));
#537=DIRECTION('',(-2.59669703386894E-16,-1.,0.));
#538=DIRECTION('center_axis',(-0.205789710971486,0.,-0.978596236891535));
#539=DIRECTION('ref_axis',(-0.978596236891535,0.,0.205789710971486));
#540=DIRECTION('center_axis',(0.,0.,1.));
#541=DIRECTION('ref_axis',(-1.,-2.5155094314129E-16,0.));
#542=DIRECTION('center_axis',(-0.422618261740699,0.,-0.90630778703665));
#543=DIRECTION('ref_axis',(-0.90630778703665,0.,0.422618261740699));
#544=DIRECTION('',(-0.422618261740699,0.,-0.90630778703665));
#545=DIRECTION('center_axis',(-0.422618261740699,0.,-0.90630778703665));
#546=DIRECTION('ref_axis',(-0.90630778703665,0.,0.422618261740699));
#547=DIRECTION('',(-0.422618261740699,0.,-0.90630778703665));
#548=DIRECTION('center_axis',(-0.90630778703665,2.35340674237039E-16,0.422618261740699));
#549=DIRECTION('ref_axis',(2.13291085667484E-16,1.,-9.94592666629417E-17));
#550=DIRECTION('',(-0.422618261740699,0.,-0.90630778703665));
#551=DIRECTION('',(-2.13291085667484E-16,-1.,9.94592666629417E-17));
#552=DIRECTION('center_axis',(-0.422618261740699,0.,-0.90630778703665));
#553=DIRECTION('ref_axis',(2.5155094314129E-16,-1.,-1.17300131202896E-16));
#554=DIRECTION('',(-0.422618261740699,0.,-0.90630778703665));
#555=DIRECTION('center_axis',(-0.422618261740699,0.,-0.90630778703665));
#556=DIRECTION('ref_axis',(2.5155094314129E-16,-1.,-1.17300131202896E-16));
#557=DIRECTION('center_axis',(4.26582171334969E-16,-1.,-1.98918533325884E-16));
#558=DIRECTION('ref_axis',(-0.90630778703665,-4.70681348474079E-16,0.422618261740699));
#559=DIRECTION('',(-0.422618261740699,0.,-0.90630778703665));
#560=DIRECTION('',(0.90630778703665,4.70681348474079E-16,-0.422618261740699));
#561=DIRECTION('center_axis',(0.,0.,-1.));
#562=DIRECTION('ref_axis',(0.,-1.,0.));
#563=DIRECTION('',(0.88603265810777,0.463622830290399,0.));
#564=DIRECTION('',(-5.30438641786105E-16,1.,0.));
#565=DIRECTION('',(-0.88603265810777,0.463622830290399,0.));
#566=DIRECTION('',(-0.88603265810777,-0.463622830290399,0.));
#567=DIRECTION('',(1.76812880595368E-16,-1.,0.));
#568=DIRECTION('',(0.88603265810777,-0.463622830290399,0.));
#569=DIRECTION('center_axis',(0.453153893518325,-0.866025403784439,-0.21130913087035));
#570=DIRECTION('ref_axis',(0.784885567221396,0.5,-0.365998150770667));
#571=DIRECTION('',(0.4226182617407,0.,0.90630778703665));
#572=DIRECTION('',(0.784885567221396,0.5,-0.365998150770667));
#573=DIRECTION('',(0.4226182617407,0.,0.90630778703665));
#574=DIRECTION('center_axis',(-0.453153893518325,-0.866025403784439,0.21130913087035));
#575=DIRECTION('ref_axis',(0.784885567221396,-0.5,-0.365998150770667));
#576=DIRECTION('',(0.4226182617407,0.,0.90630778703665));
#577=DIRECTION('',(0.784885567221396,-0.5,-0.365998150770667));
#578=DIRECTION('center_axis',(-0.90630778703665,-4.80740671595891E-16,0.4226182617407));
#579=DIRECTION('ref_axis',(4.35699014212585E-16,-1.,-2.03169786977912E-16));
#580=DIRECTION('',(0.4226182617407,0.,0.90630778703665));
#581=DIRECTION('',(4.35699014212585E-16,-1.,-2.03169786977912E-16));
#582=DIRECTION('center_axis',(0.90630778703665,0.,-0.422618261740699));
#583=DIRECTION('ref_axis',(0.,-1.,0.));
#584=DIRECTION('',(-0.422618261740699,0.,-0.90630778703665));
#585=DIRECTION('',(0.,1.,0.));
#586=DIRECTION('',(-0.422618261740699,0.,-0.90630778703665));
#587=DIRECTION('center_axis',(-0.422618261740699,0.,-0.90630778703665));
#588=DIRECTION('ref_axis',(1.50930565884774E-15,1.,-7.03800787217378E-16));
#589=DIRECTION('',(-0.422618261740699,0.,-0.90630778703665));
#590=DIRECTION('center_axis',(-0.422618261740699,0.,-0.90630778703665));
#591=DIRECTION('ref_axis',(1.50930565884774E-15,1.,-7.03800787217378E-16));
#592=DIRECTION('center_axis',(0.,1.,0.));
#593=DIRECTION('ref_axis',(0.90630778703665,0.,-0.422618261740699));
#594=DIRECTION('',(-0.90630778703665,0.,0.422618261740699));
#595=DIRECTION('center_axis',(-0.453153893518325,0.866025403784439,0.21130913087035));
#596=DIRECTION('ref_axis',(-0.784885567221396,-0.5,0.365998150770667));
#597=DIRECTION('',(0.4226182617407,0.,0.90630778703665));
#598=DIRECTION('',(-0.784885567221396,-0.5,0.365998150770667));
#599=DIRECTION('center_axis',(0.453153893518325,0.866025403784439,-0.21130913087035));
#600=DIRECTION('ref_axis',(-0.784885567221396,0.5,0.365998150770667));
#601=DIRECTION('',(0.4226182617407,0.,0.90630778703665));
#602=DIRECTION('',(-0.784885567221396,0.5,0.365998150770667));
#603=DIRECTION('center_axis',(0.90630778703665,1.60246890531964E-16,-0.4226182617407));
#604=DIRECTION('ref_axis',(-1.45233004737528E-16,1.,6.77232623259707E-17));
#605=DIRECTION('',(-1.45233004737528E-16,1.,6.77232623259707E-17));
#606=DIRECTION('center_axis',(-0.422618261740699,0.,-0.90630778703665));
#607=DIRECTION('ref_axis',(0.,-1.,0.));
#608=DIRECTION('center_axis',(-0.422618261740699,0.,-0.90630778703665));
#609=DIRECTION('ref_axis',(0.,-1.,0.));
#610=DIRECTION('center_axis',(-0.422618261740699,0.,-0.90630778703665));
#611=DIRECTION('ref_axis',(0.,-1.,0.));
#612=DIRECTION('',(0.422618261740699,0.,0.90630778703665));
#613=DIRECTION('center_axis',(0.422618261740699,0.,0.90630778703665));
#614=DIRECTION('ref_axis',(0.,-1.,0.));
#615=DIRECTION('center_axis',(-0.422618261740699,0.,-0.90630778703665));
#616=DIRECTION('ref_axis',(0.90630778703665,0.,-0.422618261740699));
#617=DIRECTION('center_axis',(-0.422618261740699,0.,-0.90630778703665));
#618=DIRECTION('ref_axis',(0.90630778703665,0.,-0.4226182617407));
#619=DIRECTION('center_axis',(-0.422618261740699,0.,-0.90630778703665));
#620=DIRECTION('ref_axis',(0.,-1.,0.));
#621=CARTESIAN_POINT('',(0.,0.,0.));
#622=CARTESIAN_POINT('Origin',(3.00088438965016,27.2824860704661,-35.));
#623=CARTESIAN_POINT('',(-20.7793528345943,26.2824860704661,-35.));
#624=CARTESIAN_POINT('',(-20.7793528345943,27.2824860704661,-36.));
#625=CARTESIAN_POINT('Origin',(-20.7793528345943,27.2824860704661,-35.));
#626=CARTESIAN_POINT('',(-10.3689503449565,27.2824860704661,-36.));
#627=CARTESIAN_POINT('',(3.00088438965016,27.2824860704661,-36.));
#628=CARTESIAN_POINT('',(-10.3689503449565,26.2824860704661,-35.));
#629=CARTESIAN_POINT('Origin',(-10.3689503449565,27.2824860704661,-35.));
#630=CARTESIAN_POINT('',(3.00088438965016,26.2824860704661,-35.));
#631=CARTESIAN_POINT('Ctrl Pts',(-10.3689503449565,27.2824860704661,-36.));
#632=CARTESIAN_POINT('Ctrl Pts',(-10.1213529189318,27.2824860704661,-36.));
#633=CARTESIAN_POINT('Ctrl Pts',(-9.54262795182616,27.4652482259527,-36.));
#634=CARTESIAN_POINT('Ctrl Pts',(-9.26557242599406,27.9832867701242,-36.));
#635=CARTESIAN_POINT('Ctrl Pts',(-9.26557242599406,28.2824860704661,-36.));
#636=CARTESIAN_POINT('Ctrl Pts',(-10.3689503449565,26.9832867701242,-36.));
#637=CARTESIAN_POINT('Ctrl Pts',(-10.06023961531,27.0017421559178,-35.9992556302662));
#638=CARTESIAN_POINT('Ctrl Pts',(-9.36710953672484,27.2687266044909,-35.9992807098388));
#639=CARTESIAN_POINT('Ctrl Pts',(-9.04948404241381,27.9118655522992,-36.));
#640=CARTESIAN_POINT('Ctrl Pts',(-9.04948404241381,28.2824860704661,-36.));
#641=CARTESIAN_POINT('Ctrl Pts',(-10.3689503449565,26.4654072980249,-35.7487698438559));
#642=CARTESIAN_POINT('Ctrl Pts',(-9.95526495017667,26.5132405295097,-35.7811276871707));
#643=CARTESIAN_POINT('Ctrl Pts',(-9.0618639039332,26.9245728229219,-35.8470901584399));
#644=CARTESIAN_POINT('Ctrl Pts',(-8.67245726260381,27.7875102726925,-35.8728790774091));
#645=CARTESIAN_POINT('Ctrl Pts',(-8.67245726260381,28.2824860704661,-35.8728790774091));
#646=CARTESIAN_POINT('Ctrl Pts',(-10.3689503449565,26.2824860704661,-35.2243994752564));
#647=CARTESIAN_POINT('Ctrl Pts',(-9.91781263518745,26.3039680725057,-35.3058813503351));
#648=CARTESIAN_POINT('Ctrl Pts',(-8.89716687873932,26.7067590151812,-35.4878084475768));
#649=CARTESIAN_POINT('Ctrl Pts',(-8.42775681174569,27.7066341673726,-35.5695002002859));
#650=CARTESIAN_POINT('Ctrl Pts',(-8.42775681174569,28.2824860704661,-35.5695002002859));
#651=CARTESIAN_POINT('Ctrl Pts',(-10.3689503449565,26.2824860704661,-35.));
#652=CARTESIAN_POINT('Ctrl Pts',(-9.91797792710003,26.2824860704661,-35.0948353161684));
#653=CARTESIAN_POINT('Ctrl Pts',(-8.8638918573056,26.6480103814392,-35.3164998387411));
#654=CARTESIAN_POINT('Ctrl Pts',(-8.35926463895741,27.6840874697823,-35.4226182617407));
#655=CARTESIAN_POINT('Ctrl Pts',(-8.35926463895741,28.2824860704661,-35.4226182617407));
#656=CARTESIAN_POINT('',(-9.26557242599406,28.2824860704661,-36.));
#657=CARTESIAN_POINT('',(-8.35926463895741,28.2824860704661,-35.4226182617407));
#658=CARTESIAN_POINT('Origin',(-9.26557242599406,28.2824860704661,-35.));
#659=CARTESIAN_POINT('Origin',(-10.3689503449566,28.2824860704661,-35.));
#660=CARTESIAN_POINT('Origin',(-10.3689503449565,28.2824860704661,-36.));
#661=CARTESIAN_POINT('Origin',(-9.26557242599406,17.3587570839762,-35.));
#662=CARTESIAN_POINT('',(-9.26557242599406,37.7175149130105,-36.));
#663=CARTESIAN_POINT('',(-8.35926463895741,37.7175149130105,-35.4226182617407));
#664=CARTESIAN_POINT('Origin',(-9.26557242599406,37.7175149130105,-35.));
#665=CARTESIAN_POINT('',(-8.35926463895741,17.3587570839762,-35.4226182617407));
#666=CARTESIAN_POINT('',(-9.26557242599406,17.3587570839762,-36.));
#667=CARTESIAN_POINT('Ctrl Pts',(-9.26557242599406,37.7175149130105,-36.));
#668=CARTESIAN_POINT('Ctrl Pts',(-9.26557242599406,37.9419143882669,-36.));
#669=CARTESIAN_POINT('Ctrl Pts',(-9.46726380320411,38.4663904041284,-36.));
#670=CARTESIAN_POINT('Ctrl Pts',(-10.0388204435903,38.7175149130105,-36.));
#671=CARTESIAN_POINT('Ctrl Pts',(-10.3689503449566,38.7175149130105,-36.));
#672=CARTESIAN_POINT('Ctrl Pts',(-9.04948404241381,37.7175149130105,-36.));
#673=CARTESIAN_POINT('Ctrl Pts',(-9.04948404241381,37.9954803016357,-36.));
#674=CARTESIAN_POINT('Ctrl Pts',(-9.28132697139071,38.6443458605711,-35.9997111913565));
#675=CARTESIAN_POINT('Ctrl Pts',(-9.95733603876119,38.9921070322944,-35.9990075070216));
#676=CARTESIAN_POINT('Ctrl Pts',(-10.3689503449566,39.0167142133524,-36.));
#677=CARTESIAN_POINT('Ctrl Pts',(-8.67246126103473,37.7175149130105,-35.8728736028865));
#678=CARTESIAN_POINT('Ctrl Pts',(-8.67246126103473,38.0887467613407,-35.8728736028865));
#679=CARTESIAN_POINT('Ctrl Pts',(-8.95735826764754,38.9553479302945,-35.8539422707642));
#680=CARTESIAN_POINT('Ctrl Pts',(-9.81736981858338,39.4707978046929,-35.7918984341731));
#681=CARTESIAN_POINT('Ctrl Pts',(-10.3689503449565,39.5345754466725,-35.7487546430868));
#682=CARTESIAN_POINT('Ctrl Pts',(-8.42775681174569,37.7175149130105,-35.5695002002859));
#683=CARTESIAN_POINT('Ctrl Pts',(-8.42775681174569,38.1494038403307,-35.5695002002859));
#684=CARTESIAN_POINT('Ctrl Pts',(-8.76997232694017,39.1582772027229,-35.5099364448777));
#685=CARTESIAN_POINT('Ctrl Pts',(-9.76743339859774,39.6888722436244,-35.3330419753614));
#686=CARTESIAN_POINT('Ctrl Pts',(-10.3689503449565,39.7175149130105,-35.2243994752564));
#687=CARTESIAN_POINT('Ctrl Pts',(-8.35926463895741,37.7175149130105,-35.4226182617407));
#688=CARTESIAN_POINT('Ctrl Pts',(-8.35926463895741,38.1663138635233,-35.4226182617407));
#689=CARTESIAN_POINT('Ctrl Pts',(-8.7266240638981,39.2152658952464,-35.3453659823723));
#690=CARTESIAN_POINT('Ctrl Pts',(-9.76765378781452,39.7175149130105,-35.1264470882245));
#691=CARTESIAN_POINT('Ctrl Pts',(-10.3689503449565,39.7175149130105,-35.));
#692=CARTESIAN_POINT('',(-10.3689503449565,38.7175149130105,-36.));
#693=CARTESIAN_POINT('',(-10.3689503449565,39.7175149130105,-35.));
#694=CARTESIAN_POINT('Origin',(-10.3689503449565,38.7175149130105,-35.));
#695=CARTESIAN_POINT('Origin',(-10.3689503449566,37.7175149130105,-35.));
#696=CARTESIAN_POINT('Origin',(-10.3689503449566,37.7175149130105,-36.));
#697=CARTESIAN_POINT('Origin',(-1.27463566580652,38.7175149130105,-35.));
#698=CARTESIAN_POINT('',(-20.7793528345943,38.7175149130105,-36.));
#699=CARTESIAN_POINT('',(-20.7793528345943,39.7175149130105,-35.));
#700=CARTESIAN_POINT('Origin',(-20.7793528345943,38.7175149130105,-35.));
#701=CARTESIAN_POINT('',(-1.27463566580652,39.7175149130105,-35.));
#702=CARTESIAN_POINT('',(-1.27463566580652,38.7175149130105,-36.));
#703=CARTESIAN_POINT('Ctrl Pts',(-20.7793528345943,38.7175149130105,-36.));
#704=CARTESIAN_POINT('Ctrl Pts',(-21.026950260619,38.7175149130105,-36.));
#705=CARTESIAN_POINT('Ctrl Pts',(-21.4380898780266,38.5863812584579,-36.));
#706=CARTESIAN_POINT('Ctrl Pts',(-21.807311586777,38.1659066243564,-36.));
#707=CARTESIAN_POINT('Ctrl Pts',(-21.8827307535568,37.8671145631815,-36.));
#708=CARTESIAN_POINT('Ctrl Pts',(-21.8827307535568,37.7175149130105,-36.));
#709=CARTESIAN_POINT('Ctrl Pts',(-20.7793528345943,38.8671145631815,-36.));
#710=CARTESIAN_POINT('Ctrl Pts',(-21.0573845443154,38.8761578726696,-36.000031312278));
#711=CARTESIAN_POINT('Ctrl Pts',(-21.5298971195082,38.7447132114415,-35.9999547866458));
#712=CARTESIAN_POINT('Ctrl Pts',(-21.9786577259942,38.260138775289,-36.0000357817921));
#713=CARTESIAN_POINT('Ctrl Pts',(-22.0738858621085,37.8986863427238,-36.));
#714=CARTESIAN_POINT('Ctrl Pts',(-22.0738858621085,37.7175149130105,-36.));
#715=CARTESIAN_POINT('Ctrl Pts',(-20.7793528345943,39.1658768926049,-35.931627637717));
#716=CARTESIAN_POINT('Ctrl Pts',(-21.1181823739718,39.1929143206264,-35.9232448308274));
#717=CARTESIAN_POINT('Ctrl Pts',(-21.7130199119885,39.0606928074687,-35.9078189378104));
#718=CARTESIAN_POINT('Ctrl Pts',(-22.3203354004576,38.4480622854427,-35.8911240240538));
#719=CARTESIAN_POINT('Ctrl Pts',(-22.4549381088742,37.9616689305456,-35.887422798326));
#720=CARTESIAN_POINT('Ctrl Pts',(-22.4549381088742,37.7175149130105,-35.887422798326));
#721=CARTESIAN_POINT('Ctrl Pts',(-20.7793528345943,39.5863185361124,-35.5969901983391));
#722=CARTESIAN_POINT('Ctrl Pts',(-21.2036383318865,39.6264728222158,-35.5503342310698));
#723=CARTESIAN_POINT('Ctrl Pts',(-21.9566642475038,39.4657263035129,-35.4657554108444));
#724=CARTESIAN_POINT('Ctrl Pts',(-22.7369804375181,38.6733074625076,-35.3781524886383));
#725=CARTESIAN_POINT('Ctrl Pts',(-22.9114173693069,38.0369048115062,-35.3587947342179));
#726=CARTESIAN_POINT('Ctrl Pts',(-22.9114173693069,37.7175149130105,-35.3587947342179));
#727=CARTESIAN_POINT('Ctrl Pts',(-20.7793528345943,39.7175149130105,-35.2243994752564));
#728=CARTESIAN_POINT('Ctrl Pts',(-21.2305546216346,39.7390925945404,-35.1430865312428));
#729=CARTESIAN_POINT('Ctrl Pts',(-22.0036758898276,39.5207913799313,-35.002448310068));
#730=CARTESIAN_POINT('Ctrl Pts',(-22.7513609741684,38.6743451098079,-34.8660146211274));
#731=CARTESIAN_POINT('Ctrl Pts',(-22.9102170001419,38.0372285928662,-34.8372497833777));
#732=CARTESIAN_POINT('Ctrl Pts',(-22.9102170001419,37.7175149130105,-34.8372497833777));
#733=CARTESIAN_POINT('Ctrl Pts',(-20.7793528345943,39.7175149130105,-35.));
#734=CARTESIAN_POINT('Ctrl Pts',(-21.2303252524508,39.7175149130105,-34.9051646838316));
#735=CARTESIAN_POINT('Ctrl Pts',(-21.9791724045227,39.4552476039052,-34.747689074201));
#736=CARTESIAN_POINT('Ctrl Pts',(-22.6516705374543,38.6142983357022,-34.6062689550674));
#737=CARTESIAN_POINT('Ctrl Pts',(-22.7890385405934,38.0167142133524,-34.5773817382593));
#738=CARTESIAN_POINT('Ctrl Pts',(-22.7890385405934,37.7175149130105,-34.5773817382593));
#739=CARTESIAN_POINT('',(-21.8827307535568,37.7175149130105,-36.));
#740=CARTESIAN_POINT('',(-22.7890385405934,37.7175149130105,-34.5773817382593));
#741=CARTESIAN_POINT('Origin',(-21.8827307535568,37.7175149130105,-35.));
#742=CARTESIAN_POINT('Origin',(-20.7793528345943,37.7175149130105,-35.));
#743=CARTESIAN_POINT('Origin',(-20.7793528345943,37.7175149130105,-36.));
#744=CARTESIAN_POINT('Origin',(-21.8827307535568,12.641242662704,-35.));
#745=CARTESIAN_POINT('',(-21.8827307535568,28.2824860704661,-36.));
#746=CARTESIAN_POINT('',(-22.7890385405934,28.2824860704661,-34.5773817382593));
#747=CARTESIAN_POINT('Origin',(-21.8827307535568,28.2824860704661,-35.));
#748=CARTESIAN_POINT('',(-22.7890385405934,12.641242662704,-34.5773817382593));
#749=CARTESIAN_POINT('',(-21.8827307535568,12.641242662704,-36.));
#750=CARTESIAN_POINT('Ctrl Pts',(-21.8827307535568,28.2824860704661,-36.));
#751=CARTESIAN_POINT('Ctrl Pts',(-21.8827307535568,28.1702863328379,-36.));
#752=CARTESIAN_POINT('Ctrl Pts',(-21.8402102401016,27.9467081641527,-36.));
#753=CARTESIAN_POINT('Ctrl Pts',(-21.5583039734547,27.4792756498769,-36.));
#754=CARTESIAN_POINT('Ctrl Pts',(-21.1094827359605,27.2824860704661,-36.));
#755=CARTESIAN_POINT('Ctrl Pts',(-20.7793528345943,27.2824860704661,-36.));
#756=CARTESIAN_POINT('Ctrl Pts',(-22.0738858621085,28.2824860704661,-36.));
#757=CARTESIAN_POINT('Ctrl Pts',(-22.0738858621085,28.1466074981811,-36.));
#758=CARTESIAN_POINT('Ctrl Pts',(-22.0208340137334,27.875945201141,-36.0000291845542));
#759=CARTESIAN_POINT('Ctrl Pts',(-21.6724752786018,27.3250527516146,-35.9999724846227));
#760=CARTESIAN_POINT('Ctrl Pts',(-21.1500617808891,27.1208286743111,-36.000041749704));
#761=CARTESIAN_POINT('Ctrl Pts',(-20.7793528345943,27.1328864202952,-36.));
#762=CARTESIAN_POINT('Ctrl Pts',(-22.4549461424412,28.2824860704661,-35.8874248107038));
#763=CARTESIAN_POINT('Ctrl Pts',(-22.4549461424412,28.0993705573148,-35.8874248107038));
#764=CARTESIAN_POINT('Ctrl Pts',(-22.3809726989107,27.7348299949097,-35.8894389647525));
#765=CARTESIAN_POINT('Ctrl Pts',(-21.9002036077578,27.0173442781108,-35.9027491849972));
#766=CARTESIAN_POINT('Ctrl Pts',(-21.2311255537642,26.7980712390039,-35.9204524237425));
#767=CARTESIAN_POINT('Ctrl Pts',(-20.7793528345943,26.8341211430325,-35.9316294995954));
#768=CARTESIAN_POINT('Ctrl Pts',(-22.9114333412364,28.2824860704661,-35.3587960750568));
#769=CARTESIAN_POINT('Ctrl Pts',(-22.9114333412364,28.0429436465943,-35.3587960750568));
#770=CARTESIAN_POINT('Ctrl Pts',(-22.8157489280167,27.5659860230253,-35.3694425749584));
#771=CARTESIAN_POINT('Ctrl Pts',(-22.1958363766357,26.6324926368714,-35.4387572102129));
#772=CARTESIAN_POINT('Ctrl Pts',(-21.345066830984,26.3601375962335,-35.5347849042886));
#773=CARTESIAN_POINT('Ctrl Pts',(-20.7793528345943,26.4136766443714,-35.5969928606476));
#774=CARTESIAN_POINT('Ctrl Pts',(-22.9102170001419,28.2824860704661,-34.8372497833777));
#775=CARTESIAN_POINT('Ctrl Pts',(-22.9102170001419,28.0427008105744,-34.8372497833777));
#776=CARTESIAN_POINT('Ctrl Pts',(-22.8220928763704,27.5657365104607,-34.8532091348544));
#777=CARTESIAN_POINT('Ctrl Pts',(-22.2398785589186,26.5985008391875,-34.9592712453095));
#778=CARTESIAN_POINT('Ctrl Pts',(-21.3809552173148,26.2537158284262,-35.1159822165716));
#779=CARTESIAN_POINT('Ctrl Pts',(-20.7793528345943,26.2824860704661,-35.2243994752564));
#780=CARTESIAN_POINT('Ctrl Pts',(-22.7890385405934,28.2824860704661,-34.5773817382593));
#781=CARTESIAN_POINT('Ctrl Pts',(-22.7890385405934,28.0580865952097,-34.5773817382593));
#782=CARTESIAN_POINT('Ctrl Pts',(-22.7115919408075,27.6109302578392,-34.5936680397847));
#783=CARTESIAN_POINT('Ctrl Pts',(-22.1981296131903,26.6760652292876,-34.7016444043074));
#784=CARTESIAN_POINT('Ctrl Pts',(-21.3806493917363,26.2824860704661,-34.8735529117755));
#785=CARTESIAN_POINT('Ctrl Pts',(-20.7793528345943,26.2824860704661,-35.));
#786=CARTESIAN_POINT('Origin',(-20.7793528345943,28.2824860704661,-35.));
#787=CARTESIAN_POINT('Origin',(-20.7793528345943,28.2824860704661,-36.));
#788=CARTESIAN_POINT('Origin',(-17.549271331613,37.7175149130105,-28.0730678630468));
#789=CARTESIAN_POINT('',(-19.3618869056863,37.7175149130105,-27.2278313395654));
#790=CARTESIAN_POINT('',(-19.3618869056863,37.7175149130105,-27.2278313395654));
#791=CARTESIAN_POINT('',(-17.549271331613,39.7175149130105,-28.0730678630468));
#792=CARTESIAN_POINT('Origin',(-17.549271331613,37.7175149130105,-28.0730678630468));
#793=CARTESIAN_POINT('',(-17.549271331613,39.7175149130105,-28.0730678630468));
#794=CARTESIAN_POINT('Origin',(-19.3618869056864,28.2824860704661,-27.2278313395654));
#795=CARTESIAN_POINT('',(-19.3618869056864,28.2824860704661,-27.2278313395654));
#796=CARTESIAN_POINT('',(-19.3618869056864,28.2824860704661,-27.2278313395654));
#797=CARTESIAN_POINT('',(-19.3618869056863,37.7175149130105,-27.2278313395654));
#798=CARTESIAN_POINT('Origin',(-17.549271331613,28.2824860704661,-28.0730678630468));
#799=CARTESIAN_POINT('',(-17.549271331613,26.2824860704661,-28.0730678630468));
#800=CARTESIAN_POINT('',(-17.549271331613,26.2824860704661,-28.0730678630468));
#801=CARTESIAN_POINT('Origin',(-17.549271331613,28.2824860704661,-28.0730678630468));
#802=CARTESIAN_POINT('Origin',(-8.99823122069967,26.2824860704661,-32.0604833519563));
#803=CARTESIAN_POINT('',(-8.99823122069967,26.2824860704661,-32.0604833519563));
#804=CARTESIAN_POINT('',(-8.99823122069967,26.2824860704661,-32.0604833519563));
#805=CARTESIAN_POINT('',(-17.549271331613,26.2824860704661,-28.0730678630468));
#806=CARTESIAN_POINT('Origin',(15.,-3.00000074505806,-36.));
#807=CARTESIAN_POINT('',(-19.3505930048179,34.7320512993072,-36.));
#808=CARTESIAN_POINT('',(-16.0404592479304,36.4641021068761,-36.));
#809=CARTESIAN_POINT('',(-12.5347561365046,38.2984859569569,-36.));
#810=CARTESIAN_POINT('',(-19.3505930048179,31.2679496841694,-36.));
#811=CARTESIAN_POINT('',(-19.3505930048179,15.8660252771246,-36.));
#812=CARTESIAN_POINT('',(-16.0404592479304,29.5358988766006,-36.));
#813=CARTESIAN_POINT('',(0.830502370607729,20.7080493569094,-36.));
#814=CARTESIAN_POINT('',(-12.7303254910429,31.2679496841694,-36.));
#815=CARTESIAN_POINT('',(-11.1117552630202,32.114877958509,-36.));
#816=CARTESIAN_POINT('',(-12.7303254910429,34.7320512993072,-36.));
#817=CARTESIAN_POINT('',(-12.7303254910429,14.1339744695557,-36.));
#818=CARTESIAN_POINT('',(5.09950499106097,25.4024668917022,-36.));
#819=CARTESIAN_POINT('Origin',(-17.4999338935634,29.5358988766006,-39.1298534778681));
#820=CARTESIAN_POINT('',(-14.1189877996378,29.5358988766006,-31.8793911815749));
#821=CARTESIAN_POINT('',(-17.4999338935634,29.5358988766006,-39.1298534778681));
#822=CARTESIAN_POINT('',(-11.4000644385278,31.2679496841694,-33.147245966797));
#823=CARTESIAN_POINT('',(-11.4000644385278,31.2679496841694,-33.147245966797));
#824=CARTESIAN_POINT('',(-14.7810105324534,31.2679496841694,-40.3977082630902));
#825=CARTESIAN_POINT('Origin',(-20.2188572546733,31.2679496841694,-37.861998692646));
#826=CARTESIAN_POINT('',(-16.8379111607477,31.2679496841694,-30.6115363963528));
#827=CARTESIAN_POINT('',(-20.2188572546733,31.2679496841694,-37.861998692646));
#828=CARTESIAN_POINT('',(-14.1189877996378,29.5358988766006,-31.8793911815749));
#829=CARTESIAN_POINT('Origin',(-20.2188572546733,34.7320512993072,-37.861998692646));
#830=CARTESIAN_POINT('',(-16.8379111607477,34.7320512993072,-30.6115363963528));
#831=CARTESIAN_POINT('',(-20.2188572546733,34.7320512993072,-37.861998692646));
#832=CARTESIAN_POINT('',(-16.8379111607477,31.2679496841694,-30.6115363963528));
#833=CARTESIAN_POINT('Origin',(-7.18561564662637,37.7175149130105,-32.9057198754377));
#834=CARTESIAN_POINT('',(-7.18561564662637,37.7175149130105,-32.9057198754377));
#835=CARTESIAN_POINT('',(-7.18561564662637,37.7175149130105,-32.9057198754377));
#836=CARTESIAN_POINT('',(-7.18561564662637,28.2824860704661,-32.9057198754377));
#837=CARTESIAN_POINT('',(-7.18561564662637,28.2824860704661,-32.9057198754377));
#838=CARTESIAN_POINT('',(-7.18561564662637,28.2824860704661,-32.9057198754377));
#839=CARTESIAN_POINT('Origin',(-8.99823122069967,37.7175149130105,-32.0604833519563));
#840=CARTESIAN_POINT('',(-8.99823122069967,39.7175149130105,-32.0604833519563));
#841=CARTESIAN_POINT('',(-8.99823122069967,39.7175149130105,-32.0604833519563));
#842=CARTESIAN_POINT('Origin',(-8.99823122069967,37.7175149130105,-32.0604833519563));
#843=CARTESIAN_POINT('Origin',(-17.549271331613,39.7175149130105,-28.0730678630468));
#844=CARTESIAN_POINT('',(-8.99823122069967,39.7175149130105,-32.0604833519563));
#845=CARTESIAN_POINT('Origin',(-17.4999338935634,36.4641021068761,-39.1298534778681));
#846=CARTESIAN_POINT('',(-14.1189877996378,36.4641021068761,-31.8793911815749));
#847=CARTESIAN_POINT('',(-17.4999338935634,36.4641021068761,-39.1298534778681));
#848=CARTESIAN_POINT('',(-16.8379111607477,34.7320512993072,-30.6115363963528));
#849=CARTESIAN_POINT('Origin',(-14.7810105324534,34.7320512993072,-40.3977082630902));
#850=CARTESIAN_POINT('',(-11.4000644385278,34.7320512993072,-33.147245966797));
#851=CARTESIAN_POINT('',(-14.7810105324534,34.7320512993072,-40.3977082630902));
#852=CARTESIAN_POINT('',(-14.1189877996378,36.4641021068761,-31.8793911815749));
#853=CARTESIAN_POINT('Origin',(-14.7810105324534,31.2679496841694,-40.3977082630902));
#854=CARTESIAN_POINT('',(-11.4000644385278,34.7320512993072,-33.147245966797));
#855=CARTESIAN_POINT('Origin',(-14.1189877996378,33.0000004917383,-31.8793911815749));
#856=CARTESIAN_POINT('',(-14.1189877996378,35.0000004917383,-31.8793911815749));
#857=CARTESIAN_POINT('Origin',(-14.1189877996378,33.0000004917383,-31.8793911815749));
#858=CARTESIAN_POINT('Origin',(-13.2737512761564,33.0000004917383,-30.0667756075016));
#859=CARTESIAN_POINT('',(-13.2737512761564,35.0000004917383,-30.0667756075016));
#860=CARTESIAN_POINT('',(-13.2737512761564,35.0000004917383,-30.0667756075016));
#861=CARTESIAN_POINT('Origin',(-13.2737512761564,33.0000004917383,-30.0667756075016));
#862=CARTESIAN_POINT('Origin',(-8.99823122069967,28.2824860704661,-32.0604833519563));
#863=CARTESIAN_POINT('Origin',(-8.99823122069967,28.2824860704661,-32.0604833519563));
#864=CARTESIAN_POINT('Origin',(-13.2737512761564,33.0000004917383,-30.0667756075016));
#865=UNCERTAINTY_MEASURE_WITH_UNIT(LENGTH_MEASURE(0.01),#869,
'DISTANCE_ACCURACY_VALUE',
'Maximum model space distance between geometric entities at asserted c
onnectivities');
#866=UNCERTAINTY_MEASURE_WITH_UNIT(LENGTH_MEASURE(0.01),#869,
'DISTANCE_ACCURACY_VALUE',
'Maximum model space distance between geometric entities at asserted c
onnectivities');
#867=(
GEOMETRIC_REPRESENTATION_CONTEXT(3)
GLOBAL_UNCERTAINTY_ASSIGNED_CONTEXT((#865))
GLOBAL_UNIT_ASSIGNED_CONTEXT((#869,#870,#871))
REPRESENTATION_CONTEXT('','3D')
);
#868=(
GEOMETRIC_REPRESENTATION_CONTEXT(3)
GLOBAL_UNCERTAINTY_ASSIGNED_CONTEXT((#866))
GLOBAL_UNIT_ASSIGNED_CONTEXT((#869,#870,#871))
REPRESENTATION_CONTEXT('','3D')
);
#869=(
LENGTH_UNIT()
NAMED_UNIT(*)
SI_UNIT(.MILLI.,.METRE.)
);
#870=(
NAMED_UNIT(*)
PLANE_ANGLE_UNIT()
SI_UNIT($,.RADIAN.)
);
#871=(
NAMED_UNIT(*)
SI_UNIT($,.STERADIAN.)
SOLID_ANGLE_UNIT()
);
#872=SHAPE_DEFINITION_REPRESENTATION(#873,#874);
#873=PRODUCT_DEFINITION_SHAPE('',$,#876);
#874=SHAPE_REPRESENTATION('',(#447),#867);
#875=PRODUCT_DEFINITION_CONTEXT('part definition',#880,'design');
#876=PRODUCT_DEFINITION('None','Fume extractor v14',#877,#875);
#877=PRODUCT_DEFINITION_FORMATION('',$,#882);
#878=PRODUCT_RELATED_PRODUCT_CATEGORY('Fume extractor v14',
'Fume extractor v14',(#882));
#879=APPLICATION_PROTOCOL_DEFINITION('international standard',
'automotive_design',2009,#880);
#880=APPLICATION_CONTEXT(
'Core Data for Automotive Mechanical Design Process');
#881=PRODUCT_CONTEXT('part definition',#880,'mechanical');
#882=PRODUCT('None','Fume extractor v14','STEP AP203',(#881));
#883=PRESENTATION_STYLE_ASSIGNMENT((#884));
#884=SURFACE_STYLE_USAGE(.BOTH.,#885);
#885=SURFACE_SIDE_STYLE('',(#886));
#886=SURFACE_STYLE_FILL_AREA(#887);
#887=FILL_AREA_STYLE('Acciaio - Satinato',(#888));
#888=FILL_AREA_STYLE_COLOUR('Acciaio - Satinato',#889);
#889=COLOUR_RGB('Acciaio - Satinato',0.627450980392157,0.627450980392157,
0.627450980392157);
ENDSEC;
END-ISO-10303-21;
