ISO-10303-21;
HEADER;
/* Generated by software containing ST-Developer
 * from STEP Tools, Inc. (www.steptools.com) 
 */

FILE_DESCRIPTION(
/* description */ ('STEP AP203'),
/* implementation_level */ '2;1');

FILE_NAME(
/* name */ 'ShortLeg.step',
/* time_stamp */ '2026-07-21T21:53:58+02:00',
/* author */ (''),
/* organization */ (''),
/* preprocessor_version */ 'ST-DEVELOPER v20.1',
/* originating_system */ 'Autodesk Translation Framework v15.8.0.0',
/* authorisation */ '');

FILE_SCHEMA (('AUTOMOTIVE_DESIGN { 1 0 10303 214 3 1 1 }'));
ENDSEC;

DATA;
#10=MECHANICAL_DESIGN_GEOMETRIC_PRESENTATION_REPRESENTATION('',(#13),#791);
#11=SHAPE_REPRESENTATION_RELATIONSHIP('SRR','None',#797,#12);
#12=ADVANCED_BREP_SHAPE_REPRESENTATION('',(#14),#790);
#13=STYLED_ITEM('',(#806),#14);
#14=MANIFOLD_SOLID_BREP('ShortLeg',#461);
#15=CYLINDRICAL_SURFACE('',#468,2.);
#16=CYLINDRICAL_SURFACE('',#472,2.);
#17=CYLINDRICAL_SURFACE('',#474,6.);
#18=CYLINDRICAL_SURFACE('',#487,6.);
#19=CYLINDRICAL_SURFACE('',#493,3.);
#20=CYLINDRICAL_SURFACE('',#494,3.);
#21=CYLINDRICAL_SURFACE('',#495,5.00000007450581);
#22=CYLINDRICAL_SURFACE('',#497,4.5);
#23=CYLINDRICAL_SURFACE('',#500,8.25000019371511);
#24=CYLINDRICAL_SURFACE('',#503,5.00000007450581);
#25=CYLINDRICAL_SURFACE('',#506,4.5);
#26=CYLINDRICAL_SURFACE('',#510,8.25000019371511);
#27=FACE_BOUND('',#71,.T.);
#28=FACE_BOUND('',#72,.T.);
#29=FACE_BOUND('',#79,.T.);
#30=FACE_BOUND('',#80,.T.);
#31=FACE_BOUND('',#84,.T.);
#32=FACE_BOUND('',#92,.T.);
#33=FACE_BOUND('',#98,.T.);
#34=FACE_BOUND('',#100,.T.);
#35=PLANE('',#466);
#36=PLANE('',#478);
#37=PLANE('',#482);
#38=PLANE('',#483);
#39=PLANE('',#489);
#40=PLANE('',#499);
#41=PLANE('',#502);
#42=PLANE('',#509);
#43=PLANE('',#513);
#44=PLANE('',#514);
#45=FACE_OUTER_BOUND('',#69,.T.);
#46=FACE_OUTER_BOUND('',#70,.T.);
#47=FACE_OUTER_BOUND('',#73,.T.);
#48=FACE_OUTER_BOUND('',#74,.T.);
#49=FACE_OUTER_BOUND('',#75,.T.);
#50=FACE_OUTER_BOUND('',#76,.T.);
#51=FACE_OUTER_BOUND('',#77,.T.);
#52=FACE_OUTER_BOUND('',#78,.T.);
#53=FACE_OUTER_BOUND('',#81,.T.);
#54=FACE_OUTER_BOUND('',#82,.T.);
#55=FACE_OUTER_BOUND('',#83,.T.);
#56=FACE_OUTER_BOUND('',#85,.T.);
#57=FACE_OUTER_BOUND('',#86,.T.);
#58=FACE_OUTER_BOUND('',#87,.T.);
#59=FACE_OUTER_BOUND('',#88,.T.);
#60=FACE_OUTER_BOUND('',#89,.T.);
#61=FACE_OUTER_BOUND('',#90,.T.);
#62=FACE_OUTER_BOUND('',#91,.T.);
#63=FACE_OUTER_BOUND('',#93,.T.);
#64=FACE_OUTER_BOUND('',#94,.T.);
#65=FACE_OUTER_BOUND('',#95,.T.);
#66=FACE_OUTER_BOUND('',#96,.T.);
#67=FACE_OUTER_BOUND('',#97,.T.);
#68=FACE_OUTER_BOUND('',#99,.T.);
#69=EDGE_LOOP('',(#307,#308,#309,#310));
#70=EDGE_LOOP('',(#311,#312,#313,#314));
#71=EDGE_LOOP('',(#315));
#72=EDGE_LOOP('',(#316));
#73=EDGE_LOOP('',(#317,#318,#319,#320));
#74=EDGE_LOOP('',(#321,#322,#323,#324));
#75=EDGE_LOOP('',(#325,#326,#327,#328));
#76=EDGE_LOOP('',(#329,#330,#331,#332,#333));
#77=EDGE_LOOP('',(#334,#335,#336,#337,#338,#339,#340,#341,#342,#343));
#78=EDGE_LOOP('',(#344,#345,#346,#347));
#79=EDGE_LOOP('',(#348));
#80=EDGE_LOOP('',(#349));
#81=EDGE_LOOP('',(#350,#351,#352,#353,#354,#355,#356,#357,#358,#359,#360,
#361));
#82=EDGE_LOOP('',(#362,#363,#364,#365,#366));
#83=EDGE_LOOP('',(#367,#368,#369,#370));
#84=EDGE_LOOP('',(#371,#372));
#85=EDGE_LOOP('',(#373,#374,#375,#376));
#86=EDGE_LOOP('',(#377,#378,#379,#380));
#87=EDGE_LOOP('',(#381,#382,#383,#384));
#88=EDGE_LOOP('',(#385,#386,#387,#388));
#89=EDGE_LOOP('',(#389,#390,#391,#392,#393,#394));
#90=EDGE_LOOP('',(#395,#396,#397,#398));
#91=EDGE_LOOP('',(#399,#400,#401,#402));
#92=EDGE_LOOP('',(#403,#404));
#93=EDGE_LOOP('',(#405,#406,#407,#408));
#94=EDGE_LOOP('',(#409,#410,#411,#412));
#95=EDGE_LOOP('',(#413,#414,#415,#416,#417,#418));
#96=EDGE_LOOP('',(#419,#420,#421,#422));
#97=EDGE_LOOP('',(#423,#424,#425,#426));
#98=EDGE_LOOP('',(#427,#428));
#99=EDGE_LOOP('',(#429,#430,#431,#432));
#100=EDGE_LOOP('',(#433,#434));
#101=LINE('',#662,#137);
#102=LINE('',#667,#138);
#103=LINE('',#669,#139);
#104=LINE('',#671,#140);
#105=LINE('',#672,#141);
#106=LINE('',#677,#142);
#107=LINE('',#681,#143);
#108=LINE('',#685,#144);
#109=LINE('',#692,#145);
#110=LINE('',#697,#146);
#111=LINE('',#700,#147);
#112=LINE('',#704,#148);
#113=LINE('',#706,#149);
#114=LINE('',#711,#150);
#115=LINE('',#712,#151);
#116=LINE('',#715,#152);
#117=LINE('',#716,#153);
#118=LINE('',#719,#154);
#119=LINE('',#721,#155);
#120=LINE('',#723,#156);
#121=LINE('',#728,#157);
#122=LINE('',#730,#158);
#123=LINE('',#732,#159);
#124=LINE('',#736,#160);
#125=LINE('',#741,#161);
#126=LINE('',#747,#162);
#127=LINE('',#749,#163);
#128=LINE('',#752,#164);
#129=LINE('',#755,#165);
#130=LINE('',#760,#166);
#131=LINE('',#761,#167);
#132=LINE('',#770,#168);
#133=LINE('',#773,#169);
#134=LINE('',#779,#170);
#135=LINE('',#781,#171);
#136=LINE('',#782,#172);
#137=VECTOR('',#521,2.5);
#138=VECTOR('',#526,10.);
#139=VECTOR('',#527,10.);
#140=VECTOR('',#528,10.);
#141=VECTOR('',#529,10.);
#142=VECTOR('',#534,2.);
#143=VECTOR('',#539,2.5);
#144=VECTOR('',#544,2.);
#145=VECTOR('',#551,10.);
#146=VECTOR('',#556,10.);
#147=VECTOR('',#559,10.);
#148=VECTOR('',#562,10.);
#149=VECTOR('',#563,10.);
#150=VECTOR('',#568,10.);
#151=VECTOR('',#569,10.);
#152=VECTOR('',#572,10.);
#153=VECTOR('',#573,10.);
#154=VECTOR('',#576,10.);
#155=VECTOR('',#577,10.);
#156=VECTOR('',#578,10.);
#157=VECTOR('',#583,10.);
#158=VECTOR('',#584,10.);
#159=VECTOR('',#585,10.);
#160=VECTOR('',#590,10.);
#161=VECTOR('',#597,10.);
#162=VECTOR('',#604,10.);
#163=VECTOR('',#607,10.);
#164=VECTOR('',#610,10.);
#165=VECTOR('',#613,10.);
#166=VECTOR('',#620,10.);
#167=VECTOR('',#621,10.);
#168=VECTOR('',#632,10.);
#169=VECTOR('',#635,10.);
#170=VECTOR('',#644,10.);
#171=VECTOR('',#645,10.);
#172=VECTOR('',#646,10.);
#173=CIRCLE('',#464,3.);
#174=CIRCLE('',#465,2.);
#175=CIRCLE('',#467,3.);
#176=CIRCLE('',#469,2.);
#177=CIRCLE('',#471,2.);
#178=CIRCLE('',#473,2.);
#179=CIRCLE('',#475,6.);
#180=CIRCLE('',#476,6.);
#181=CIRCLE('',#477,6.);
#182=CIRCLE('',#479,6.);
#183=CIRCLE('',#480,3.);
#184=CIRCLE('',#481,3.);
#185=CIRCLE('',#484,3.);
#186=CIRCLE('',#485,3.);
#187=CIRCLE('',#486,6.);
#188=CIRCLE('',#488,6.);
#189=CIRCLE('',#490,8.25000019371511);
#190=CIRCLE('',#491,4.5);
#191=CIRCLE('',#492,5.00000007450581);
#192=CIRCLE('',#496,5.00000007450581);
#193=CIRCLE('',#498,4.5);
#194=CIRCLE('',#501,8.25000019371511);
#195=CIRCLE('',#504,5.00000007450581);
#196=CIRCLE('',#505,5.00000007450581);
#197=CIRCLE('',#507,4.5);
#198=CIRCLE('',#508,4.5);
#199=CIRCLE('',#511,8.25000019371511);
#200=CIRCLE('',#512,8.25000019371511);
#201=VERTEX_POINT('',#659);
#202=VERTEX_POINT('',#661);
#203=VERTEX_POINT('',#665);
#204=VERTEX_POINT('',#666);
#205=VERTEX_POINT('',#668);
#206=VERTEX_POINT('',#670);
#207=VERTEX_POINT('',#673);
#208=VERTEX_POINT('',#676);
#209=VERTEX_POINT('',#680);
#210=VERTEX_POINT('',#684);
#211=VERTEX_POINT('',#688);
#212=VERTEX_POINT('',#689);
#213=VERTEX_POINT('',#691);
#214=VERTEX_POINT('',#693);
#215=VERTEX_POINT('',#695);
#216=VERTEX_POINT('',#699);
#217=VERTEX_POINT('',#701);
#218=VERTEX_POINT('',#703);
#219=VERTEX_POINT('',#705);
#220=VERTEX_POINT('',#708);
#221=VERTEX_POINT('',#710);
#222=VERTEX_POINT('',#714);
#223=VERTEX_POINT('',#718);
#224=VERTEX_POINT('',#720);
#225=VERTEX_POINT('',#722);
#226=VERTEX_POINT('',#725);
#227=VERTEX_POINT('',#727);
#228=VERTEX_POINT('',#729);
#229=VERTEX_POINT('',#731);
#230=VERTEX_POINT('',#735);
#231=VERTEX_POINT('',#739);
#232=VERTEX_POINT('',#742);
#233=VERTEX_POINT('',#743);
#234=VERTEX_POINT('',#751);
#235=VERTEX_POINT('',#753);
#236=VERTEX_POINT('',#759);
#237=VERTEX_POINT('',#766);
#238=VERTEX_POINT('',#767);
#239=VERTEX_POINT('',#769);
#240=VERTEX_POINT('',#771);
#241=VERTEX_POINT('',#778);
#242=VERTEX_POINT('',#780);
#243=EDGE_CURVE('',#201,#201,#173,.T.);
#244=EDGE_CURVE('',#201,#202,#101,.T.);
#245=EDGE_CURVE('',#202,#202,#174,.T.);
#246=EDGE_CURVE('',#203,#204,#102,.T.);
#247=EDGE_CURVE('',#203,#205,#103,.T.);
#248=EDGE_CURVE('',#206,#205,#104,.T.);
#249=EDGE_CURVE('',#206,#204,#105,.T.);
#250=EDGE_CURVE('',#207,#207,#175,.T.);
#251=EDGE_CURVE('',#202,#208,#106,.T.);
#252=EDGE_CURVE('',#208,#208,#176,.T.);
#253=EDGE_CURVE('',#207,#209,#107,.T.);
#254=EDGE_CURVE('',#209,#209,#177,.T.);
#255=EDGE_CURVE('',#209,#210,#108,.T.);
#256=EDGE_CURVE('',#210,#210,#178,.T.);
#257=EDGE_CURVE('',#211,#212,#179,.T.);
#258=EDGE_CURVE('',#212,#213,#109,.T.);
#259=EDGE_CURVE('',#213,#214,#180,.T.);
#260=EDGE_CURVE('',#214,#215,#181,.T.);
#261=EDGE_CURVE('',#215,#211,#110,.T.);
#262=EDGE_CURVE('',#216,#213,#111,.T.);
#263=EDGE_CURVE('',#217,#216,#182,.T.);
#264=EDGE_CURVE('',#217,#218,#112,.T.);
#265=EDGE_CURVE('',#218,#219,#113,.T.);
#266=EDGE_CURVE('',#219,#205,#183,.F.);
#267=EDGE_CURVE('',#220,#203,#184,.T.);
#268=EDGE_CURVE('',#220,#221,#114,.T.);
#269=EDGE_CURVE('',#221,#214,#115,.T.);
#270=EDGE_CURVE('',#212,#222,#116,.T.);
#271=EDGE_CURVE('',#216,#222,#117,.T.);
#272=EDGE_CURVE('',#223,#211,#118,.T.);
#273=EDGE_CURVE('',#224,#223,#119,.T.);
#274=EDGE_CURVE('',#224,#225,#120,.T.);
#275=EDGE_CURVE('',#204,#225,#185,.T.);
#276=EDGE_CURVE('',#226,#206,#186,.T.);
#277=EDGE_CURVE('',#227,#226,#121,.T.);
#278=EDGE_CURVE('',#228,#227,#122,.T.);
#279=EDGE_CURVE('',#228,#229,#123,.T.);
#280=EDGE_CURVE('',#222,#229,#187,.T.);
#281=EDGE_CURVE('',#229,#230,#124,.T.);
#282=EDGE_CURVE('',#230,#217,#188,.T.);
#283=EDGE_CURVE('',#231,#228,#189,.T.);
#284=EDGE_CURVE('',#231,#230,#125,.T.);
#285=EDGE_CURVE('',#232,#233,#190,.T.);
#286=EDGE_CURVE('',#233,#232,#191,.T.);
#287=EDGE_CURVE('',#225,#220,#126,.T.);
#288=EDGE_CURVE('',#219,#226,#127,.T.);
#289=EDGE_CURVE('',#232,#234,#128,.T.);
#290=EDGE_CURVE('',#235,#234,#192,.T.);
#291=EDGE_CURVE('',#233,#235,#129,.T.);
#292=EDGE_CURVE('',#234,#235,#193,.T.);
#293=EDGE_CURVE('',#231,#236,#130,.T.);
#294=EDGE_CURVE('',#219,#236,#131,.T.);
#295=EDGE_CURVE('',#236,#227,#194,.T.);
#296=EDGE_CURVE('',#237,#238,#195,.T.);
#297=EDGE_CURVE('',#238,#239,#132,.T.);
#298=EDGE_CURVE('',#240,#239,#196,.T.);
#299=EDGE_CURVE('',#237,#240,#133,.T.);
#300=EDGE_CURVE('',#238,#237,#197,.T.);
#301=EDGE_CURVE('',#239,#240,#198,.T.);
#302=EDGE_CURVE('',#241,#220,#134,.T.);
#303=EDGE_CURVE('',#241,#242,#135,.T.);
#304=EDGE_CURVE('',#215,#242,#136,.T.);
#305=EDGE_CURVE('',#241,#224,#199,.T.);
#306=EDGE_CURVE('',#242,#223,#200,.T.);
#307=ORIENTED_EDGE('',*,*,#243,.T.);
#308=ORIENTED_EDGE('',*,*,#244,.T.);
#309=ORIENTED_EDGE('',*,*,#245,.T.);
#310=ORIENTED_EDGE('',*,*,#244,.F.);
#311=ORIENTED_EDGE('',*,*,#246,.F.);
#312=ORIENTED_EDGE('',*,*,#247,.T.);
#313=ORIENTED_EDGE('',*,*,#248,.F.);
#314=ORIENTED_EDGE('',*,*,#249,.T.);
#315=ORIENTED_EDGE('',*,*,#250,.F.);
#316=ORIENTED_EDGE('',*,*,#243,.F.);
#317=ORIENTED_EDGE('',*,*,#245,.F.);
#318=ORIENTED_EDGE('',*,*,#251,.T.);
#319=ORIENTED_EDGE('',*,*,#252,.F.);
#320=ORIENTED_EDGE('',*,*,#251,.F.);
#321=ORIENTED_EDGE('',*,*,#250,.T.);
#322=ORIENTED_EDGE('',*,*,#253,.T.);
#323=ORIENTED_EDGE('',*,*,#254,.T.);
#324=ORIENTED_EDGE('',*,*,#253,.F.);
#325=ORIENTED_EDGE('',*,*,#254,.F.);
#326=ORIENTED_EDGE('',*,*,#255,.T.);
#327=ORIENTED_EDGE('',*,*,#256,.F.);
#328=ORIENTED_EDGE('',*,*,#255,.F.);
#329=ORIENTED_EDGE('',*,*,#257,.T.);
#330=ORIENTED_EDGE('',*,*,#258,.T.);
#331=ORIENTED_EDGE('',*,*,#259,.T.);
#332=ORIENTED_EDGE('',*,*,#260,.T.);
#333=ORIENTED_EDGE('',*,*,#261,.T.);
#334=ORIENTED_EDGE('',*,*,#259,.F.);
#335=ORIENTED_EDGE('',*,*,#262,.F.);
#336=ORIENTED_EDGE('',*,*,#263,.F.);
#337=ORIENTED_EDGE('',*,*,#264,.T.);
#338=ORIENTED_EDGE('',*,*,#265,.T.);
#339=ORIENTED_EDGE('',*,*,#266,.T.);
#340=ORIENTED_EDGE('',*,*,#247,.F.);
#341=ORIENTED_EDGE('',*,*,#267,.F.);
#342=ORIENTED_EDGE('',*,*,#268,.T.);
#343=ORIENTED_EDGE('',*,*,#269,.T.);
#344=ORIENTED_EDGE('',*,*,#258,.F.);
#345=ORIENTED_EDGE('',*,*,#270,.T.);
#346=ORIENTED_EDGE('',*,*,#271,.F.);
#347=ORIENTED_EDGE('',*,*,#262,.T.);
#348=ORIENTED_EDGE('',*,*,#256,.T.);
#349=ORIENTED_EDGE('',*,*,#252,.T.);
#350=ORIENTED_EDGE('',*,*,#257,.F.);
#351=ORIENTED_EDGE('',*,*,#272,.F.);
#352=ORIENTED_EDGE('',*,*,#273,.F.);
#353=ORIENTED_EDGE('',*,*,#274,.T.);
#354=ORIENTED_EDGE('',*,*,#275,.F.);
#355=ORIENTED_EDGE('',*,*,#249,.F.);
#356=ORIENTED_EDGE('',*,*,#276,.F.);
#357=ORIENTED_EDGE('',*,*,#277,.F.);
#358=ORIENTED_EDGE('',*,*,#278,.F.);
#359=ORIENTED_EDGE('',*,*,#279,.T.);
#360=ORIENTED_EDGE('',*,*,#280,.F.);
#361=ORIENTED_EDGE('',*,*,#270,.F.);
#362=ORIENTED_EDGE('',*,*,#263,.T.);
#363=ORIENTED_EDGE('',*,*,#271,.T.);
#364=ORIENTED_EDGE('',*,*,#280,.T.);
#365=ORIENTED_EDGE('',*,*,#281,.T.);
#366=ORIENTED_EDGE('',*,*,#282,.T.);
#367=ORIENTED_EDGE('',*,*,#281,.F.);
#368=ORIENTED_EDGE('',*,*,#279,.F.);
#369=ORIENTED_EDGE('',*,*,#283,.F.);
#370=ORIENTED_EDGE('',*,*,#284,.T.);
#371=ORIENTED_EDGE('',*,*,#285,.F.);
#372=ORIENTED_EDGE('',*,*,#286,.F.);
#373=ORIENTED_EDGE('',*,*,#267,.T.);
#374=ORIENTED_EDGE('',*,*,#246,.T.);
#375=ORIENTED_EDGE('',*,*,#275,.T.);
#376=ORIENTED_EDGE('',*,*,#287,.T.);
#377=ORIENTED_EDGE('',*,*,#266,.F.);
#378=ORIENTED_EDGE('',*,*,#288,.T.);
#379=ORIENTED_EDGE('',*,*,#276,.T.);
#380=ORIENTED_EDGE('',*,*,#248,.T.);
#381=ORIENTED_EDGE('',*,*,#286,.T.);
#382=ORIENTED_EDGE('',*,*,#289,.T.);
#383=ORIENTED_EDGE('',*,*,#290,.F.);
#384=ORIENTED_EDGE('',*,*,#291,.F.);
#385=ORIENTED_EDGE('',*,*,#285,.T.);
#386=ORIENTED_EDGE('',*,*,#291,.T.);
#387=ORIENTED_EDGE('',*,*,#292,.F.);
#388=ORIENTED_EDGE('',*,*,#289,.F.);
#389=ORIENTED_EDGE('',*,*,#282,.F.);
#390=ORIENTED_EDGE('',*,*,#284,.F.);
#391=ORIENTED_EDGE('',*,*,#293,.T.);
#392=ORIENTED_EDGE('',*,*,#294,.F.);
#393=ORIENTED_EDGE('',*,*,#265,.F.);
#394=ORIENTED_EDGE('',*,*,#264,.F.);
#395=ORIENTED_EDGE('',*,*,#283,.T.);
#396=ORIENTED_EDGE('',*,*,#278,.T.);
#397=ORIENTED_EDGE('',*,*,#295,.F.);
#398=ORIENTED_EDGE('',*,*,#293,.F.);
#399=ORIENTED_EDGE('',*,*,#288,.F.);
#400=ORIENTED_EDGE('',*,*,#294,.T.);
#401=ORIENTED_EDGE('',*,*,#295,.T.);
#402=ORIENTED_EDGE('',*,*,#277,.T.);
#403=ORIENTED_EDGE('',*,*,#292,.T.);
#404=ORIENTED_EDGE('',*,*,#290,.T.);
#405=ORIENTED_EDGE('',*,*,#296,.T.);
#406=ORIENTED_EDGE('',*,*,#297,.T.);
#407=ORIENTED_EDGE('',*,*,#298,.F.);
#408=ORIENTED_EDGE('',*,*,#299,.F.);
#409=ORIENTED_EDGE('',*,*,#300,.T.);
#410=ORIENTED_EDGE('',*,*,#299,.T.);
#411=ORIENTED_EDGE('',*,*,#301,.F.);
#412=ORIENTED_EDGE('',*,*,#297,.F.);
#413=ORIENTED_EDGE('',*,*,#260,.F.);
#414=ORIENTED_EDGE('',*,*,#269,.F.);
#415=ORIENTED_EDGE('',*,*,#268,.F.);
#416=ORIENTED_EDGE('',*,*,#302,.F.);
#417=ORIENTED_EDGE('',*,*,#303,.T.);
#418=ORIENTED_EDGE('',*,*,#304,.F.);
#419=ORIENTED_EDGE('',*,*,#305,.T.);
#420=ORIENTED_EDGE('',*,*,#273,.T.);
#421=ORIENTED_EDGE('',*,*,#306,.F.);
#422=ORIENTED_EDGE('',*,*,#303,.F.);
#423=ORIENTED_EDGE('',*,*,#261,.F.);
#424=ORIENTED_EDGE('',*,*,#304,.T.);
#425=ORIENTED_EDGE('',*,*,#306,.T.);
#426=ORIENTED_EDGE('',*,*,#272,.T.);
#427=ORIENTED_EDGE('',*,*,#301,.T.);
#428=ORIENTED_EDGE('',*,*,#298,.T.);
#429=ORIENTED_EDGE('',*,*,#287,.F.);
#430=ORIENTED_EDGE('',*,*,#274,.F.);
#431=ORIENTED_EDGE('',*,*,#305,.F.);
#432=ORIENTED_EDGE('',*,*,#302,.T.);
#433=ORIENTED_EDGE('',*,*,#300,.F.);
#434=ORIENTED_EDGE('',*,*,#296,.F.);
#435=CONICAL_SURFACE('',#463,2.5,0.785398163397448);
#436=CONICAL_SURFACE('',#470,2.5,0.785398163397448);
#437=ADVANCED_FACE('',(#45),#435,.F.);
#438=ADVANCED_FACE('',(#46,#27,#28),#35,.F.);
#439=ADVANCED_FACE('',(#47),#15,.F.);
#440=ADVANCED_FACE('',(#48),#436,.F.);
#441=ADVANCED_FACE('',(#49),#16,.F.);
#442=ADVANCED_FACE('',(#50),#17,.T.);
#443=ADVANCED_FACE('',(#51),#36,.F.);
#444=ADVANCED_FACE('',(#52,#29,#30),#37,.T.);
#445=ADVANCED_FACE('',(#53),#38,.T.);
#446=ADVANCED_FACE('',(#54),#18,.T.);
#447=ADVANCED_FACE('',(#55,#31),#39,.F.);
#448=ADVANCED_FACE('',(#56),#19,.F.);
#449=ADVANCED_FACE('',(#57),#20,.F.);
#450=ADVANCED_FACE('',(#58),#21,.F.);
#451=ADVANCED_FACE('',(#59),#22,.F.);
#452=ADVANCED_FACE('',(#60),#40,.T.);
#453=ADVANCED_FACE('',(#61),#23,.T.);
#454=ADVANCED_FACE('',(#62,#32),#41,.T.);
#455=ADVANCED_FACE('',(#63),#24,.F.);
#456=ADVANCED_FACE('',(#64),#25,.F.);
#457=ADVANCED_FACE('',(#65),#42,.T.);
#458=ADVANCED_FACE('',(#66),#26,.T.);
#459=ADVANCED_FACE('',(#67,#33),#43,.T.);
#460=ADVANCED_FACE('',(#68,#34),#44,.F.);
#461=CLOSED_SHELL('',(#437,#438,#439,#440,#441,#442,#443,#444,#445,#446,
#447,#448,#449,#450,#451,#452,#453,#454,#455,#456,#457,#458,#459,#460));
#462=AXIS2_PLACEMENT_3D('',#657,#515,#516);
#463=AXIS2_PLACEMENT_3D('',#658,#517,#518);
#464=AXIS2_PLACEMENT_3D('',#660,#519,#520);
#465=AXIS2_PLACEMENT_3D('',#663,#522,#523);
#466=AXIS2_PLACEMENT_3D('',#664,#524,#525);
#467=AXIS2_PLACEMENT_3D('',#674,#530,#531);
#468=AXIS2_PLACEMENT_3D('',#675,#532,#533);
#469=AXIS2_PLACEMENT_3D('',#678,#535,#536);
#470=AXIS2_PLACEMENT_3D('',#679,#537,#538);
#471=AXIS2_PLACEMENT_3D('',#682,#540,#541);
#472=AXIS2_PLACEMENT_3D('',#683,#542,#543);
#473=AXIS2_PLACEMENT_3D('',#686,#545,#546);
#474=AXIS2_PLACEMENT_3D('',#687,#547,#548);
#475=AXIS2_PLACEMENT_3D('',#690,#549,#550);
#476=AXIS2_PLACEMENT_3D('',#694,#552,#553);
#477=AXIS2_PLACEMENT_3D('',#696,#554,#555);
#478=AXIS2_PLACEMENT_3D('',#698,#557,#558);
#479=AXIS2_PLACEMENT_3D('',#702,#560,#561);
#480=AXIS2_PLACEMENT_3D('',#707,#564,#565);
#481=AXIS2_PLACEMENT_3D('',#709,#566,#567);
#482=AXIS2_PLACEMENT_3D('',#713,#570,#571);
#483=AXIS2_PLACEMENT_3D('',#717,#574,#575);
#484=AXIS2_PLACEMENT_3D('',#724,#579,#580);
#485=AXIS2_PLACEMENT_3D('',#726,#581,#582);
#486=AXIS2_PLACEMENT_3D('',#733,#586,#587);
#487=AXIS2_PLACEMENT_3D('',#734,#588,#589);
#488=AXIS2_PLACEMENT_3D('',#737,#591,#592);
#489=AXIS2_PLACEMENT_3D('',#738,#593,#594);
#490=AXIS2_PLACEMENT_3D('',#740,#595,#596);
#491=AXIS2_PLACEMENT_3D('',#744,#598,#599);
#492=AXIS2_PLACEMENT_3D('',#745,#600,#601);
#493=AXIS2_PLACEMENT_3D('',#746,#602,#603);
#494=AXIS2_PLACEMENT_3D('',#748,#605,#606);
#495=AXIS2_PLACEMENT_3D('',#750,#608,#609);
#496=AXIS2_PLACEMENT_3D('',#754,#611,#612);
#497=AXIS2_PLACEMENT_3D('',#756,#614,#615);
#498=AXIS2_PLACEMENT_3D('',#757,#616,#617);
#499=AXIS2_PLACEMENT_3D('',#758,#618,#619);
#500=AXIS2_PLACEMENT_3D('',#762,#622,#623);
#501=AXIS2_PLACEMENT_3D('',#763,#624,#625);
#502=AXIS2_PLACEMENT_3D('',#764,#626,#627);
#503=AXIS2_PLACEMENT_3D('',#765,#628,#629);
#504=AXIS2_PLACEMENT_3D('',#768,#630,#631);
#505=AXIS2_PLACEMENT_3D('',#772,#633,#634);
#506=AXIS2_PLACEMENT_3D('',#774,#636,#637);
#507=AXIS2_PLACEMENT_3D('',#775,#638,#639);
#508=AXIS2_PLACEMENT_3D('',#776,#640,#641);
#509=AXIS2_PLACEMENT_3D('',#777,#642,#643);
#510=AXIS2_PLACEMENT_3D('',#783,#647,#648);
#511=AXIS2_PLACEMENT_3D('',#784,#649,#650);
#512=AXIS2_PLACEMENT_3D('',#785,#651,#652);
#513=AXIS2_PLACEMENT_3D('',#786,#653,#654);
#514=AXIS2_PLACEMENT_3D('',#787,#655,#656);
#515=DIRECTION('axis',(0.,0.,1.));
#516=DIRECTION('refdir',(1.,0.,0.));
#517=DIRECTION('center_axis',(-0.342020143325669,0.,0.939692620785908));
#518=DIRECTION('ref_axis',(-0.939692620785909,0.,-0.342020143325669));
#519=DIRECTION('center_axis',(-0.342020143325669,0.,0.939692620785908));
#520=DIRECTION('ref_axis',(-0.939692620785908,0.,-0.342020143325669));
#521=DIRECTION('',(-0.422618261740699,-8.65956056235493E-17,-0.90630778703665));
#522=DIRECTION('center_axis',(0.342020143325669,0.,-0.939692620785908));
#523=DIRECTION('ref_axis',(-0.939692620785908,0.,-0.342020143325669));
#524=DIRECTION('center_axis',(0.342020143325669,0.,-0.939692620785908));
#525=DIRECTION('ref_axis',(0.,-1.,0.));
#526=DIRECTION('',(-0.939692620785909,0.,-0.342020143325669));
#527=DIRECTION('',(0.,1.,0.));
#528=DIRECTION('',(0.939692620785909,0.,0.342020143325669));
#529=DIRECTION('',(0.,-1.,0.));
#530=DIRECTION('center_axis',(-0.342020143325669,0.,0.939692620785908));
#531=DIRECTION('ref_axis',(-0.939692620785908,0.,-0.342020143325669));
#532=DIRECTION('center_axis',(0.342020143325669,0.,-0.939692620785908));
#533=DIRECTION('ref_axis',(-0.939692620785908,0.,-0.342020143325669));
#534=DIRECTION('',(0.342020143325669,0.,-0.939692620785908));
#535=DIRECTION('center_axis',(-0.342020143325669,0.,0.939692620785908));
#536=DIRECTION('ref_axis',(-0.939692620785908,0.,-0.342020143325669));
#537=DIRECTION('center_axis',(-0.342020143325669,0.,0.939692620785908));
#538=DIRECTION('ref_axis',(-0.939692620785909,0.,-0.342020143325669));
#539=DIRECTION('',(-0.422618261740699,-8.65956056235493E-17,-0.90630778703665));
#540=DIRECTION('center_axis',(0.342020143325669,0.,-0.939692620785908));
#541=DIRECTION('ref_axis',(-0.939692620785908,0.,-0.342020143325669));
#542=DIRECTION('center_axis',(0.342020143325669,0.,-0.939692620785908));
#543=DIRECTION('ref_axis',(-0.939692620785908,0.,-0.342020143325669));
#544=DIRECTION('',(0.342020143325669,0.,-0.939692620785908));
#545=DIRECTION('center_axis',(-0.342020143325669,0.,0.939692620785908));
#546=DIRECTION('ref_axis',(-0.939692620785908,0.,-0.342020143325669));
#547=DIRECTION('center_axis',(-0.939692620785908,0.,-0.342020143325669));
#548=DIRECTION('ref_axis',(0.241844762647975,-0.707106781186548,-0.664463024388674));
#549=DIRECTION('center_axis',(0.939692620785908,0.,0.342020143325669));
#550=DIRECTION('ref_axis',(0.241844762647975,-0.707106781186548,-0.664463024388674));
#551=DIRECTION('',(0.939692620785909,0.,0.342020143325669));
#552=DIRECTION('center_axis',(-0.939692620785908,0.,-0.342020143325669));
#553=DIRECTION('ref_axis',(0.241844762647975,-0.707106781186548,-0.664463024388674));
#554=DIRECTION('center_axis',(-0.939692612755064,0.,-0.342020165390232));
#555=DIRECTION('ref_axis',(0.241844778249977,-0.707106781186548,-0.66446301871001));
#556=DIRECTION('',(-0.939692620785909,0.,-0.342020143325669));
#557=DIRECTION('center_axis',(-0.939692620785908,0.,-0.342020143325669));
#558=DIRECTION('ref_axis',(0.342020143325669,0.,-0.939692620785909));
#559=DIRECTION('',(0.,-1.,0.));
#560=DIRECTION('center_axis',(-0.939692620785908,0.,-0.342020143325669));
#561=DIRECTION('ref_axis',(0.241844762647975,0.707106781186547,-0.664463024388675));
#562=DIRECTION('',(0.,-1.,0.));
#563=DIRECTION('',(-0.342020165390232,0.,0.939692612755064));
#564=DIRECTION('center_axis',(0.939692620785908,0.,0.342020143325669));
#565=DIRECTION('ref_axis',(0.241844762647975,0.707106781186549,-0.664463024388674));
#566=DIRECTION('center_axis',(0.939692620785908,0.,0.342020143325669));
#567=DIRECTION('ref_axis',(0.241844762647976,-0.707106781186547,-0.664463024388676));
#568=DIRECTION('',(0.342020165390232,0.,-0.939692612755064));
#569=DIRECTION('',(0.,-1.,0.));
#570=DIRECTION('center_axis',(0.342020143325669,0.,-0.939692620785908));
#571=DIRECTION('ref_axis',(0.,-1.,0.));
#572=DIRECTION('',(0.,1.,0.));
#573=DIRECTION('',(-0.939692620785909,0.,-0.342020143325669));
#574=DIRECTION('center_axis',(-0.939692620785908,0.,-0.342020143325669));
#575=DIRECTION('ref_axis',(0.342020143325669,0.,-0.939692620785909));
#576=DIRECTION('',(0.342020143325669,0.,-0.939692620785909));
#577=DIRECTION('',(0.,-1.,0.));
#578=DIRECTION('',(0.342020143325669,0.,-0.939692620785909));
#579=DIRECTION('center_axis',(-0.939692620785908,0.,-0.342020143325669));
#580=DIRECTION('ref_axis',(0.241844762647976,-0.707106781186547,-0.664463024388676));
#581=DIRECTION('center_axis',(-0.939692620785908,0.,-0.342020143325669));
#582=DIRECTION('ref_axis',(0.241844762647975,0.707106781186549,-0.664463024388674));
#583=DIRECTION('',(0.342020143325669,0.,-0.939692620785909));
#584=DIRECTION('',(0.,-1.,0.));
#585=DIRECTION('',(0.342020143325669,0.,-0.939692620785909));
#586=DIRECTION('center_axis',(0.939692620785908,0.,0.342020143325669));
#587=DIRECTION('ref_axis',(0.241844762647975,0.707106781186547,-0.664463024388675));
#588=DIRECTION('center_axis',(0.939692620785908,0.,0.342020143325669));
#589=DIRECTION('ref_axis',(0.241844762647975,0.707106781186547,-0.664463024388675));
#590=DIRECTION('',(0.939692620785909,0.,0.342020143325669));
#591=DIRECTION('center_axis',(-0.939692612755064,0.,-0.342020165390232));
#592=DIRECTION('ref_axis',(0.241844778249978,0.707106781186547,-0.664463018710011));
#593=DIRECTION('center_axis',(0.,-1.,0.));
#594=DIRECTION('ref_axis',(0.939692620785909,0.,0.342020143325669));
#595=DIRECTION('center_axis',(0.,-1.,0.));
#596=DIRECTION('ref_axis',(0.939692620785908,0.,0.342020143325669));
#597=DIRECTION('',(0.342020165390232,0.,-0.939692612755064));
#598=DIRECTION('center_axis',(0.,1.,0.));
#599=DIRECTION('ref_axis',(0.342020143325669,0.,-0.939692620785909));
#600=DIRECTION('center_axis',(0.,1.,0.));
#601=DIRECTION('ref_axis',(0.939692620785908,0.,0.342020143325669));
#602=DIRECTION('center_axis',(-0.939692620785908,0.,-0.342020143325669));
#603=DIRECTION('ref_axis',(0.241844762647976,-0.707106781186547,-0.664463024388676));
#604=DIRECTION('',(0.939692620785909,0.,0.342020143325669));
#605=DIRECTION('center_axis',(0.939692620785908,0.,0.342020143325669));
#606=DIRECTION('ref_axis',(0.241844762647975,0.707106781186549,-0.664463024388674));
#607=DIRECTION('',(-0.939692620785909,0.,-0.342020143325669));
#608=DIRECTION('center_axis',(0.,-1.,0.));
#609=DIRECTION('ref_axis',(-0.939692554531407,0.,-0.342020325358361));
#610=DIRECTION('',(0.,-1.,0.));
#611=DIRECTION('center_axis',(0.,1.,0.));
#612=DIRECTION('ref_axis',(0.939692620785908,0.,0.342020143325669));
#613=DIRECTION('',(0.,-1.,0.));
#614=DIRECTION('center_axis',(0.,-1.,0.));
#615=DIRECTION('ref_axis',(0.342020143325669,0.,-0.939692620785909));
#616=DIRECTION('center_axis',(0.,1.,0.));
#617=DIRECTION('ref_axis',(0.342020143325669,0.,-0.939692620785909));
#618=DIRECTION('center_axis',(0.939692612755064,0.,0.342020165390232));
#619=DIRECTION('ref_axis',(-0.342020165390232,0.,0.939692612755064));
#620=DIRECTION('',(0.,-1.,0.));
#621=DIRECTION('',(-0.342020165390232,0.,0.939692612755064));
#622=DIRECTION('center_axis',(0.,-1.,0.));
#623=DIRECTION('ref_axis',(0.939692620785908,0.,0.342020143325669));
#624=DIRECTION('center_axis',(0.,-1.,0.));
#625=DIRECTION('ref_axis',(0.939692620785908,0.,0.342020143325669));
#626=DIRECTION('center_axis',(0.,-1.,0.));
#627=DIRECTION('ref_axis',(0.939692620785909,0.,0.342020143325669));
#628=DIRECTION('center_axis',(0.,-1.,0.));
#629=DIRECTION('ref_axis',(-0.939692554531407,0.,-0.342020325358361));
#630=DIRECTION('center_axis',(0.,1.,0.));
#631=DIRECTION('ref_axis',(0.939692620785908,0.,0.342020143325669));
#632=DIRECTION('',(0.,-1.,0.));
#633=DIRECTION('center_axis',(0.,1.,0.));
#634=DIRECTION('ref_axis',(0.939692620785908,0.,0.342020143325669));
#635=DIRECTION('',(0.,-1.,0.));
#636=DIRECTION('center_axis',(0.,-1.,0.));
#637=DIRECTION('ref_axis',(0.342020143325669,0.,-0.939692620785909));
#638=DIRECTION('center_axis',(0.,1.,0.));
#639=DIRECTION('ref_axis',(0.342020143325669,0.,-0.939692620785909));
#640=DIRECTION('center_axis',(0.,1.,0.));
#641=DIRECTION('ref_axis',(0.342020143325669,0.,-0.939692620785909));
#642=DIRECTION('center_axis',(0.939692612755064,0.,0.342020165390232));
#643=DIRECTION('ref_axis',(-0.342020165390232,0.,0.939692612755064));
#644=DIRECTION('',(0.342020165390232,0.,-0.939692612755064));
#645=DIRECTION('',(0.,-1.,0.));
#646=DIRECTION('',(-0.342020165390232,0.,0.939692612755064));
#647=DIRECTION('center_axis',(0.,-1.,0.));
#648=DIRECTION('ref_axis',(0.939692620785908,0.,0.342020143325669));
#649=DIRECTION('center_axis',(0.,-1.,0.));
#650=DIRECTION('ref_axis',(0.939692620785908,0.,0.342020143325669));
#651=DIRECTION('center_axis',(0.,-1.,0.));
#652=DIRECTION('ref_axis',(0.939692620785908,0.,0.342020143325669));
#653=DIRECTION('center_axis',(0.,-1.,0.));
#654=DIRECTION('ref_axis',(0.939692620785909,0.,0.342020143325669));
#655=DIRECTION('center_axis',(0.,-1.,0.));
#656=DIRECTION('ref_axis',(0.939692620785909,0.,0.342020143325669));
#657=CARTESIAN_POINT('',(0.,0.,0.));
#658=CARTESIAN_POINT('Origin',(40.4023194740195,-33.0000004917383,-24.5498661763885));
#659=CARTESIAN_POINT('',(43.0503872647144,-33.0000004917383,-23.0539594360185));
#660=CARTESIAN_POINT('Origin',(40.2313094023567,-33.0000004917383,-24.0800198659955));
#661=CARTESIAN_POINT('',(42.4527147872542,-33.0000004917383,-24.3356722001301));
#662=CARTESIAN_POINT('',(42.7515510259843,-33.0000004917383,-23.6948158180743));
#663=CARTESIAN_POINT('Origin',(40.5733295456824,-33.0000004917383,-25.0197124867815));
#664=CARTESIAN_POINT('Origin',(40.2313094023567,-7.45058059692383E-7,-24.0800198659955));
#665=CARTESIAN_POINT('',(47.9837735238405,-48.0000007450581,-21.2583536835588));
#666=CARTESIAN_POINT('',(32.478845280873,-48.0000007450581,-26.9016860484323));
#667=CARTESIAN_POINT('',(40.2313098519222,-48.0000007450581,-24.0800197023671));
#668=CARTESIAN_POINT('',(47.9837735238405,47.9999992549419,-21.2583536835588));
#669=CARTESIAN_POINT('',(47.9837735238405,-7.45058059692383E-7,-21.2583536835588));
#670=CARTESIAN_POINT('',(32.478845280873,47.9999992549419,-26.9016860484323));
#671=CARTESIAN_POINT('',(40.2313098519222,47.9999992549419,-24.0800197023671));
#672=CARTESIAN_POINT('',(32.478845280873,-7.45058059692383E-7,-26.9016860484323));
#673=CARTESIAN_POINT('',(43.0503872647144,33.0000004917383,-23.0539594360185));
#674=CARTESIAN_POINT('Origin',(40.2313094023567,33.0000004917383,-24.0800198659955));
#675=CARTESIAN_POINT('Origin',(40.2313094023567,-33.0000004917383,-24.0800198659955));
#676=CARTESIAN_POINT('',(43.1367550739055,-33.0000004917383,-26.2150574417019));
#677=CARTESIAN_POINT('',(42.1106946439285,-33.0000004917383,-23.3959795793442));
#678=CARTESIAN_POINT('Origin',(41.2573698323337,-33.0000004917383,-26.8990977283533));
#679=CARTESIAN_POINT('Origin',(40.4023194740195,33.0000004917383,-24.5498661763885));
#680=CARTESIAN_POINT('',(42.4527147872542,33.0000004917383,-24.3356722001301));
#681=CARTESIAN_POINT('',(42.7515510259843,33.0000004917383,-23.6948158180743));
#682=CARTESIAN_POINT('Origin',(40.5733295456824,33.0000004917383,-25.0197124867815));
#683=CARTESIAN_POINT('Origin',(40.2313094023567,33.0000004917383,-24.0800198659955));
#684=CARTESIAN_POINT('',(43.1367550739055,33.0000004917383,-26.2150574417019));
#685=CARTESIAN_POINT('',(42.1106946439285,33.0000004917383,-23.3959795793442));
#686=CARTESIAN_POINT('Origin',(41.2573698323337,33.0000004917383,-26.8990977283533));
#687=CARTESIAN_POINT('Origin',(39.2052494219452,-48.000000745058,-21.2609418400094));
#688=CARTESIAN_POINT('',(31.452784850896,-54.0000007450581,-24.0826081860746));
#689=CARTESIAN_POINT('',(33.50490571085,-48.000000745058,-29.72076391079));
#690=CARTESIAN_POINT('Origin',(31.452784850896,-48.000000745058,-24.0826081860746));
#691=CARTESIAN_POINT('',(49.0098339538175,-48.000000745058,-24.0774315459165));
#692=CARTESIAN_POINT('',(41.2573702818992,-48.000000745058,-26.8990975647248));
#693=CARTESIAN_POINT('',(47.9837753221024,-53.1961531677647,-21.258353029045));
#694=CARTESIAN_POINT('Origin',(46.9577130938634,-48.000000745058,-18.4392758212011));
#695=CARTESIAN_POINT('',(46.9577148259317,-54.0000007450581,-18.4392751907798));
#696=CARTESIAN_POINT('Origin',(46.9577148259317,-48.000000745058,-18.4392751907798));
#697=CARTESIAN_POINT('',(39.2052494219452,-54.0000007450581,-21.2609418400094));
#698=CARTESIAN_POINT('Origin',(48.496803738829,-7.45058059692383E-7,-22.6678926147376));
#699=CARTESIAN_POINT('',(49.0098339538175,47.9999992549419,-24.0774315459165));
#700=CARTESIAN_POINT('',(49.0098339538175,-7.45058059692383E-7,-24.0774315459165));
#701=CARTESIAN_POINT('',(47.9837753221024,53.1961516776486,-21.258353029045));
#702=CARTESIAN_POINT('Origin',(46.9577130938634,47.9999992549419,-18.4392758212011));
#703=CARTESIAN_POINT('',(47.9837753221024,50.9999992549419,-21.258353029045));
#704=CARTESIAN_POINT('',(47.9837753221024,53.9999992549419,-21.258353029045));
#705=CARTESIAN_POINT('',(46.9577148259317,50.9999992549419,-18.4392751907798));
#706=CARTESIAN_POINT('',(25.7524645054828,50.9999992549419,39.8216669820668));
#707=CARTESIAN_POINT('Origin',(46.9577130938634,47.9999992549419,-18.4392758212011));
#708=CARTESIAN_POINT('',(46.9577148259317,-51.0000007450581,-18.4392751907798));
#709=CARTESIAN_POINT('Origin',(46.9577130938634,-48.0000007450581,-18.4392758212011));
#710=CARTESIAN_POINT('',(47.9837753221024,-51.0000007450581,-21.258353029045));
#711=CARTESIAN_POINT('',(25.7524645054828,-51.0000007450581,39.8216669820668));
#712=CARTESIAN_POINT('',(47.9837753221024,-51.0000007450581,-21.258353029045));
#713=CARTESIAN_POINT('Origin',(41.2573698323337,-7.45058059692383E-7,-26.8990977283533));
#714=CARTESIAN_POINT('',(33.50490571085,47.9999992549419,-29.72076391079));
#715=CARTESIAN_POINT('',(33.50490571085,-7.45058059692383E-7,-29.72076391079));
#716=CARTESIAN_POINT('',(41.2573702818992,47.9999992549419,-26.8990975647248));
#717=CARTESIAN_POINT('Origin',(10.2475359647045,-51.0000007450581,34.1783343026517));
#718=CARTESIAN_POINT('',(10.2475359647045,-54.0000007450581,34.1783343026517));
#719=CARTESIAN_POINT('',(10.2475359647045,-54.0000007450581,34.1783343026517));
#720=CARTESIAN_POINT('',(10.2475359647045,-51.0000007450581,34.1783343026517));
#721=CARTESIAN_POINT('',(10.2475359647045,-51.0000007450581,34.1783343026517));
#722=CARTESIAN_POINT('',(31.452784850896,-51.0000007450581,-24.0826081860746));
#723=CARTESIAN_POINT('',(10.2475359647045,-51.0000007450581,34.1783343026517));
#724=CARTESIAN_POINT('Origin',(31.452784850896,-48.0000007450581,-24.0826081860746));
#725=CARTESIAN_POINT('',(31.452784850896,50.9999992549419,-24.0826081860746));
#726=CARTESIAN_POINT('Origin',(31.452784850896,47.9999992549419,-24.0826081860746));
#727=CARTESIAN_POINT('',(10.2475359647045,50.9999992549419,34.1783343026517));
#728=CARTESIAN_POINT('',(10.2475359647045,50.9999992549419,34.1783343026517));
#729=CARTESIAN_POINT('',(10.2475359647045,53.9999992549419,34.1783343026517));
#730=CARTESIAN_POINT('',(10.2475359647045,53.9999992549419,34.1783343026517));
#731=CARTESIAN_POINT('',(31.452784850896,53.9999992549419,-24.0826081860746));
#732=CARTESIAN_POINT('',(10.2475359647045,53.9999992549419,34.1783343026517));
#733=CARTESIAN_POINT('Origin',(31.452784850896,47.9999992549419,-24.0826081860746));
#734=CARTESIAN_POINT('Origin',(39.2052494219452,47.9999992549419,-21.2609418400094));
#735=CARTESIAN_POINT('',(46.9577148259317,53.9999992549419,-18.4392751907798));
#736=CARTESIAN_POINT('',(39.2052494219452,53.9999992549419,-21.2609418400094));
#737=CARTESIAN_POINT('Origin',(46.9577148259317,47.9999992549419,-18.4392751907798));
#738=CARTESIAN_POINT('Origin',(27.7048225190578,53.9999992549419,10.3362227885616));
#739=CARTESIAN_POINT('',(25.7524645054828,53.9999992549419,39.8216669820668));
#740=CARTESIAN_POINT('Origin',(18.0000002682209,53.9999992549419,37.000000551343));
#741=CARTESIAN_POINT('',(25.7524645054828,53.9999992549419,39.8216669820668));
#742=CARTESIAN_POINT('',(19.3024918894285,53.9999992549419,41.8273721262004));
#743=CARTESIAN_POINT('',(22.1007424808706,53.9999992549419,34.1392464461373));
#744=CARTESIAN_POINT('Origin',(18.9396925707055,53.9999992549419,37.3420207849637));
#745=CARTESIAN_POINT('Origin',(18.0000002682209,53.9999992549419,37.000000551343));
#746=CARTESIAN_POINT('Origin',(39.2052494219452,-48.0000007450581,-21.2609418400094));
#747=CARTESIAN_POINT('',(39.2052494219452,-51.0000007450581,-21.2609418400094));
#748=CARTESIAN_POINT('Origin',(39.2052494219452,47.9999992549419,-21.2609418400094));
#749=CARTESIAN_POINT('',(39.2052494219452,50.9999992549419,-21.2609418400094));
#750=CARTESIAN_POINT('Origin',(18.0000002682209,53.9999992549419,37.000000551343));
#751=CARTESIAN_POINT('',(19.3024918894285,50.9999992549419,41.8273721262004));
#752=CARTESIAN_POINT('',(19.3024918894285,53.9999992549419,41.8273721262004));
#753=CARTESIAN_POINT('',(22.1007424808706,50.9999992549419,34.1392464461373));
#754=CARTESIAN_POINT('Origin',(18.0000002682209,50.9999992549419,37.000000551343));
#755=CARTESIAN_POINT('',(22.1007424808706,53.9999992549419,34.1392464461373));
#756=CARTESIAN_POINT('Origin',(18.9396925707055,53.9999992549419,37.3420207849637));
#757=CARTESIAN_POINT('Origin',(18.9396925707055,50.9999992549419,37.3420207849637));
#758=CARTESIAN_POINT('Origin',(47.9837753221024,53.9999992549419,-21.258353029045));
#759=CARTESIAN_POINT('',(25.7524645054828,50.9999992549419,39.8216669820668));
#760=CARTESIAN_POINT('',(25.7524645054828,53.9999992549419,39.8216669820668));
#761=CARTESIAN_POINT('',(25.7524645054828,50.9999992549419,39.8216669820668));
#762=CARTESIAN_POINT('Origin',(18.0000002682209,53.9999992549419,37.000000551343));
#763=CARTESIAN_POINT('Origin',(18.0000002682209,50.9999992549419,37.000000551343));
#764=CARTESIAN_POINT('Origin',(27.7048225190578,50.9999992549419,10.3362227885616));
#765=CARTESIAN_POINT('Origin',(18.0000002682209,-51.0000007450581,37.000000551343));
#766=CARTESIAN_POINT('',(22.1007424808706,-51.0000007450581,34.1392464461373));
#767=CARTESIAN_POINT('',(19.3024918894285,-51.0000007450581,41.8273721262004));
#768=CARTESIAN_POINT('Origin',(18.0000002682209,-51.0000007450581,37.000000551343));
#769=CARTESIAN_POINT('',(19.3024918894285,-54.0000007450581,41.8273721262004));
#770=CARTESIAN_POINT('',(19.3024918894285,-51.0000007450581,41.8273721262004));
#771=CARTESIAN_POINT('',(22.1007424808706,-54.0000007450581,34.1392464461373));
#772=CARTESIAN_POINT('Origin',(18.0000002682209,-54.0000007450581,37.000000551343));
#773=CARTESIAN_POINT('',(22.1007424808706,-51.0000007450581,34.1392464461373));
#774=CARTESIAN_POINT('Origin',(18.9396925707055,-51.0000007450581,37.3420207849637));
#775=CARTESIAN_POINT('Origin',(18.9396925707055,-51.0000007450581,37.3420207849637));
#776=CARTESIAN_POINT('Origin',(18.9396925707055,-54.0000007450581,37.3420207849637));
#777=CARTESIAN_POINT('Origin',(47.9837753221024,-51.0000007450581,-21.258353029045));
#778=CARTESIAN_POINT('',(25.7524645054828,-51.0000007450581,39.8216669820668));
#779=CARTESIAN_POINT('',(25.7524645054828,-51.0000007450581,39.8216669820668));
#780=CARTESIAN_POINT('',(25.7524645054828,-54.0000007450581,39.8216669820668));
#781=CARTESIAN_POINT('',(25.7524645054828,-51.0000007450581,39.8216669820668));
#782=CARTESIAN_POINT('',(25.7524645054828,-54.0000007450581,39.8216669820668));
#783=CARTESIAN_POINT('Origin',(18.0000002682209,-51.0000007450581,37.000000551343));
#784=CARTESIAN_POINT('Origin',(18.0000002682209,-51.0000007450581,37.000000551343));
#785=CARTESIAN_POINT('Origin',(18.0000002682209,-54.0000007450581,37.000000551343));
#786=CARTESIAN_POINT('Origin',(27.7048225190578,-54.0000007450581,10.3362227885616));
#787=CARTESIAN_POINT('Origin',(27.7048225190578,-51.0000007450581,10.3362227885616));
#788=UNCERTAINTY_MEASURE_WITH_UNIT(LENGTH_MEASURE(0.01),#792,
'DISTANCE_ACCURACY_VALUE',
'Maximum model space distance between geometric entities at asserted c
onnectivities');
#789=UNCERTAINTY_MEASURE_WITH_UNIT(LENGTH_MEASURE(0.01),#792,
'DISTANCE_ACCURACY_VALUE',
'Maximum model space distance between geometric entities at asserted c
onnectivities');
#790=(
GEOMETRIC_REPRESENTATION_CONTEXT(3)
GLOBAL_UNCERTAINTY_ASSIGNED_CONTEXT((#788))
GLOBAL_UNIT_ASSIGNED_CONTEXT((#792,#793,#794))
REPRESENTATION_CONTEXT('','3D')
);
#791=(
GEOMETRIC_REPRESENTATION_CONTEXT(3)
GLOBAL_UNCERTAINTY_ASSIGNED_CONTEXT((#789))
GLOBAL_UNIT_ASSIGNED_CONTEXT((#792,#793,#794))
REPRESENTATION_CONTEXT('','3D')
);
#792=(
LENGTH_UNIT()
NAMED_UNIT(*)
SI_UNIT(.MILLI.,.METRE.)
);
#793=(
NAMED_UNIT(*)
PLANE_ANGLE_UNIT()
SI_UNIT($,.RADIAN.)
);
#794=(
NAMED_UNIT(*)
SI_UNIT($,.STERADIAN.)
SOLID_ANGLE_UNIT()
);
#795=SHAPE_DEFINITION_REPRESENTATION(#796,#797);
#796=PRODUCT_DEFINITION_SHAPE('',$,#799);
#797=SHAPE_REPRESENTATION('',(#462),#790);
#798=PRODUCT_DEFINITION_CONTEXT('part definition',#803,'design');
#799=PRODUCT_DEFINITION('None','Fume extractor v14',#800,#798);
#800=PRODUCT_DEFINITION_FORMATION('',$,#805);
#801=PRODUCT_RELATED_PRODUCT_CATEGORY('Fume extractor v14',
'Fume extractor v14',(#805));
#802=APPLICATION_PROTOCOL_DEFINITION('international standard',
'automotive_design',2009,#803);
#803=APPLICATION_CONTEXT(
'Core Data for Automotive Mechanical Design Process');
#804=PRODUCT_CONTEXT('part definition',#803,'mechanical');
#805=PRODUCT('None','Fume extractor v14','STEP AP203',(#804));
#806=PRESENTATION_STYLE_ASSIGNMENT((#807));
#807=SURFACE_STYLE_USAGE(.BOTH.,#808);
#808=SURFACE_SIDE_STYLE('',(#809));
#809=SURFACE_STYLE_FILL_AREA(#810);
#810=FILL_AREA_STYLE('Acciaio - Satinato',(#811));
#811=FILL_AREA_STYLE_COLOUR('Acciaio - Satinato',#812);
#812=COLOUR_RGB('Acciaio - Satinato',0.627450980392157,0.627450980392157,
0.627450980392157);
ENDSEC;
END-ISO-10303-21;
