ISO-10303-21;
HEADER;
/* Generated by software containing ST-Developer
 * from STEP Tools, Inc. (www.steptools.com) 
 */

FILE_DESCRIPTION(
/* description */ (''),
/* implementation_level */ '2;1');

FILE_NAME(
/* name */ 'Switch.step',
/* time_stamp */ '2026-07-21T21:55:39+02:00',
/* author */ (''),
/* organization */ (''),
/* preprocessor_version */ 'ST-DEVELOPER v20.1',
/* originating_system */ 'Autodesk Translation Framework v15.8.0.0',
/* authorisation */ '');

FILE_SCHEMA (('AUTOMOTIVE_DESIGN { 1 0 10303 214 3 1 1 }'));
ENDSEC;

DATA;
#10=MECHANICAL_DESIGN_GEOMETRIC_PRESENTATION_REPRESENTATION('',(#13),#1036);
#11=SHAPE_REPRESENTATION_RELATIONSHIP('SRR','None',#1042,#12);
#12=ADVANCED_BREP_SHAPE_REPRESENTATION('',(#14),#1035);
#13=STYLED_ITEM('',(#1051),#14);
#14=MANIFOLD_SOLID_BREP('Switch',#656);
#15=FACE_BOUND('',#84,.T.);
#16=FACE_OUTER_BOUND('',#50,.T.);
#17=FACE_OUTER_BOUND('',#51,.T.);
#18=FACE_OUTER_BOUND('',#52,.T.);
#19=FACE_OUTER_BOUND('',#53,.T.);
#20=FACE_OUTER_BOUND('',#54,.T.);
#21=FACE_OUTER_BOUND('',#55,.T.);
#22=FACE_OUTER_BOUND('',#56,.T.);
#23=FACE_OUTER_BOUND('',#57,.T.);
#24=FACE_OUTER_BOUND('',#58,.T.);
#25=FACE_OUTER_BOUND('',#59,.T.);
#26=FACE_OUTER_BOUND('',#60,.T.);
#27=FACE_OUTER_BOUND('',#61,.T.);
#28=FACE_OUTER_BOUND('',#62,.T.);
#29=FACE_OUTER_BOUND('',#63,.T.);
#30=FACE_OUTER_BOUND('',#64,.T.);
#31=FACE_OUTER_BOUND('',#65,.T.);
#32=FACE_OUTER_BOUND('',#66,.T.);
#33=FACE_OUTER_BOUND('',#67,.T.);
#34=FACE_OUTER_BOUND('',#68,.T.);
#35=FACE_OUTER_BOUND('',#69,.T.);
#36=FACE_OUTER_BOUND('',#70,.T.);
#37=FACE_OUTER_BOUND('',#71,.T.);
#38=FACE_OUTER_BOUND('',#72,.T.);
#39=FACE_OUTER_BOUND('',#73,.T.);
#40=FACE_OUTER_BOUND('',#74,.T.);
#41=FACE_OUTER_BOUND('',#75,.T.);
#42=FACE_OUTER_BOUND('',#76,.T.);
#43=FACE_OUTER_BOUND('',#77,.T.);
#44=FACE_OUTER_BOUND('',#78,.T.);
#45=FACE_OUTER_BOUND('',#79,.T.);
#46=FACE_OUTER_BOUND('',#80,.T.);
#47=FACE_OUTER_BOUND('',#81,.T.);
#48=FACE_OUTER_BOUND('',#82,.T.);
#49=FACE_OUTER_BOUND('',#83,.T.);
#50=EDGE_LOOP('',(#410,#411,#412,#413));
#51=EDGE_LOOP('',(#414,#415,#416,#417));
#52=EDGE_LOOP('',(#418,#419,#420,#421));
#53=EDGE_LOOP('',(#422,#423,#424,#425));
#54=EDGE_LOOP('',(#426,#427,#428,#429));
#55=EDGE_LOOP('',(#430,#431,#432,#433));
#56=EDGE_LOOP('',(#434,#435,#436,#437));
#57=EDGE_LOOP('',(#438,#439,#440,#441));
#58=EDGE_LOOP('',(#442,#443,#444,#445));
#59=EDGE_LOOP('',(#446,#447,#448,#449));
#60=EDGE_LOOP('',(#450,#451,#452,#453));
#61=EDGE_LOOP('',(#454,#455,#456,#457));
#62=EDGE_LOOP('',(#458,#459,#460,#461));
#63=EDGE_LOOP('',(#462,#463,#464,#465));
#64=EDGE_LOOP('',(#466,#467,#468,#469));
#65=EDGE_LOOP('',(#470,#471,#472,#473));
#66=EDGE_LOOP('',(#474,#475,#476,#477,#478,#479,#480,#481,#482,#483,#484,
#485,#486,#487,#488,#489,#490,#491,#492));
#67=EDGE_LOOP('',(#493,#494,#495,#496));
#68=EDGE_LOOP('',(#497,#498,#499,#500));
#69=EDGE_LOOP('',(#501,#502,#503,#504,#505,#506,#507,#508,#509,#510,#511,
#512,#513,#514,#515,#516,#517,#518,#519));
#70=EDGE_LOOP('',(#520,#521,#522,#523,#524,#525));
#71=EDGE_LOOP('',(#526,#527,#528,#529,#530,#531));
#72=EDGE_LOOP('',(#532,#533,#534,#535));
#73=EDGE_LOOP('',(#536,#537,#538,#539));
#74=EDGE_LOOP('',(#540,#541,#542,#543));
#75=EDGE_LOOP('',(#544,#545,#546,#547));
#76=EDGE_LOOP('',(#548,#549,#550,#551));
#77=EDGE_LOOP('',(#552,#553,#554,#555));
#78=EDGE_LOOP('',(#556,#557,#558,#559));
#79=EDGE_LOOP('',(#560,#561,#562,#563,#564,#565));
#80=EDGE_LOOP('',(#566,#567,#568,#569));
#81=EDGE_LOOP('',(#570,#571,#572,#573,#574,#575));
#82=EDGE_LOOP('',(#576,#577,#578,#579));
#83=EDGE_LOOP('',(#580,#581,#582,#583));
#84=EDGE_LOOP('',(#584,#585,#586,#587));
#85=LINE('',#855,#174);
#86=LINE('',#857,#175);
#87=LINE('',#859,#176);
#88=LINE('',#860,#177);
#89=LINE('',#863,#178);
#90=LINE('',#865,#179);
#91=LINE('',#866,#180);
#92=LINE('',#870,#181);
#93=LINE('',#872,#182);
#94=LINE('',#874,#183);
#95=LINE('',#875,#184);
#96=LINE('',#878,#185);
#97=LINE('',#880,#186);
#98=LINE('',#881,#187);
#99=LINE('',#885,#188);
#100=LINE('',#887,#189);
#101=LINE('',#889,#190);
#102=LINE('',#890,#191);
#103=LINE('',#893,#192);
#104=LINE('',#895,#193);
#105=LINE('',#896,#194);
#106=LINE('',#900,#195);
#107=LINE('',#902,#196);
#108=LINE('',#904,#197);
#109=LINE('',#905,#198);
#110=LINE('',#908,#199);
#111=LINE('',#910,#200);
#112=LINE('',#911,#201);
#113=LINE('',#915,#202);
#114=LINE('',#917,#203);
#115=LINE('',#919,#204);
#116=LINE('',#920,#205);
#117=LINE('',#923,#206);
#118=LINE('',#925,#207);
#119=LINE('',#926,#208);
#120=LINE('',#929,#209);
#121=LINE('',#931,#210);
#122=LINE('',#932,#211);
#123=LINE('',#934,#212);
#124=LINE('',#935,#213);
#125=LINE('',#938,#214);
#126=LINE('',#940,#215);
#127=LINE('',#941,#216);
#128=LINE('',#943,#217);
#129=LINE('',#944,#218);
#130=LINE('',#946,#219);
#131=LINE('',#947,#220);
#132=LINE('',#949,#221);
#133=LINE('',#950,#222);
#134=LINE('',#953,#223);
#135=LINE('',#955,#224);
#136=LINE('',#956,#225);
#137=LINE('',#960,#226);
#138=LINE('',#961,#227);
#139=LINE('',#962,#228);
#140=LINE('',#966,#229);
#141=LINE('',#968,#230);
#142=LINE('',#970,#231);
#143=LINE('',#971,#232);
#144=LINE('',#973,#233);
#145=LINE('',#974,#234);
#146=LINE('',#976,#235);
#147=LINE('',#978,#236);
#148=LINE('',#981,#237);
#149=LINE('',#983,#238);
#150=LINE('',#984,#239);
#151=LINE('',#987,#240);
#152=LINE('',#989,#241);
#153=LINE('',#990,#242);
#154=LINE('',#994,#243);
#155=LINE('',#996,#244);
#156=LINE('',#998,#245);
#157=LINE('',#999,#246);
#158=LINE('',#1002,#247);
#159=LINE('',#1004,#248);
#160=LINE('',#1005,#249);
#161=LINE('',#1008,#250);
#162=LINE('',#1009,#251);
#163=LINE('',#1012,#252);
#164=LINE('',#1013,#253);
#165=LINE('',#1015,#254);
#166=LINE('',#1018,#255);
#167=LINE('',#1020,#256);
#168=LINE('',#1021,#257);
#169=LINE('',#1024,#258);
#170=LINE('',#1025,#259);
#171=LINE('',#1028,#260);
#172=LINE('',#1029,#261);
#173=LINE('',#1031,#262);
#174=VECTOR('',#696,10.);
#175=VECTOR('',#697,10.);
#176=VECTOR('',#698,10.);
#177=VECTOR('',#699,10.);
#178=VECTOR('',#702,10.);
#179=VECTOR('',#703,10.);
#180=VECTOR('',#704,10.);
#181=VECTOR('',#707,10.);
#182=VECTOR('',#708,10.);
#183=VECTOR('',#709,10.);
#184=VECTOR('',#710,10.);
#185=VECTOR('',#713,10.);
#186=VECTOR('',#714,10.);
#187=VECTOR('',#715,10.);
#188=VECTOR('',#718,10.);
#189=VECTOR('',#719,10.);
#190=VECTOR('',#720,10.);
#191=VECTOR('',#721,10.);
#192=VECTOR('',#724,10.);
#193=VECTOR('',#725,10.);
#194=VECTOR('',#726,10.);
#195=VECTOR('',#729,10.);
#196=VECTOR('',#730,10.);
#197=VECTOR('',#731,10.);
#198=VECTOR('',#732,10.);
#199=VECTOR('',#735,10.);
#200=VECTOR('',#736,10.);
#201=VECTOR('',#737,10.);
#202=VECTOR('',#740,10.);
#203=VECTOR('',#741,10.);
#204=VECTOR('',#742,10.);
#205=VECTOR('',#743,10.);
#206=VECTOR('',#746,10.);
#207=VECTOR('',#747,10.);
#208=VECTOR('',#748,10.);
#209=VECTOR('',#751,10.);
#210=VECTOR('',#752,10.);
#211=VECTOR('',#753,10.);
#212=VECTOR('',#756,10.);
#213=VECTOR('',#757,10.);
#214=VECTOR('',#760,10.);
#215=VECTOR('',#761,10.);
#216=VECTOR('',#762,10.);
#217=VECTOR('',#765,10.);
#218=VECTOR('',#766,10.);
#219=VECTOR('',#769,10.);
#220=VECTOR('',#770,10.);
#221=VECTOR('',#773,10.);
#222=VECTOR('',#774,10.);
#223=VECTOR('',#777,10.);
#224=VECTOR('',#778,10.);
#225=VECTOR('',#779,10.);
#226=VECTOR('',#782,10.);
#227=VECTOR('',#783,10.);
#228=VECTOR('',#784,10.);
#229=VECTOR('',#787,10.);
#230=VECTOR('',#788,10.);
#231=VECTOR('',#789,10.);
#232=VECTOR('',#790,10.);
#233=VECTOR('',#793,10.);
#234=VECTOR('',#794,10.);
#235=VECTOR('',#797,10.);
#236=VECTOR('',#800,10.);
#237=VECTOR('',#803,10.);
#238=VECTOR('',#804,10.);
#239=VECTOR('',#805,10.);
#240=VECTOR('',#808,10.);
#241=VECTOR('',#809,10.);
#242=VECTOR('',#810,10.);
#243=VECTOR('',#813,10.);
#244=VECTOR('',#814,10.);
#245=VECTOR('',#815,10.);
#246=VECTOR('',#816,10.);
#247=VECTOR('',#819,10.);
#248=VECTOR('',#820,10.);
#249=VECTOR('',#821,10.);
#250=VECTOR('',#824,10.);
#251=VECTOR('',#825,10.);
#252=VECTOR('',#828,10.);
#253=VECTOR('',#829,10.);
#254=VECTOR('',#832,10.);
#255=VECTOR('',#835,10.);
#256=VECTOR('',#836,10.);
#257=VECTOR('',#837,10.);
#258=VECTOR('',#840,10.);
#259=VECTOR('',#841,10.);
#260=VECTOR('',#844,10.);
#261=VECTOR('',#845,10.);
#262=VECTOR('',#848,10.);
#263=VERTEX_POINT('',#853);
#264=VERTEX_POINT('',#854);
#265=VERTEX_POINT('',#856);
#266=VERTEX_POINT('',#858);
#267=VERTEX_POINT('',#862);
#268=VERTEX_POINT('',#864);
#269=VERTEX_POINT('',#868);
#270=VERTEX_POINT('',#869);
#271=VERTEX_POINT('',#871);
#272=VERTEX_POINT('',#873);
#273=VERTEX_POINT('',#877);
#274=VERTEX_POINT('',#879);
#275=VERTEX_POINT('',#883);
#276=VERTEX_POINT('',#884);
#277=VERTEX_POINT('',#886);
#278=VERTEX_POINT('',#888);
#279=VERTEX_POINT('',#892);
#280=VERTEX_POINT('',#894);
#281=VERTEX_POINT('',#898);
#282=VERTEX_POINT('',#899);
#283=VERTEX_POINT('',#901);
#284=VERTEX_POINT('',#903);
#285=VERTEX_POINT('',#907);
#286=VERTEX_POINT('',#909);
#287=VERTEX_POINT('',#913);
#288=VERTEX_POINT('',#914);
#289=VERTEX_POINT('',#916);
#290=VERTEX_POINT('',#918);
#291=VERTEX_POINT('',#922);
#292=VERTEX_POINT('',#924);
#293=VERTEX_POINT('',#928);
#294=VERTEX_POINT('',#930);
#295=VERTEX_POINT('',#937);
#296=VERTEX_POINT('',#939);
#297=VERTEX_POINT('',#952);
#298=VERTEX_POINT('',#954);
#299=VERTEX_POINT('',#958);
#300=VERTEX_POINT('',#959);
#301=VERTEX_POINT('',#964);
#302=VERTEX_POINT('',#965);
#303=VERTEX_POINT('',#967);
#304=VERTEX_POINT('',#969);
#305=VERTEX_POINT('',#980);
#306=VERTEX_POINT('',#982);
#307=VERTEX_POINT('',#986);
#308=VERTEX_POINT('',#988);
#309=VERTEX_POINT('',#992);
#310=VERTEX_POINT('',#993);
#311=VERTEX_POINT('',#995);
#312=VERTEX_POINT('',#997);
#313=VERTEX_POINT('',#1001);
#314=VERTEX_POINT('',#1003);
#315=VERTEX_POINT('',#1007);
#316=VERTEX_POINT('',#1011);
#317=VERTEX_POINT('',#1017);
#318=VERTEX_POINT('',#1019);
#319=VERTEX_POINT('',#1023);
#320=VERTEX_POINT('',#1027);
#321=EDGE_CURVE('',#263,#264,#85,.T.);
#322=EDGE_CURVE('',#265,#263,#86,.T.);
#323=EDGE_CURVE('',#266,#265,#87,.T.);
#324=EDGE_CURVE('',#264,#266,#88,.T.);
#325=EDGE_CURVE('',#267,#263,#89,.T.);
#326=EDGE_CURVE('',#268,#267,#90,.T.);
#327=EDGE_CURVE('',#265,#268,#91,.T.);
#328=EDGE_CURVE('',#269,#270,#92,.T.);
#329=EDGE_CURVE('',#271,#269,#93,.T.);
#330=EDGE_CURVE('',#272,#271,#94,.T.);
#331=EDGE_CURVE('',#270,#272,#95,.T.);
#332=EDGE_CURVE('',#273,#269,#96,.T.);
#333=EDGE_CURVE('',#274,#273,#97,.T.);
#334=EDGE_CURVE('',#271,#274,#98,.T.);
#335=EDGE_CURVE('',#275,#276,#99,.T.);
#336=EDGE_CURVE('',#277,#275,#100,.T.);
#337=EDGE_CURVE('',#278,#277,#101,.T.);
#338=EDGE_CURVE('',#276,#278,#102,.T.);
#339=EDGE_CURVE('',#279,#275,#103,.T.);
#340=EDGE_CURVE('',#280,#279,#104,.T.);
#341=EDGE_CURVE('',#277,#280,#105,.T.);
#342=EDGE_CURVE('',#281,#282,#106,.T.);
#343=EDGE_CURVE('',#283,#281,#107,.T.);
#344=EDGE_CURVE('',#284,#283,#108,.T.);
#345=EDGE_CURVE('',#282,#284,#109,.T.);
#346=EDGE_CURVE('',#285,#281,#110,.T.);
#347=EDGE_CURVE('',#286,#285,#111,.T.);
#348=EDGE_CURVE('',#283,#286,#112,.T.);
#349=EDGE_CURVE('',#287,#288,#113,.T.);
#350=EDGE_CURVE('',#289,#287,#114,.T.);
#351=EDGE_CURVE('',#290,#289,#115,.T.);
#352=EDGE_CURVE('',#288,#290,#116,.T.);
#353=EDGE_CURVE('',#291,#287,#117,.T.);
#354=EDGE_CURVE('',#292,#291,#118,.T.);
#355=EDGE_CURVE('',#289,#292,#119,.T.);
#356=EDGE_CURVE('',#290,#293,#120,.T.);
#357=EDGE_CURVE('',#293,#294,#121,.T.);
#358=EDGE_CURVE('',#294,#288,#122,.T.);
#359=EDGE_CURVE('',#278,#292,#123,.T.);
#360=EDGE_CURVE('',#291,#276,#124,.T.);
#361=EDGE_CURVE('',#285,#295,#125,.T.);
#362=EDGE_CURVE('',#295,#296,#126,.T.);
#363=EDGE_CURVE('',#296,#286,#127,.T.);
#364=EDGE_CURVE('',#266,#280,#128,.T.);
#365=EDGE_CURVE('',#279,#264,#129,.T.);
#366=EDGE_CURVE('',#273,#282,#130,.T.);
#367=EDGE_CURVE('',#284,#274,#131,.T.);
#368=EDGE_CURVE('',#267,#270,#132,.T.);
#369=EDGE_CURVE('',#272,#268,#133,.T.);
#370=EDGE_CURVE('',#297,#296,#134,.T.);
#371=EDGE_CURVE('',#298,#297,#135,.T.);
#372=EDGE_CURVE('',#298,#293,#136,.T.);
#373=EDGE_CURVE('',#299,#300,#137,.T.);
#374=EDGE_CURVE('',#300,#298,#138,.T.);
#375=EDGE_CURVE('',#297,#299,#139,.T.);
#376=EDGE_CURVE('',#301,#302,#140,.T.);
#377=EDGE_CURVE('',#302,#303,#141,.T.);
#378=EDGE_CURVE('',#303,#304,#142,.T.);
#379=EDGE_CURVE('',#304,#301,#143,.T.);
#380=EDGE_CURVE('',#304,#294,#144,.T.);
#381=EDGE_CURVE('',#303,#295,#145,.T.);
#382=EDGE_CURVE('',#301,#300,#146,.T.);
#383=EDGE_CURVE('',#299,#302,#147,.T.);
#384=EDGE_CURVE('',#302,#305,#148,.T.);
#385=EDGE_CURVE('',#305,#306,#149,.T.);
#386=EDGE_CURVE('',#306,#299,#150,.T.);
#387=EDGE_CURVE('',#300,#307,#151,.T.);
#388=EDGE_CURVE('',#307,#308,#152,.T.);
#389=EDGE_CURVE('',#308,#301,#153,.T.);
#390=EDGE_CURVE('',#309,#310,#154,.T.);
#391=EDGE_CURVE('',#310,#311,#155,.T.);
#392=EDGE_CURVE('',#311,#312,#156,.T.);
#393=EDGE_CURVE('',#312,#309,#157,.T.);
#394=EDGE_CURVE('',#309,#313,#158,.T.);
#395=EDGE_CURVE('',#314,#313,#159,.T.);
#396=EDGE_CURVE('',#310,#314,#160,.T.);
#397=EDGE_CURVE('',#315,#314,#161,.T.);
#398=EDGE_CURVE('',#311,#315,#162,.T.);
#399=EDGE_CURVE('',#316,#315,#163,.T.);
#400=EDGE_CURVE('',#312,#316,#164,.T.);
#401=EDGE_CURVE('',#313,#316,#165,.T.);
#402=EDGE_CURVE('',#308,#317,#166,.T.);
#403=EDGE_CURVE('',#318,#317,#167,.T.);
#404=EDGE_CURVE('',#305,#318,#168,.T.);
#405=EDGE_CURVE('',#319,#318,#169,.T.);
#406=EDGE_CURVE('',#306,#319,#170,.T.);
#407=EDGE_CURVE('',#320,#319,#171,.T.);
#408=EDGE_CURVE('',#307,#320,#172,.T.);
#409=EDGE_CURVE('',#317,#320,#173,.T.);
#410=ORIENTED_EDGE('',*,*,#321,.F.);
#411=ORIENTED_EDGE('',*,*,#322,.F.);
#412=ORIENTED_EDGE('',*,*,#323,.F.);
#413=ORIENTED_EDGE('',*,*,#324,.F.);
#414=ORIENTED_EDGE('',*,*,#325,.F.);
#415=ORIENTED_EDGE('',*,*,#326,.F.);
#416=ORIENTED_EDGE('',*,*,#327,.F.);
#417=ORIENTED_EDGE('',*,*,#322,.T.);
#418=ORIENTED_EDGE('',*,*,#328,.F.);
#419=ORIENTED_EDGE('',*,*,#329,.F.);
#420=ORIENTED_EDGE('',*,*,#330,.F.);
#421=ORIENTED_EDGE('',*,*,#331,.F.);
#422=ORIENTED_EDGE('',*,*,#332,.F.);
#423=ORIENTED_EDGE('',*,*,#333,.F.);
#424=ORIENTED_EDGE('',*,*,#334,.F.);
#425=ORIENTED_EDGE('',*,*,#329,.T.);
#426=ORIENTED_EDGE('',*,*,#335,.F.);
#427=ORIENTED_EDGE('',*,*,#336,.F.);
#428=ORIENTED_EDGE('',*,*,#337,.F.);
#429=ORIENTED_EDGE('',*,*,#338,.F.);
#430=ORIENTED_EDGE('',*,*,#339,.F.);
#431=ORIENTED_EDGE('',*,*,#340,.F.);
#432=ORIENTED_EDGE('',*,*,#341,.F.);
#433=ORIENTED_EDGE('',*,*,#336,.T.);
#434=ORIENTED_EDGE('',*,*,#342,.F.);
#435=ORIENTED_EDGE('',*,*,#343,.F.);
#436=ORIENTED_EDGE('',*,*,#344,.F.);
#437=ORIENTED_EDGE('',*,*,#345,.F.);
#438=ORIENTED_EDGE('',*,*,#346,.F.);
#439=ORIENTED_EDGE('',*,*,#347,.F.);
#440=ORIENTED_EDGE('',*,*,#348,.F.);
#441=ORIENTED_EDGE('',*,*,#343,.T.);
#442=ORIENTED_EDGE('',*,*,#349,.F.);
#443=ORIENTED_EDGE('',*,*,#350,.F.);
#444=ORIENTED_EDGE('',*,*,#351,.F.);
#445=ORIENTED_EDGE('',*,*,#352,.F.);
#446=ORIENTED_EDGE('',*,*,#353,.F.);
#447=ORIENTED_EDGE('',*,*,#354,.F.);
#448=ORIENTED_EDGE('',*,*,#355,.F.);
#449=ORIENTED_EDGE('',*,*,#350,.T.);
#450=ORIENTED_EDGE('',*,*,#352,.T.);
#451=ORIENTED_EDGE('',*,*,#356,.T.);
#452=ORIENTED_EDGE('',*,*,#357,.T.);
#453=ORIENTED_EDGE('',*,*,#358,.T.);
#454=ORIENTED_EDGE('',*,*,#338,.T.);
#455=ORIENTED_EDGE('',*,*,#359,.T.);
#456=ORIENTED_EDGE('',*,*,#354,.T.);
#457=ORIENTED_EDGE('',*,*,#360,.T.);
#458=ORIENTED_EDGE('',*,*,#347,.T.);
#459=ORIENTED_EDGE('',*,*,#361,.T.);
#460=ORIENTED_EDGE('',*,*,#362,.T.);
#461=ORIENTED_EDGE('',*,*,#363,.T.);
#462=ORIENTED_EDGE('',*,*,#324,.T.);
#463=ORIENTED_EDGE('',*,*,#364,.T.);
#464=ORIENTED_EDGE('',*,*,#340,.T.);
#465=ORIENTED_EDGE('',*,*,#365,.T.);
#466=ORIENTED_EDGE('',*,*,#333,.T.);
#467=ORIENTED_EDGE('',*,*,#366,.T.);
#468=ORIENTED_EDGE('',*,*,#345,.T.);
#469=ORIENTED_EDGE('',*,*,#367,.T.);
#470=ORIENTED_EDGE('',*,*,#326,.T.);
#471=ORIENTED_EDGE('',*,*,#368,.T.);
#472=ORIENTED_EDGE('',*,*,#331,.T.);
#473=ORIENTED_EDGE('',*,*,#369,.T.);
#474=ORIENTED_EDGE('',*,*,#323,.T.);
#475=ORIENTED_EDGE('',*,*,#327,.T.);
#476=ORIENTED_EDGE('',*,*,#369,.F.);
#477=ORIENTED_EDGE('',*,*,#330,.T.);
#478=ORIENTED_EDGE('',*,*,#334,.T.);
#479=ORIENTED_EDGE('',*,*,#367,.F.);
#480=ORIENTED_EDGE('',*,*,#344,.T.);
#481=ORIENTED_EDGE('',*,*,#348,.T.);
#482=ORIENTED_EDGE('',*,*,#363,.F.);
#483=ORIENTED_EDGE('',*,*,#370,.F.);
#484=ORIENTED_EDGE('',*,*,#371,.F.);
#485=ORIENTED_EDGE('',*,*,#372,.T.);
#486=ORIENTED_EDGE('',*,*,#356,.F.);
#487=ORIENTED_EDGE('',*,*,#351,.T.);
#488=ORIENTED_EDGE('',*,*,#355,.T.);
#489=ORIENTED_EDGE('',*,*,#359,.F.);
#490=ORIENTED_EDGE('',*,*,#337,.T.);
#491=ORIENTED_EDGE('',*,*,#341,.T.);
#492=ORIENTED_EDGE('',*,*,#364,.F.);
#493=ORIENTED_EDGE('',*,*,#373,.T.);
#494=ORIENTED_EDGE('',*,*,#374,.T.);
#495=ORIENTED_EDGE('',*,*,#371,.T.);
#496=ORIENTED_EDGE('',*,*,#375,.T.);
#497=ORIENTED_EDGE('',*,*,#376,.T.);
#498=ORIENTED_EDGE('',*,*,#377,.T.);
#499=ORIENTED_EDGE('',*,*,#378,.T.);
#500=ORIENTED_EDGE('',*,*,#379,.T.);
#501=ORIENTED_EDGE('',*,*,#321,.T.);
#502=ORIENTED_EDGE('',*,*,#365,.F.);
#503=ORIENTED_EDGE('',*,*,#339,.T.);
#504=ORIENTED_EDGE('',*,*,#335,.T.);
#505=ORIENTED_EDGE('',*,*,#360,.F.);
#506=ORIENTED_EDGE('',*,*,#353,.T.);
#507=ORIENTED_EDGE('',*,*,#349,.T.);
#508=ORIENTED_EDGE('',*,*,#358,.F.);
#509=ORIENTED_EDGE('',*,*,#380,.F.);
#510=ORIENTED_EDGE('',*,*,#378,.F.);
#511=ORIENTED_EDGE('',*,*,#381,.T.);
#512=ORIENTED_EDGE('',*,*,#361,.F.);
#513=ORIENTED_EDGE('',*,*,#346,.T.);
#514=ORIENTED_EDGE('',*,*,#342,.T.);
#515=ORIENTED_EDGE('',*,*,#366,.F.);
#516=ORIENTED_EDGE('',*,*,#332,.T.);
#517=ORIENTED_EDGE('',*,*,#328,.T.);
#518=ORIENTED_EDGE('',*,*,#368,.F.);
#519=ORIENTED_EDGE('',*,*,#325,.T.);
#520=ORIENTED_EDGE('',*,*,#379,.F.);
#521=ORIENTED_EDGE('',*,*,#380,.T.);
#522=ORIENTED_EDGE('',*,*,#357,.F.);
#523=ORIENTED_EDGE('',*,*,#372,.F.);
#524=ORIENTED_EDGE('',*,*,#374,.F.);
#525=ORIENTED_EDGE('',*,*,#382,.F.);
#526=ORIENTED_EDGE('',*,*,#375,.F.);
#527=ORIENTED_EDGE('',*,*,#370,.T.);
#528=ORIENTED_EDGE('',*,*,#362,.F.);
#529=ORIENTED_EDGE('',*,*,#381,.F.);
#530=ORIENTED_EDGE('',*,*,#377,.F.);
#531=ORIENTED_EDGE('',*,*,#383,.F.);
#532=ORIENTED_EDGE('',*,*,#383,.T.);
#533=ORIENTED_EDGE('',*,*,#384,.T.);
#534=ORIENTED_EDGE('',*,*,#385,.T.);
#535=ORIENTED_EDGE('',*,*,#386,.T.);
#536=ORIENTED_EDGE('',*,*,#382,.T.);
#537=ORIENTED_EDGE('',*,*,#387,.T.);
#538=ORIENTED_EDGE('',*,*,#388,.T.);
#539=ORIENTED_EDGE('',*,*,#389,.T.);
#540=ORIENTED_EDGE('',*,*,#390,.T.);
#541=ORIENTED_EDGE('',*,*,#391,.T.);
#542=ORIENTED_EDGE('',*,*,#392,.T.);
#543=ORIENTED_EDGE('',*,*,#393,.T.);
#544=ORIENTED_EDGE('',*,*,#390,.F.);
#545=ORIENTED_EDGE('',*,*,#394,.T.);
#546=ORIENTED_EDGE('',*,*,#395,.F.);
#547=ORIENTED_EDGE('',*,*,#396,.F.);
#548=ORIENTED_EDGE('',*,*,#391,.F.);
#549=ORIENTED_EDGE('',*,*,#396,.T.);
#550=ORIENTED_EDGE('',*,*,#397,.F.);
#551=ORIENTED_EDGE('',*,*,#398,.F.);
#552=ORIENTED_EDGE('',*,*,#392,.F.);
#553=ORIENTED_EDGE('',*,*,#398,.T.);
#554=ORIENTED_EDGE('',*,*,#399,.F.);
#555=ORIENTED_EDGE('',*,*,#400,.F.);
#556=ORIENTED_EDGE('',*,*,#393,.F.);
#557=ORIENTED_EDGE('',*,*,#400,.T.);
#558=ORIENTED_EDGE('',*,*,#401,.F.);
#559=ORIENTED_EDGE('',*,*,#394,.F.);
#560=ORIENTED_EDGE('',*,*,#402,.T.);
#561=ORIENTED_EDGE('',*,*,#403,.F.);
#562=ORIENTED_EDGE('',*,*,#404,.F.);
#563=ORIENTED_EDGE('',*,*,#384,.F.);
#564=ORIENTED_EDGE('',*,*,#376,.F.);
#565=ORIENTED_EDGE('',*,*,#389,.F.);
#566=ORIENTED_EDGE('',*,*,#404,.T.);
#567=ORIENTED_EDGE('',*,*,#405,.F.);
#568=ORIENTED_EDGE('',*,*,#406,.F.);
#569=ORIENTED_EDGE('',*,*,#385,.F.);
#570=ORIENTED_EDGE('',*,*,#406,.T.);
#571=ORIENTED_EDGE('',*,*,#407,.F.);
#572=ORIENTED_EDGE('',*,*,#408,.F.);
#573=ORIENTED_EDGE('',*,*,#387,.F.);
#574=ORIENTED_EDGE('',*,*,#373,.F.);
#575=ORIENTED_EDGE('',*,*,#386,.F.);
#576=ORIENTED_EDGE('',*,*,#408,.T.);
#577=ORIENTED_EDGE('',*,*,#409,.F.);
#578=ORIENTED_EDGE('',*,*,#402,.F.);
#579=ORIENTED_EDGE('',*,*,#388,.F.);
#580=ORIENTED_EDGE('',*,*,#403,.T.);
#581=ORIENTED_EDGE('',*,*,#409,.T.);
#582=ORIENTED_EDGE('',*,*,#407,.T.);
#583=ORIENTED_EDGE('',*,*,#405,.T.);
#584=ORIENTED_EDGE('',*,*,#397,.T.);
#585=ORIENTED_EDGE('',*,*,#395,.T.);
#586=ORIENTED_EDGE('',*,*,#401,.T.);
#587=ORIENTED_EDGE('',*,*,#399,.T.);
#588=PLANE('',#658);
#589=PLANE('',#659);
#590=PLANE('',#660);
#591=PLANE('',#661);
#592=PLANE('',#662);
#593=PLANE('',#663);
#594=PLANE('',#664);
#595=PLANE('',#665);
#596=PLANE('',#666);
#597=PLANE('',#667);
#598=PLANE('',#668);
#599=PLANE('',#669);
#600=PLANE('',#670);
#601=PLANE('',#671);
#602=PLANE('',#672);
#603=PLANE('',#673);
#604=PLANE('',#674);
#605=PLANE('',#675);
#606=PLANE('',#676);
#607=PLANE('',#677);
#608=PLANE('',#678);
#609=PLANE('',#679);
#610=PLANE('',#680);
#611=PLANE('',#681);
#612=PLANE('',#682);
#613=PLANE('',#683);
#614=PLANE('',#684);
#615=PLANE('',#685);
#616=PLANE('',#686);
#617=PLANE('',#687);
#618=PLANE('',#688);
#619=PLANE('',#689);
#620=PLANE('',#690);
#621=PLANE('',#691);
#622=ADVANCED_FACE('',(#16),#588,.F.);
#623=ADVANCED_FACE('',(#17),#589,.F.);
#624=ADVANCED_FACE('',(#18),#590,.F.);
#625=ADVANCED_FACE('',(#19),#591,.F.);
#626=ADVANCED_FACE('',(#20),#592,.F.);
#627=ADVANCED_FACE('',(#21),#593,.F.);
#628=ADVANCED_FACE('',(#22),#594,.F.);
#629=ADVANCED_FACE('',(#23),#595,.F.);
#630=ADVANCED_FACE('',(#24),#596,.F.);
#631=ADVANCED_FACE('',(#25),#597,.F.);
#632=ADVANCED_FACE('',(#26),#598,.T.);
#633=ADVANCED_FACE('',(#27),#599,.T.);
#634=ADVANCED_FACE('',(#28),#600,.T.);
#635=ADVANCED_FACE('',(#29),#601,.T.);
#636=ADVANCED_FACE('',(#30),#602,.T.);
#637=ADVANCED_FACE('',(#31),#603,.T.);
#638=ADVANCED_FACE('',(#32),#604,.T.);
#639=ADVANCED_FACE('',(#33),#605,.F.);
#640=ADVANCED_FACE('',(#34),#606,.F.);
#641=ADVANCED_FACE('',(#35),#607,.T.);
#642=ADVANCED_FACE('',(#36),#608,.T.);
#643=ADVANCED_FACE('',(#37),#609,.T.);
#644=ADVANCED_FACE('',(#38),#610,.T.);
#645=ADVANCED_FACE('',(#39),#611,.T.);
#646=ADVANCED_FACE('',(#40),#612,.F.);
#647=ADVANCED_FACE('',(#41),#613,.T.);
#648=ADVANCED_FACE('',(#42),#614,.T.);
#649=ADVANCED_FACE('',(#43),#615,.T.);
#650=ADVANCED_FACE('',(#44),#616,.T.);
#651=ADVANCED_FACE('',(#45),#617,.T.);
#652=ADVANCED_FACE('',(#46),#618,.T.);
#653=ADVANCED_FACE('',(#47),#619,.T.);
#654=ADVANCED_FACE('',(#48),#620,.T.);
#655=ADVANCED_FACE('',(#49,#15),#621,.T.);
#656=CLOSED_SHELL('',(#622,#623,#624,#625,#626,#627,#628,#629,#630,#631,
#632,#633,#634,#635,#636,#637,#638,#639,#640,#641,#642,#643,#644,#645,#646,
#647,#648,#649,#650,#651,#652,#653,#654,#655));
#657=AXIS2_PLACEMENT_3D('',#851,#692,#693);
#658=AXIS2_PLACEMENT_3D('',#852,#694,#695);
#659=AXIS2_PLACEMENT_3D('',#861,#700,#701);
#660=AXIS2_PLACEMENT_3D('',#867,#705,#706);
#661=AXIS2_PLACEMENT_3D('',#876,#711,#712);
#662=AXIS2_PLACEMENT_3D('',#882,#716,#717);
#663=AXIS2_PLACEMENT_3D('',#891,#722,#723);
#664=AXIS2_PLACEMENT_3D('',#897,#727,#728);
#665=AXIS2_PLACEMENT_3D('',#906,#733,#734);
#666=AXIS2_PLACEMENT_3D('',#912,#738,#739);
#667=AXIS2_PLACEMENT_3D('',#921,#744,#745);
#668=AXIS2_PLACEMENT_3D('',#927,#749,#750);
#669=AXIS2_PLACEMENT_3D('',#933,#754,#755);
#670=AXIS2_PLACEMENT_3D('',#936,#758,#759);
#671=AXIS2_PLACEMENT_3D('',#942,#763,#764);
#672=AXIS2_PLACEMENT_3D('',#945,#767,#768);
#673=AXIS2_PLACEMENT_3D('',#948,#771,#772);
#674=AXIS2_PLACEMENT_3D('',#951,#775,#776);
#675=AXIS2_PLACEMENT_3D('',#957,#780,#781);
#676=AXIS2_PLACEMENT_3D('',#963,#785,#786);
#677=AXIS2_PLACEMENT_3D('',#972,#791,#792);
#678=AXIS2_PLACEMENT_3D('',#975,#795,#796);
#679=AXIS2_PLACEMENT_3D('',#977,#798,#799);
#680=AXIS2_PLACEMENT_3D('',#979,#801,#802);
#681=AXIS2_PLACEMENT_3D('',#985,#806,#807);
#682=AXIS2_PLACEMENT_3D('',#991,#811,#812);
#683=AXIS2_PLACEMENT_3D('',#1000,#817,#818);
#684=AXIS2_PLACEMENT_3D('',#1006,#822,#823);
#685=AXIS2_PLACEMENT_3D('',#1010,#826,#827);
#686=AXIS2_PLACEMENT_3D('',#1014,#830,#831);
#687=AXIS2_PLACEMENT_3D('',#1016,#833,#834);
#688=AXIS2_PLACEMENT_3D('',#1022,#838,#839);
#689=AXIS2_PLACEMENT_3D('',#1026,#842,#843);
#690=AXIS2_PLACEMENT_3D('',#1030,#846,#847);
#691=AXIS2_PLACEMENT_3D('',#1032,#849,#850);
#692=DIRECTION('axis',(0.,0.,1.));
#693=DIRECTION('refdir',(1.,0.,0.));
#694=DIRECTION('center_axis',(0.,0.707106781186548,-0.707106781186547));
#695=DIRECTION('ref_axis',(0.,-0.707106781186547,-0.707106781186548));
#696=DIRECTION('',(0.,0.707106781186547,0.707106781186548));
#697=DIRECTION('',(-1.,0.,0.));
#698=DIRECTION('',(0.,-0.707106781186547,-0.707106781186548));
#699=DIRECTION('',(1.,0.,0.));
#700=DIRECTION('center_axis',(0.,-0.707106781186548,-0.707106781186548));
#701=DIRECTION('ref_axis',(0.,-0.707106781186548,0.707106781186548));
#702=DIRECTION('',(0.,0.707106781186548,-0.707106781186548));
#703=DIRECTION('',(-1.,0.,0.));
#704=DIRECTION('',(0.,-0.707106781186548,0.707106781186548));
#705=DIRECTION('center_axis',(0.,0.707106781186547,-0.707106781186548));
#706=DIRECTION('ref_axis',(0.,-0.707106781186548,-0.707106781186547));
#707=DIRECTION('',(0.,0.707106781186548,0.707106781186547));
#708=DIRECTION('',(-1.,0.,0.));
#709=DIRECTION('',(0.,-0.707106781186548,-0.707106781186547));
#710=DIRECTION('',(1.,0.,0.));
#711=DIRECTION('center_axis',(0.,-0.707106781186548,-0.707106781186548));
#712=DIRECTION('ref_axis',(0.,-0.707106781186548,0.707106781186548));
#713=DIRECTION('',(0.,0.707106781186548,-0.707106781186548));
#714=DIRECTION('',(-1.,0.,0.));
#715=DIRECTION('',(0.,-0.707106781186548,0.707106781186548));
#716=DIRECTION('center_axis',(0.,0.707106781186546,-0.707106781186549));
#717=DIRECTION('ref_axis',(0.,-0.707106781186549,-0.707106781186546));
#718=DIRECTION('',(0.,0.707106781186549,0.707106781186546));
#719=DIRECTION('',(-1.,0.,0.));
#720=DIRECTION('',(0.,-0.707106781186549,-0.707106781186546));
#721=DIRECTION('',(1.,0.,0.));
#722=DIRECTION('center_axis',(0.,-0.707106781186548,-0.707106781186548));
#723=DIRECTION('ref_axis',(0.,-0.707106781186548,0.707106781186548));
#724=DIRECTION('',(0.,0.707106781186548,-0.707106781186548));
#725=DIRECTION('',(-1.,0.,0.));
#726=DIRECTION('',(0.,-0.707106781186548,0.707106781186548));
#727=DIRECTION('center_axis',(0.,0.707106781186546,-0.707106781186549));
#728=DIRECTION('ref_axis',(0.,-0.707106781186549,-0.707106781186546));
#729=DIRECTION('',(0.,0.707106781186549,0.707106781186546));
#730=DIRECTION('',(-1.,0.,0.));
#731=DIRECTION('',(0.,-0.707106781186549,-0.707106781186546));
#732=DIRECTION('',(1.,0.,0.));
#733=DIRECTION('center_axis',(0.,-0.707106781186548,-0.707106781186548));
#734=DIRECTION('ref_axis',(0.,-0.707106781186548,0.707106781186548));
#735=DIRECTION('',(0.,0.707106781186548,-0.707106781186548));
#736=DIRECTION('',(-1.,0.,0.));
#737=DIRECTION('',(0.,-0.707106781186548,0.707106781186548));
#738=DIRECTION('center_axis',(0.,0.707106781186548,-0.707106781186548));
#739=DIRECTION('ref_axis',(0.,-0.707106781186548,-0.707106781186548));
#740=DIRECTION('',(0.,0.707106781186547,0.707106781186547));
#741=DIRECTION('',(-1.,0.,0.));
#742=DIRECTION('',(0.,-0.707106781186548,-0.707106781186548));
#743=DIRECTION('',(1.,0.,0.));
#744=DIRECTION('center_axis',(0.,-0.707106781186548,-0.707106781186548));
#745=DIRECTION('ref_axis',(0.,-0.707106781186548,0.707106781186548));
#746=DIRECTION('',(0.,0.707106781186548,-0.707106781186548));
#747=DIRECTION('',(-1.,0.,0.));
#748=DIRECTION('',(0.,-0.707106781186548,0.707106781186548));
#749=DIRECTION('center_axis',(0.,0.,1.));
#750=DIRECTION('ref_axis',(1.,0.,0.));
#751=DIRECTION('',(0.,1.,0.));
#752=DIRECTION('',(-1.,0.,0.));
#753=DIRECTION('',(0.,-1.,0.));
#754=DIRECTION('center_axis',(0.,0.,1.));
#755=DIRECTION('ref_axis',(1.,0.,0.));
#756=DIRECTION('',(0.,1.,0.));
#757=DIRECTION('',(0.,-1.,0.));
#758=DIRECTION('center_axis',(0.,0.,1.));
#759=DIRECTION('ref_axis',(1.,0.,0.));
#760=DIRECTION('',(0.,-1.,0.));
#761=DIRECTION('',(1.,0.,0.));
#762=DIRECTION('',(0.,1.,0.));
#763=DIRECTION('center_axis',(0.,0.,1.));
#764=DIRECTION('ref_axis',(1.,0.,0.));
#765=DIRECTION('',(0.,1.,0.));
#766=DIRECTION('',(0.,-1.,0.));
#767=DIRECTION('center_axis',(0.,0.,1.));
#768=DIRECTION('ref_axis',(1.,0.,0.));
#769=DIRECTION('',(0.,-1.,0.));
#770=DIRECTION('',(0.,1.,0.));
#771=DIRECTION('center_axis',(0.,0.,1.));
#772=DIRECTION('ref_axis',(1.,0.,0.));
#773=DIRECTION('',(0.,-1.,0.));
#774=DIRECTION('',(0.,1.,0.));
#775=DIRECTION('center_axis',(1.,0.,0.));
#776=DIRECTION('ref_axis',(0.,1.,0.));
#777=DIRECTION('',(0.,0.,1.));
#778=DIRECTION('',(0.,-1.,0.));
#779=DIRECTION('',(0.,0.,1.));
#780=DIRECTION('center_axis',(0.,0.,1.));
#781=DIRECTION('ref_axis',(-1.,0.,0.));
#782=DIRECTION('',(0.,1.,0.));
#783=DIRECTION('',(1.,0.,0.));
#784=DIRECTION('',(-1.,0.,0.));
#785=DIRECTION('center_axis',(0.,0.,1.));
#786=DIRECTION('ref_axis',(-1.,0.,0.));
#787=DIRECTION('',(0.,-1.,0.));
#788=DIRECTION('',(-1.,0.,0.));
#789=DIRECTION('',(0.,1.,0.));
#790=DIRECTION('',(1.,0.,0.));
#791=DIRECTION('center_axis',(-1.,0.,0.));
#792=DIRECTION('ref_axis',(0.,-1.,0.));
#793=DIRECTION('',(0.,0.,1.));
#794=DIRECTION('',(0.,0.,1.));
#795=DIRECTION('center_axis',(0.,1.,0.));
#796=DIRECTION('ref_axis',(-1.,0.,0.));
#797=DIRECTION('',(1.,0.,0.));
#798=DIRECTION('center_axis',(0.,-1.,0.));
#799=DIRECTION('ref_axis',(1.,0.,0.));
#800=DIRECTION('',(-1.,0.,0.));
#801=DIRECTION('center_axis',(0.,0.,1.));
#802=DIRECTION('ref_axis',(0.,1.,0.));
#803=DIRECTION('',(0.,-1.,0.));
#804=DIRECTION('',(1.,0.,0.));
#805=DIRECTION('',(0.,1.,0.));
#806=DIRECTION('center_axis',(0.,0.,1.));
#807=DIRECTION('ref_axis',(0.,1.,0.));
#808=DIRECTION('',(0.,1.,0.));
#809=DIRECTION('',(-1.,0.,0.));
#810=DIRECTION('',(0.,-1.,0.));
#811=DIRECTION('center_axis',(0.,0.,1.));
#812=DIRECTION('ref_axis',(0.,1.,0.));
#813=DIRECTION('',(0.,1.,0.));
#814=DIRECTION('',(1.,0.,0.));
#815=DIRECTION('',(0.,-1.,0.));
#816=DIRECTION('',(-1.,0.,0.));
#817=DIRECTION('center_axis',(1.,0.,0.));
#818=DIRECTION('ref_axis',(0.,-1.,0.));
#819=DIRECTION('',(0.,0.,-1.));
#820=DIRECTION('',(0.,-1.,0.));
#821=DIRECTION('',(0.,0.,-1.));
#822=DIRECTION('center_axis',(0.,-1.,0.));
#823=DIRECTION('ref_axis',(-1.,0.,0.));
#824=DIRECTION('',(-1.,0.,0.));
#825=DIRECTION('',(0.,0.,-1.));
#826=DIRECTION('center_axis',(-1.,0.,0.));
#827=DIRECTION('ref_axis',(0.,1.,0.));
#828=DIRECTION('',(0.,1.,0.));
#829=DIRECTION('',(0.,0.,-1.));
#830=DIRECTION('center_axis',(0.,1.,0.));
#831=DIRECTION('ref_axis',(1.,0.,0.));
#832=DIRECTION('',(1.,0.,0.));
#833=DIRECTION('center_axis',(-1.,0.,0.));
#834=DIRECTION('ref_axis',(0.,1.,0.));
#835=DIRECTION('',(0.,0.,-1.));
#836=DIRECTION('',(0.,1.,0.));
#837=DIRECTION('',(0.,0.,-1.));
#838=DIRECTION('center_axis',(0.,-1.,0.));
#839=DIRECTION('ref_axis',(-1.,0.,0.));
#840=DIRECTION('',(-1.,0.,0.));
#841=DIRECTION('',(0.,0.,-1.));
#842=DIRECTION('center_axis',(1.,0.,0.));
#843=DIRECTION('ref_axis',(0.,-1.,0.));
#844=DIRECTION('',(0.,-1.,0.));
#845=DIRECTION('',(0.,0.,-1.));
#846=DIRECTION('center_axis',(0.,1.,0.));
#847=DIRECTION('ref_axis',(1.,0.,0.));
#848=DIRECTION('',(1.,0.,0.));
#849=DIRECTION('center_axis',(0.,0.,-1.));
#850=DIRECTION('ref_axis',(-1.,0.,0.));
#851=CARTESIAN_POINT('',(0.,0.,0.));
#852=CARTESIAN_POINT('Origin',(27.0000004023314,1.70000042468309,15.7));
#853=CARTESIAN_POINT('',(17.0000002533197,1.50000002235174,15.4999995976686));
#854=CARTESIAN_POINT('',(17.0000002533197,1.70000042468309,15.7));
#855=CARTESIAN_POINT('',(17.0000002533197,1.27500032968819,15.2749999050051));
#856=CARTESIAN_POINT('',(27.0000004023314,1.50000002235174,15.4999995976686));
#857=CARTESIAN_POINT('',(27.0000004023314,1.50000002235174,15.4999995976686));
#858=CARTESIAN_POINT('',(27.0000004023314,1.70000042468309,15.7));
#859=CARTESIAN_POINT('',(27.0000004023314,0.525000318512322,14.5249998938292));
#860=CARTESIAN_POINT('',(24.5000003650784,1.70000042468309,15.7));
#861=CARTESIAN_POINT('Origin',(27.0000004023314,1.50000002235174,15.4999995976686));
#862=CARTESIAN_POINT('',(17.0000002533197,1.29999997094274,15.6999996490777));
#863=CARTESIAN_POINT('',(17.0000002533197,2.57499992735684,14.4249996926636));
#864=CARTESIAN_POINT('',(27.0000004023314,1.29999997094274,15.6999996490777));
#865=CARTESIAN_POINT('',(24.5000003650784,1.29999962002039,15.7));
#866=CARTESIAN_POINT('',(27.0000004023314,1.82499991618097,15.1749997038394));
#867=CARTESIAN_POINT('Origin',(27.0000004023314,1.10000032633543,15.7));
#868=CARTESIAN_POINT('',(17.0000002533197,0.899999979883432,15.499999653548));
#869=CARTESIAN_POINT('',(17.0000002533197,1.10000032633543,15.7));
#870=CARTESIAN_POINT('',(17.0000002533197,0.825000255927444,15.424999929592));
#871=CARTESIAN_POINT('',(27.0000004023314,0.899999979883432,15.499999653548));
#872=CARTESIAN_POINT('',(27.0000004023314,0.899999979883432,15.499999653548));
#873=CARTESIAN_POINT('',(27.0000004023314,1.10000032633543,15.7));
#874=CARTESIAN_POINT('',(27.0000004023314,0.0750002447515728,14.6749999184161));
#875=CARTESIAN_POINT('',(24.5000003650784,1.10000032633543,15.7));
#876=CARTESIAN_POINT('Origin',(27.0000004023314,0.899999979883432,15.499999653548));
#877=CARTESIAN_POINT('',(17.0000002533197,0.699999984353781,15.6999996490777));
#878=CARTESIAN_POINT('',(17.0000002533197,2.12499990947545,14.274999723956));
#879=CARTESIAN_POINT('',(27.0000004023314,0.699999984353781,15.6999996490777));
#880=CARTESIAN_POINT('',(24.5000003650784,0.699999633431435,15.7));
#881=CARTESIAN_POINT('',(27.0000004023314,1.37499989829957,15.0249997351319));
#882=CARTESIAN_POINT('Origin',(27.0000004023314,2.30000041127205,15.7));
#883=CARTESIAN_POINT('',(17.0000002533197,2.1000000089407,15.4999995976686));
#884=CARTESIAN_POINT('',(17.0000002533197,2.30000041127205,15.7));
#885=CARTESIAN_POINT('',(17.0000002533197,1.72500031962991,15.1249999083579));
#886=CARTESIAN_POINT('',(27.0000004023314,2.1000000089407,15.4999995976686));
#887=CARTESIAN_POINT('',(27.0000004023314,2.1000000089407,15.4999995976686));
#888=CARTESIAN_POINT('',(27.0000004023314,2.30000041127205,15.7));
#889=CARTESIAN_POINT('',(27.0000004023314,0.975000308454035,14.374999897182));
#890=CARTESIAN_POINT('',(24.5000003650784,2.30000041127205,15.7));
#891=CARTESIAN_POINT('Origin',(27.0000004023314,2.1000000089407,15.4999995976686));
#892=CARTESIAN_POINT('',(17.0000002533197,1.89999995753169,15.6999996490777));
#893=CARTESIAN_POINT('',(17.0000002533197,3.02499991729856,14.5749996893108));
#894=CARTESIAN_POINT('',(27.0000004023314,1.89999995753169,15.6999996490777));
#895=CARTESIAN_POINT('',(24.5000003650784,1.89999960660934,15.7));
#896=CARTESIAN_POINT('',(27.0000004023314,2.27499990612268,15.3249997004867));
#897=CARTESIAN_POINT('Origin',(27.0000004023314,0.500000339746477,15.7));
#898=CARTESIAN_POINT('',(17.0000002533197,0.299999993294477,15.499999653548));
#899=CARTESIAN_POINT('',(17.0000002533197,0.500000339746477,15.7));
#900=CARTESIAN_POINT('',(17.0000002533197,0.375000265985732,15.5749999262393));
#901=CARTESIAN_POINT('',(27.0000004023314,0.299999993294477,15.499999653548));
#902=CARTESIAN_POINT('',(27.0000004023314,0.299999993294477,15.499999653548));
#903=CARTESIAN_POINT('',(27.0000004023314,0.500000339746477,15.7));
#904=CARTESIAN_POINT('',(27.0000004023314,-0.374999745190143,14.8249999150634));
#905=CARTESIAN_POINT('',(24.5000003650784,0.500000339746477,15.7));
#906=CARTESIAN_POINT('Origin',(27.0000004023314,0.299999993294477,15.499999653548));
#907=CARTESIAN_POINT('',(17.0000002533197,0.0999999977648258,15.6999996490777));
#908=CARTESIAN_POINT('',(17.0000002533197,1.67499991953373,14.1249997273088));
#909=CARTESIAN_POINT('',(27.0000004023314,0.0999999977648258,15.6999996490777));
#910=CARTESIAN_POINT('',(24.5000003650784,0.0999996468424796,15.7));
#911=CARTESIAN_POINT('',(27.0000004023314,0.924999908357859,14.8749997384846));
#912=CARTESIAN_POINT('Origin',(27.0000004023314,2.900000397861,15.7));
#913=CARTESIAN_POINT('',(17.0000002533197,2.69999999552965,15.4999995976686));
#914=CARTESIAN_POINT('',(17.0000002533197,2.900000397861,15.7));
#915=CARTESIAN_POINT('',(17.0000002533197,2.17500030957162,14.9749999117106));
#916=CARTESIAN_POINT('',(27.0000004023314,2.69999999552965,15.4999995976686));
#917=CARTESIAN_POINT('',(27.0000004023314,2.69999999552965,15.4999995976686));
#918=CARTESIAN_POINT('',(27.0000004023314,2.900000397861,15.7));
#919=CARTESIAN_POINT('',(27.0000004023314,1.42500029839575,14.2249999005347));
#920=CARTESIAN_POINT('',(24.5000003650784,2.900000397861,15.7));
#921=CARTESIAN_POINT('Origin',(27.0000004023314,2.69999999552965,15.4999995976686));
#922=CARTESIAN_POINT('',(17.0000002533197,2.49999994412065,15.6999996490777));
#923=CARTESIAN_POINT('',(17.0000002533197,3.47499990724027,14.724999685958));
#924=CARTESIAN_POINT('',(27.0000004023314,2.49999994412065,15.6999996490777));
#925=CARTESIAN_POINT('',(24.5000003650784,2.4999995931983,15.7));
#926=CARTESIAN_POINT('',(27.0000004023314,2.7249998960644,15.4749996971339));
#927=CARTESIAN_POINT('Origin',(22.0000003278255,1.50000002235174,15.7));
#928=CARTESIAN_POINT('',(27.0000004023314,3.00000004470348,15.7));
#929=CARTESIAN_POINT('',(27.0000004023314,3.00000004470348,15.7));
#930=CARTESIAN_POINT('',(17.0000002533197,3.00000004470348,15.7));
#931=CARTESIAN_POINT('',(17.0000002533197,3.00000004470348,15.7));
#932=CARTESIAN_POINT('',(17.0000002533197,0.,15.7));
#933=CARTESIAN_POINT('Origin',(22.0000003278255,1.50000002235174,15.7));
#934=CARTESIAN_POINT('',(27.0000004023314,3.00000004470348,15.7));
#935=CARTESIAN_POINT('',(17.0000002533197,0.,15.7));
#936=CARTESIAN_POINT('Origin',(22.0000003278255,1.50000002235174,15.7));
#937=CARTESIAN_POINT('',(17.0000002533197,0.,15.7));
#938=CARTESIAN_POINT('',(17.0000002533197,0.,15.7));
#939=CARTESIAN_POINT('',(27.0000004023314,0.,15.7));
#940=CARTESIAN_POINT('',(27.0000004023314,0.,15.7));
#941=CARTESIAN_POINT('',(27.0000004023314,3.00000004470348,15.7));
#942=CARTESIAN_POINT('Origin',(22.0000003278255,1.50000002235174,15.7));
#943=CARTESIAN_POINT('',(27.0000004023314,3.00000004470348,15.7));
#944=CARTESIAN_POINT('',(17.0000002533197,0.,15.7));
#945=CARTESIAN_POINT('Origin',(22.0000003278255,1.50000002235174,15.7));
#946=CARTESIAN_POINT('',(17.0000002533197,0.,15.7));
#947=CARTESIAN_POINT('',(27.0000004023314,3.00000004470348,15.7));
#948=CARTESIAN_POINT('Origin',(22.0000003278255,1.50000002235174,15.7));
#949=CARTESIAN_POINT('',(17.0000002533197,0.,15.7));
#950=CARTESIAN_POINT('',(27.0000004023314,3.00000004470348,15.7));
#951=CARTESIAN_POINT('Origin',(27.0000004023314,0.,12.7));
#952=CARTESIAN_POINT('',(27.0000004023314,0.,12.7));
#953=CARTESIAN_POINT('',(27.0000004023314,0.,12.7));
#954=CARTESIAN_POINT('',(27.0000004023314,3.00000004470348,12.7));
#955=CARTESIAN_POINT('',(27.0000004023314,3.00000004470348,12.7));
#956=CARTESIAN_POINT('',(27.0000004023314,3.00000004470348,12.7));
#957=CARTESIAN_POINT('Origin',(22.0000003278255,1.50000002235174,12.7));
#958=CARTESIAN_POINT('',(24.6999994702637,0.,12.7));
#959=CARTESIAN_POINT('',(24.6999994702637,3.00000004470348,12.7));
#960=CARTESIAN_POINT('',(24.6999994702637,1.50000000447035,12.7));
#961=CARTESIAN_POINT('',(17.0000002533197,3.00000004470348,12.7));
#962=CARTESIAN_POINT('',(27.0000004023314,0.,12.7));
#963=CARTESIAN_POINT('Origin',(22.0000003278255,1.50000002235174,12.7));
#964=CARTESIAN_POINT('',(19.2999994702637,3.00000004470348,12.7));
#965=CARTESIAN_POINT('',(19.2999994702637,0.,12.7));
#966=CARTESIAN_POINT('',(19.2999994702637,1.50000000447035,12.7));
#967=CARTESIAN_POINT('',(17.0000002533197,0.,12.7));
#968=CARTESIAN_POINT('',(27.0000004023314,0.,12.7));
#969=CARTESIAN_POINT('',(17.0000002533197,3.00000004470348,12.7));
#970=CARTESIAN_POINT('',(17.0000002533197,0.,12.7));
#971=CARTESIAN_POINT('',(17.0000002533197,3.00000004470348,12.7));
#972=CARTESIAN_POINT('Origin',(17.0000002533197,3.00000004470348,12.7));
#973=CARTESIAN_POINT('',(17.0000002533197,3.00000004470348,12.7));
#974=CARTESIAN_POINT('',(17.0000002533197,0.,12.7));
#975=CARTESIAN_POINT('Origin',(27.0000004023314,3.00000004470348,12.7));
#976=CARTESIAN_POINT('',(24.4999999362975,3.00000004470348,12.7));
#977=CARTESIAN_POINT('Origin',(17.0000002533197,0.,12.7));
#978=CARTESIAN_POINT('',(19.4999998617917,0.,12.7));
#979=CARTESIAN_POINT('Origin',(21.9999994702637,1.50000000447035,12.7));
#980=CARTESIAN_POINT('',(19.2999994702637,-1.19999999552965,12.7));
#981=CARTESIAN_POINT('',(19.2999994702637,1.50000000447035,12.7));
#982=CARTESIAN_POINT('',(24.6999994702637,-1.19999999552965,12.7));
#983=CARTESIAN_POINT('',(21.9999994702637,-1.19999999552965,12.7));
#984=CARTESIAN_POINT('',(24.6999994702637,1.50000000447035,12.7));
#985=CARTESIAN_POINT('Origin',(21.9999994702637,1.50000000447035,12.7));
#986=CARTESIAN_POINT('',(24.6999994702637,4.20000000447035,12.7));
#987=CARTESIAN_POINT('',(24.6999994702637,1.50000000447035,12.7));
#988=CARTESIAN_POINT('',(19.2999994702637,4.20000000447035,12.7));
#989=CARTESIAN_POINT('',(21.9999994702637,4.20000000447035,12.7));
#990=CARTESIAN_POINT('',(19.2999994702637,1.50000000447035,12.7));
#991=CARTESIAN_POINT('Origin',(21.9999994702637,1.50000000447035,11.));
#992=CARTESIAN_POINT('',(20.2999995462596,-0.199999995529652,11.));
#993=CARTESIAN_POINT('',(20.2999995462596,3.19999992847443,11.));
#994=CARTESIAN_POINT('',(20.2999995462596,-0.199999995529652,11.));
#995=CARTESIAN_POINT('',(23.6999994702637,3.19999992847443,11.));
#996=CARTESIAN_POINT('',(20.2999995462596,3.19999992847443,11.));
#997=CARTESIAN_POINT('',(23.6999994702637,-0.199999995529652,11.));
#998=CARTESIAN_POINT('',(23.6999994702637,3.19999992847443,11.));
#999=CARTESIAN_POINT('',(23.6999994702637,-0.199999995529652,11.));
#1000=CARTESIAN_POINT('Origin',(20.2999995462596,3.19999992847443,11.));
#1001=CARTESIAN_POINT('',(20.2999995462596,-0.199999995529652,8.5));
#1002=CARTESIAN_POINT('',(20.2999995462596,-0.199999995529652,11.));
#1003=CARTESIAN_POINT('',(20.2999995462596,3.19999992847443,8.5));
#1004=CARTESIAN_POINT('',(20.2999995462596,-0.199999995529652,8.5));
#1005=CARTESIAN_POINT('',(20.2999995462596,3.19999992847443,11.));
#1006=CARTESIAN_POINT('Origin',(23.6999994702637,3.19999992847443,11.));
#1007=CARTESIAN_POINT('',(23.6999994702637,3.19999992847443,8.5));
#1008=CARTESIAN_POINT('',(20.2999995462596,3.19999992847443,8.5));
#1009=CARTESIAN_POINT('',(23.6999994702637,3.19999992847443,11.));
#1010=CARTESIAN_POINT('Origin',(23.6999994702637,-0.199999995529652,11.));
#1011=CARTESIAN_POINT('',(23.6999994702637,-0.199999995529652,8.5));
#1012=CARTESIAN_POINT('',(23.6999994702637,3.19999992847443,8.5));
#1013=CARTESIAN_POINT('',(23.6999994702637,-0.199999995529652,11.));
#1014=CARTESIAN_POINT('Origin',(20.2999995462596,-0.199999995529652,11.));
#1015=CARTESIAN_POINT('',(23.6999994702637,-0.199999995529652,8.5));
#1016=CARTESIAN_POINT('Origin',(19.2999995462596,-1.19999999552965,11.));
#1017=CARTESIAN_POINT('',(19.2999995462596,4.19999992847443,8.5));
#1018=CARTESIAN_POINT('',(19.2999994702637,4.20000000447035,11.85));
#1019=CARTESIAN_POINT('',(19.2999995462596,-1.19999999552965,8.5));
#1020=CARTESIAN_POINT('',(19.2999995462596,-1.19999999552965,8.5));
#1021=CARTESIAN_POINT('',(19.2999994702637,-1.19999999552965,11.85));
#1022=CARTESIAN_POINT('Origin',(24.6999994702637,-1.19999999552965,11.));
#1023=CARTESIAN_POINT('',(24.6999994702637,-1.19999999552965,8.5));
#1024=CARTESIAN_POINT('',(24.6999994702637,-1.19999999552965,8.5));
#1025=CARTESIAN_POINT('',(24.6999994702637,-1.19999999552965,11.85));
#1026=CARTESIAN_POINT('Origin',(24.6999994702637,4.19999992847443,11.));
#1027=CARTESIAN_POINT('',(24.6999994702637,4.19999992847443,8.5));
#1028=CARTESIAN_POINT('',(24.6999994702637,4.19999992847443,8.5));
#1029=CARTESIAN_POINT('',(24.6999994702637,4.19999992847443,11.));
#1030=CARTESIAN_POINT('Origin',(19.2999995462596,4.19999992847443,11.));
#1031=CARTESIAN_POINT('',(19.2999995462596,4.19999992847443,8.5));
#1032=CARTESIAN_POINT('Origin',(21.9999995082617,1.49999996647239,8.5));
#1033=UNCERTAINTY_MEASURE_WITH_UNIT(LENGTH_MEASURE(0.01),#1037,
'DISTANCE_ACCURACY_VALUE',
'Maximum model space distance between geometric entities at asserted c
onnectivities');
#1034=UNCERTAINTY_MEASURE_WITH_UNIT(LENGTH_MEASURE(0.01),#1037,
'DISTANCE_ACCURACY_VALUE',
'Maximum model space distance between geometric entities at asserted c
onnectivities');
#1035=(
GEOMETRIC_REPRESENTATION_CONTEXT(3)
GLOBAL_UNCERTAINTY_ASSIGNED_CONTEXT((#1033))
GLOBAL_UNIT_ASSIGNED_CONTEXT((#1037,#1038,#1039))
REPRESENTATION_CONTEXT('','3D')
);
#1036=(
GEOMETRIC_REPRESENTATION_CONTEXT(3)
GLOBAL_UNCERTAINTY_ASSIGNED_CONTEXT((#1034))
GLOBAL_UNIT_ASSIGNED_CONTEXT((#1037,#1038,#1039))
REPRESENTATION_CONTEXT('','3D')
);
#1037=(
LENGTH_UNIT()
NAMED_UNIT(*)
SI_UNIT(.MILLI.,.METRE.)
);
#1038=(
NAMED_UNIT(*)
PLANE_ANGLE_UNIT()
SI_UNIT($,.RADIAN.)
);
#1039=(
NAMED_UNIT(*)
SI_UNIT($,.STERADIAN.)
SOLID_ANGLE_UNIT()
);
#1040=SHAPE_DEFINITION_REPRESENTATION(#1041,#1042);
#1041=PRODUCT_DEFINITION_SHAPE('',$,#1044);
#1042=SHAPE_REPRESENTATION('',(#657),#1035);
#1043=PRODUCT_DEFINITION_CONTEXT('part definition',#1048,'design');
#1044=PRODUCT_DEFINITION('BoostBox','BoostBox v7',#1045,#1043);
#1045=PRODUCT_DEFINITION_FORMATION('',$,#1050);
#1046=PRODUCT_RELATED_PRODUCT_CATEGORY('BoostBox v7','BoostBox v7',(#1050));
#1047=APPLICATION_PROTOCOL_DEFINITION('international standard',
'automotive_design',2009,#1048);
#1048=APPLICATION_CONTEXT(
'Core Data for Automotive Mechanical Design Process');
#1049=PRODUCT_CONTEXT('part definition',#1048,'mechanical');
#1050=PRODUCT('BoostBox','BoostBox v7',$,(#1049));
#1051=PRESENTATION_STYLE_ASSIGNMENT((#1052));
#1052=SURFACE_STYLE_USAGE(.BOTH.,#1053);
#1053=SURFACE_SIDE_STYLE('',(#1054));
#1054=SURFACE_STYLE_FILL_AREA(#1055);
#1055=FILL_AREA_STYLE('Acciaio - Satinato',(#1056));
#1056=FILL_AREA_STYLE_COLOUR('Acciaio - Satinato',#1057);
#1057=COLOUR_RGB('Acciaio - Satinato',0.627450980392157,0.627450980392157,
0.627450980392157);
ENDSEC;
END-ISO-10303-21;
